<?xml version="1.0" encoding="utf-8"?><!-- Generator: Adobe Illustrator 22.1.0, SVG Export Plug-In . SVG Version: 6.00 Build 0)  --><svg version="1.1" id="Layer_1" xmlns="http://www.w3.org/2000/svg" xmlns:xlink="http://www.w3.org/1999/xlink" x="0px" y="0px"	 viewBox="0 0 313.2 288.5" style="enable-background:new 0 0 313.2 288.5;" xml:space="preserve"><style type="text/css">	.st0{fill:#DA291C;}	.st1{fill:#FFFFFF;}</style><path class="st0" d="M0,0v288.5C65.3,175.9,172.3,71.3,313.2,0H0z"/><path class="st1" d="M114.4,74.4c0,16.7-10.1,26.8-20.9,26.8c-7.5,0-12.4-2.7-14-4.1c12.6-5,26.8-19.2,26.8-36.1	c0-5.3-1.6-10-3.1-13C109.9,54.6,114.4,63.8,114.4,74.4 M51.1,48.6c3-1.4,7.6-3.1,13-3.1c16.8,0,31.1,14.2,36.1,26.8	c1.4-1.6,4.1-6.4,4.1-14c0-10.8-10.1-20.8-26.8-20.8C66.8,37.5,57.5,42,51.1,48.6 M51.5,100.8c-1.4-3-3.1-7.6-3.1-13	c0-16.8,14.2-31.1,26.8-36.1c-1.6-1.4-6.4-4.1-14-4.1c-10.8,0-20.8,10.1-20.8,26.8C40.5,85.1,45,94.4,51.5,100.8 M103.8,100.4	c-3,1.4-7.6,3.1-13,3.1c-16.8,0-31.1-14.2-36.1-26.8c-1.4,1.6-4.1,6.4-4.1,14c0,10.8,10.1,20.9,26.8,20.9	C88.1,111.4,97.3,106.9,103.8,100.4"/></svg>