<?xml version="1.0" standalone="no"?>
<!DOCTYPE svg PUBLIC "-//W3C//DTD SVG 1.1//EN" "http://www.w3.org/Graphics/SVG/1.1/DTD/svg11.dtd" >
<svg>
<metadata>
Created by FontForge 20120731 at Mon Jun 27 19:06:04 2016
 By ,,,
Copyright (c) 2015 Rogers Communications
</metadata>
<defs>
<font id="TedNext-Italic" horiz-adv-x="250" >
  <font-face 
    font-family="Ted Next"
    font-weight="400"
    font-style="italic"
    font-stretch="normal"
    units-per-em="1000"
    panose-1="2 0 5 7 0 0 0 0 0 4"
    ascent="800"
    descent="-200"
    x-height="468"
    cap-height="708"
    bbox="-245 -250 1033 948"
    underline-thickness="50"
    underline-position="-50"
    slope="-10"
    unicode-range="U+000D-FB04"
  />
<missing-glyph horiz-adv-x="512" 
d="M0 718h512v-718h-512v718zM462 50v617h-412v-617h412zM223 251q0 38 5 60t17 38.5t37 41.5q31 31 40.5 47t9.5 36q0 36 -22.5 60.5t-53.5 24.5q-33 0 -54.5 -23t-27.5 -72l-50 8q7 69 43 103t92 34q54 0 89 -36t35 -95q0 -33 -13 -60t-50 -60q-26 -24 -35.5 -37.5
t-11.5 -28.5t-2 -58h-46zM222 184h56v-67h-56v67z" />
    <glyph glyph-name="f_f" unicode="ff" horiz-adv-x="578" 
d="M709 757l-16 -48q-13 4 -33.5 7.5t-39.5 3.5q-48 0 -75 -32.5t-37 -84.5l-23 -135h122l-19 -45h-110l-75 -423h-57l75 423h-222l-76 -423h-56l75 423h-97l20 45h83l24 136q14 85 60 125t114 40q23 0 47 -3.5t37 -8.5l-17 -48q-36 11 -73 11q-47 0 -74 -32.5t-37 -84.5
l-24 -135h222l24 136q14 85 60 125t114 40q23 0 47 -3.5t37 -8.5z" />
    <glyph glyph-name="f_f_i" unicode="ffi" horiz-adv-x="816" 
d="M709 757l-16 -48q-13 4 -33.5 7.5t-39.5 3.5q-48 0 -75 -32.5t-37 -84.5l-23 -135h122l-19 -45h-110l-75 -423h-57l75 423h-222l-76 -423h-56l75 423h-97l20 45h83l24 136q14 85 60 125t114 40q23 0 47 -3.5t37 -8.5l-17 -48q-36 11 -73 11q-47 0 -74 -32.5t-37 -84.5
l-24 -135h222l24 136q14 85 60 125t114 40q23 0 47 -3.5t37 -8.5zM718 652q0 19 13 32t30 13t27.5 -10.5t10.5 -27.5q0 -19 -12 -32t-30 -13q-17 0 -28 10t-11 28zM702 468h58l-83 -468h-57z" />
    <glyph glyph-name="f_f_l" unicode="ffl" horiz-adv-x="816" 
d="M709 757l-16 -48q-13 4 -33.5 7.5t-39.5 3.5q-48 0 -75 -32.5t-37 -84.5l-23 -135h122l-19 -45h-110l-75 -423h-57l75 423h-222l-76 -423h-56l75 423h-97l20 45h83l24 136q14 85 60 125t114 40q23 0 47 -3.5t37 -8.5l-17 -48q-36 11 -73 11q-47 0 -74 -32.5t-37 -84.5
l-24 -135h222l24 136q14 85 60 125t114 40q23 0 47 -3.5t37 -8.5zM634 75q0 17 3 29l114 647l61 11l-114 -645q-3 -16 -3 -29q-1 -19 6 -30.5t25 -21.5l-34 -47q-27 10 -42.5 32t-15.5 54z" />
    <glyph glyph-name="fi" unicode="fi" horiz-adv-x="535" 
d="M142 423h-97l20 45h83l24 136q14 85 60 125t114 40q23 0 47 -3.5t37 -8.5l-17 -48q-36 11 -73 11q-47 0 -74 -32.5t-37 -84.5l-24 -135h123l-19 -45h-110l-76 -423h-56zM437 652q0 19 13 32t30 13t27.5 -10.5t10.5 -27.5q0 -19 -12 -32t-30 -13q-17 0 -28 10t-11 28z
M421 468h58l-83 -468h-57z" />
    <glyph glyph-name="fl" unicode="fl" horiz-adv-x="535" 
d="M142 423h-97l20 45h83l24 136q14 85 60 125t114 40q23 0 47 -3.5t37 -8.5l-17 -48q-36 11 -73 11q-47 0 -74 -32.5t-37 -84.5l-24 -135h123l-19 -45h-110l-76 -423h-56zM353 75q0 17 3 29l114 647l61 11l-114 -645q-3 -16 -3 -29q-1 -19 6 -30.5t25 -21.5l-34 -47
q-27 10 -42.5 32t-15.5 54z" />
    <glyph glyph-name=".notdef" horiz-adv-x="512" 
d="M0 718h512v-718h-512v718zM462 50v617h-412v-617h412zM223 251q0 38 5 60t17 38.5t37 41.5q31 31 40.5 47t9.5 36q0 36 -22.5 60.5t-53.5 24.5q-33 0 -54.5 -23t-27.5 -72l-50 8q7 69 43 103t92 34q54 0 89 -36t35 -95q0 -33 -13 -60t-50 -60q-26 -24 -35.5 -37.5
t-11.5 -28.5t-2 -58h-46zM222 184h56v-67h-56v67z" />
    <glyph glyph-name="NULL" horiz-adv-x="0" 
 />
    <glyph glyph-name="nonmarkingreturn" unicode="&#xd;" 
 />
    <glyph glyph-name="space" unicode=" " 
 />
    <glyph glyph-name="A" unicode="A" horiz-adv-x="662" 
d="M406 708h65l133 -708h-62l-48 261h-310l-163 -261h-69zM486 311l-59 336l-214 -336h273z" />
    <glyph glyph-name="Aacute" unicode="&#xc1;" horiz-adv-x="662" 
d="M406 708h65l133 -708h-62l-48 261h-310l-163 -261h-69zM486 311l-59 336l-214 -336h273zM539 908h67l-147 -144h-47z" />
    <glyph glyph-name="Abreve" unicode="&#x102;" horiz-adv-x="662" 
d="M406 708h65l133 -708h-62l-48 261h-310l-163 -261h-69zM486 311l-59 336l-214 -336h273zM320 902h36q0 -45 24 -67.5t64 -22.5q95 0 120 90h34q-14 -63 -55.5 -97t-100.5 -34q-57 0 -89.5 33.5t-32.5 97.5z" />
    <glyph glyph-name="Acircumflex" unicode="&#xc2;" horiz-adv-x="662" 
d="M406 708h65l133 -708h-62l-48 261h-310l-163 -261h-69zM486 311l-59 336l-214 -336h273zM441 908h62l80 -144h-50l-64 118l-109 -118h-54z" />
    <glyph glyph-name="Adieresis" unicode="&#xc4;" horiz-adv-x="662" 
d="M406 708h65l133 -708h-62l-48 261h-310l-163 -261h-69zM486 311l-59 336l-214 -336h273zM334 851q0 18 12 31t30 13q16 0 26 -10t10 -27q0 -18 -12 -31.5t-29 -13.5q-16 0 -26.5 10t-10.5 28zM508 851q0 18 12 31t29 13q16 0 27 -10t11 -27q0 -18 -12.5 -31.5
t-29.5 -13.5q-16 0 -26.5 10t-10.5 28z" />
    <glyph glyph-name="Agrave" unicode="&#xc0;" horiz-adv-x="662" 
d="M406 708h65l133 -708h-62l-48 261h-310l-163 -261h-69zM486 311l-59 336l-214 -336h273zM299 908h66l105 -144h-47z" />
    <glyph glyph-name="Amacron" unicode="&#x100;" horiz-adv-x="662" 
d="M406 708h65l133 -708h-62l-48 261h-310l-163 -261h-69zM486 311l-59 336l-214 -336h273zM329 851h260l-7 -40h-259z" />
    <glyph glyph-name="Aogonek" unicode="&#x104;" horiz-adv-x="662" 
d="M422 -157q0 40 29.5 75.5t90.5 81.5l-35 188h-368l-118 -188h-69l454 708h65l133 -708h-22q-62 -53 -87.5 -84t-25.5 -61q0 -20 13 -31t35 -11q18 0 35.5 7t31.5 19l11 -30q-44 -34 -91 -34q-35 0 -58.5 17.5t-23.5 50.5zM499 239l-72 408l-258 -408h330z" />
    <glyph glyph-name="Aring" unicode="&#xc5;" horiz-adv-x="662" 
d="M406 708h65l133 -708h-62l-48 261h-310l-163 -261h-69zM486 311l-59 336l-214 -336h273zM366 835q0 46 29.5 79.5t76.5 33.5q40 0 62.5 -22.5t22.5 -58.5q0 -47 -29.5 -80t-76.5 -33q-40 0 -62.5 22.5t-22.5 58.5zM530 864q0 25 -15.5 42t-43.5 17q-34 0 -56 -25t-22 -61
q0 -25 15 -41.5t44 -16.5q34 0 56 25t22 60z" />
    <glyph glyph-name="Atilde" unicode="&#xc3;" horiz-adv-x="662" 
d="M406 708h65l133 -708h-62l-48 261h-310l-163 -261h-69zM486 311l-59 336l-214 -336h273zM398 873q26 0 66 -23.5t57 -23.5q34 0 51 48h33q-12 -40 -36 -64t-55 -24q-25 0 -61 23.5t-62 23.5q-33 0 -52 -49h-33q13 41 37 65t55 24z" />
    <glyph glyph-name="AE" unicode="&#xc6;" horiz-adv-x="931" 
d="M543 708h399l-21 -52h-292l-46 -264h287l-21 -51h-275l-51 -289h332l-21 -52h-378l34 196h-292l-159 -196h-71zM499 246l72 410h-5l-331 -410h264z" />
    <glyph glyph-name="AEacute" unicode="&#x1fc;" horiz-adv-x="931" 
d="M543 708h399l-21 -52h-292l-46 -264h287l-21 -51h-275l-51 -289h332l-21 -52h-378l34 196h-292l-159 -196h-71zM499 246l72 410h-5l-331 -410h264zM771 908h67l-147 -144h-47z" />
    <glyph glyph-name="B" unicode="B" horiz-adv-x="619" 
d="M176 708h204q82 0 141 -38t59 -115q0 -72 -43.5 -119t-122.5 -63v-2q57 -8 98 -49.5t41 -107.5q0 -105 -77.5 -159.5t-201.5 -54.5h-223zM326 393q83 0 138.5 38t55.5 111q0 57 -44.5 86.5t-112.5 29.5h-138l-47 -265h148zM271 50q102 0 162.5 42t60.5 123q0 62 -46 97
t-113 35h-165l-52 -297h153z" />
    <glyph glyph-name="C" unicode="C" horiz-adv-x="716" 
d="M73 287q0 122 56.5 223t152.5 159t209 58q72 0 136.5 -24.5t97.5 -60.5l-27 -58q-32 39 -87 64.5t-122 25.5q-99 0 -180 -53.5t-127 -141t-46 -184.5q0 -74 29 -133t87.5 -93t143.5 -34q63 0 123.5 26.5t106.5 69.5l4 -56q-39 -39 -105.5 -66.5t-133.5 -27.5
q-100 0 -172 38.5t-109 108t-37 159.5z" />
    <glyph glyph-name="Cacute" unicode="&#x106;" horiz-adv-x="716" 
d="M73 287q0 122 56.5 223t152.5 159t209 58q72 0 136.5 -24.5t97.5 -60.5l-27 -58q-32 39 -87 64.5t-122 25.5q-99 0 -180 -53.5t-127 -141t-46 -184.5q0 -74 29 -133t87.5 -93t143.5 -34q63 0 123.5 26.5t106.5 69.5l4 -56q-39 -39 -105.5 -66.5t-133.5 -27.5
q-100 0 -172 38.5t-109 108t-37 159.5zM569 908h67l-147 -144h-47z" />
    <glyph glyph-name="Ccaron" unicode="&#x10c;" horiz-adv-x="716" 
d="M73 287q0 122 56.5 223t152.5 159t209 58q72 0 136.5 -24.5t97.5 -60.5l-27 -58q-32 39 -87 64.5t-122 25.5q-99 0 -180 -53.5t-127 -141t-46 -184.5q0 -74 29 -133t87.5 -93t143.5 -34q63 0 123.5 26.5t106.5 69.5l4 -56q-39 -39 -105.5 -66.5t-133.5 -27.5
q-100 0 -172 38.5t-109 108t-37 159.5zM388 908h50l64 -118l110 118h53l-134 -144h-63z" />
    <glyph glyph-name="Ccedilla" unicode="&#xc7;" horiz-adv-x="716" 
d="M725 642l-27 -58q-32 39 -87 64.5t-122 25.5q-99 0 -180 -53.5t-127 -141t-46 -184.5q0 -74 29 -133t87.5 -93t143.5 -34q63 0 123.5 26.5t106.5 69.5l4 -56q-39 -39 -105.5 -66.5t-133.5 -27.5h-4l-52 -60q21 6 41 6q32 0 56 -15.5t24 -49.5q0 -46 -36.5 -68.5
t-89.5 -22.5q-24 0 -52 5.5t-46 15.5l14 29q16 -8 39 -12.5t43 -4.5q39 0 60.5 14.5t21.5 39.5q0 21 -16 31.5t-38 10.5q-13 0 -31 -3.5t-30 -8.5l-13 14l69 81q-88 7 -150.5 47.5t-95 106.5t-32.5 150q0 122 56.5 223t152.5 159t209 58q72 0 136.5 -24.5t97.5 -60.5z" />
    <glyph glyph-name="Ccircumflex" unicode="&#x108;" horiz-adv-x="716" 
d="M73 287q0 122 56.5 223t152.5 159t209 58q72 0 136.5 -24.5t97.5 -60.5l-27 -58q-32 39 -87 64.5t-122 25.5q-99 0 -180 -53.5t-127 -141t-46 -184.5q0 -74 29 -133t87.5 -93t143.5 -34q63 0 123.5 26.5t106.5 69.5l4 -56q-39 -39 -105.5 -66.5t-133.5 -27.5
q-100 0 -172 38.5t-109 108t-37 159.5zM498 908h62l80 -144h-50l-64 118l-109 -118h-54z" />
    <glyph glyph-name="Cdotaccent" unicode="&#x10a;" horiz-adv-x="716" 
d="M73 287q0 122 56.5 223t152.5 159t209 58q72 0 136.5 -24.5t97.5 -60.5l-27 -58q-32 39 -87 64.5t-122 25.5q-99 0 -180 -53.5t-127 -141t-46 -184.5q0 -74 29 -133t87.5 -93t143.5 -34q63 0 123.5 26.5t106.5 69.5l4 -56q-39 -39 -105.5 -66.5t-133.5 -27.5
q-100 0 -172 38.5t-109 108t-37 159.5zM482 851q0 18 12.5 31t29.5 13t27 -10t10 -27q0 -19 -12 -32t-29 -13q-16 0 -27 10.5t-11 27.5z" />
    <glyph glyph-name="D" unicode="D" horiz-adv-x="769" 
d="M176 708h207q92 0 168 -33.5t121.5 -100t45.5 -162.5q0 -132 -59 -225t-160 -140t-228 -47h-220zM273 52q112 0 199 42t135.5 122t48.5 191q0 76 -35 132t-99.5 86.5t-151.5 30.5h-143l-107 -604h153z" />
    <glyph glyph-name="Eth" unicode="&#xd0;" horiz-adv-x="769" 
d="M112 347h-72l8 43h72l56 318h207q92 0 168 -33t121.5 -99.5t45.5 -161.5q0 -133 -59 -226t-160 -140.5t-228 -47.5h-220zM273 52q112 0 199 42t135.5 122t48.5 191q0 76 -35 132t-99.5 86.5t-151.5 30.5h-143l-47 -266h245l-7 -43h-246l-52 -295h153z" />
    <glyph glyph-name="Dcaron" unicode="&#x10e;" horiz-adv-x="769" 
d="M176 708h207q92 0 168 -33.5t121.5 -100t45.5 -162.5q0 -132 -59 -225t-160 -140t-228 -47h-220zM273 52q112 0 199 42t135.5 122t48.5 191q0 76 -35 132t-99.5 86.5t-151.5 30.5h-143l-107 -604h153zM300 908h50l64 -118l110 118h53l-134 -144h-63z" />
    <glyph glyph-name="Dcroat" unicode="&#x110;" horiz-adv-x="769" 
d="M112 347h-72l8 43h72l56 318h207q92 0 168 -33t121.5 -99.5t45.5 -161.5q0 -133 -59 -226t-160 -140.5t-228 -47.5h-220zM273 52q112 0 199 42t135.5 122t48.5 191q0 76 -35 132t-99.5 86.5t-151.5 30.5h-143l-47 -266h245l-7 -43h-246l-52 -295h153z" />
    <glyph glyph-name="E" unicode="E" horiz-adv-x="536" 
d="M176 708h370l-21 -52h-301l-46 -264h296l-21 -51h-284l-50 -289h341l-21 -52h-388z" />
    <glyph glyph-name="Eacute" unicode="&#xc9;" horiz-adv-x="536" 
d="M176 708h370l-21 -52h-301l-46 -264h296l-21 -51h-284l-50 -289h341l-21 -52h-388zM440 908h67l-147 -144h-47z" />
    <glyph glyph-name="Ebreve" unicode="&#x114;" horiz-adv-x="536" 
d="M176 708h370l-21 -52h-301l-46 -264h296l-21 -51h-284l-50 -289h341l-21 -52h-388zM259 902h36q0 -45 24 -67.5t64 -22.5q95 0 120 90h34q-14 -63 -55.5 -97t-100.5 -34q-57 0 -89.5 33.5t-32.5 97.5z" />
    <glyph glyph-name="Ecaron" unicode="&#x11a;" horiz-adv-x="536" 
d="M176 708h370l-21 -52h-301l-46 -264h296l-21 -51h-284l-50 -289h341l-21 -52h-388zM262 908h50l64 -118l110 118h53l-134 -144h-63z" />
    <glyph glyph-name="Ecircumflex" unicode="&#xca;" horiz-adv-x="536" 
d="M176 708h370l-21 -52h-301l-46 -264h296l-21 -51h-284l-50 -289h341l-21 -52h-388zM369 908h62l80 -144h-50l-64 118l-109 -118h-54z" />
    <glyph glyph-name="Edieresis" unicode="&#xcb;" horiz-adv-x="536" 
d="M176 708h370l-21 -52h-301l-46 -264h296l-21 -51h-284l-50 -289h341l-21 -52h-388zM259 851q0 18 12 31t30 13q16 0 26 -10t10 -27q0 -18 -12 -31.5t-29 -13.5q-16 0 -26.5 10t-10.5 28zM433 851q0 18 12 31t29 13q16 0 27 -10t11 -27q0 -18 -12.5 -31.5t-29.5 -13.5
q-16 0 -26.5 10t-10.5 28z" />
    <glyph glyph-name="Edotaccent" unicode="&#x116;" horiz-adv-x="536" 
d="M176 708h370l-21 -52h-301l-46 -264h296l-21 -51h-284l-50 -289h341l-21 -52h-388zM343 851q0 18 12.5 31t29.5 13t27 -10t10 -27q0 -19 -12 -32t-29 -13q-16 0 -27 10.5t-11 27.5z" />
    <glyph glyph-name="Egrave" unicode="&#xc8;" horiz-adv-x="536" 
d="M176 708h370l-21 -52h-301l-46 -264h296l-21 -51h-284l-50 -289h341l-21 -52h-388zM268 908h66l105 -144h-47z" />
    <glyph glyph-name="Emacron" unicode="&#x112;" horiz-adv-x="536" 
d="M176 708h370l-21 -52h-301l-46 -264h296l-21 -51h-284l-50 -289h341l-21 -52h-388zM255 851h260l-7 -40h-259z" />
    <glyph glyph-name="Eogonek" unicode="&#x118;" horiz-adv-x="563" 
d="M271 -157q0 39 29 74.5t89 82.5h-338l125 708h371l-9 -52h-314l-46 -264h299l-20 -51h-288l-50 -289h342l-10 -52h-21q-62 -52 -87 -83.5t-25 -61.5q0 -20 13 -31t35 -11q18 0 35.5 7t30.5 19l11 -30q-44 -34 -91 -34q-35 0 -58 17.5t-23 50.5z" />
    <glyph glyph-name="F" unicode="F" horiz-adv-x="513" 
d="M176 708h370l-21 -52h-299l-48 -267h289l-20 -51h-277l-60 -338h-59z" />
    <glyph glyph-name="G" unicode="G" horiz-adv-x="766" 
d="M73 287q0 117 55 218.5t150.5 161.5t210.5 60q71 0 134.5 -21t104.5 -54l-25 -52q-39 33 -96 53.5t-120 20.5q-98 0 -178.5 -53t-126.5 -140.5t-46 -185.5q0 -75 28.5 -134t87 -93t144.5 -34q57 0 108.5 12t87.5 33l42 237h-180l21 51h225l-58 -323q-49 -30 -114.5 -46.5
t-136.5 -16.5q-100 0 -172 38.5t-109 107.5t-37 160z" />
    <glyph glyph-name="Gbreve" unicode="&#x11e;" horiz-adv-x="766" 
d="M73 287q0 117 55 218.5t150.5 161.5t210.5 60q71 0 134.5 -21t104.5 -54l-25 -52q-39 33 -96 53.5t-120 20.5q-98 0 -178.5 -53t-126.5 -140.5t-46 -185.5q0 -75 28.5 -134t87 -93t144.5 -34q57 0 108.5 12t87.5 33l42 237h-180l21 51h225l-58 -323q-49 -30 -114.5 -46.5
t-136.5 -16.5q-100 0 -172 38.5t-109 107.5t-37 160zM380 902h36q0 -45 24 -67.5t64 -22.5q95 0 120 90h34q-14 -63 -55.5 -97t-100.5 -34q-57 0 -89.5 33.5t-32.5 97.5z" />
    <glyph glyph-name="Gcircumflex" unicode="&#x11c;" horiz-adv-x="766" 
d="M73 287q0 117 55 218.5t150.5 161.5t210.5 60q71 0 134.5 -21t104.5 -54l-25 -52q-39 33 -96 53.5t-120 20.5q-98 0 -178.5 -53t-126.5 -140.5t-46 -185.5q0 -75 28.5 -134t87 -93t144.5 -34q57 0 108.5 12t87.5 33l42 237h-180l21 51h225l-58 -323q-49 -30 -114.5 -46.5
t-136.5 -16.5q-100 0 -172 38.5t-109 107.5t-37 160zM498 908h62l80 -144h-50l-64 118l-109 -118h-54z" />
    <glyph glyph-name="Gcommaaccent" unicode="&#x122;" horiz-adv-x="766" 
d="M73 287q0 117 55 218.5t150.5 161.5t210.5 60q71 0 134.5 -21t104.5 -54l-25 -52q-39 33 -96 53.5t-120 20.5q-98 0 -178.5 -53t-126.5 -140.5t-46 -185.5q0 -75 28.5 -134t87 -93t144.5 -34q57 0 108.5 12t87.5 33l42 237h-180l21 51h225l-58 -323q-49 -30 -114.5 -46.5
t-136.5 -16.5q-100 0 -172 38.5t-109 107.5t-37 160zM369 -43h56l-106 -188h-46z" />
    <glyph glyph-name="Gdotaccent" unicode="&#x120;" horiz-adv-x="766" 
d="M73 287q0 117 55 218.5t150.5 161.5t210.5 60q71 0 134.5 -21t104.5 -54l-25 -52q-39 33 -96 53.5t-120 20.5q-98 0 -178.5 -53t-126.5 -140.5t-46 -185.5q0 -75 28.5 -134t87 -93t144.5 -34q57 0 108.5 12t87.5 33l42 237h-180l21 51h225l-58 -323q-49 -30 -114.5 -46.5
t-136.5 -16.5q-100 0 -172 38.5t-109 107.5t-37 160zM479 851q0 18 12.5 31t29.5 13t27 -10t10 -27q0 -19 -12 -32t-29 -13q-16 0 -27 10.5t-11 27.5z" />
    <glyph glyph-name="H" unicode="H" horiz-adv-x="755" 
d="M176 708h60l-57 -315h441l56 315h60l-125 -708h-60l60 341h-440l-60 -341h-60z" />
    <glyph glyph-name="Hbar" unicode="&#x126;" horiz-adv-x="755" 
d="M176 708h60l-31 -169h441l30 169h60l-125 -708h-60l60 341h-440l-60 -341h-60zM620 393l19 107h-440l-20 -107h441z" />
    <glyph glyph-name="Hcircumflex" unicode="&#x124;" horiz-adv-x="755" 
d="M176 708h60l-57 -315h441l56 315h60l-125 -708h-60l60 341h-440l-60 -341h-60zM444 908h62l80 -144h-50l-64 118l-109 -118h-54z" />
    <glyph glyph-name="I" unicode="I" horiz-adv-x="255" 
d="M176 708h60l-125 -708h-60z" />
    <glyph glyph-name="IJ" unicode="&#x132;" horiz-adv-x="627" 
d="M176 708h60l-125 -708h-60zM301 35q71 0 111 46.5t53 125.5l88 501h60l-89 -505q-18 -98 -72.5 -159.5t-152.5 -61.5q-27 0 -46 5l-11 55q32 -7 59 -7z" />
    <glyph glyph-name="Iacute" unicode="&#xcd;" horiz-adv-x="255" 
d="M176 708h60l-125 -708h-60zM310 908h67l-147 -144h-47z" />
    <glyph glyph-name="Ibreve" unicode="&#x12c;" horiz-adv-x="255" 
d="M176 708h60l-125 -708h-60zM100 902h36q0 -45 24 -67.5t64 -22.5q95 0 120 90h34q-14 -63 -55.5 -97t-100.5 -34q-57 0 -89.5 33.5t-32.5 97.5z" />
    <glyph glyph-name="Icircumflex" unicode="&#xce;" horiz-adv-x="255" 
d="M176 708h60l-125 -708h-60zM207 908h62l80 -144h-50l-64 118l-109 -118h-54z" />
    <glyph glyph-name="Idieresis" unicode="&#xcf;" horiz-adv-x="255" 
d="M176 708h60l-125 -708h-60zM99 851q0 18 12 31t30 13q16 0 26 -10t10 -27q0 -18 -12 -31.5t-29 -13.5q-16 0 -26.5 10t-10.5 28zM273 851q0 18 12 31t29 13q16 0 27 -10t11 -27q0 -18 -12.5 -31.5t-29.5 -13.5q-16 0 -26.5 10t-10.5 28z" />
    <glyph glyph-name="Idotaccent" unicode="&#x130;" horiz-adv-x="255" 
d="M176 708h60l-125 -708h-60zM187 851q0 18 12.5 31t29.5 13t27 -10t10 -27q0 -19 -12 -32t-29 -13q-16 0 -27 10.5t-11 27.5z" />
    <glyph glyph-name="Igrave" unicode="&#xcc;" horiz-adv-x="255" 
d="M176 708h60l-125 -708h-60zM69 908h66l105 -144h-47z" />
    <glyph glyph-name="Imacron" unicode="&#x12a;" horiz-adv-x="255" 
d="M176 708h60l-125 -708h-60zM96 851h260l-7 -40h-259z" />
    <glyph glyph-name="Iogonek" unicode="&#x12e;" horiz-adv-x="255" 
d="M110 -161l11 -30q-44 -34 -92 -34q-35 0 -57.5 17.5t-22.5 50.5q0 39 29 74.5t89 82.5h-16l125 708h60l-125 -708h-3q-62 -52 -87 -83.5t-25 -61.5q0 -21 13 -31.5t35 -10.5q17 0 34.5 7t31.5 19z" />
    <glyph glyph-name="Itilde" unicode="&#x128;" horiz-adv-x="255" 
d="M176 708h60l-125 -708h-60zM167 873q26 0 66 -23.5t57 -23.5q34 0 51 48h33q-12 -40 -36 -64t-55 -24q-25 0 -61 23.5t-62 23.5q-33 0 -52 -49h-33q13 41 37 65t55 24z" />
    <glyph glyph-name="J" unicode="J" horiz-adv-x="373" 
d="M46 35q71 0 111 46.5t53 125.5l88 501h60l-89 -505q-18 -98 -72.5 -159.5t-152.5 -61.5q-27 0 -46 5l-11 55q32 -7 59 -7z" />
    <glyph glyph-name="Jcircumflex" unicode="&#x134;" horiz-adv-x="373" 
d="M46 35q71 0 111 46.5t53 125.5l88 501h60l-89 -505q-18 -98 -72.5 -159.5t-152.5 -61.5q-27 0 -46 5l-11 55q32 -7 59 -7zM323 908h62l80 -144h-50l-64 118l-109 -118h-54z" />
    <glyph glyph-name="K" unicode="K" horiz-adv-x="569" 
d="M176 708h59l-56 -317l367 317h82l-387 -329l295 -379h-76l-285 373l-65 -373h-59z" />
    <glyph glyph-name="Kcommaaccent" unicode="&#x136;" horiz-adv-x="569" 
d="M176 708h59l-56 -317l367 317h82l-387 -329l295 -379h-76l-285 373l-65 -373h-59zM250 -45h56l-106 -188h-46z" />
    <glyph glyph-name="L" unicode="L" horiz-adv-x="498" 
d="M176 708h60l-116 -655h325l-20 -53h-374z" />
    <glyph glyph-name="Lacute" unicode="&#x139;" horiz-adv-x="498" 
d="M176 708h60l-116 -655h325l-20 -53h-374zM314 908h67l-147 -144h-47z" />
    <glyph glyph-name="Lcaron" unicode="&#x13d;" horiz-adv-x="498" 
d="M176 708h60l-116 -655h325l-20 -53h-374zM396 708h56l-106 -188h-46z" />
    <glyph glyph-name="Lcommaaccent" unicode="&#x13b;" horiz-adv-x="498" 
d="M176 708h60l-116 -655h325l-20 -53h-374zM226 -45h56l-106 -188h-46z" />
    <glyph glyph-name="Ldot" unicode="&#x13f;" horiz-adv-x="498" 
d="M176 708h60l-116 -655h325l-20 -53h-374zM359 403q0 18 12.5 31t29.5 13t27 -10t10 -27q0 -18 -12 -31.5t-29 -13.5q-16 0 -27 10.5t-11 27.5z" />
    <glyph glyph-name="Lslash" unicode="&#x141;" horiz-adv-x="499" 
d="M93 240l-80 -62l11 58l80 62l72 410h60l-64 -365l239 182l-10 -56l-240 -185l-40 -230h325l-18 -54h-377z" />
    <glyph glyph-name="M" unicode="M" horiz-adv-x="906" 
d="M176 708h88l157 -615l372 615h94l-125 -708h-59l112 637l-390 -637h-40l-165 642l-111 -642h-58z" />
    <glyph glyph-name="N" unicode="N" horiz-adv-x="756" 
d="M176 708h72l315 -626h2l110 626h59l-125 -708h-72l-314 629h-2l-111 -629h-59z" />
    <glyph glyph-name="Nacute" unicode="&#x143;" horiz-adv-x="756" 
d="M176 708h72l315 -626h2l110 626h59l-125 -708h-72l-314 629h-2l-111 -629h-59zM540 908h67l-147 -144h-47z" />
    <glyph glyph-name="Ncaron" unicode="&#x147;" horiz-adv-x="756" 
d="M176 708h72l315 -626h2l110 626h59l-125 -708h-72l-314 629h-2l-111 -629h-59zM348 908h50l64 -118l110 118h53l-134 -144h-63z" />
    <glyph glyph-name="Ncommaaccent" unicode="&#x145;" horiz-adv-x="756" 
d="M176 708h72l315 -626h2l110 626h59l-125 -708h-72l-314 629h-2l-111 -629h-59zM311 -45h56l-106 -188h-46z" />
    <glyph glyph-name="Eng" unicode="&#x14a;" horiz-adv-x="756" 
d="M400 -236l9 48q22 -4 32 -4q48 0 67.5 28.5t29.5 82.5l13 71l-328 639h-2l-111 -629h-59l125 708h73l317 -616h2l107 616h59l-139 -791q-13 -74 -46 -116.5t-106 -42.5q-21 0 -43 6z" />
    <glyph glyph-name="Ntilde" unicode="&#xd1;" horiz-adv-x="756" 
d="M176 708h72l315 -626h2l110 626h59l-125 -708h-72l-314 629h-2l-111 -629h-59zM415 873q26 0 66 -23.5t57 -23.5q34 0 51 48h33q-12 -40 -36 -64t-55 -24q-25 0 -61 23.5t-62 23.5q-33 0 -52 -49h-33q13 41 37 65t55 24z" />
    <glyph glyph-name="O" unicode="O" horiz-adv-x="855" 
d="M73 293q0 116 52.5 216t146 159t211.5 59q101 0 173.5 -40t110 -110.5t37.5 -161.5q0 -117 -52 -216.5t-145 -158.5t-211 -59q-101 0 -174 39.5t-111 110t-38 162.5zM742 411q0 75 -29.5 134.5t-88.5 94t-144 34.5q-100 0 -178.5 -53t-122 -140t-43.5 -184
q0 -75 29.5 -134t88.5 -93.5t144 -34.5q101 0 179.5 52t121.5 138.5t43 185.5z" />
    <glyph glyph-name="Oacute" unicode="&#xd3;" horiz-adv-x="855" 
d="M73 293q0 116 52.5 216t146 159t211.5 59q101 0 173.5 -40t110 -110.5t37.5 -161.5q0 -117 -52 -216.5t-145 -158.5t-211 -59q-101 0 -174 39.5t-111 110t-38 162.5zM742 411q0 75 -29.5 134.5t-88.5 94t-144 34.5q-100 0 -178.5 -53t-122 -140t-43.5 -184
q0 -75 29.5 -134t88.5 -93.5t144 -34.5q101 0 179.5 52t121.5 138.5t43 185.5zM585 908h67l-147 -144h-47z" />
    <glyph glyph-name="Obreve" unicode="&#x14e;" horiz-adv-x="855" 
d="M73 293q0 116 52.5 216t146 159t211.5 59q101 0 173.5 -40t110 -110.5t37.5 -161.5q0 -117 -52 -216.5t-145 -158.5t-211 -59q-101 0 -174 39.5t-111 110t-38 162.5zM742 411q0 75 -29.5 134.5t-88.5 94t-144 34.5q-100 0 -178.5 -53t-122 -140t-43.5 -184
q0 -75 29.5 -134t88.5 -93.5t144 -34.5q101 0 179.5 52t121.5 138.5t43 185.5zM384 902h36q0 -45 24 -67.5t64 -22.5q95 0 120 90h34q-14 -63 -55.5 -97t-100.5 -34q-57 0 -89.5 33.5t-32.5 97.5z" />
    <glyph glyph-name="Ocircumflex" unicode="&#xd4;" horiz-adv-x="855" 
d="M73 293q0 116 52.5 216t146 159t211.5 59q101 0 173.5 -40t110 -110.5t37.5 -161.5q0 -117 -52 -216.5t-145 -158.5t-211 -59q-101 0 -174 39.5t-111 110t-38 162.5zM742 411q0 75 -29.5 134.5t-88.5 94t-144 34.5q-100 0 -178.5 -53t-122 -140t-43.5 -184
q0 -75 29.5 -134t88.5 -93.5t144 -34.5q101 0 179.5 52t121.5 138.5t43 185.5zM509 908h62l80 -144h-50l-64 118l-109 -118h-54z" />
    <glyph glyph-name="Odieresis" unicode="&#xd6;" horiz-adv-x="855" 
d="M73 293q0 116 52.5 216t146 159t211.5 59q101 0 173.5 -40t110 -110.5t37.5 -161.5q0 -117 -52 -216.5t-145 -158.5t-211 -59q-101 0 -174 39.5t-111 110t-38 162.5zM742 411q0 75 -29.5 134.5t-88.5 94t-144 34.5q-100 0 -178.5 -53t-122 -140t-43.5 -184
q0 -75 29.5 -134t88.5 -93.5t144 -34.5q101 0 179.5 52t121.5 138.5t43 185.5zM397 851q0 18 12 31t30 13q16 0 26 -10t10 -27q0 -18 -12 -31.5t-29 -13.5q-16 0 -26.5 10t-10.5 28zM571 851q0 18 12 31t29 13q16 0 27 -10t11 -27q0 -18 -12.5 -31.5t-29.5 -13.5
q-16 0 -26.5 10t-10.5 28z" />
    <glyph glyph-name="Ograve" unicode="&#xd2;" horiz-adv-x="855" 
d="M73 293q0 116 52.5 216t146 159t211.5 59q101 0 173.5 -40t110 -110.5t37.5 -161.5q0 -117 -52 -216.5t-145 -158.5t-211 -59q-101 0 -174 39.5t-111 110t-38 162.5zM742 411q0 75 -29.5 134.5t-88.5 94t-144 34.5q-100 0 -178.5 -53t-122 -140t-43.5 -184
q0 -75 29.5 -134t88.5 -93.5t144 -34.5q101 0 179.5 52t121.5 138.5t43 185.5zM382 908h66l105 -144h-47z" />
    <glyph glyph-name="Ohungarumlaut" unicode="&#x150;" horiz-adv-x="855" 
d="M73 293q0 116 52.5 216t146 159t211.5 59q101 0 173.5 -40t110 -110.5t37.5 -161.5q0 -117 -52 -216.5t-145 -158.5t-211 -59q-101 0 -174 39.5t-111 110t-38 162.5zM742 411q0 75 -29.5 134.5t-88.5 94t-144 34.5q-100 0 -178.5 -53t-122 -140t-43.5 -184
q0 -75 29.5 -134t88.5 -93.5t144 -34.5q101 0 179.5 52t121.5 138.5t43 185.5zM528 908h68l-148 -144h-47zM679 908h68l-148 -144h-48z" />
    <glyph glyph-name="Omacron" unicode="&#x14c;" horiz-adv-x="855" 
d="M73 293q0 116 52.5 216t146 159t211.5 59q101 0 173.5 -40t110 -110.5t37.5 -161.5q0 -117 -52 -216.5t-145 -158.5t-211 -59q-101 0 -174 39.5t-111 110t-38 162.5zM742 411q0 75 -29.5 134.5t-88.5 94t-144 34.5q-100 0 -178.5 -53t-122 -140t-43.5 -184
q0 -75 29.5 -134t88.5 -93.5t144 -34.5q101 0 179.5 52t121.5 138.5t43 185.5zM394 851h260l-7 -40h-259z" />
    <glyph glyph-name="Oslash" unicode="&#xd8;" horiz-adv-x="855" 
d="M43 10l90 87q-60 78 -60 196q0 116 52.5 216t147 159t212.5 59q141 0 229 -79l85 81l24 -27l-85 -80q34 -40 51 -92.5t17 -114.5q0 -117 -52 -216.5t-146 -158.5t-212 -59q-77 0 -137.5 23t-101.5 66l-90 -86zM670 607q-70 68 -187 68q-101 0 -181 -53.5t-124 -140.5
t-44 -185q0 -93 46 -158zM744 411q0 102 -52 168l-491 -469q67 -76 196 -76q102 0 181 52.5t122.5 139t43.5 185.5z" />
    <glyph glyph-name="Oslashacute" unicode="&#x1fe;" horiz-adv-x="855" 
d="M43 10l90 87q-60 78 -60 196q0 116 52.5 216t147 159t212.5 59q141 0 229 -79l85 81l24 -27l-85 -80q34 -40 51 -92.5t17 -114.5q0 -117 -52 -216.5t-146 -158.5t-212 -59q-77 0 -137.5 23t-101.5 66l-90 -86zM670 607q-70 68 -187 68q-101 0 -181 -53.5t-124 -140.5
t-44 -185q0 -93 46 -158zM744 411q0 102 -52 168l-491 -469q67 -76 196 -76q102 0 181 52.5t122.5 139t43.5 185.5zM596 908h67l-147 -144h-47z" />
    <glyph glyph-name="Otilde" unicode="&#xd5;" horiz-adv-x="855" 
d="M73 293q0 116 52.5 216t146 159t211.5 59q101 0 173.5 -40t110 -110.5t37.5 -161.5q0 -117 -52 -216.5t-145 -158.5t-211 -59q-101 0 -174 39.5t-111 110t-38 162.5zM742 411q0 75 -29.5 134.5t-88.5 94t-144 34.5q-100 0 -178.5 -53t-122 -140t-43.5 -184
q0 -75 29.5 -134t88.5 -93.5t144 -34.5q101 0 179.5 52t121.5 138.5t43 185.5zM462 873q26 0 66 -23.5t57 -23.5q34 0 51 48h33q-12 -40 -36 -64t-55 -24q-25 0 -61 23.5t-62 23.5q-33 0 -52 -49h-33q13 41 37 65t55 24z" />
    <glyph glyph-name="OE" unicode="&#x152;" horiz-adv-x="931" 
d="M73 294q0 133 59 226t160.5 140.5t228.5 47.5h421l-21 -52h-284l-46 -264h279l-20 -51h-267l-51 -289h323l-21 -52h-425q-92 0 -168.5 33t-122 99.5t-45.5 161.5zM474 52l106 604h-61q-112 0 -199 -42t-135.5 -122t-48.5 -190q0 -76 34.5 -132.5t99 -87t151.5 -30.5h53z
" />
    <glyph glyph-name="P" unicode="P" horiz-adv-x="578" 
d="M176 708h191q93 0 151 -42t58 -125q0 -97 -68 -154.5t-193 -57.5h-147l-58 -329h-59zM320 378q93 0 145 42t52 116q0 63 -43 92.5t-109 29.5h-139l-49 -280h143z" />
    <glyph glyph-name="Thorn" unicode="&#xde;" horiz-adv-x="578" 
d="M176 708h59l-26 -150h132q93 0 151.5 -42t58.5 -126q0 -96 -68.5 -154t-193.5 -58h-147l-32 -178h-59zM295 227q92 0 144 42.5t52 116.5q0 63 -43 92.5t-110 29.5h-138l-49 -281h144z" />
    <glyph glyph-name="Q" unicode="Q" horiz-adv-x="862" 
d="M74 298q0 114 52 212.5t145 157.5t210 59q99 0 172 -39.5t111 -109t38 -159.5q0 -82 -29.5 -156.5t-84 -130t-127.5 -80.5v-2h234l-21 -50h-378q-100 0 -172.5 36t-111 103t-38.5 159zM740 411q0 74 -29.5 133.5t-88.5 94.5t-143 35q-100 0 -178.5 -52.5t-122 -137.5
t-43.5 -180q0 -115 68 -183.5t196 -68.5q97 0 175 49.5t122 132t44 177.5z" />
    <glyph glyph-name="R" unicode="R" horiz-adv-x="606" 
d="M176 708h185q93 0 154 -40t61 -122q0 -100 -60.5 -147.5t-148.5 -54.5l158 -344h-66l-151 338h-139l-59 -338h-59zM314 385q94 0 147.5 36.5t53.5 117.5q0 62 -46 90.5t-121 28.5h-122l-49 -273h137z" />
    <glyph glyph-name="Racute" unicode="&#x154;" horiz-adv-x="606" 
d="M176 708h185q93 0 154 -40t61 -122q0 -100 -60.5 -147.5t-148.5 -54.5l158 -344h-66l-151 338h-139l-59 -338h-59zM314 385q94 0 147.5 36.5t53.5 117.5q0 62 -46 90.5t-121 28.5h-122l-49 -273h137zM446 908h67l-147 -144h-47z" />
    <glyph glyph-name="Rcaron" unicode="&#x158;" horiz-adv-x="606" 
d="M176 708h185q93 0 154 -40t61 -122q0 -100 -60.5 -147.5t-148.5 -54.5l158 -344h-66l-151 338h-139l-59 -338h-59zM314 385q94 0 147.5 36.5t53.5 117.5q0 62 -46 90.5t-121 28.5h-122l-49 -273h137zM253 908h50l64 -118l110 118h53l-134 -144h-63z" />
    <glyph glyph-name="Rcommaaccent" unicode="&#x156;" horiz-adv-x="606" 
d="M176 708h185q93 0 154 -40t61 -122q0 -100 -60.5 -147.5t-148.5 -54.5l158 -344h-66l-151 338h-139l-59 -338h-59zM314 385q94 0 147.5 36.5t53.5 117.5q0 62 -46 90.5t-121 28.5h-122l-49 -273h137zM240 -45h56l-106 -188h-46z" />
    <glyph glyph-name="S" unicode="S" horiz-adv-x="571" 
d="M28 55l22 56q33 -36 85.5 -57.5t106.5 -21.5q55 0 98 20.5t67 57t24 83.5q0 60 -41 92.5t-122 58.5q-83 27 -122 66.5t-39 107.5q0 64 34.5 111.5t92 72.5t125.5 25q54 0 105.5 -17t82.5 -43l-25 -54q-26 25 -72 44t-94 19q-45 0 -88.5 -18t-71 -52.5t-27.5 -82.5
q0 -54 32.5 -81.5t104.5 -51.5q92 -32 139.5 -74t47.5 -117q0 -64 -31.5 -113.5t-89.5 -77t-135 -27.5q-60 0 -119 21t-90 53z" />
    <glyph glyph-name="Sacute" unicode="&#x15a;" horiz-adv-x="571" 
d="M28 55l22 56q33 -36 85.5 -57.5t106.5 -21.5q55 0 98 20.5t67 57t24 83.5q0 60 -41 92.5t-122 58.5q-83 27 -122 66.5t-39 107.5q0 64 34.5 111.5t92 72.5t125.5 25q54 0 105.5 -17t82.5 -43l-25 -54q-26 25 -72 44t-94 19q-45 0 -88.5 -18t-71 -52.5t-27.5 -82.5
q0 -54 32.5 -81.5t104.5 -51.5q92 -32 139.5 -74t47.5 -117q0 -64 -31.5 -113.5t-89.5 -77t-135 -27.5q-60 0 -119 21t-90 53zM440 908h67l-147 -144h-47z" />
    <glyph glyph-name="Scaron" unicode="&#x160;" horiz-adv-x="571" 
d="M28 55l22 56q33 -36 85.5 -57.5t106.5 -21.5q55 0 98 20.5t67 57t24 83.5q0 60 -41 92.5t-122 58.5q-83 27 -122 66.5t-39 107.5q0 64 34.5 111.5t92 72.5t125.5 25q54 0 105.5 -17t82.5 -43l-25 -54q-26 25 -72 44t-94 19q-45 0 -88.5 -18t-71 -52.5t-27.5 -82.5
q0 -54 32.5 -81.5t104.5 -51.5q92 -32 139.5 -74t47.5 -117q0 -64 -31.5 -113.5t-89.5 -77t-135 -27.5q-60 0 -119 21t-90 53zM252 908h50l64 -118l110 118h53l-134 -144h-63z" />
    <glyph glyph-name="Scedilla" unicode="&#x15e;" horiz-adv-x="571" 
d="M102 -208l14 29q17 -8 39.5 -12.5t42.5 -4.5q39 0 61 14.5t22 39.5q0 22 -16 32t-39 10q-13 0 -31 -3.5t-30 -8.5l-13 14l69 80q-64 3 -117.5 28t-84.5 70l46 36q62 -84 177 -84q55 0 98 20.5t67 57t24 83.5q0 60 -41 92.5t-122 58.5q-83 27 -122 66.5t-39 107.5
q0 64 34.5 111.5t92 72.5t125.5 25q67 0 118.5 -24t77.5 -62l-43 -36q-53 71 -157 71q-45 0 -88 -18t-70.5 -52.5t-27.5 -82.5q0 -54 32.5 -81.5t104.5 -51.5q92 -32 139.5 -74t47.5 -117q0 -61 -29 -109t-82 -76.5t-125 -31.5l-51 -61q20 6 40 6q32 0 56 -15.5t24 -49.5
q0 -46 -36.5 -68.5t-89.5 -22.5q-23 0 -51.5 5.5t-46.5 15.5z" />
    <glyph glyph-name="Scircumflex" unicode="&#x15c;" horiz-adv-x="571" 
d="M28 55l22 56q33 -36 85.5 -57.5t106.5 -21.5q55 0 98 20.5t67 57t24 83.5q0 60 -41 92.5t-122 58.5q-83 27 -122 66.5t-39 107.5q0 64 34.5 111.5t92 72.5t125.5 25q54 0 105.5 -17t82.5 -43l-25 -54q-26 25 -72 44t-94 19q-45 0 -88.5 -18t-71 -52.5t-27.5 -82.5
q0 -54 32.5 -81.5t104.5 -51.5q92 -32 139.5 -74t47.5 -117q0 -64 -31.5 -113.5t-89.5 -77t-135 -27.5q-60 0 -119 21t-90 53zM373 908h62l80 -144h-50l-64 118l-109 -118h-54z" />
    <glyph glyph-name="Scommaaccent" unicode="&#x218;" horiz-adv-x="571" 
d="M28 55l22 56q33 -36 85.5 -57.5t106.5 -21.5q55 0 98 20.5t67 57t24 83.5q0 60 -41 92.5t-122 58.5q-83 27 -122 66.5t-39 107.5q0 64 34.5 111.5t92 72.5t125.5 25q54 0 105.5 -17t82.5 -43l-25 -54q-26 25 -72 44t-94 19q-45 0 -88.5 -18t-71 -52.5t-27.5 -82.5
q0 -54 32.5 -81.5t104.5 -51.5q92 -32 139.5 -74t47.5 -117q0 -64 -31.5 -113.5t-89.5 -77t-135 -27.5q-60 0 -119 21t-90 53zM219 -44h56l-106 -188h-46z" />
    <glyph glyph-name="T" unicode="T" horiz-adv-x="530" 
d="M302 656h-234l21 52h519l-21 -52h-224l-116 -656h-59z" />
    <glyph glyph-name="Tbar" unicode="&#x166;" horiz-adv-x="547" 
d="M283 494h-182l7 38h181l22 124h-235l22 52h518l-21 -52h-224l-22 -124h180l-7 -38h-180l-87 -494h-59z" />
    <glyph glyph-name="Tcaron" unicode="&#x164;" horiz-adv-x="530" 
d="M302 656h-234l21 52h519l-21 -52h-224l-116 -656h-59zM237 908h50l64 -118l110 118h53l-134 -144h-63z" />
    <glyph glyph-name="U" unicode="U" horiz-adv-x="718" 
d="M85 204q0 37 7 72l76 432h59l-76 -432q-5 -35 -5 -62q0 -80 45 -130t140 -50q119 0 170.5 66.5t70.5 172.5l77 435h59l-78 -442q-23 -130 -92 -207.5t-209 -77.5q-119 0 -181.5 59t-62.5 164z" />
    <glyph glyph-name="Uacute" unicode="&#xda;" horiz-adv-x="718" 
d="M85 204q0 37 7 72l76 432h59l-76 -432q-5 -35 -5 -62q0 -80 45 -130t140 -50q119 0 170.5 66.5t70.5 172.5l77 435h59l-78 -442q-23 -130 -92 -207.5t-209 -77.5q-119 0 -181.5 59t-62.5 164zM521 908h67l-147 -144h-47z" />
    <glyph glyph-name="Ubreve" unicode="&#x16c;" horiz-adv-x="718" 
d="M85 204q0 37 7 72l76 432h59l-76 -432q-5 -35 -5 -62q0 -80 45 -130t140 -50q119 0 170.5 66.5t70.5 172.5l77 435h59l-78 -442q-23 -130 -92 -207.5t-209 -77.5q-119 0 -181.5 59t-62.5 164zM317 902h36q0 -45 24 -67.5t64 -22.5q95 0 120 90h34q-14 -63 -55.5 -97
t-100.5 -34q-57 0 -89.5 33.5t-32.5 97.5z" />
    <glyph glyph-name="Ucircumflex" unicode="&#xdb;" horiz-adv-x="718" 
d="M85 204q0 37 7 72l76 432h59l-76 -432q-5 -35 -5 -62q0 -80 45 -130t140 -50q119 0 170.5 66.5t70.5 172.5l77 435h59l-78 -442q-23 -130 -92 -207.5t-209 -77.5q-119 0 -181.5 59t-62.5 164zM441 908h62l80 -144h-50l-64 118l-109 -118h-54z" />
    <glyph glyph-name="Udieresis" unicode="&#xdc;" horiz-adv-x="718" 
d="M85 204q0 37 7 72l76 432h59l-76 -432q-5 -35 -5 -62q0 -80 45 -130t140 -50q119 0 170.5 66.5t70.5 172.5l77 435h59l-78 -442q-23 -130 -92 -207.5t-209 -77.5q-119 0 -181.5 59t-62.5 164zM333 851q0 18 12 31t30 13q16 0 26 -10t10 -27q0 -18 -12 -31.5t-29 -13.5
q-16 0 -26.5 10t-10.5 28zM507 851q0 18 12 31t29 13q16 0 27 -10t11 -27q0 -18 -12.5 -31.5t-29.5 -13.5q-16 0 -26.5 10t-10.5 28z" />
    <glyph glyph-name="Ugrave" unicode="&#xd9;" horiz-adv-x="718" 
d="M85 204q0 37 7 72l76 432h59l-76 -432q-5 -35 -5 -62q0 -80 45 -130t140 -50q119 0 170.5 66.5t70.5 172.5l77 435h59l-78 -442q-23 -130 -92 -207.5t-209 -77.5q-119 0 -181.5 59t-62.5 164zM308 908h66l105 -144h-47z" />
    <glyph glyph-name="Uhungarumlaut" unicode="&#x170;" horiz-adv-x="718" 
d="M85 204q0 37 7 72l76 432h59l-76 -432q-5 -35 -5 -62q0 -80 45 -130t140 -50q119 0 170.5 66.5t70.5 172.5l77 435h59l-78 -442q-23 -130 -92 -207.5t-209 -77.5q-119 0 -181.5 59t-62.5 164zM465 908h68l-148 -144h-47zM616 908h68l-148 -144h-48z" />
    <glyph glyph-name="Umacron" unicode="&#x16a;" horiz-adv-x="718" 
d="M85 204q0 37 7 72l76 432h59l-76 -432q-5 -35 -5 -62q0 -80 45 -130t140 -50q119 0 170.5 66.5t70.5 172.5l77 435h59l-78 -442q-23 -130 -92 -207.5t-209 -77.5q-119 0 -181.5 59t-62.5 164zM327 851h260l-7 -40h-259z" />
    <glyph glyph-name="Uogonek" unicode="&#x172;" horiz-adv-x="718" 
d="M708 708l-78 -442q-22 -124 -86.5 -201t-192.5 -83q-50 -43 -71 -71t-21 -56q0 -20 13 -31t35 -11q17 0 34.5 7t31.5 19l11 -30q-44 -34 -92 -34q-35 0 -57.5 17.5t-22.5 50.5q0 35 24 67.5t72 71.5q-109 5 -166 63.5t-57 158.5q0 37 7 72l76 432h59l-76 -432
q-5 -35 -5 -62q0 -80 45 -130t140 -50q119 0 170.5 66.5t70.5 172.5l77 435h59z" />
    <glyph glyph-name="Uring" unicode="&#x16e;" horiz-adv-x="718" 
d="M85 204q0 37 7 72l76 432h59l-76 -432q-5 -35 -5 -62q0 -80 45 -130t140 -50q119 0 170.5 66.5t70.5 172.5l77 435h59l-78 -442q-23 -130 -92 -207.5t-209 -77.5q-119 0 -181.5 59t-62.5 164zM361 835q0 46 29.5 79.5t76.5 33.5q40 0 62.5 -22.5t22.5 -58.5
q0 -47 -29.5 -80t-76.5 -33q-40 0 -62.5 22.5t-22.5 58.5zM525 864q0 25 -15.5 42t-43.5 17q-34 0 -56 -25t-22 -61q0 -25 15 -41.5t44 -16.5q34 0 56 25t22 60z" />
    <glyph glyph-name="Utilde" unicode="&#x168;" horiz-adv-x="718" 
d="M85 204q0 37 7 72l76 432h59l-76 -432q-5 -35 -5 -62q0 -80 45 -130t140 -50q119 0 170.5 66.5t70.5 172.5l77 435h59l-78 -442q-23 -130 -92 -207.5t-209 -77.5q-119 0 -181.5 59t-62.5 164zM396 873q26 0 66 -23.5t57 -23.5q34 0 51 48h33q-12 -40 -36 -64t-55 -24
q-25 0 -61 23.5t-62 23.5q-33 0 -52 -49h-33q13 41 37 65t55 24z" />
    <glyph glyph-name="V" unicode="V" horiz-adv-x="606" 
d="M88 708h63l98 -637h2l373 637h68l-420 -708h-69z" />
    <glyph glyph-name="W" unicode="W" horiz-adv-x="960" 
d="M100 708h63l50 -630h3l312 630h71l55 -630h3l312 630h64l-356 -708h-70l-55 631h-2l-317 -631h-70z" />
    <glyph glyph-name="Wacute" unicode="&#x1e82;" horiz-adv-x="960" 
d="M100 708h63l50 -630h3l312 630h71l55 -630h3l312 630h64l-356 -708h-70l-55 631h-2l-317 -631h-70zM674 908h67l-147 -144h-47z" />
    <glyph glyph-name="Wcircumflex" unicode="&#x174;" horiz-adv-x="960" 
d="M100 708h63l50 -630h3l312 630h71l55 -630h3l312 630h64l-356 -708h-70l-55 631h-2l-317 -631h-70zM569 908h62l80 -144h-50l-64 118l-109 -118h-54z" />
    <glyph glyph-name="Wdieresis" unicode="&#x1e84;" horiz-adv-x="960" 
d="M100 708h63l50 -630h3l312 630h71l55 -630h3l312 630h64l-356 -708h-70l-55 631h-2l-317 -631h-70zM464 851q0 18 12 31t30 13q16 0 26 -10t10 -27q0 -18 -12 -31.5t-29 -13.5q-16 0 -26.5 10t-10.5 28zM638 851q0 18 12 31t29 13q16 0 27 -10t11 -27q0 -18 -12.5 -31.5
t-29.5 -13.5q-16 0 -26.5 10t-10.5 28z" />
    <glyph glyph-name="Wgrave" unicode="&#x1e80;" horiz-adv-x="960" 
d="M100 708h63l50 -630h3l312 630h71l55 -630h3l312 630h64l-356 -708h-70l-55 631h-2l-317 -631h-70zM428 908h66l105 -144h-47z" />
    <glyph glyph-name="X" unicode="X" horiz-adv-x="603" 
d="M283 372l-165 336h68l139 -294l250 294h74l-294 -339l183 -369h-70l-155 326l-277 -326h-77z" />
    <glyph glyph-name="Y" unicode="Y" horiz-adv-x="542" 
d="M240 307l-169 401h67l140 -349l282 349h73l-333 -401l-54 -307h-60z" />
    <glyph glyph-name="Yacute" unicode="&#xdd;" horiz-adv-x="542" 
d="M240 307l-169 401h67l140 -349l282 349h73l-333 -401l-54 -307h-60zM446 908h67l-147 -144h-47z" />
    <glyph glyph-name="Ycircumflex" unicode="&#x176;" horiz-adv-x="542" 
d="M240 307l-169 401h67l140 -349l282 349h73l-333 -401l-54 -307h-60zM355 908h62l80 -144h-50l-64 118l-109 -118h-54z" />
    <glyph glyph-name="Ydieresis" unicode="&#x178;" horiz-adv-x="542" 
d="M240 307l-169 401h67l140 -349l282 349h73l-333 -401l-54 -307h-60zM243 851q0 18 12 31t30 13q16 0 26 -10t10 -27q0 -18 -12 -31.5t-29 -13.5q-16 0 -26.5 10t-10.5 28zM417 851q0 18 12 31t29 13q16 0 27 -10t11 -27q0 -18 -12.5 -31.5t-29.5 -13.5q-16 0 -26.5 10
t-10.5 28z" />
    <glyph glyph-name="Ygrave" unicode="&#x1ef2;" horiz-adv-x="542" 
d="M240 307l-169 401h67l140 -349l282 349h73l-333 -401l-54 -307h-60zM219 908h66l105 -144h-47z" />
    <glyph glyph-name="Z" unicode="Z" horiz-adv-x="593" 
d="M6 56l536 600h-413l9 52h487l-10 -56l-537 -599h452l-21 -53h-513z" />
    <glyph glyph-name="Zacute" unicode="&#x179;" horiz-adv-x="593" 
d="M6 56l536 600h-413l9 52h487l-10 -56l-537 -599h452l-21 -53h-513zM462 908h67l-147 -144h-47z" />
    <glyph glyph-name="Zcaron" unicode="&#x17d;" horiz-adv-x="593" 
d="M6 56l536 600h-413l9 52h487l-10 -56l-537 -599h452l-21 -53h-513zM268 908h50l64 -118l110 118h53l-134 -144h-63z" />
    <glyph glyph-name="Zdotaccent" unicode="&#x17b;" horiz-adv-x="593" 
d="M6 56l536 600h-413l9 52h487l-10 -56l-537 -599h452l-21 -53h-513zM359 851q0 18 12.5 31t29.5 13t27 -10t10 -27q0 -19 -12 -32t-29 -13q-16 0 -27 10.5t-11 27.5z" />
    <glyph glyph-name="uni0162" unicode="&#x162;" horiz-adv-x="530" 
d="M302 656h-234l21 52h519l-21 -52h-224l-116 -656h-59zM202 -45h56l-106 -188h-46z" />
    <glyph glyph-name="uni021A" unicode="&#x21a;" horiz-adv-x="530" 
d="M302 656h-234l21 52h519l-21 -52h-224l-116 -656h-59zM202 -45h56l-106 -188h-46z" />
    <glyph glyph-name="a" unicode="a" horiz-adv-x="526" 
d="M33 109q0 100 96 136.5t260 36.5q7 32 7 52q0 51 -30.5 76.5t-85.5 25.5q-39 0 -81.5 -16.5t-70.5 -41.5l-16 47q34 27 79.5 42t93.5 15q76 0 121 -36t45 -105q0 -14 -5 -52l-34 -186q-10 -58 -10 -103h-52q0 43 10 91h-3q-61 -103 -177 -103q-57 0 -102 29t-45 92z
M377 208l7 33h-23q-124 0 -198 -27t-74 -96q0 -47 31.5 -67t75.5 -20q73 0 120 51.5t61 125.5z" />
    <glyph glyph-name="aacute" unicode="&#xe1;" horiz-adv-x="526" 
d="M33 109q0 100 96 136.5t260 36.5q7 32 7 52q0 51 -30.5 76.5t-85.5 25.5q-39 0 -81.5 -16.5t-70.5 -41.5l-16 47q34 27 79.5 42t93.5 15q76 0 121 -36t45 -105q0 -14 -5 -52l-34 -186q-10 -58 -10 -103h-52q0 43 10 91h-3q-61 -103 -177 -103q-57 0 -102 29t-45 92z
M377 208l7 33h-23q-124 0 -198 -27t-74 -96q0 -47 31.5 -67t75.5 -20q73 0 120 51.5t61 125.5zM394 709h67l-147 -144h-47z" />
    <glyph glyph-name="abreve" unicode="&#x103;" horiz-adv-x="526" 
d="M33 109q0 100 96 136.5t260 36.5q7 32 7 52q0 51 -30.5 76.5t-85.5 25.5q-39 0 -81.5 -16.5t-70.5 -41.5l-16 47q34 27 79.5 42t93.5 15q76 0 121 -36t45 -105q0 -14 -5 -52l-34 -186q-10 -58 -10 -103h-52q0 43 10 91h-3q-61 -103 -177 -103q-57 0 -102 29t-45 92z
M377 208l7 33h-23q-124 0 -198 -27t-74 -96q0 -47 31.5 -67t75.5 -20q73 0 120 51.5t61 125.5zM182 704h36q0 -45 24 -67.5t64 -22.5q95 0 120 90h34q-14 -63 -55.5 -97t-100.5 -34q-57 0 -89.5 33.5t-32.5 97.5z" />
    <glyph glyph-name="acircumflex" unicode="&#xe2;" horiz-adv-x="526" 
d="M33 109q0 100 96 136.5t260 36.5q7 32 7 52q0 51 -30.5 76.5t-85.5 25.5q-39 0 -81.5 -16.5t-70.5 -41.5l-16 47q34 27 79.5 42t93.5 15q76 0 121 -36t45 -105q0 -14 -5 -52l-34 -186q-10 -58 -10 -103h-52q0 43 10 91h-3q-61 -103 -177 -103q-57 0 -102 29t-45 92z
M377 208l7 33h-23q-124 0 -198 -27t-74 -96q0 -47 31.5 -67t75.5 -20q73 0 120 51.5t61 125.5zM311 709h62l80 -144h-50l-64 118l-109 -118h-54z" />
    <glyph glyph-name="adieresis" unicode="&#xe4;" horiz-adv-x="526" 
d="M33 109q0 100 96 136.5t260 36.5q7 32 7 52q0 51 -30.5 76.5t-85.5 25.5q-39 0 -81.5 -16.5t-70.5 -41.5l-16 47q34 27 79.5 42t93.5 15q76 0 121 -36t45 -105q0 -14 -5 -52l-34 -186q-10 -58 -10 -103h-52q0 43 10 91h-3q-61 -103 -177 -103q-57 0 -102 29t-45 92z
M377 208l7 33h-23q-124 0 -198 -27t-74 -96q0 -47 31.5 -67t75.5 -20q73 0 120 51.5t61 125.5zM199 653q0 18 12 31t30 13q16 0 26 -10.5t10 -27.5q0 -18 -12 -31.5t-29 -13.5q-16 0 -26.5 10.5t-10.5 28.5zM373 653q0 18 12 31t29 13q16 0 27 -10.5t11 -27.5
q0 -18 -12.5 -31.5t-29.5 -13.5q-16 0 -26.5 10.5t-10.5 28.5z" />
    <glyph glyph-name="agrave" unicode="&#xe0;" horiz-adv-x="526" 
d="M33 109q0 100 96 136.5t260 36.5q7 32 7 52q0 51 -30.5 76.5t-85.5 25.5q-39 0 -81.5 -16.5t-70.5 -41.5l-16 47q34 27 79.5 42t93.5 15q76 0 121 -36t45 -105q0 -14 -5 -52l-34 -186q-10 -58 -10 -103h-52q0 43 10 91h-3q-61 -103 -177 -103q-57 0 -102 29t-45 92z
M377 208l7 33h-23q-124 0 -198 -27t-74 -96q0 -47 31.5 -67t75.5 -20q73 0 120 51.5t61 125.5zM176 709h66l105 -144h-47z" />
    <glyph glyph-name="amacron" unicode="&#x101;" horiz-adv-x="526" 
d="M33 109q0 100 96 136.5t260 36.5q7 32 7 52q0 51 -30.5 76.5t-85.5 25.5q-39 0 -81.5 -16.5t-70.5 -41.5l-16 47q34 27 79.5 42t93.5 15q76 0 121 -36t45 -105q0 -14 -5 -52l-34 -186q-10 -58 -10 -103h-52q0 43 10 91h-3q-61 -103 -177 -103q-57 0 -102 29t-45 92z
M377 208l7 33h-23q-124 0 -198 -27t-74 -96q0 -47 31.5 -67t75.5 -20q73 0 120 51.5t61 125.5zM193 652h260l-7 -39h-259z" />
    <glyph glyph-name="aogonek" unicode="&#x105;" horiz-adv-x="526" 
d="M451 341q0 -14 -5 -52l-34 -186q-10 -58 -10 -103h-6q-62 -53 -87.5 -84t-25.5 -61q0 -20 13 -31t35 -11q17 0 34.5 7t31.5 19l11 -30q-44 -34 -92 -34q-35 0 -57.5 17.5t-22.5 50.5q0 39 29 74.5t90 82.5h-5q0 43 10 91h-3q-61 -103 -177 -103q-57 0 -102 29t-45 92
q0 100 96 136.5t260 36.5q7 32 7 52q0 51 -30.5 76.5t-85.5 25.5q-39 0 -81.5 -16.5t-70.5 -41.5l-16 47q34 27 79.5 42t93.5 15q76 0 121 -36t45 -105zM377 208l7 33h-23q-124 0 -198 -27t-74 -96q0 -47 31.5 -67t75.5 -20q73 0 120 51.5t61 125.5z" />
    <glyph glyph-name="aring" unicode="&#xe5;" horiz-adv-x="526" 
d="M33 109q0 100 96 136.5t260 36.5q7 32 7 52q0 51 -30.5 76.5t-85.5 25.5q-39 0 -81.5 -16.5t-70.5 -41.5l-16 47q34 27 79.5 42t93.5 15q76 0 121 -36t45 -105q0 -14 -5 -52l-34 -186q-10 -58 -10 -103h-52q0 43 10 91h-3q-61 -103 -177 -103q-57 0 -102 29t-45 92z
M377 208l7 33h-23q-124 0 -198 -27t-74 -96q0 -47 31.5 -67t75.5 -20q73 0 120 51.5t61 125.5zM231 636q0 47 29.5 80t76.5 33q40 0 62.5 -22t22.5 -58q0 -48 -29.5 -81t-76.5 -33q-40 0 -62.5 22.5t-22.5 58.5zM395 666q0 25 -15.5 42t-43.5 17q-34 0 -56 -25t-22 -61
q0 -25 15 -41.5t44 -16.5q34 0 56 25t22 60z" />
    <glyph glyph-name="atilde" unicode="&#xe3;" horiz-adv-x="526" 
d="M33 109q0 100 96 136.5t260 36.5q7 32 7 52q0 51 -30.5 76.5t-85.5 25.5q-39 0 -81.5 -16.5t-70.5 -41.5l-16 47q34 27 79.5 42t93.5 15q76 0 121 -36t45 -105q0 -14 -5 -52l-34 -186q-10 -58 -10 -103h-52q0 43 10 91h-3q-61 -103 -177 -103q-57 0 -102 29t-45 92z
M377 208l7 33h-23q-124 0 -198 -27t-74 -96q0 -47 31.5 -67t75.5 -20q73 0 120 51.5t61 125.5zM264 674q16 0 29.5 -5t34.5 -18q22 -13 34 -18t25 -5q35 0 51 48h33q-12 -41 -35.5 -64.5t-55.5 -23.5q-13 0 -29.5 6.5t-40.5 18.5q-16 9 -30 15.5t-23 6.5q-34 0 -52 -50h-33
q13 41 37 65t55 24z" />
    <glyph glyph-name="ae" unicode="&#xe6;" horiz-adv-x="882" 
d="M394 134q-24 -62 -76 -104t-130 -42q-61 0 -108.5 28.5t-47.5 90.5q0 94 94 126.5t260 32.5q4 17 7 37t3 30q0 52 -30 77.5t-86 25.5q-38 0 -77 -14.5t-70 -38.5l-20 41q37 28 82.5 43t90.5 15q66 0 106 -29t47 -83q31 50 83 81t115 31q92 0 141.5 -51.5t49.5 -134.5
q0 -38 -8 -71h-387q-3 -15 -3 -27q0 -75 43 -120t118 -45q50 0 96 18t77 44l8 -51q-34 -25 -80.5 -41t-105.5 -16q-78 0 -129 41t-63 106zM772 266q2 24 2 36q0 61 -37 98t-103 37q-54 0 -95.5 -25.5t-66.5 -64.5t-33 -81h333zM376 202l4 23h-25q-125 0 -196 -25t-71 -85
q0 -44 32.5 -64t76.5 -20q73 0 119 50t60 121z" />
    <glyph glyph-name="aeacute" unicode="&#x1fd;" horiz-adv-x="882" 
d="M394 134q-24 -62 -76 -104t-130 -42q-61 0 -108.5 28.5t-47.5 90.5q0 94 94 126.5t260 32.5q4 17 7 37t3 30q0 52 -30 77.5t-86 25.5q-38 0 -77 -14.5t-70 -38.5l-20 41q37 28 82.5 43t90.5 15q66 0 106 -29t47 -83q31 50 83 81t115 31q92 0 141.5 -51.5t49.5 -134.5
q0 -38 -8 -71h-387q-3 -15 -3 -27q0 -75 43 -120t118 -45q50 0 96 18t77 44l8 -51q-34 -25 -80.5 -41t-105.5 -16q-78 0 -129 41t-63 106zM772 266q2 24 2 36q0 61 -37 98t-103 37q-54 0 -95.5 -25.5t-66.5 -64.5t-33 -81h333zM376 202l4 23h-25q-125 0 -196 -25t-71 -85
q0 -44 32.5 -64t76.5 -20q73 0 119 50t60 121zM579 709h67l-147 -144h-47z" />
    <glyph glyph-name="b" unicode="b" horiz-adv-x="631" 
d="M123 106h-3l-17 -106h-56l132 748l59 11l-69 -389h3q26 49 78 80.5t114 31.5q98 0 152 -57t54 -149q0 -78 -33.5 -144.5t-94 -105.5t-137.5 -39q-65 0 -114.5 32.5t-67.5 86.5zM512 271q0 71 -42.5 117t-120.5 46q-57 0 -105 -33.5t-76 -88.5t-28 -116q0 -45 20 -82
t56 -58.5t82 -21.5q63 0 111.5 32.5t75.5 87t27 117.5z" />
    <glyph glyph-name="c" unicode="c" horiz-adv-x="482" 
d="M46 189q0 77 36 144.5t99.5 108t143.5 40.5q45 0 88.5 -15.5t70.5 -40.5l-26 -44q-24 24 -60.5 38t-73.5 14q-62 0 -112.5 -33t-79 -88t-28.5 -118q0 -70 42 -115.5t120 -45.5q41 0 82 15t70 41l9 -49q-27 -25 -73 -41t-94 -16q-101 0 -157.5 57t-56.5 148z" />
    <glyph glyph-name="cacute" unicode="&#x107;" horiz-adv-x="482" 
d="M46 189q0 77 36 144.5t99.5 108t143.5 40.5q45 0 88.5 -15.5t70.5 -40.5l-26 -44q-24 24 -60.5 38t-73.5 14q-62 0 -112.5 -33t-79 -88t-28.5 -118q0 -70 42 -115.5t120 -45.5q41 0 82 15t70 41l9 -49q-27 -25 -73 -41t-94 -16q-101 0 -157.5 57t-56.5 148zM420 709h67
l-147 -144h-47z" />
    <glyph glyph-name="ccaron" unicode="&#x10d;" horiz-adv-x="482" 
d="M46 189q0 77 36 144.5t99.5 108t143.5 40.5q45 0 88.5 -15.5t70.5 -40.5l-26 -44q-24 24 -60.5 38t-73.5 14q-62 0 -112.5 -33t-79 -88t-28.5 -118q0 -70 42 -115.5t120 -45.5q41 0 82 15t70 41l9 -49q-27 -25 -73 -41t-94 -16q-101 0 -157.5 57t-56.5 148zM227 709h50
l64 -117l110 117h53l-134 -144h-63z" />
    <glyph glyph-name="ccedilla" unicode="&#xe7;" horiz-adv-x="482" 
d="M110 -208l15 29q16 -8 38.5 -12.5t42.5 -4.5q39 0 61 14.5t22 39.5q0 22 -16 32t-39 10q-13 0 -31 -3.5t-29 -8.5l-14 14l72 84q-89 7 -137.5 62.5t-48.5 140.5q0 77 36 144.5t99.5 108t143.5 40.5q50 0 93 -17t66 -50l-39 -35q-18 25 -50.5 39.5t-69.5 14.5
q-63 0 -113.5 -33t-79 -88t-28.5 -118q0 -70 42 -115.5t120 -45.5q41 0 77 15t62 42l31 -36q-37 -35 -77 -51.5t-91 -18.5l-54 -64q20 6 40 6q32 0 56 -15.5t24 -49.5q0 -46 -36 -68.5t-89 -22.5q-24 0 -52.5 5.5t-46.5 15.5z" />
    <glyph glyph-name="ccircumflex" unicode="&#x109;" horiz-adv-x="482" 
d="M46 189q0 77 36 144.5t99.5 108t143.5 40.5q45 0 88.5 -15.5t70.5 -40.5l-26 -44q-24 24 -60.5 38t-73.5 14q-62 0 -112.5 -33t-79 -88t-28.5 -118q0 -70 42 -115.5t120 -45.5q41 0 82 15t70 41l9 -49q-27 -25 -73 -41t-94 -16q-101 0 -157.5 57t-56.5 148zM344 709h62
l80 -144h-50l-64 118l-109 -118h-54z" />
    <glyph glyph-name="cdotaccent" unicode="&#x10b;" horiz-adv-x="482" 
d="M46 189q0 77 36 144.5t99.5 108t143.5 40.5q45 0 88.5 -15.5t70.5 -40.5l-26 -44q-24 24 -60.5 38t-73.5 14q-62 0 -112.5 -33t-79 -88t-28.5 -118q0 -70 42 -115.5t120 -45.5q41 0 82 15t70 41l9 -49q-27 -25 -73 -41t-94 -16q-101 0 -157.5 57t-56.5 148zM320 652
q0 18 12.5 31t29.5 13t27 -10t10 -27q0 -18 -12 -31.5t-29 -13.5q-16 0 -27 10.5t-11 27.5z" />
    <glyph glyph-name="d" unicode="d" horiz-adv-x="625" 
d="M46 193q0 78 33.5 144t94.5 105.5t139 39.5q64 0 111.5 -32t65.5 -85h2l67 383l58 11l-133 -759h-55l19 99h-3q-26 -50 -77.5 -81t-114.5 -31q-98 0 -152.5 57t-54.5 149zM474 273q0 70 -43 115.5t-114 45.5q-63 0 -111.5 -32.5t-75.5 -86.5t-27 -117q0 -71 42.5 -117
t119.5 -46q57 0 105 33.5t76 88t28 116.5z" />
    <glyph glyph-name="eth" unicode="&#xf0;" horiz-adv-x="602" 
d="M56 194q0 77 34 143t96.5 105.5t143.5 39.5q100 0 149 -64l4 2q-15 60 -46.5 121t-66.5 99l-122 -58l-25 29l121 58q-30 36 -81 76l50 27q43 -33 82 -80l115 57l31 -29l-119 -58q55 -69 93.5 -168t38.5 -203q0 -80 -32 -149.5t-94.5 -112t-150.5 -42.5q-68 0 -118 26.5
t-76.5 73t-26.5 107.5zM495 270q0 71 -43.5 117.5t-122.5 46.5q-63 0 -112 -32.5t-76 -86.5t-27 -116q0 -71 43 -117.5t122 -46.5q63 0 112.5 32.5t76.5 86.5t27 116z" />
    <glyph glyph-name="dcaron" unicode="&#x10f;" horiz-adv-x="679" 
d="M46 193q0 78 33.5 144t94.5 105.5t139 39.5q64 0 111.5 -32t65.5 -85h2l67 383l58 11l-133 -759h-55l19 99h-3q-26 -50 -77.5 -81t-114.5 -31q-98 0 -152.5 57t-54.5 149zM474 273q0 70 -43 115.5t-114 45.5q-63 0 -111.5 -32.5t-75.5 -86.5t-27 -117q0 -71 42.5 -117
t119.5 -46q57 0 105 33.5t76 88t28 116.5zM724 708h56l-106 -188h-46z" />
    <glyph glyph-name="dcroat" unicode="&#x111;" horiz-adv-x="625" 
d="M46 193q0 78 33.5 144t94.5 105.5t139 39.5q64 0 111.5 -32t65.5 -85h2l36 205h-193l8 39h192l25 142l57 7l-26 -149h60l-7 -39h-60l-100 -570h-55l19 99h-3q-26 -50 -77.5 -81t-114.5 -31q-98 0 -152.5 57t-54.5 149zM476 273q0 70 -43.5 115.5t-115.5 45.5
q-63 0 -111.5 -32.5t-75.5 -86.5t-27 -117q0 -71 42.5 -117t119.5 -46q58 0 106.5 33.5t76.5 88t28 116.5z" />
    <glyph glyph-name="e" unicode="e" horiz-adv-x="562" 
d="M46 197q0 76 35 141.5t97 104.5t139 39q92 0 141.5 -51.5t49.5 -134.5q0 -31 -8 -71h-397q-2 -20 -2 -27q0 -76 46 -120t124 -44q50 0 95.5 17.5t76.5 43.5l8 -51q-76 -57 -188 -57q-100 0 -158.5 57t-58.5 153zM452 266q2 24 2 36q0 61 -37 98t-103 37
q-56 0 -99.5 -25.5t-70 -64.5t-35.5 -81h343z" />
    <glyph glyph-name="eacute" unicode="&#xe9;" horiz-adv-x="562" 
d="M46 197q0 76 35 141.5t97 104.5t139 39q92 0 141.5 -51.5t49.5 -134.5q0 -31 -8 -71h-397q-2 -20 -2 -27q0 -76 46 -120t124 -44q50 0 95.5 17.5t76.5 43.5l8 -51q-76 -57 -188 -57q-100 0 -158.5 57t-58.5 153zM452 266q2 24 2 36q0 61 -37 98t-103 37
q-56 0 -99.5 -25.5t-70 -64.5t-35.5 -81h343zM407 709h67l-147 -144h-47z" />
    <glyph glyph-name="ebreve" unicode="&#x115;" horiz-adv-x="562" 
d="M46 197q0 76 35 141.5t97 104.5t139 39q92 0 141.5 -51.5t49.5 -134.5q0 -31 -8 -71h-397q-2 -20 -2 -27q0 -76 46 -120t124 -44q50 0 95.5 17.5t76.5 43.5l8 -51q-76 -57 -188 -57q-100 0 -158.5 57t-58.5 153zM452 266q2 24 2 36q0 61 -37 98t-103 37
q-56 0 -99.5 -25.5t-70 -64.5t-35.5 -81h343zM217 704h36q0 -45 24 -67.5t64 -22.5q95 0 120 90h34q-14 -63 -55.5 -97t-100.5 -34q-57 0 -89.5 33.5t-32.5 97.5z" />
    <glyph glyph-name="ecaron" unicode="&#x11b;" horiz-adv-x="562" 
d="M46 197q0 76 35 141.5t97 104.5t139 39q92 0 141.5 -51.5t49.5 -134.5q0 -31 -8 -71h-397q-2 -20 -2 -27q0 -76 46 -120t124 -44q50 0 95.5 17.5t76.5 43.5l8 -51q-76 -57 -188 -57q-100 0 -158.5 57t-58.5 153zM452 266q2 24 2 36q0 61 -37 98t-103 37
q-56 0 -99.5 -25.5t-70 -64.5t-35.5 -81h343zM225 709h50l64 -117l110 117h53l-134 -144h-63z" />
    <glyph glyph-name="ecircumflex" unicode="&#xea;" horiz-adv-x="562" 
d="M46 197q0 76 35 141.5t97 104.5t139 39q92 0 141.5 -51.5t49.5 -134.5q0 -31 -8 -71h-397q-2 -20 -2 -27q0 -76 46 -120t124 -44q50 0 95.5 17.5t76.5 43.5l8 -51q-76 -57 -188 -57q-100 0 -158.5 57t-58.5 153zM452 266q2 24 2 36q0 61 -37 98t-103 37
q-56 0 -99.5 -25.5t-70 -64.5t-35.5 -81h343zM342 709h62l80 -144h-50l-64 118l-109 -118h-54z" />
    <glyph glyph-name="edieresis" unicode="&#xeb;" horiz-adv-x="562" 
d="M46 197q0 76 35 141.5t97 104.5t139 39q92 0 141.5 -51.5t49.5 -134.5q0 -31 -8 -71h-397q-2 -20 -2 -27q0 -76 46 -120t124 -44q50 0 95.5 17.5t76.5 43.5l8 -51q-76 -57 -188 -57q-100 0 -158.5 57t-58.5 153zM452 266q2 24 2 36q0 61 -37 98t-103 37
q-56 0 -99.5 -25.5t-70 -64.5t-35.5 -81h343zM229 653q0 18 12 31t30 13q16 0 26 -10.5t10 -27.5q0 -18 -12 -31.5t-29 -13.5q-16 0 -26.5 10.5t-10.5 28.5zM403 653q0 18 12 31t29 13q16 0 27 -10.5t11 -27.5q0 -18 -12.5 -31.5t-29.5 -13.5q-16 0 -26.5 10.5t-10.5 28.5z
" />
    <glyph glyph-name="edotaccent" unicode="&#x117;" horiz-adv-x="562" 
d="M46 197q0 76 35 141.5t97 104.5t139 39q92 0 141.5 -51.5t49.5 -134.5q0 -31 -8 -71h-397q-2 -20 -2 -27q0 -76 46 -120t124 -44q50 0 95.5 17.5t76.5 43.5l8 -51q-76 -57 -188 -57q-100 0 -158.5 57t-58.5 153zM452 266q2 24 2 36q0 61 -37 98t-103 37
q-56 0 -99.5 -25.5t-70 -64.5t-35.5 -81h343zM311 652q0 18 12.5 31t29.5 13t27 -10t10 -27q0 -18 -12 -31.5t-29 -13.5q-16 0 -27 10.5t-11 27.5z" />
    <glyph glyph-name="egrave" unicode="&#xe8;" horiz-adv-x="562" 
d="M46 197q0 76 35 141.5t97 104.5t139 39q92 0 141.5 -51.5t49.5 -134.5q0 -31 -8 -71h-397q-2 -20 -2 -27q0 -76 46 -120t124 -44q50 0 95.5 17.5t76.5 43.5l8 -51q-76 -57 -188 -57q-100 0 -158.5 57t-58.5 153zM452 266q2 24 2 36q0 61 -37 98t-103 37
q-56 0 -99.5 -25.5t-70 -64.5t-35.5 -81h343zM206 709h66l105 -144h-47z" />
    <glyph glyph-name="emacron" unicode="&#x113;" horiz-adv-x="562" 
d="M46 197q0 76 35 141.5t97 104.5t139 39q92 0 141.5 -51.5t49.5 -134.5q0 -31 -8 -71h-397q-2 -20 -2 -27q0 -76 46 -120t124 -44q50 0 95.5 17.5t76.5 43.5l8 -51q-76 -57 -188 -57q-100 0 -158.5 57t-58.5 153zM452 266q2 24 2 36q0 61 -37 98t-103 37
q-56 0 -99.5 -25.5t-70 -64.5t-35.5 -81h343zM224 652h260l-7 -39h-259z" />
    <glyph glyph-name="eogonek" unicode="&#x119;" horiz-adv-x="562" 
d="M103 225q-2 -20 -2 -27q0 -76 46 -120t124 -44q50 0 95.5 17.5t76.5 43.5l8 -51q-68 -51 -162 -56q-53 -46 -75 -75.5t-22 -57.5q0 -20 12.5 -31t34.5 -11q37 0 66 26l12 -30q-44 -34 -92 -34q-35 0 -57.5 17.5t-22.5 50.5q0 36 25.5 69.5t76.5 74.5q-93 5 -147 61.5
t-54 148.5q0 76 35 141.5t97 104.5t139 39q92 0 141.5 -51.5t49.5 -134.5q0 -31 -8 -71h-397zM109 266h343q2 24 2 36q0 61 -37 98t-103 37q-56 0 -99.5 -25.5t-70 -64.5t-35.5 -81z" />
    <glyph glyph-name="f" unicode="f" horiz-adv-x="299" 
d="M142 423h-97l20 45h83l24 136q14 85 60 125t114 40q23 0 47 -3.5t37 -8.5l-17 -48q-36 11 -73 11q-47 0 -74 -32.5t-37 -84.5l-24 -135h123l-19 -45h-110l-76 -423h-56z" />
    <glyph glyph-name="g" unicode="g" horiz-adv-x="626" 
d="M17 -176l17 55q34 -35 82.5 -55.5t103.5 -20.5q100 0 148 59t67 160l15 80h-2q-28 -51 -78.5 -81t-112.5 -30q-98 0 -152.5 57t-54.5 148q0 77 33.5 142.5t94.5 104.5t139 39q64 0 111.5 -32.5t64.5 -86.5h3l19 105h55l-78 -444q-23 -124 -84 -197t-188 -73
q-64 0 -117 18.5t-86 51.5zM478 274q0 45 -19.5 81.5t-55 57.5t-82.5 21q-63 0 -112 -31.5t-75.5 -85t-26.5 -116.5q0 -71 42.5 -117t120.5 -46q58 0 105.5 33t75 87.5t27.5 115.5z" />
    <glyph glyph-name="gbreve" unicode="&#x11f;" horiz-adv-x="626" 
d="M17 -176l17 55q34 -35 82.5 -55.5t103.5 -20.5q100 0 148 59t67 160l15 80h-2q-28 -51 -78.5 -81t-112.5 -30q-98 0 -152.5 57t-54.5 148q0 77 33.5 142.5t94.5 104.5t139 39q64 0 111.5 -32.5t64.5 -86.5h3l19 105h55l-78 -444q-23 -124 -84 -197t-188 -73
q-64 0 -117 18.5t-86 51.5zM478 274q0 45 -19.5 81.5t-55 57.5t-82.5 21q-63 0 -112 -31.5t-75.5 -85t-26.5 -116.5q0 -71 42.5 -117t120.5 -46q58 0 105.5 33t75 87.5t27.5 115.5zM237 704h36q0 -45 24 -67.5t64 -22.5q95 0 120 90h34q-14 -63 -55.5 -97t-100.5 -34
q-57 0 -89.5 33.5t-32.5 97.5z" />
    <glyph glyph-name="gcircumflex" unicode="&#x11d;" horiz-adv-x="626" 
d="M17 -176l17 55q34 -35 82.5 -55.5t103.5 -20.5q100 0 148 59t67 160l15 80h-2q-28 -51 -78.5 -81t-112.5 -30q-98 0 -152.5 57t-54.5 148q0 77 33.5 142.5t94.5 104.5t139 39q64 0 111.5 -32.5t64.5 -86.5h3l19 105h55l-78 -444q-23 -124 -84 -197t-188 -73
q-64 0 -117 18.5t-86 51.5zM478 274q0 45 -19.5 81.5t-55 57.5t-82.5 21q-63 0 -112 -31.5t-75.5 -85t-26.5 -116.5q0 -71 42.5 -117t120.5 -46q58 0 105.5 33t75 87.5t27.5 115.5zM360 709h62l80 -144h-50l-64 118l-109 -118h-54z" />
    <glyph glyph-name="gcommaaccent" unicode="&#x123;" horiz-adv-x="626" 
d="M17 -176l17 55q34 -35 82.5 -55.5t103.5 -20.5q100 0 148 59t67 160l15 80h-2q-28 -51 -78.5 -81t-112.5 -30q-98 0 -152.5 57t-54.5 148q0 77 33.5 142.5t94.5 104.5t139 39q64 0 111.5 -32.5t64.5 -86.5h3l19 105h55l-78 -444q-23 -124 -84 -197t-188 -73
q-64 0 -117 18.5t-86 51.5zM478 274q0 45 -19.5 81.5t-55 57.5t-82.5 21q-63 0 -112 -31.5t-75.5 -85t-26.5 -116.5q0 -71 42.5 -117t120.5 -46q58 0 105.5 33t75 87.5t27.5 115.5zM419 754h45l-95 -189h-57z" />
    <glyph glyph-name="gdotaccent" unicode="&#x121;" horiz-adv-x="626" 
d="M17 -176l17 55q34 -35 82.5 -55.5t103.5 -20.5q100 0 148 59t67 160l15 80h-2q-28 -51 -78.5 -81t-112.5 -30q-98 0 -152.5 57t-54.5 148q0 77 33.5 142.5t94.5 104.5t139 39q64 0 111.5 -32.5t64.5 -86.5h3l19 105h55l-78 -444q-23 -124 -84 -197t-188 -73
q-64 0 -117 18.5t-86 51.5zM478 274q0 45 -19.5 81.5t-55 57.5t-82.5 21q-63 0 -112 -31.5t-75.5 -85t-26.5 -116.5q0 -71 42.5 -117t120.5 -46q58 0 105.5 33t75 87.5t27.5 115.5zM331 652q0 18 12.5 31t29.5 13t27 -10t10 -27q0 -18 -12 -31.5t-29 -13.5q-16 0 -27 10.5
t-11 27.5z" />
    <glyph glyph-name="h" unicode="h" horiz-adv-x="577" 
d="M177 748l59 11l-66 -386h2q28 51 73.5 80t99.5 29q73 0 111.5 -42.5t38.5 -113.5q0 -24 -5 -56l-48 -270h-58l48 269q4 20 4 46q0 52 -26.5 85.5t-83.5 33.5q-64 0 -114.5 -55t-67.5 -156l-40 -223h-58z" />
    <glyph glyph-name="hbar" unicode="&#x127;" horiz-adv-x="577" 
d="M146 570h-60l7 39h60l24 139l59 11l-25 -150h190l-8 -39h-189l-35 -201h2q28 53 73.5 83t100.5 30q73 0 112.5 -42t39.5 -106q0 -19 -5 -52l-50 -282h-58l48 269q5 28 5 51q0 50 -26.5 82t-84.5 32q-66 0 -115 -52t-65 -143l-42 -239h-58z" />
    <glyph glyph-name="hcircumflex" unicode="&#x125;" horiz-adv-x="577" 
d="M177 748l59 11l-66 -386h2q28 51 73.5 80t99.5 29q73 0 111.5 -42.5t38.5 -113.5q0 -24 -5 -56l-48 -270h-58l48 269q4 20 4 46q0 52 -26.5 85.5t-83.5 33.5q-64 0 -114.5 -55t-67.5 -156l-40 -223h-58zM367 940h62l80 -144h-50l-64 118l-109 -118h-54z" />
    <glyph glyph-name="i" unicode="i" horiz-adv-x="244" 
d="M145 652q0 19 13 32t30 13t27.5 -10.5t10.5 -27.5q0 -19 -12 -32t-30 -13q-17 0 -28 10t-11 28zM129 468h58l-83 -468h-57z" />
    <glyph glyph-name="dotlessi" unicode="&#x131;" horiz-adv-x="244" 
d="M129 468h58l-83 -468h-57z" />
    <glyph glyph-name="iacute" unicode="&#xed;" horiz-adv-x="244" 
d="M129 468h58l-83 -468h-57zM265 709h67l-147 -144h-47z" />
    <glyph glyph-name="ibreve" unicode="&#x12d;" horiz-adv-x="244" 
d="M129 468h58l-83 -468h-57zM59 704h36q0 -45 24 -67.5t64 -22.5q95 0 120 90h34q-14 -63 -55.5 -97t-100.5 -34q-57 0 -89.5 33.5t-32.5 97.5z" />
    <glyph glyph-name="icircumflex" unicode="&#xee;" horiz-adv-x="244" 
d="M129 468h58l-83 -468h-57zM173 709h62l80 -144h-50l-64 118l-109 -118h-54z" />
    <glyph glyph-name="idieresis" unicode="&#xef;" horiz-adv-x="244" 
d="M129 468h58l-83 -468h-57zM60 653q0 18 12 31t30 13q16 0 26 -10.5t10 -27.5q0 -18 -12 -31.5t-29 -13.5q-16 0 -26.5 10.5t-10.5 28.5zM234 653q0 18 12 31t29 13q16 0 27 -10.5t11 -27.5q0 -18 -12.5 -31.5t-29.5 -13.5q-16 0 -26.5 10.5t-10.5 28.5z" />
    <glyph glyph-name="igrave" unicode="&#xec;" horiz-adv-x="244" 
d="M129 468h58l-83 -468h-57zM36 709h66l105 -144h-47z" />
    <glyph glyph-name="ij" unicode="&#x133;" horiz-adv-x="489" 
d="M145 652q0 19 13 32t30 13t27.5 -10.5t10.5 -27.5q0 -19 -12 -32t-30 -13q-17 0 -28 10t-11 28zM129 468h58l-83 -468h-57zM390 652q0 19 12.5 32t30.5 13q16 0 27 -10.5t11 -27.5q0 -19 -12.5 -32t-29.5 -13t-28 10t-11 28zM139 -236l10 48q20 -4 31 -4q48 0 68.5 29
t29.5 82l96 549h58l-97 -551q-13 -74 -46.5 -116.5t-106.5 -42.5q-19 0 -43 6z" />
    <glyph glyph-name="imacron" unicode="&#x12b;" horiz-adv-x="244" 
d="M129 468h58l-83 -468h-57zM56 652h260l-7 -39h-259z" />
    <glyph glyph-name="iogonek" unicode="&#x12f;" horiz-adv-x="244" 
d="M145 652q0 19 13 32t30 13t27.5 -10.5t10.5 -27.5q0 -19 -12 -32t-30 -13q-17 0 -28 10t-11 28zM-58 -157q0 39 29 74.5t89 82.5h-13l82 468h58l-84 -468h-2q-62 -52 -87 -83.5t-25 -61.5q0 -20 13 -31t35 -11q17 0 34.5 7t31.5 19l11 -30q-44 -34 -91 -34q-35 0 -58 17
t-23 51z" />
    <glyph glyph-name="itilde" unicode="&#x129;" horiz-adv-x="244" 
d="M129 468h58l-83 -468h-57zM126 674q16 0 29.5 -5t34.5 -18q22 -13 34 -18t25 -5q35 0 51 48h33q-12 -41 -35.5 -64.5t-55.5 -23.5q-13 0 -29.5 6.5t-40.5 18.5q-16 9 -30 15.5t-23 6.5q-34 0 -52 -50h-33q13 41 37 65t55 24z" />
    <glyph glyph-name="j" unicode="j" horiz-adv-x="245" 
d="M146 652q0 19 12.5 32t30.5 13q16 0 27 -10.5t11 -27.5q0 -19 -12.5 -32t-29.5 -13t-28 10t-11 28zM-105 -236l10 48q20 -4 31 -4q48 0 68.5 29t29.5 82l96 549h58l-97 -551q-13 -74 -46.5 -116.5t-106.5 -42.5q-19 0 -43 6z" />
    <glyph glyph-name="uni0237" unicode="&#x237;" horiz-adv-x="245" 
d="M-105 -236l10 48q20 -4 31 -4q48 0 68.5 29t29.5 82l96 549h58l-97 -551q-13 -74 -46.5 -116.5t-106.5 -42.5q-19 0 -43 6z" />
    <glyph glyph-name="jcircumflex" unicode="&#x135;" horiz-adv-x="245" 
d="M-105 -236l10 48q20 -4 31 -4q48 0 68.5 29t29.5 82l96 549h58l-97 -551q-13 -74 -46.5 -116.5t-106.5 -42.5q-19 0 -43 6zM167 709h62l80 -144h-50l-64 118l-109 -118h-54z" />
    <glyph glyph-name="k" unicode="k" horiz-adv-x="473" 
d="M360 0l-210 245h-2l-43 -245h-58l132 748l58 11l-87 -500h2l250 209h78l-270 -219l216 -249h-66z" />
    <glyph glyph-name="kcommaaccent" unicode="&#x137;" horiz-adv-x="473" 
d="M360 0l-210 245h-2l-43 -245h-58l132 748l58 11l-87 -500h2l250 209h78l-270 -219l216 -249h-66zM201 -44h56l-106 -188h-46z" />
    <glyph glyph-name="kgreenlandic" unicode="&#x138;" horiz-adv-x="473" 
d="M360 0l-210 245h-2l-43 -245h-58l83 468h57l-37 -209h2l250 209h78l-270 -219l216 -249h-66z" />
    <glyph glyph-name="l" unicode="l" horiz-adv-x="245" 
d="M62 75q0 17 3 29l114 647l61 11l-114 -645q-3 -16 -3 -29q-1 -19 6 -30.5t25 -21.5l-34 -47q-27 10 -42.5 32t-15.5 54z" />
    <glyph glyph-name="lacute" unicode="&#x13a;" horiz-adv-x="245" 
d="M62 75q0 17 3 29l114 647l61 11l-114 -645q-3 -16 -3 -29q-1 -19 6 -30.5t25 -21.5l-34 -47q-27 10 -42.5 32t-15.5 54zM311 936h67l-147 -144h-47z" />
    <glyph glyph-name="lcaron" unicode="&#x13e;" horiz-adv-x="291" 
d="M62 75q0 17 3 29l114 647l61 11l-114 -645q-3 -16 -3 -29q-1 -19 6 -30.5t25 -21.5l-34 -47q-27 10 -42.5 32t-15.5 54zM355 708h56l-106 -188h-46z" />
    <glyph glyph-name="lcommaaccent" unicode="&#x13c;" horiz-adv-x="245" 
d="M62 75q0 17 3 29l114 647l61 11l-114 -645q-3 -16 -3 -29q-1 -19 6 -30.5t25 -21.5l-34 -47q-27 10 -42.5 32t-15.5 54zM68 -46h56l-106 -188h-46z" />
    <glyph glyph-name="ldot" unicode="&#x140;" horiz-adv-x="302" 
d="M62 75q0 17 3 29l114 647l61 11l-114 -645q-3 -16 -3 -29q-1 -19 6 -30.5t25 -21.5l-34 -47q-27 10 -42.5 32t-15.5 54zM264 425q0 18 12.5 31t29.5 13t27 -10t10 -27q0 -18 -12 -31.5t-29 -13.5q-16 0 -27 10.5t-11 27.5z" />
    <glyph glyph-name="lslash" unicode="&#x142;" horiz-adv-x="245" 
d="M123 90q-1 -20 6 -32t25 -22l-34 -47q-26 10 -42 31.5t-16 51.5q0 19 3 32l40 227l-76 -59l11 60l75 58l64 361l61 11l-57 -319l86 67l-10 -58l-86 -67l-47 -268q-3 -16 -3 -27z" />
    <glyph glyph-name="m" unicode="m" horiz-adv-x="891" 
d="M110 358q8 41 15 110h55q-4 -44 -14 -101q30 55 74.5 85t97.5 30q60 0 97.5 -34t43.5 -87q28 58 75 89.5t103 31.5q74 0 112.5 -43.5t38.5 -114.5q0 -20 -5 -52l-48 -272h-58l48 269q4 20 4 45q0 52 -26 86t-82 34q-66 0 -110.5 -52.5t-60.5 -139.5l-43 -242h-57l49 277
q4 26 4 41q0 50 -25.5 83t-79.5 33q-62 0 -110.5 -57.5t-67.5 -168.5l-36 -208h-58z" />
    <glyph glyph-name="n" unicode="n" horiz-adv-x="577" 
d="M110 358q8 41 15 110h55q-4 -44 -14 -101h2q28 55 75 85t102 30q73 0 111.5 -42.5t38.5 -113.5q0 -24 -5 -56l-48 -270h-58l48 269q4 20 4 47q0 52 -26.5 85t-83.5 33q-64 0 -114.5 -55t-67.5 -155l-40 -224h-58z" />
    <glyph glyph-name="nacute" unicode="&#x144;" horiz-adv-x="577" 
d="M110 358q8 41 15 110h55q-4 -44 -14 -101h2q28 55 75 85t102 30q73 0 111.5 -42.5t38.5 -113.5q0 -24 -5 -56l-48 -270h-58l48 269q4 20 4 47q0 52 -26.5 85t-83.5 33q-64 0 -114.5 -55t-67.5 -155l-40 -224h-58zM410 709h67l-147 -144h-47z" />
    <glyph glyph-name="napostrophe" unicode="&#x149;" horiz-adv-x="592" 
d="M125 358q8 41 15 110h55q-4 -44 -14 -101h2q28 55 75 85t102 30q73 0 111.5 -42.5t38.5 -113.5q0 -24 -5 -56l-48 -270h-58l48 269q4 20 4 47q0 52 -26.5 85t-83.5 33q-64 0 -114.5 -55t-67.5 -155l-40 -224h-58zM187 708h56l-106 -188h-46z" />
    <glyph glyph-name="ncaron" unicode="&#x148;" horiz-adv-x="577" 
d="M110 358q8 41 15 110h55q-4 -44 -14 -101h2q28 55 75 85t102 30q73 0 111.5 -42.5t38.5 -113.5q0 -24 -5 -56l-48 -270h-58l48 269q4 20 4 47q0 52 -26.5 85t-83.5 33q-64 0 -114.5 -55t-67.5 -155l-40 -224h-58zM217 709h50l64 -117l110 117h53l-134 -144h-63z" />
    <glyph glyph-name="ncommaaccent" unicode="&#x146;" horiz-adv-x="577" 
d="M110 358q8 41 15 110h55q-4 -44 -14 -101h2q28 55 75 85t102 30q73 0 111.5 -42.5t38.5 -113.5q0 -24 -5 -56l-48 -270h-58l48 269q4 20 4 47q0 52 -26.5 85t-83.5 33q-64 0 -114.5 -55t-67.5 -155l-40 -224h-58zM231 -44h56l-106 -188h-46z" />
    <glyph glyph-name="eng" unicode="&#x14b;" horiz-adv-x="577" 
d="M231 -236l10 48q22 -4 31 -4q48 0 68.5 29t29.5 82l62 350q5 28 5 51q0 50 -26.5 82t-84.5 32q-66 0 -115 -52t-65 -143l-42 -239h-58l64 358q8 41 15 110h55q-4 -44 -14 -101h2q28 55 75 85t102 30q73 0 112.5 -42t39.5 -106q0 -19 -5 -52l-65 -365q-12 -73 -45.5 -116
t-106.5 -43q-18 0 -44 6z" />
    <glyph glyph-name="ntilde" unicode="&#xf1;" horiz-adv-x="577" 
d="M110 358q8 41 15 110h55q-4 -44 -14 -101h2q28 55 75 85t102 30q73 0 111.5 -42.5t38.5 -113.5q0 -24 -5 -56l-48 -270h-58l48 269q4 20 4 47q0 52 -26.5 85t-83.5 33q-64 0 -114.5 -55t-67.5 -155l-40 -224h-58zM290 674q16 0 29.5 -5t34.5 -18q22 -13 34 -18t25 -5
q35 0 51 48h33q-12 -41 -35.5 -64.5t-55.5 -23.5q-13 0 -29.5 6.5t-40.5 18.5q-16 9 -30 15.5t-23 6.5q-34 0 -52 -50h-33q13 41 37 65t55 24z" />
    <glyph glyph-name="o" unicode="o" horiz-adv-x="602" 
d="M46 194q0 77 34.5 143t97 105.5t143.5 39.5q68 0 118 -26.5t76.5 -73.5t26.5 -107q0 -78 -34.5 -144t-97 -105t-144.5 -39q-68 0 -118 26.5t-76 73t-26 107.5zM484 270q0 71 -43.5 117t-122.5 46q-63 0 -112 -32t-75.5 -86t-26.5 -116q0 -72 42.5 -118t122.5 -46
q63 0 112 32.5t76 86.5t27 116z" />
    <glyph glyph-name="oacute" unicode="&#xf3;" horiz-adv-x="602" 
d="M46 194q0 77 34.5 143t97 105.5t143.5 39.5q68 0 118 -26.5t76.5 -73.5t26.5 -107q0 -78 -34.5 -144t-97 -105t-144.5 -39q-68 0 -118 26.5t-76 73t-26 107.5zM484 270q0 71 -43.5 117t-122.5 46q-63 0 -112 -32t-75.5 -86t-26.5 -116q0 -72 42.5 -118t122.5 -46
q63 0 112 32.5t76 86.5t27 116zM425 709h67l-147 -144h-47z" />
    <glyph glyph-name="obreve" unicode="&#x14f;" horiz-adv-x="602" 
d="M46 194q0 77 34.5 143t97 105.5t143.5 39.5q68 0 118 -26.5t76.5 -73.5t26.5 -107q0 -78 -34.5 -144t-97 -105t-144.5 -39q-68 0 -118 26.5t-76 73t-26 107.5zM484 270q0 71 -43.5 117t-122.5 46q-63 0 -112 -32t-75.5 -86t-26.5 -116q0 -72 42.5 -118t122.5 -46
q63 0 112 32.5t76 86.5t27 116zM220 704h36q0 -45 24 -67.5t64 -22.5q95 0 120 90h34q-14 -63 -55.5 -97t-100.5 -34q-57 0 -89.5 33.5t-32.5 97.5z" />
    <glyph glyph-name="ocircumflex" unicode="&#xf4;" horiz-adv-x="602" 
d="M46 194q0 77 34.5 143t97 105.5t143.5 39.5q68 0 118 -26.5t76.5 -73.5t26.5 -107q0 -78 -34.5 -144t-97 -105t-144.5 -39q-68 0 -118 26.5t-76 73t-26 107.5zM484 270q0 71 -43.5 117t-122.5 46q-63 0 -112 -32t-75.5 -86t-26.5 -116q0 -72 42.5 -118t122.5 -46
q63 0 112 32.5t76 86.5t27 116zM351 709h62l80 -144h-50l-64 118l-109 -118h-54z" />
    <glyph glyph-name="odieresis" unicode="&#xf6;" horiz-adv-x="602" 
d="M46 194q0 77 34.5 143t97 105.5t143.5 39.5q68 0 118 -26.5t76.5 -73.5t26.5 -107q0 -78 -34.5 -144t-97 -105t-144.5 -39q-68 0 -118 26.5t-76 73t-26 107.5zM484 270q0 71 -43.5 117t-122.5 46q-63 0 -112 -32t-75.5 -86t-26.5 -116q0 -72 42.5 -118t122.5 -46
q63 0 112 32.5t76 86.5t27 116zM237 653q0 18 12 31t30 13q16 0 26 -10.5t10 -27.5q0 -18 -12 -31.5t-29 -13.5q-16 0 -26.5 10.5t-10.5 28.5zM411 653q0 18 12 31t29 13q16 0 27 -10.5t11 -27.5q0 -18 -12.5 -31.5t-29.5 -13.5q-16 0 -26.5 10.5t-10.5 28.5z" />
    <glyph glyph-name="ograve" unicode="&#xf2;" horiz-adv-x="602" 
d="M46 194q0 77 34.5 143t97 105.5t143.5 39.5q68 0 118 -26.5t76.5 -73.5t26.5 -107q0 -78 -34.5 -144t-97 -105t-144.5 -39q-68 0 -118 26.5t-76 73t-26 107.5zM484 270q0 71 -43.5 117t-122.5 46q-63 0 -112 -32t-75.5 -86t-26.5 -116q0 -72 42.5 -118t122.5 -46
q63 0 112 32.5t76 86.5t27 116zM214 709h66l105 -144h-47z" />
    <glyph glyph-name="ohungarumlaut" unicode="&#x151;" horiz-adv-x="602" 
d="M46 194q0 77 34.5 143t97 105.5t143.5 39.5q68 0 118 -26.5t76.5 -73.5t26.5 -107q0 -78 -34.5 -144t-97 -105t-144.5 -39q-68 0 -118 26.5t-76 73t-26 107.5zM484 270q0 71 -43.5 117t-122.5 46q-63 0 -112 -32t-75.5 -86t-26.5 -116q0 -72 42.5 -118t122.5 -46
q63 0 112 32.5t76 86.5t27 116zM369 709h68l-148 -144h-47zM520 709h68l-148 -144h-48z" />
    <glyph glyph-name="omacron" unicode="&#x14d;" horiz-adv-x="602" 
d="M46 194q0 77 34.5 143t97 105.5t143.5 39.5q68 0 118 -26.5t76.5 -73.5t26.5 -107q0 -78 -34.5 -144t-97 -105t-144.5 -39q-68 0 -118 26.5t-76 73t-26 107.5zM484 270q0 71 -43.5 117t-122.5 46q-63 0 -112 -32t-75.5 -86t-26.5 -116q0 -72 42.5 -118t122.5 -46
q63 0 112 32.5t76 86.5t27 116zM232 652h260l-7 -39h-259z" />
    <glyph glyph-name="oslash" unicode="&#xf8;" horiz-adv-x="602" 
d="M7 7l75 65q-36 50 -36 123q0 76 34.5 142t97 105.5t143.5 39.5q100 0 159 -57l74 64l21 -25l-72 -64q39 -49 39 -125q0 -78 -34.5 -144t-97 -105t-144.5 -39q-51 0 -93 15.5t-70 44.5l-75 -65zM439 388q-42 47 -121 47q-63 0 -112 -32.5t-76 -86.5t-27 -116q0 -53 23 -89
zM484 269q0 55 -26 93l-314 -277q21 -24 52.5 -37.5t72.5 -13.5q63 0 112 32.5t76 86.5t27 116z" />
    <glyph glyph-name="oslashacute" unicode="&#x1ff;" horiz-adv-x="602" 
d="M7 7l75 65q-36 50 -36 123q0 76 34.5 142t97 105.5t143.5 39.5q100 0 159 -57l74 64l21 -25l-72 -64q39 -49 39 -125q0 -78 -34.5 -144t-97 -105t-144.5 -39q-51 0 -93 15.5t-70 44.5l-75 -65zM439 388q-42 47 -121 47q-63 0 -112 -32.5t-76 -86.5t-27 -116q0 -53 23 -89
zM484 269q0 55 -26 93l-314 -277q21 -24 52.5 -37.5t72.5 -13.5q63 0 112 32.5t76 86.5t27 116zM438 709h67l-147 -144h-47z" />
    <glyph glyph-name="otilde" unicode="&#xf5;" horiz-adv-x="602" 
d="M46 194q0 77 34.5 143t97 105.5t143.5 39.5q68 0 118 -26.5t76.5 -73.5t26.5 -107q0 -78 -34.5 -144t-97 -105t-144.5 -39q-68 0 -118 26.5t-76 73t-26 107.5zM484 270q0 71 -43.5 117t-122.5 46q-63 0 -112 -32t-75.5 -86t-26.5 -116q0 -72 42.5 -118t122.5 -46
q63 0 112 32.5t76 86.5t27 116zM301 674q16 0 29.5 -5t34.5 -18q22 -13 34 -18t25 -5q35 0 51 48h33q-12 -41 -35.5 -64.5t-55.5 -23.5q-13 0 -29.5 6.5t-40.5 18.5q-16 9 -30 15.5t-23 6.5q-34 0 -52 -50h-33q13 41 37 65t55 24z" />
    <glyph glyph-name="oe" unicode="&#x153;" horiz-adv-x="994" 
d="M494 123q-31 -62 -90 -99t-138 -37q-68 0 -118 26.5t-76 73t-26 107.5q0 77 34.5 143t97 105.5t143.5 39.5q79 0 131 -37t71 -101q31 62 90.5 100t134.5 38q92 0 141.5 -51.5t49.5 -134.5q0 -39 -9 -71h-395q-3 -15 -3 -27q0 -76 47 -120.5t122 -44.5q50 0 97 18t78 44
l8 -51q-78 -57 -188 -57q-79 0 -131.5 37t-70.5 99zM883 266q3 18 3 36q0 61 -37.5 98t-103.5 37q-56 0 -99.5 -25.5t-70 -65t-34.5 -80.5h342zM484 270q0 71 -43.5 117.5t-122.5 46.5q-63 0 -111.5 -32.5t-75.5 -86.5t-27 -116q0 -72 42.5 -118t122.5 -46q63 0 112 32.5
t76 86.5t27 116z" />
    <glyph glyph-name="p" unicode="p" horiz-adv-x="631" 
d="M130 468h55l-18 -98h3q27 49 79 80.5t114 31.5q98 0 152.5 -57t54.5 -149q0 -78 -33.5 -144.5t-94 -105.5t-138.5 -39q-64 0 -113 32t-66 85h-3l-60 -344h-57zM511 271q0 71 -42 117t-120 46q-57 0 -105 -33.5t-75.5 -88.5t-27.5 -117q0 -69 43 -115t114 -46
q63 0 111.5 32.5t75 87t26.5 117.5z" />
    <glyph glyph-name="thorn" unicode="&#xfe;" horiz-adv-x="631" 
d="M178 751l60 7l-69 -388h3q27 49 77.5 80.5t111.5 31.5q98 0 153.5 -57t55.5 -149q0 -78 -34 -144t-95.5 -105.5t-138.5 -39.5q-64 0 -112 32t-65 85h-3l-60 -344h-58zM511 271q0 71 -42 117t-120 46q-58 0 -106.5 -33.5t-76.5 -88.5t-28 -117q0 -45 20 -81.5t56.5 -58
t83.5 -21.5q63 0 111.5 32.5t75 87t26.5 117.5z" />
    <glyph glyph-name="q" unicode="q" horiz-adv-x="624" 
d="M465 -125q0 -27 13.5 -42.5t41.5 -25.5l-33 -48q-78 25 -78 103q0 14 3 31l34 205h-2q-26 -50 -77.5 -80.5t-113.5 -30.5q-98 0 -153 57t-55 149q0 78 33.5 144t94.5 105.5t139 39.5q63 0 111.5 -32.5t67.5 -86.5h2l18 105h56l-99 -567q-3 -15 -3 -26zM474 274
q0 69 -43.5 114.5t-114.5 45.5q-62 0 -110.5 -32.5t-75.5 -86.5t-27 -117q0 -71 42.5 -117t119.5 -46q57 0 105 33.5t76 89t28 116.5z" />
    <glyph glyph-name="r" unicode="r" horiz-adv-x="331" 
d="M110 358q8 41 15 110h55q-4 -46 -14 -102h2q29 57 72 86.5t93 29.5q16 0 28 -2l-20 -52q-14 2 -27 2q-68 0 -112 -57t-58 -147l-40 -226h-58z" />
    <glyph glyph-name="racute" unicode="&#x155;" horiz-adv-x="331" 
d="M110 358q8 41 15 110h55q-4 -46 -14 -102h2q29 57 72 86.5t93 29.5q16 0 28 -2l-20 -52q-14 2 -27 2q-68 0 -112 -57t-58 -147l-40 -226h-58zM288 709h67l-147 -144h-47z" />
    <glyph glyph-name="rcaron" unicode="&#x159;" horiz-adv-x="331" 
d="M110 358q8 41 15 110h55q-4 -46 -14 -102h2q29 57 72 86.5t93 29.5q16 0 28 -2l-20 -52q-14 2 -27 2q-68 0 -112 -57t-58 -147l-40 -226h-58zM134 709h50l64 -117l110 117h53l-134 -144h-63z" />
    <glyph glyph-name="rcommaaccent" unicode="&#x157;" horiz-adv-x="331" 
d="M110 358q8 41 15 110h55q-4 -46 -14 -102h2q29 57 72 86.5t93 29.5q16 0 28 -2l-20 -52q-14 2 -27 2q-68 0 -112 -57t-58 -147l-40 -226h-58zM61 -46h56l-106 -188h-46z" />
    <glyph glyph-name="s" unicode="s" horiz-adv-x="423" 
d="M16 39l19 47q23 -24 59 -38.5t79 -14.5q52 0 86.5 27.5t34.5 69.5q0 35 -25 56t-84 37q-58 17 -87 44.5t-29 72.5t24.5 77t65 48.5t86.5 16.5q43 0 82.5 -15t61.5 -35l-29 -39q-21 18 -51.5 31t-65.5 13q-50 0 -84.5 -24t-34.5 -68q0 -33 22 -50t70 -30q70 -19 102 -50.5
t32 -80.5q0 -67 -51 -107t-126 -40q-51 0 -92 14.5t-65 37.5z" />
    <glyph glyph-name="sacute" unicode="&#x15b;" horiz-adv-x="423" 
d="M16 39l19 47q23 -24 59 -38.5t79 -14.5q52 0 86.5 27.5t34.5 69.5q0 35 -25 56t-84 37q-58 17 -87 44.5t-29 72.5t24.5 77t65 48.5t86.5 16.5q43 0 82.5 -15t61.5 -35l-29 -39q-21 18 -51.5 31t-65.5 13q-50 0 -84.5 -24t-34.5 -68q0 -33 22 -50t70 -30q70 -19 102 -50.5
t32 -80.5q0 -67 -51 -107t-126 -40q-51 0 -92 14.5t-65 37.5zM340 709h67l-147 -144h-47z" />
    <glyph glyph-name="scaron" unicode="&#x161;" horiz-adv-x="423" 
d="M16 39l19 47q23 -24 59 -38.5t79 -14.5q52 0 86.5 27.5t34.5 69.5q0 35 -25 56t-84 37q-58 17 -87 44.5t-29 72.5t24.5 77t65 48.5t86.5 16.5q43 0 82.5 -15t61.5 -35l-29 -39q-21 18 -51.5 31t-65.5 13q-50 0 -84.5 -24t-34.5 -68q0 -33 22 -50t70 -30q70 -19 102 -50.5
t32 -80.5q0 -67 -51 -107t-126 -40q-51 0 -92 14.5t-65 37.5zM148 709h50l64 -117l110 117h53l-134 -144h-63z" />
    <glyph glyph-name="scedilla" unicode="&#x15f;" horiz-adv-x="423" 
d="M36 -208l15 29q16 -8 39 -12.5t43 -4.5q39 0 60.5 14.5t21.5 39.5q0 21 -16 31.5t-38 10.5q-13 0 -31.5 -3.5t-29.5 -8.5l-13 14l73 85q-51 2 -88.5 20t-64.5 53l40 34q46 -61 126 -61q52 0 86.5 27.5t34.5 69.5q0 35 -25 56t-84 37q-58 17 -87 44.5t-29 72.5t24.5 77
t65 48.5t86.5 16.5q49 0 88.5 -17.5t58.5 -46.5l-39 -31q-37 50 -110 50q-50 0 -84.5 -24t-34.5 -68q0 -33 22 -50t70 -30q70 -19 102 -50.5t32 -80.5q0 -62 -43 -100.5t-110 -45.5l-57 -67q21 6 41 6q31 0 55.5 -15.5t24.5 -49.5q0 -46 -36.5 -68.5t-89.5 -22.5
q-24 0 -52 5.5t-47 15.5z" />
    <glyph glyph-name="scircumflex" unicode="&#x15d;" horiz-adv-x="423" 
d="M16 39l19 47q23 -24 59 -38.5t79 -14.5q52 0 86.5 27.5t34.5 69.5q0 35 -25 56t-84 37q-58 17 -87 44.5t-29 72.5t24.5 77t65 48.5t86.5 16.5q43 0 82.5 -15t61.5 -35l-29 -39q-21 18 -51.5 31t-65.5 13q-50 0 -84.5 -24t-34.5 -68q0 -33 22 -50t70 -30q70 -19 102 -50.5
t32 -80.5q0 -67 -51 -107t-126 -40q-51 0 -92 14.5t-65 37.5zM267 709h62l80 -144h-50l-64 118l-109 -118h-54z" />
    <glyph glyph-name="scommaaccent" unicode="&#x219;" horiz-adv-x="423" 
d="M16 39l19 47q23 -24 59 -38.5t79 -14.5q52 0 86.5 27.5t34.5 69.5q0 35 -25 56t-84 37q-58 17 -87 44.5t-29 72.5t24.5 77t65 48.5t86.5 16.5q43 0 82.5 -15t61.5 -35l-29 -39q-21 18 -51.5 31t-65.5 13q-50 0 -84.5 -24t-34.5 -68q0 -33 22 -50t70 -30q70 -19 102 -50.5
t32 -80.5q0 -67 -51 -107t-126 -40q-51 0 -92 14.5t-65 37.5zM146 -45h56l-106 -188h-46z" />
    <glyph glyph-name="germandbls" unicode="&#xdf;" horiz-adv-x="596" 
d="M207 -6l8 48q30 -5 51 -5q61 0 109.5 25.5t75.5 71t27 105.5q0 69 -43 115t-119 46h-13l9 49h13q44 0 83 16.5t63.5 50t24.5 81.5q0 59 -35.5 90.5t-91.5 31.5q-81 0 -120 -53.5t-53 -134.5l-94 -531h-57l94 535q39 233 231 233q79 0 131.5 -43t52.5 -120
q0 -73 -45 -118.5t-111 -59.5v-2q59 -13 99 -61t40 -123q0 -71 -32.5 -128t-93.5 -90.5t-144 -33.5q-30 0 -60 5z" />
    <glyph glyph-name="t" unicode="t" horiz-adv-x="318" 
d="M68 80q0 20 4 42l53 300h-79l19 46h67l20 113l61 24l-24 -137h138l-19 -46h-127l-52 -294q-4 -22 -4 -36q0 -55 63 -55q32 0 78 22l4 -45q-48 -24 -101 -24q-47 0 -74 23.5t-27 66.5z" />
    <glyph glyph-name="tbar" unicode="&#x167;" horiz-adv-x="318" 
d="M181 422l-23 -131h105l-7 -38h-105l-22 -125q-4 -22 -4 -36q0 -55 63 -55q32 0 78 22l4 -45q-48 -24 -101 -24q-47 0 -74 23.5t-27 66.5q0 20 4 42l23 131h-65l8 38h64l23 131h-79l19 46h67l20 113l61 24l-24 -137h138l-19 -46h-127z" />
    <glyph glyph-name="tcaron" unicode="&#x165;" horiz-adv-x="327" 
d="M68 80q0 20 4 42l53 300h-79l19 46h67l20 113l61 24l-24 -137h138l-19 -46h-127l-52 -294q-4 -22 -4 -36q0 -55 63 -55q32 0 78 22l4 -45q-48 -24 -101 -24q-47 0 -74 23.5t-27 66.5zM375 734h56l-106 -188h-46z" />
    <glyph glyph-name="u" unicode="u" horiz-adv-x="577" 
d="M64 142q0 31 5 53l48 273h57l-48 -269q-4 -32 -4 -46q0 -52 26 -85t84 -33q66 0 116 54.5t68 156.5l38 222h58l-63 -358q-12 -64 -15 -110h-56q1 15 10 77q1 5 4 25h-2q-29 -55 -75.5 -85t-101.5 -30q-73 0 -111 42.5t-38 112.5z" />
    <glyph glyph-name="uacute" unicode="&#xfa;" horiz-adv-x="577" 
d="M64 142q0 31 5 53l48 273h57l-48 -269q-4 -32 -4 -46q0 -52 26 -85t84 -33q66 0 116 54.5t68 156.5l38 222h58l-63 -358q-12 -64 -15 -110h-56q1 15 10 77q1 5 4 25h-2q-29 -55 -75.5 -85t-101.5 -30q-73 0 -111 42.5t-38 112.5zM411 709h67l-147 -144h-47z" />
    <glyph glyph-name="ubreve" unicode="&#x16d;" horiz-adv-x="577" 
d="M64 142q0 31 5 53l48 273h57l-48 -269q-4 -32 -4 -46q0 -52 26 -85t84 -33q66 0 116 54.5t68 156.5l38 222h58l-63 -358q-12 -64 -15 -110h-56q1 15 10 77q1 5 4 25h-2q-29 -55 -75.5 -85t-101.5 -30q-73 0 -111 42.5t-38 112.5zM202 704h36q0 -45 24 -67.5t64 -22.5
q95 0 120 90h34q-14 -63 -55.5 -97t-100.5 -34q-57 0 -89.5 33.5t-32.5 97.5z" />
    <glyph glyph-name="ucircumflex" unicode="&#xfb;" horiz-adv-x="577" 
d="M64 142q0 31 5 53l48 273h57l-48 -269q-4 -32 -4 -46q0 -52 26 -85t84 -33q66 0 116 54.5t68 156.5l38 222h58l-63 -358q-12 -64 -15 -110h-56q1 15 10 77q1 5 4 25h-2q-29 -55 -75.5 -85t-101.5 -30q-73 0 -111 42.5t-38 112.5zM328 709h62l80 -144h-50l-64 118
l-109 -118h-54z" />
    <glyph glyph-name="udieresis" unicode="&#xfc;" horiz-adv-x="577" 
d="M64 142q0 31 5 53l48 273h57l-48 -269q-4 -32 -4 -46q0 -52 26 -85t84 -33q66 0 116 54.5t68 156.5l38 222h58l-63 -358q-12 -64 -15 -110h-56q1 15 10 77q1 5 4 25h-2q-29 -55 -75.5 -85t-101.5 -30q-73 0 -111 42.5t-38 112.5zM216 653q0 18 12 31t30 13q16 0 26 -10.5
t10 -27.5q0 -18 -12 -31.5t-29 -13.5q-16 0 -26.5 10.5t-10.5 28.5zM390 653q0 18 12 31t29 13q16 0 27 -10.5t11 -27.5q0 -18 -12.5 -31.5t-29.5 -13.5q-16 0 -26.5 10.5t-10.5 28.5z" />
    <glyph glyph-name="ugrave" unicode="&#xf9;" horiz-adv-x="577" 
d="M64 142q0 31 5 53l48 273h57l-48 -269q-4 -32 -4 -46q0 -52 26 -85t84 -33q66 0 116 54.5t68 156.5l38 222h58l-63 -358q-12 -64 -15 -110h-56q1 15 10 77q1 5 4 25h-2q-29 -55 -75.5 -85t-101.5 -30q-73 0 -111 42.5t-38 112.5zM183 709h66l105 -144h-47z" />
    <glyph glyph-name="uhungarumlaut" unicode="&#x171;" horiz-adv-x="577" 
d="M64 142q0 31 5 53l48 273h57l-48 -269q-4 -32 -4 -46q0 -52 26 -85t84 -33q66 0 116 54.5t68 156.5l38 222h58l-63 -358q-12 -64 -15 -110h-56q1 15 10 77q1 5 4 25h-2q-29 -55 -75.5 -85t-101.5 -30q-73 0 -111 42.5t-38 112.5zM349 709h68l-148 -144h-47zM500 709h68
l-148 -144h-48z" />
    <glyph glyph-name="umacron" unicode="&#x16b;" horiz-adv-x="577" 
d="M64 142q0 31 5 53l48 273h57l-48 -269q-4 -32 -4 -46q0 -52 26 -85t84 -33q66 0 116 54.5t68 156.5l38 222h58l-63 -358q-12 -64 -15 -110h-56q1 15 10 77q1 5 4 25h-2q-29 -55 -75.5 -85t-101.5 -30q-73 0 -111 42.5t-38 112.5zM212 652h260l-7 -39h-259z" />
    <glyph glyph-name="uni0163" unicode="&#x163;" horiz-adv-x="318" 
d="M68 80q0 20 4 42l53 300h-79l19 46h67l20 113l61 24l-24 -137h138l-19 -46h-127l-52 -294q-4 -22 -4 -36q0 -55 63 -55q32 0 78 22l4 -45q-48 -24 -101 -24q-47 0 -74 23.5t-27 66.5zM131 -45h56l-106 -188h-46z" />
    <glyph glyph-name="uni021B" unicode="&#x21b;" horiz-adv-x="318" 
d="M68 80q0 20 4 42l53 300h-79l19 46h67l20 113l61 24l-24 -137h138l-19 -46h-127l-52 -294q-4 -22 -4 -36q0 -55 63 -55q32 0 78 22l4 -45q-48 -24 -101 -24q-47 0 -74 23.5t-27 66.5zM131 -45h56l-106 -188h-46z" />
    <glyph glyph-name="uogonek" unicode="&#x173;" horiz-adv-x="577" 
d="M512 468l-63 -358q-12 -64 -15 -110h-13q-62 -53 -87.5 -84t-25.5 -61q0 -20 13 -31t35 -11q17 0 34.5 7t31.5 19l11 -30q-44 -34 -92 -34q-35 0 -57.5 17.5t-22.5 50.5q0 39 29 74.5t90 82.5h-2q1 15 10 77q1 5 4 25h-2q-29 -55 -75.5 -85t-101.5 -30q-73 0 -111 42.5
t-38 112.5q0 31 5 53l48 273h57l-48 -269q-4 -32 -4 -46q0 -52 26 -85t84 -33q66 0 116 54.5t68 156.5l38 222h58z" />
    <glyph glyph-name="uring" unicode="&#x16f;" horiz-adv-x="577" 
d="M64 142q0 31 5 53l48 273h57l-48 -269q-4 -32 -4 -46q0 -52 26 -85t84 -33q66 0 116 54.5t68 156.5l38 222h58l-63 -358q-12 -64 -15 -110h-56q1 15 10 77q1 5 4 25h-2q-29 -55 -75.5 -85t-101.5 -30q-73 0 -111 42.5t-38 112.5zM247 636q0 47 29.5 80t76.5 33
q40 0 62.5 -22t22.5 -58q0 -48 -29.5 -81t-76.5 -33q-40 0 -62.5 22.5t-22.5 58.5zM411 666q0 25 -15.5 42t-43.5 17q-34 0 -56 -25t-22 -61q0 -25 15 -41.5t44 -16.5q34 0 56 25t22 60z" />
    <glyph glyph-name="utilde" unicode="&#x169;" horiz-adv-x="577" 
d="M64 142q0 31 5 53l48 273h57l-48 -269q-4 -32 -4 -46q0 -52 26 -85t84 -33q66 0 116 54.5t68 156.5l38 222h58l-63 -358q-12 -64 -15 -110h-56q1 15 10 77q1 5 4 25h-2q-29 -55 -75.5 -85t-101.5 -30q-73 0 -111 42.5t-38 112.5zM282 674q16 0 29.5 -5t34.5 -18
q22 -13 34 -18t25 -5q35 0 51 48h33q-12 -41 -35.5 -64.5t-55.5 -23.5q-13 0 -29.5 6.5t-40.5 18.5q-16 9 -30 15.5t-23 6.5q-34 0 -52 -50h-33q13 41 37 65t55 24z" />
    <glyph glyph-name="v" unicode="v" horiz-adv-x="463" 
d="M49 468h60l72 -408h2l236 408h63l-278 -468h-65z" />
    <glyph glyph-name="w" unicode="w" horiz-adv-x="731" 
d="M62 468h60l31 -402h2l215 402h62l52 -402h2l199 402h62l-242 -468h-63l-53 400h-2l-216 -400h-62z" />
    <glyph glyph-name="wacute" unicode="&#x1e83;" horiz-adv-x="731" 
d="M62 468h60l31 -402h2l215 402h62l52 -402h2l199 402h62l-242 -468h-63l-53 400h-2l-216 -400h-62zM522 709h67l-147 -144h-47z" />
    <glyph glyph-name="wcircumflex" unicode="&#x175;" horiz-adv-x="731" 
d="M62 468h60l31 -402h2l215 402h62l52 -402h2l199 402h62l-242 -468h-63l-53 400h-2l-216 -400h-62zM415 709h62l80 -144h-50l-64 118l-109 -118h-54z" />
    <glyph glyph-name="wdieresis" unicode="&#x1e85;" horiz-adv-x="731" 
d="M62 468h60l31 -402h2l215 402h62l52 -402h2l199 402h62l-242 -468h-63l-53 400h-2l-216 -400h-62zM306 653q0 18 12 31t30 13q16 0 26 -10.5t10 -27.5q0 -18 -12 -31.5t-29 -13.5q-16 0 -26.5 10.5t-10.5 28.5zM480 653q0 18 12 31t29 13q16 0 27 -10.5t11 -27.5
q0 -18 -12.5 -31.5t-29.5 -13.5q-16 0 -26.5 10.5t-10.5 28.5z" />
    <glyph glyph-name="wgrave" unicode="&#x1e81;" horiz-adv-x="731" 
d="M62 468h60l31 -402h2l215 402h62l52 -402h2l199 402h62l-242 -468h-63l-53 400h-2l-216 -400h-62zM269 709h66l105 -144h-47z" />
    <glyph glyph-name="x" unicode="x" horiz-adv-x="467" 
d="M192 248l-122 220h64l98 -185l167 185h71l-210 -224l139 -244h-66l-114 208l-190 -208h-71z" />
    <glyph glyph-name="y" unicode="y" horiz-adv-x="464" 
d="M103 -102l53 95l-100 475h61l79 -412l226 412h63l-333 -587q-34 -63 -78 -91t-108 -30l-11 52q54 2 88.5 20.5t59.5 65.5z" />
    <glyph glyph-name="yacute" unicode="&#xfd;" horiz-adv-x="464" 
d="M103 -102l53 95l-100 475h61l79 -412l226 412h63l-333 -587q-34 -63 -78 -91t-108 -30l-11 52q54 2 88.5 20.5t59.5 65.5zM373 709h67l-147 -144h-47z" />
    <glyph glyph-name="ycircumflex" unicode="&#x177;" horiz-adv-x="464" 
d="M103 -102l53 95l-100 475h61l79 -412l226 412h63l-333 -587q-34 -63 -78 -91t-108 -30l-11 52q54 2 88.5 20.5t59.5 65.5zM282 709h62l80 -144h-50l-64 118l-109 -118h-54z" />
    <glyph glyph-name="ydieresis" unicode="&#xff;" horiz-adv-x="464" 
d="M103 -102l53 95l-100 475h61l79 -412l226 412h63l-333 -587q-34 -63 -78 -91t-108 -30l-11 52q54 2 88.5 20.5t59.5 65.5zM173 653q0 18 12 31t30 13q16 0 26 -10.5t10 -27.5q0 -18 -12 -31.5t-29 -13.5q-16 0 -26.5 10.5t-10.5 28.5zM347 653q0 18 12 31t29 13
q16 0 27 -10.5t11 -27.5q0 -18 -12.5 -31.5t-29.5 -13.5q-16 0 -26.5 10.5t-10.5 28.5z" />
    <glyph glyph-name="ygrave" unicode="&#x1ef3;" horiz-adv-x="464" 
d="M103 -102l53 95l-100 475h61l79 -412l226 412h63l-333 -587q-34 -63 -78 -91t-108 -30l-11 52q54 2 88.5 20.5t59.5 65.5zM150 709h66l105 -144h-47z" />
    <glyph glyph-name="z" unicode="z" horiz-adv-x="447" 
d="M0 46l352 376h-279l19 46h340l-8 -45l-352 -376h307l-20 -47h-366z" />
    <glyph glyph-name="zacute" unicode="&#x17a;" horiz-adv-x="447" 
d="M0 46l352 376h-279l19 46h340l-8 -45l-352 -376h307l-20 -47h-366zM350 709h67l-147 -144h-47z" />
    <glyph glyph-name="zcaron" unicode="&#x17e;" horiz-adv-x="447" 
d="M0 46l352 376h-279l19 46h340l-8 -45l-352 -376h307l-20 -47h-366zM159 709h50l64 -117l110 117h53l-134 -144h-63z" />
    <glyph glyph-name="zdotaccent" unicode="&#x17c;" horiz-adv-x="447" 
d="M0 46l352 376h-279l19 46h340l-8 -45l-352 -376h307l-20 -47h-366zM247 652q0 18 12.5 31t29.5 13t27 -10t10 -27q0 -18 -12 -31.5t-29 -13.5q-16 0 -27 10.5t-11 27.5z" />
    <glyph glyph-name="ordfeminine" unicode="&#xaa;" horiz-adv-x="355" 
d="M97 499q0 60 56.5 82t155.5 22q4 13 4 28q0 28 -18.5 42t-49.5 14q-43 0 -84 -31l-17 27q22 18 50.5 28t55.5 10q46 0 74 -22t28 -62q0 -6 -3 -33l-20 -110q-6 -44 -6 -63h-35q0 25 5 55h-2q-15 -29 -42.5 -45.5t-61.5 -16.5q-35 0 -62.5 19t-27.5 56zM301 551l4 24h-13
q-68 0 -111.5 -16t-43.5 -55q0 -26 18.5 -37t44.5 -11q41 0 67 27.5t34 67.5z" />
    <glyph glyph-name="ordmasculine" unicode="&#xba;" horiz-adv-x="355" 
d="M79 548q0 47 21 87t59 63.5t86 23.5q61 0 97 -35t36 -90q0 -47 -21 -87t-59 -63.5t-87 -23.5q-61 0 -96.5 35t-35.5 90zM335 593q0 40 -24 66.5t-69 26.5q-53 0 -86.5 -39.5t-33.5 -94.5q0 -40 23.5 -66.5t68.5 -26.5q53 0 87 39.5t34 94.5z" />
    <glyph glyph-name="pi" unicode="&#x3c0;" horiz-adv-x="621" 
d="M588 44v-43q-26 -11 -63 -11q-49 0 -76 30t-27 86v316h-241v-422h-59v422h-110v35l88 11h493v-46h-113v-307q0 -79 61 -79q28 0 47 8z" />
    <glyph glyph-name="zero" unicode="0" horiz-adv-x="569" 
d="M63 222q0 116 32 231t99.5 192.5t168.5 77.5q98 0 142.5 -67t44.5 -171q0 -115 -31.5 -230.5t-99 -192.5t-167.5 -77q-99 0 -144 66.5t-45 170.5zM489 476q0 86 -29.5 141t-100.5 55t-124.5 -64t-82.5 -165.5t-29 -210.5q0 -85 30 -140t101 -55q70 0 123.5 63.5t82.5 165
t29 210.5z" />
    <glyph glyph-name="one" unicode="1" horiz-adv-x="569" 
d="M355 639l-153 -106l-25 44l193 131h56l-125 -708h-59z" />
    <glyph glyph-name="two" unicode="2" horiz-adv-x="569" 
d="M28 58l311 283q75 69 105.5 116.5t31.5 98.5q0 53 -37 84.5t-93 31.5q-51 0 -96 -24.5t-75 -64.5l-28 47q34 43 85 68t117 25q81 0 134.5 -43.5t53.5 -118.5q0 -51 -18.5 -92t-52 -77.5t-96.5 -93.5l-268 -245h372l-21 -53h-436z" />
    <glyph glyph-name="three" unicode="3" horiz-adv-x="569" 
d="M23 68l24 54q27 -35 82 -60t114 -25q55 0 98.5 23.5t67.5 62.5t24 85q0 68 -46.5 103.5t-117.5 35.5h-29l9 48h29q90 0 140.5 45t50.5 119q0 50 -36.5 82t-90.5 32q-49 0 -98 -24t-87 -62l-20 47q43 42 97 65.5t116 23.5q77 0 127.5 -44t50.5 -117q0 -72 -42.5 -123.5
t-121.5 -66.5v-2q59 -12 94 -55.5t35 -102.5q0 -62 -31.5 -114t-88.5 -82.5t-131 -30.5q-72 0 -131 24t-88 59z" />
    <glyph glyph-name="four" unicode="4" horiz-adv-x="569" 
d="M364 173h-331l11 58l390 477h81l-86 -485h118l-21 -50h-105l-31 -173h-56zM373 223l74 422h-3l-344 -422h273z" />
    <glyph glyph-name="five" unicode="5" horiz-adv-x="569" 
d="M40 65l22 53q28 -35 77 -58t107 -23q60 0 105 27.5t69 74.5t24 104q0 68 -44 110.5t-117 42.5q-36 0 -74.5 -10t-71.5 -27l69 349h348l-21 -52h-283l-47 -233q45 19 98 19q59 0 105.5 -24t72.5 -67.5t26 -99.5q0 -74 -32.5 -135t-92 -96t-137.5 -35q-71 0 -122.5 22.5
t-80.5 57.5z" />
    <glyph glyph-name="six" unicode="6" horiz-adv-x="569" 
d="M52 212q0 129 53 245.5t143 187t195 70.5q76 0 120 -20l-20 -49q-44 19 -104 19q-67 0 -131 -41.5t-113 -117.5t-71 -176q71 96 197 96q85 0 138 -52t53 -136q0 -70 -31.5 -127.5t-89.5 -91.5t-134 -34q-92 0 -148.5 60t-56.5 167zM452 234q0 63 -39.5 105t-104.5 42
q-55 0 -100.5 -26.5t-71 -70t-25.5 -92.5q0 -69 41 -113t108 -44q57 0 100.5 27t67.5 72.5t24 99.5z" />
    <glyph glyph-name="seven" unicode="7" horiz-adv-x="569" 
d="M495 656h-356l21 52h408l-10 -55l-412 -653h-71z" />
    <glyph glyph-name="eight" unicode="8" horiz-adv-x="569" 
d="M52 163q0 83 51.5 141.5t131.5 75.5v2q-47 17 -71 54t-24 83q0 60 29.5 106.5t78.5 72t106 25.5q80 0 131 -43t51 -123q0 -70 -42.5 -117.5t-106.5 -63.5v-2q50 -15 83.5 -56.5t33.5 -98.5q0 -75 -35 -127.5t-92.5 -79.5t-123.5 -27q-53 0 -98.5 19.5t-74 60t-28.5 98.5z
M479 549q0 59 -35.5 91.5t-94.5 32.5q-44 0 -79 -21.5t-55 -57t-20 -76.5q0 -51 33 -84.5t88 -33.5q47 0 84.5 21.5t58 56t20.5 71.5zM446 218q0 37 -18.5 67.5t-51 48.5t-72.5 18q-53 0 -97.5 -24t-70 -65.5t-25.5 -93.5q0 -60 40.5 -96.5t102.5 -36.5q57 0 100.5 23.5
t67.5 65t24 93.5z" />
    <glyph glyph-name="nine" unicode="9" horiz-adv-x="569" 
d="M559 492q0 -128 -53 -243.5t-143 -186t-195 -70.5q-76 0 -120 20l20 49q40 -19 104 -19q67 0 131.5 41.5t113 117.5t70.5 175q-72 -95 -197 -95q-56 0 -99.5 23.5t-67.5 66.5t-24 99q0 69 31.5 126.5t89 91t132.5 33.5q93 0 150 -60.5t57 -168.5zM159 473
q0 -63 39.5 -105t104.5 -42q55 0 100.5 26t71 69.5t25.5 92.5q0 69 -41 113.5t-108 44.5q-57 0 -100.5 -27t-67.5 -72.5t-24 -99.5z" />
    <glyph glyph-name="zero.denominator" horiz-adv-x="369" 
d="M339 288q0 -68 -19.5 -136.5t-60.5 -114.5t-101 -46t-88 40.5t-28 103.5q0 69 19.5 137.5t60.5 114.5t102 46q60 0 87.5 -41t27.5 -104zM90 140q0 -108 71 -108q39 0 68.5 36.5t45.5 94.5t16 121q0 109 -70 109q-40 0 -69.5 -37t-45.5 -95t-16 -121z" />
    <glyph glyph-name="one.denominator" horiz-adv-x="217" 
d="M140 370l-94 -61l-21 34l130 81h43l-74 -423h-48z" />
    <glyph glyph-name="two.denominator" horiz-adv-x="336" 
d="M6 41l184 161q46 40 63.5 66t17.5 57q0 30 -19 47.5t-52 17.5q-34 0 -62 -19t-46 -51l-28 29q22 39 57.5 60t82.5 21q48 0 80 -27.5t32 -71.5q0 -46 -22 -77.5t-82 -83.5l-149 -131h219l-13 -41h-270z" />
    <glyph glyph-name="three.denominator" horiz-adv-x="332" 
d="M-1 63l33 24q12 -27 40.5 -42t59.5 -15q45 0 71.5 25t26.5 65q0 41 -26.5 61.5t-69.5 20.5h-20l7 37h20q51 0 80.5 23.5t29.5 62.5q0 34 -19.5 51t-50.5 17q-48 0 -87 -44l-25 29q45 54 117 54q48 0 79 -26.5t31 -74.5q0 -47 -28.5 -75.5t-70.5 -35.5q35 -9 56.5 -35.5
t21.5 -63.5q0 -61 -41 -96t-102 -35q-46 0 -81 19.5t-52 53.5z" />
    <glyph glyph-name="four.denominator" horiz-adv-x="348" 
d="M195 101h-196l8 42l230 280h57l-50 -282h71l-12 -40h-65l-18 -100h-44zM201 141l40 228h-3l-185 -228h148z" />
    <glyph glyph-name="five.denominator" horiz-adv-x="356" 
d="M24 33l13 45q19 -21 49 -33.5t63 -12.5q49 0 80 33t31 81q0 39 -25 63t-66 24q-42 0 -92 -25l43 216h208l-10 -40h-163l-24 -123q26 9 49 9q56 0 91 -32.5t35 -86.5q0 -69 -44 -114t-114 -45q-39 0 -71.5 11t-52.5 30z" />
    <glyph glyph-name="six.denominator" horiz-adv-x="348" 
d="M29 135q0 88 32 153.5t85.5 100t116.5 34.5q22 0 42 -4.5t32 -10.5l-17 -36q-10 5 -28 9t-36 4q-64 0 -112 -48.5t-64 -132.5q18 25 47.5 40.5t64.5 15.5q51 0 83.5 -31.5t32.5 -82.5q0 -42 -19 -77.5t-53 -56.5t-77 -21q-59 0 -94.5 37.5t-35.5 106.5zM263 143
q0 35 -22.5 57.5t-57.5 22.5q-32 0 -56.5 -15.5t-38.5 -40t-14 -50.5q0 -36 23 -61t62 -25q45 0 74.5 32.5t29.5 79.5z" />
    <glyph glyph-name="seven.denominator" horiz-adv-x="316" 
d="M256 383h-198l7 41h252l-6 -33l-254 -390h-53z" />
    <glyph glyph-name="eight.denominator" horiz-adv-x="314" 
d="M-3 101q0 46 29.5 84.5t74.5 54.5q-18 12 -28.5 32t-10.5 42q0 34 19 61.5t50 43t66 15.5q44 0 71 -25t27 -62q0 -32 -19.5 -60.5t-50.5 -46.5q29 -12 45.5 -36.5t16.5 -57.5q0 -43 -23 -78.5t-61 -56t-83 -20.5q-53 0 -88 31t-35 79zM251 340q0 24 -17 40.5t-44 16.5
q-34 0 -59 -23.5t-25 -58.5q0 -25 17 -41.5t44 -16.5q33 0 58.5 25t25.5 58zM242 141q0 35 -23 57.5t-59 22.5q-28 0 -55 -15t-44.5 -41t-17.5 -56q0 -35 23 -57t60 -22q47 0 81.5 31.5t34.5 79.5z" />
    <glyph glyph-name="nine.denominator" horiz-adv-x="348" 
d="M205 151q-22 -14 -53 -14q-52 0 -86 34t-34 86q0 46 24 87t65.5 65.5t89.5 24.5q63 0 97 -34t34 -85q0 -40 -15.5 -73t-46.5 -66l-158 -175h-57zM295 310q0 37 -23 61t-65 24q-35 0 -64.5 -18.5t-47 -49t-17.5 -64.5q0 -40 24.5 -64.5t63.5 -24.5q34 0 63.5 18t47.5 49.5
t18 68.5z" />
    <glyph glyph-name="zero.inferior" unicode="&#x2080;" horiz-adv-x="369" 
d="M323 151q0 -68 -19.5 -136.5t-60.5 -114.5t-101 -46t-88 40.5t-28 103.5q0 69 19.5 137.5t60.5 114.5t102 46q60 0 87.5 -41t27.5 -104zM74 3q0 -108 71 -108q39 0 68.5 36.5t45.5 94.5t16 121q0 109 -70 109q-40 0 -69.5 -37t-45.5 -95t-16 -121z" />
    <glyph glyph-name="one.inferior" unicode="&#x2081;" horiz-adv-x="217" 
d="M128 229l-94 -61l-21 34l130 81h43l-75 -423h-47z" />
    <glyph glyph-name="two.inferior" unicode="&#x2082;" horiz-adv-x="336" 
d="M-23 -98l184 161q46 41 63.5 67t17.5 57q0 30 -19 47.5t-52 17.5t-61.5 -19t-46.5 -51l-28 29q22 39 57.5 60t82.5 21q48 0 80 -27.5t32 -71.5q0 -47 -22 -78.5t-82 -83.5l-149 -130h219l-13 -41h-270z" />
    <glyph glyph-name="three.inferior" unicode="&#x2083;" horiz-adv-x="332" 
d="M-30 -77l33 24q12 -27 40 -42t59 -15q46 0 72.5 24.5t26.5 65.5t-26.5 61.5t-69.5 20.5h-20l6 37h21q51 0 80.5 23t29.5 63q0 34 -19.5 51t-50.5 17q-48 0 -87 -44l-25 29q45 54 116 54q49 0 79.5 -26.5t30.5 -74.5q0 -47 -28.5 -75.5t-69.5 -35.5q35 -9 56.5 -35.5
t21.5 -64.5q0 -61 -41 -95.5t-103 -34.5q-46 0 -81 20t-51 53z" />
    <glyph glyph-name="four.inferior" unicode="&#x2084;" horiz-adv-x="348" 
d="M162 -38h-195l8 42l229 280h58l-50 -282h71l-13 -40h-64l-19 -100h-43zM169 2l40 228h-3l-186 -228h149z" />
    <glyph glyph-name="five.inferior" unicode="&#x2085;" horiz-adv-x="356" 
d="M-7 -108l13 45q19 -21 49 -33.5t63 -12.5q49 0 80 33t31 81q0 39 -25 63t-66 24q-42 0 -92 -25l43 216h208l-10 -40h-163l-24 -123q26 9 49 9q56 0 91 -32.5t35 -86.5q0 -69 -44 -114t-114 -45q-39 0 -71.5 11t-52.5 30z" />
    <glyph glyph-name="six.inferior" unicode="&#x2086;" horiz-adv-x="348" 
d="M1 -2q0 88 32 153.5t85.5 100t116.5 34.5q22 0 42 -4.5t32 -10.5l-17 -36q-10 5 -28 9t-36 4q-64 0 -112 -48.5t-64 -132.5q18 25 47.5 40.5t64.5 15.5q51 0 83.5 -31.5t32.5 -82.5q0 -42 -19 -77.5t-53 -56.5t-77 -21q-59 0 -94.5 37.5t-35.5 106.5zM235 6
q0 35 -22.5 57.5t-57.5 22.5q-32 0 -56.5 -15.5t-38.5 -40t-14 -50.5q0 -36 23 -61t62 -25q45 0 74.5 32.5t29.5 79.5z" />
    <glyph glyph-name="seven.inferior" unicode="&#x2087;" horiz-adv-x="316" 
d="M241 245h-212l18 40h252l-7 -38l-241 -384h-54z" />
    <glyph glyph-name="eight.inferior" unicode="&#x2088;" horiz-adv-x="314" 
d="M194 87v-1q27 -10 45.5 -35t18.5 -57q0 -44 -21.5 -76t-56.5 -48.5t-75 -16.5q-51 0 -87 28t-36 82q0 46 28 80t74 48v1q-25 11 -38 32.5t-13 47.5q0 53 38.5 88t92.5 35q50 0 81.5 -26.5t31.5 -76.5q0 -38 -23.5 -65.5t-59.5 -39.5zM233 187q0 32 -20 51t-51 19
q-37 0 -61.5 -25t-24.5 -61q0 -28 18 -46.5t48 -18.5q39 0 65 24t26 57zM213 -6q0 32 -22.5 53.5t-56.5 21.5q-45 0 -76 -30t-31 -72q0 -34 23 -54.5t57 -20.5q47 0 76.5 29t29.5 73z" />
    <glyph glyph-name="nine.inferior" unicode="&#x2089;" horiz-adv-x="348" 
d="M-10 -125l18 36q26 -13 62 -13q38 0 75 22t64.5 63.5t38.5 96.5q-16 -25 -47 -41t-65 -16q-51 0 -83.5 32t-32.5 83q0 42 19.5 77.5t54.5 56t80 20.5q56 0 90.5 -37.5t34.5 -105.5q0 -83 -32 -149t-86 -102.5t-116 -36.5q-47 0 -75 14zM254 166q0 38 -22 62t-59 24
q-47 0 -77.5 -32.5t-30.5 -79.5q0 -35 22.5 -57.5t57.5 -22.5q48 0 78.5 31.5t30.5 74.5z" />
    <glyph glyph-name="zero.numerator" horiz-adv-x="369" 
d="M377 575q0 -68 -19 -137t-60 -115t-101 -46t-88.5 40.5t-28.5 103.5q0 69 19.5 137.5t61 114.5t101.5 46t87.5 -40.5t27.5 -103.5zM128 426q0 -48 16.5 -78t55.5 -30t68.5 36.5t45 94.5t15.5 121q0 109 -70 109q-39 0 -69 -37t-46 -95t-16 -121z" />
    <glyph glyph-name="one.numerator" horiz-adv-x="217" 
d="M192 654l-95 -60l-20 34l130 81h43l-75 -424h-48z" />
    <glyph glyph-name="two.numerator" horiz-adv-x="336" 
d="M52 327l184 161q46 41 63.5 67t17.5 57q0 30 -19 47.5t-52 17.5q-34 0 -62.5 -19t-46.5 -52l-27 30q22 39 57.5 60t82.5 21q49 0 80.5 -27.5t31.5 -72.5q0 -46 -22 -77t-82 -84l-149 -130h219l-13 -41h-270z" />
    <glyph glyph-name="three.numerator" horiz-adv-x="332" 
d="M60 317l15 46q42 -48 111 -48q43 0 69 24.5t26 65.5t-26.5 61.5t-69.5 20.5h-20l6 37h21q51 0 80.5 23t29.5 63q0 34 -19.5 51t-50.5 17q-47 0 -92 -39l-13 38q47 40 109 40q49 0 79.5 -26.5t30.5 -74.5t-28 -75.5t-70 -35.5q35 -9 56.5 -35.5t21.5 -64.5
q0 -61 -41 -95.5t-103 -34.5q-38 0 -69.5 11t-52.5 31z" />
    <glyph glyph-name="four.numerator" horiz-adv-x="348" 
d="M250 385h-195l8 42l229 280h58l-50 -282h71l-13 -40h-64l-19 -100h-43zM257 425l40 228h-3l-186 -228h149z" />
    <glyph glyph-name="five.numerator" horiz-adv-x="356" 
d="M69 317l14 45q19 -21 48.5 -33.5t62.5 -12.5q49 0 80 32.5t31 81.5q0 38 -25 62.5t-66 24.5q-43 0 -91 -25l42 216h209l-10 -40h-164l-24 -123q26 9 50 9q55 0 90 -33t35 -87q0 -69 -44 -113.5t-113 -44.5q-39 0 -72 11t-53 30z" />
    <glyph glyph-name="six.numerator" horiz-adv-x="348" 
d="M74 420q0 88 32 153.5t85.5 100t116.5 34.5q22 0 42 -4.5t32 -10.5l-17 -36q-10 5 -28 9t-36 4q-64 0 -112 -48.5t-64 -132.5q18 25 47.5 40.5t64.5 15.5q51 0 83.5 -31.5t32.5 -82.5q0 -42 -19 -77.5t-53 -56.5t-77 -21q-59 0 -94.5 37.5t-35.5 106.5zM308 428
q0 35 -22.5 57.5t-57.5 22.5q-32 0 -56.5 -15.5t-38.5 -40t-14 -50.5q0 -36 23 -61t62 -25q45 0 74.5 32.5t29.5 79.5z" />
    <glyph glyph-name="seven.numerator" horiz-adv-x="316" 
d="M303 668h-199l7 40h253l-6 -33l-255 -390h-53z" />
    <glyph glyph-name="eight.numerator" horiz-adv-x="314" 
d="M260 510v-1q27 -10 45.5 -35t18.5 -57q0 -44 -21.5 -76t-56.5 -48.5t-75 -16.5q-51 0 -87 28t-36 82q0 46 28 80t74 48v1q-25 11 -38 32.5t-13 47.5q0 53 38.5 88t92.5 35q50 0 81.5 -26.5t31.5 -76.5q0 -38 -23.5 -65.5t-59.5 -39.5zM299 610q0 32 -20 51t-51 19
q-37 0 -61.5 -25t-24.5 -61q0 -28 18 -46.5t48 -18.5q39 0 65 24t26 57zM279 417q0 32 -22.5 53.5t-56.5 21.5q-45 0 -76 -30t-31 -72q0 -34 23 -54.5t57 -20.5q47 0 76.5 29t29.5 73z" />
    <glyph glyph-name="nine.numerator" horiz-adv-x="348" 
d="M67 302l18 36q26 -13 62 -13q38 0 75 22t64.5 63.5t38.5 96.5q-16 -25 -47 -41t-65 -16q-51 0 -83.5 32t-32.5 83q0 42 19.5 77.5t54.5 56t80 20.5q56 0 90.5 -37.5t34.5 -105.5q0 -83 -32 -149t-86 -102.5t-116 -36.5q-47 0 -75 14zM331 593q0 38 -22 62t-59 24
q-47 0 -77.5 -32.5t-30.5 -79.5q0 -35 22.5 -57.5t57.5 -22.5q48 0 78.5 31.5t30.5 74.5z" />
    <glyph glyph-name="zero.onum" horiz-adv-x="661" 
d="M57 221q0 86 39.5 160.5t110 119t159.5 44.5q75 0 129.5 -30t83 -83.5t28.5 -121.5q0 -87 -39 -161.5t-109.5 -119t-159.5 -44.5q-76 0 -130.5 30t-83 83.5t-28.5 122.5zM546 307q0 80 -48 133t-136 53q-71 0 -126.5 -37.5t-86.5 -99t-31 -131.5q0 -81 48 -133.5
t137 -52.5q72 0 127 37t85.5 98.5t30.5 132.5z" />
    <glyph glyph-name="one.onum" horiz-adv-x="376" 
d="M217 461l-124 -85l-26 44l166 110h55l-93 -530h-60z" />
    <glyph glyph-name="two.onum" horiz-adv-x="532" 
d="M25 53l125 76q99 58 150 93t80.5 75t29.5 89q0 53 -35 81t-84 28q-51 0 -96 -24.5t-75 -63.5l-28 45q34 43 85.5 68t117.5 25q75 0 124.5 -40t49.5 -113q0 -59 -30.5 -104.5t-80 -81.5t-142.5 -91l-104 -62v-3h315l-10 -50h-401z" />
    <glyph glyph-name="three.onum" horiz-adv-x="531" 
d="M-41 -114l24 54q27 -35 82 -60t114 -25q55 0 98.5 23.5t67.5 62.5t24 85q0 68 -46.5 103.5t-117.5 35.5h-29l9 48h29q90 0 140.5 45t50.5 119q0 50 -36.5 82t-90.5 32q-49 0 -98 -24t-87 -62l-20 47q43 42 97 65.5t116 23.5q77 0 127.5 -44t50.5 -117q0 -72 -42.5 -123.5
t-121.5 -66.5v-2q59 -12 94 -55.5t35 -102.5q0 -62 -31.5 -114t-88.5 -82.5t-131 -30.5q-72 0 -131 24t-88 59z" />
    <glyph glyph-name="four.onum" horiz-adv-x="565" 
d="M330 8h-331l11 58l390 477h81l-86 -485h118l-21 -50h-105l-31 -173h-56zM339 58l74 422h-3l-344 -422h273z" />
    <glyph glyph-name="five.onum" horiz-adv-x="529" 
d="M-19 -114l22 53q28 -35 77 -58t107 -23q60 0 105 27.5t69 74.5t24 104q0 68 -44 110.5t-117 42.5q-36 0 -74.5 -10t-71.5 -27l69 349h348l-21 -52h-283l-47 -233q45 19 98 19q59 0 105.5 -24t72.5 -67.5t26 -99.5q0 -74 -32.5 -135t-92 -96t-137.5 -35q-71 0 -122.5 22.5
t-80.5 57.5z" />
    <glyph glyph-name="six.onum" horiz-adv-x="582" 
d="M71 212q0 129 53 245.5t143 187t195 70.5q76 0 120 -20l-20 -49q-44 19 -104 19q-67 0 -131 -41.5t-113 -117.5t-71 -176q71 96 197 96q85 0 138 -52t53 -136q0 -70 -31.5 -127.5t-89.5 -91.5t-134 -34q-92 0 -148.5 60t-56.5 167zM471 234q0 63 -39.5 105t-104.5 42
q-55 0 -100.5 -26.5t-71 -70t-25.5 -92.5q0 -69 41 -113t108 -44q57 0 100.5 27t67.5 72.5t24 99.5z" />
    <glyph glyph-name="seven.onum" horiz-adv-x="522" 
d="M438 478h-356l21 52h408l-10 -55l-412 -653h-71z" />
    <glyph glyph-name="eight.onum" horiz-adv-x="580" 
d="M53 164q0 82 52 140.5t132 74.5v4q-48 16 -72.5 53.5t-24.5 83.5q0 60 30 106t79 71t105 25q81 0 132 -42t51 -123q0 -70 -42.5 -117.5t-106.5 -63.5v-2q49 -15 83 -57t34 -99q0 -74 -35 -126.5t-92.5 -79t-123.5 -26.5q-52 0 -98 19.5t-74.5 59.5t-28.5 99zM480 548
q0 59 -36 92.5t-94 33.5q-43 0 -78.5 -21.5t-55.5 -57.5t-20 -77q0 -51 33 -84.5t87 -33.5q48 0 85.5 21t58 55t20.5 72zM446 218q0 37 -18.5 68.5t-50.5 49.5t-73 18q-53 0 -97 -24.5t-70 -66.5t-26 -93q0 -60 41 -97t104 -37q56 0 99.5 23.5t67 65t23.5 93.5z" />
    <glyph glyph-name="nine.onum" horiz-adv-x="582" 
d="M519 315q0 -128 -53 -243.5t-143 -186t-195 -70.5q-76 0 -120 20l20 49q40 -19 104 -19q67 0 131.5 41.5t113 117.5t70.5 175q-72 -95 -197 -95q-56 0 -99.5 23.5t-67.5 66.5t-24 99q0 69 31.5 126.5t89 91t132.5 33.5q93 0 150 -60.5t57 -168.5zM119 296
q0 -63 39.5 -105t104.5 -42q55 0 100.5 26t71 69.5t25.5 92.5q0 69 -41 113.5t-108 44.5q-57 0 -100.5 -27t-67.5 -72.5t-24 -99.5z" />
    <glyph glyph-name="zero.superior" unicode="&#x2070;" horiz-adv-x="369" 
d="M402 739q0 -68 -19.5 -136.5t-60.5 -114.5t-101 -46t-88 40.5t-28 103.5q0 69 19.5 137.5t60.5 114.5t102 46q60 0 87.5 -41t27.5 -104zM153 591q0 -108 71 -108q39 0 68.5 36.5t45.5 94.5t16 121q0 109 -70 109q-40 0 -69.5 -37t-45.5 -95t-16 -121z" />
    <glyph glyph-name="four.superior" unicode="&#x2074;" horiz-adv-x="348" 
d="M273 552h-195l8 42l229 280h58l-50 -282h71l-13 -40h-64l-19 -100h-43zM280 592l40 228h-3l-186 -228h149z" />
    <glyph glyph-name="five.superior" unicode="&#x2075;" horiz-adv-x="356" 
d="M92 483l13 45q19 -21 49 -33.5t63 -12.5q49 0 80 33t31 81q0 39 -25 63t-66 24q-42 0 -92 -25l43 216h208l-10 -40h-163l-24 -123q26 9 49 9q56 0 91 -32.5t35 -86.5q0 -69 -44 -114t-114 -45q-39 0 -71.5 11t-52.5 30z" />
    <glyph glyph-name="six.superior" unicode="&#x2076;" horiz-adv-x="348" 
d="M101 586q0 88 32 153.5t85.5 100t116.5 34.5q22 0 42 -4.5t32 -10.5l-17 -36q-10 5 -28 9t-36 4q-64 0 -112 -48.5t-64 -132.5q18 25 47.5 40.5t64.5 15.5q51 0 83.5 -31.5t32.5 -82.5q0 -42 -19 -77.5t-53 -56.5t-77 -21q-59 0 -94.5 37.5t-35.5 106.5zM335 594
q0 35 -22.5 57.5t-57.5 22.5q-32 0 -56.5 -15.5t-38.5 -40t-14 -50.5q0 -36 23 -61t62 -25q45 0 74.5 32.5t29.5 79.5z" />
    <glyph glyph-name="seven.superior" unicode="&#x2077;" horiz-adv-x="316" 
d="M362 834h-212l18 40h252l-7 -38l-241 -384h-54z" />
    <glyph glyph-name="eight.superior" unicode="&#x2078;" horiz-adv-x="314" 
d="M286 676v-1q27 -10 45.5 -35t18.5 -57q0 -44 -21.5 -76t-56.5 -48.5t-75 -16.5q-51 0 -87 28t-36 82q0 46 28 80t74 48v1q-25 11 -38 32.5t-13 47.5q0 53 38.5 88t92.5 35q50 0 81.5 -26.5t31.5 -76.5q0 -38 -23.5 -65.5t-59.5 -39.5zM325 776q0 32 -20 51t-51 19
q-37 0 -61.5 -25t-24.5 -61q0 -28 18 -46.5t48 -18.5q39 0 65 24t26 57zM305 583q0 32 -22.5 53.5t-56.5 21.5q-45 0 -76 -30t-31 -72q0 -34 23 -54.5t57 -20.5q47 0 76.5 29t29.5 73z" />
    <glyph glyph-name="nine.superior" unicode="&#x2079;" horiz-adv-x="348" 
d="M83 467l18 36q26 -13 62 -13q38 0 75 22t64.5 63.5t38.5 96.5q-16 -25 -47 -41t-65 -16q-51 0 -83.5 32t-32.5 83q0 42 19.5 77.5t54.5 56t80 20.5q56 0 90.5 -37.5t34.5 -105.5q0 -83 -32 -149t-86 -102.5t-116 -36.5q-47 0 -75 14zM347 758q0 38 -22 62t-59 24
q-47 0 -77.5 -32.5t-30.5 -79.5q0 -35 22.5 -57.5t57.5 -22.5q48 0 78.5 31.5t30.5 74.5z" />
    <glyph glyph-name="fraction" unicode="&#x2044;" horiz-adv-x="100" 
d="M-245 -8l566 746l32 -22l-567 -745z" />
    <glyph glyph-name="onehalf" unicode="&#xbd;" horiz-adv-x="793" 
d="M67 -8l566 746l32 -22l-567 -745zM204 654l-95 -60l-20 34l130 81h43l-75 -424h-48zM419 41l184 161q46 40 63.5 66t17.5 57q0 30 -19 47.5t-52 17.5q-34 0 -62 -19t-46 -51l-28 29q22 39 57.5 60t82.5 21q48 0 80 -27.5t32 -71.5q0 -46 -22 -77.5t-82 -83.5l-149 -131
h219l-13 -41h-270z" />
    <glyph glyph-name="uni2153" unicode="&#x2153;" horiz-adv-x="775" 
d="M65 -8l566 746l32 -22l-567 -745zM207 654l-95 -60l-20 34l130 81h43l-75 -424h-48zM402 63l33 24q12 -27 40.5 -42t59.5 -15q45 0 71.5 25t26.5 65q0 41 -26.5 61.5t-69.5 20.5h-20l7 37h20q51 0 80.5 23.5t29.5 62.5q0 34 -19.5 51t-50.5 17q-48 0 -87 -44l-25 29
q45 54 117 54q48 0 79 -26.5t31 -74.5q0 -47 -28.5 -75.5t-70.5 -35.5q35 -9 56.5 -35.5t21.5 -63.5q0 -61 -41 -96t-102 -35q-46 0 -81 19.5t-52 53.5z" />
    <glyph glyph-name="uni2154" unicode="&#x2154;" horiz-adv-x="857" 
d="M159 -8l566 746l32 -22l-567 -745zM52 327l184 161q46 41 63.5 67t17.5 57q0 30 -19 47.5t-52 17.5q-34 0 -62.5 -19t-46.5 -52l-27 30q22 39 57.5 60t82.5 21q49 0 80.5 -27.5t31.5 -72.5q0 -46 -22 -77t-82 -84l-149 -130h219l-13 -41h-270zM497 63l33 24
q12 -27 40.5 -42t59.5 -15q45 0 71.5 25t26.5 65q0 41 -26.5 61.5t-69.5 20.5h-20l7 37h20q51 0 80.5 23.5t29.5 62.5q0 34 -19.5 51t-50.5 17q-48 0 -87 -44l-25 29q45 54 117 54q48 0 79 -26.5t31 -74.5q0 -47 -28.5 -75.5t-70.5 -35.5q35 -9 56.5 -35.5t21.5 -63.5
q0 -61 -41 -96t-102 -35q-46 0 -81 19.5t-52 53.5z" />
    <glyph glyph-name="onequarter" unicode="&#xbc;" horiz-adv-x="740" 
d="M68 -8l566 746l32 -22l-567 -745zM193 654l-95 -60l-20 34l130 81h43l-75 -424h-48zM566 101h-196l8 42l230 280h57l-50 -282h71l-12 -40h-65l-18 -100h-44zM572 141l40 228h-3l-185 -228h148z" />
    <glyph glyph-name="threequarters" unicode="&#xbe;" horiz-adv-x="833" 
d="M162 -8l566 746l32 -22l-567 -745zM76 317l15 46q42 -48 111 -48q43 0 69 24.5t26 65.5t-26.5 61.5t-69.5 20.5h-20l6 37h21q51 0 80.5 23t29.5 63q0 34 -19.5 51t-50.5 17q-47 0 -92 -39l-13 38q47 40 109 40q49 0 79.5 -26.5t30.5 -74.5t-28 -75.5t-70 -35.5
q35 -9 56.5 -35.5t21.5 -64.5q0 -61 -41 -95.5t-103 -34.5q-38 0 -69.5 11t-52.5 31zM625 101h-196l8 42l230 280h57l-50 -282h71l-12 -40h-65l-18 -100h-44zM631 141l40 228h-3l-185 -228h148z" />
    <glyph glyph-name="oneeighth" unicode="&#x215b;" horiz-adv-x="773" 
d="M66 -8l566 746l32 -22l-567 -745zM207 654l-95 -60l-20 34l130 81h43l-75 -424h-48zM402 101q0 46 29.5 84.5t74.5 54.5q-18 12 -28.5 32t-10.5 42q0 34 19 61.5t50 43t66 15.5q44 0 71 -25t27 -62q0 -32 -19.5 -60.5t-50.5 -46.5q29 -12 45.5 -36.5t16.5 -57.5
q0 -43 -23 -78.5t-61 -56t-83 -20.5q-53 0 -88 31t-35 79zM656 340q0 24 -17 40.5t-44 16.5q-34 0 -59 -23.5t-25 -58.5q0 -25 17 -41.5t44 -16.5q33 0 58.5 25t25.5 58zM647 141q0 35 -23 57.5t-59 22.5q-28 0 -55 -15t-44.5 -41t-17.5 -56q0 -35 23 -57t60 -22
q47 0 81.5 31.5t34.5 79.5z" />
    <glyph glyph-name="threeeighths" unicode="&#x215c;" horiz-adv-x="768" 
d="M93 -8l566 746l32 -22l-567 -745zM47 317l15 46q42 -48 111 -48q43 0 69 24.5t26 65.5t-26.5 61.5t-69.5 20.5h-20l6 37h21q51 0 80.5 23t29.5 63q0 34 -19.5 51t-50.5 17q-47 0 -92 -39l-13 38q47 40 109 40q49 0 79.5 -26.5t30.5 -74.5t-28 -75.5t-70 -35.5
q35 -9 56.5 -35.5t21.5 -64.5q0 -61 -41 -95.5t-103 -34.5q-38 0 -69.5 11t-52.5 31zM404 101q0 46 29.5 84.5t74.5 54.5q-18 12 -28.5 32t-10.5 42q0 34 19 61.5t50 43t66 15.5q44 0 71 -25t27 -62q0 -32 -19.5 -60.5t-50.5 -46.5q29 -12 45.5 -36.5t16.5 -57.5
q0 -43 -23 -78.5t-61 -56t-83 -20.5q-53 0 -88 31t-35 79zM658 340q0 24 -17 40.5t-44 16.5q-34 0 -59 -23.5t-25 -58.5q0 -25 17 -41.5t44 -16.5q33 0 58.5 25t25.5 58zM649 141q0 35 -23 57.5t-59 22.5q-28 0 -55 -15t-44.5 -41t-17.5 -56q0 -35 23 -57t60 -22
q47 0 81.5 31.5t34.5 79.5z" />
    <glyph glyph-name="fiveeighths" unicode="&#x215d;" horiz-adv-x="768" 
d="M93 -8l566 746l32 -22l-567 -745zM56 317l14 45q19 -21 48.5 -33.5t62.5 -12.5q49 0 80 32.5t31 81.5q0 38 -25 62.5t-66 24.5q-43 0 -91 -25l42 216h209l-10 -40h-164l-24 -123q26 9 50 9q55 0 90 -33t35 -87q0 -69 -44 -113.5t-113 -44.5q-39 0 -72 11t-53 30zM404 101
q0 46 29.5 84.5t74.5 54.5q-18 12 -28.5 32t-10.5 42q0 34 19 61.5t50 43t66 15.5q44 0 71 -25t27 -62q0 -32 -19.5 -60.5t-50.5 -46.5q29 -12 45.5 -36.5t16.5 -57.5q0 -43 -23 -78.5t-61 -56t-83 -20.5q-53 0 -88 31t-35 79zM658 340q0 24 -17 40.5t-44 16.5
q-34 0 -59 -23.5t-25 -58.5q0 -25 17 -41.5t44 -16.5q33 0 58.5 25t25.5 58zM649 141q0 35 -23 57.5t-59 22.5q-28 0 -55 -15t-44.5 -41t-17.5 -56q0 -35 23 -57t60 -22q47 0 81.5 31.5t34.5 79.5z" />
    <glyph glyph-name="seveneighths" unicode="&#x215e;" horiz-adv-x="768" 
d="M56 -8l566 746l32 -22l-567 -745zM335 668h-199l7 40h253l-6 -33l-255 -390h-53zM397 101q0 46 29.5 84.5t74.5 54.5q-18 12 -28.5 32t-10.5 42q0 34 19 61.5t50 43t66 15.5q44 0 71 -25t27 -62q0 -32 -19.5 -60.5t-50.5 -46.5q29 -12 45.5 -36.5t16.5 -57.5
q0 -43 -23 -78.5t-61 -56t-83 -20.5q-53 0 -88 31t-35 79zM651 340q0 24 -17 40.5t-44 16.5q-34 0 -59 -23.5t-25 -58.5q0 -25 17 -41.5t44 -16.5q33 0 58.5 25t25.5 58zM642 141q0 35 -23 57.5t-59 22.5q-28 0 -55 -15t-44.5 -41t-17.5 -56q0 -35 23 -57t60 -22
q47 0 81.5 31.5t34.5 79.5z" />
    <glyph glyph-name="uni00B9" unicode="&#xb9;" horiz-adv-x="217" 
d="M212 821l-94 -61l-21 34l130 81h43l-75 -423h-47z" />
    <glyph glyph-name="uni00B2" unicode="&#xb2;" horiz-adv-x="336" 
d="M66 494l184 161q46 41 63.5 67t17.5 57q0 30 -19 47.5t-52 17.5t-61.5 -19t-46.5 -51l-28 29q22 39 57.5 60t82.5 21q48 0 80 -27.5t32 -71.5q0 -47 -22 -78.5t-82 -83.5l-149 -130h219l-13 -41h-270z" />
    <glyph glyph-name="uni00B3" unicode="&#xb3;" horiz-adv-x="332" 
d="M61 515l33 24q12 -27 40 -42t59 -15q46 0 72.5 24.5t26.5 65.5t-26.5 61.5t-69.5 20.5h-20l6 37h21q51 0 80.5 23t29.5 63q0 34 -19.5 51t-50.5 17q-48 0 -87 -44l-25 29q45 54 116 54q49 0 79.5 -26.5t30.5 -74.5q0 -47 -28.5 -75.5t-69.5 -35.5q35 -9 56.5 -35.5
t21.5 -64.5q0 -61 -41 -95.5t-103 -34.5q-46 0 -81 20t-51 53z" />
    <glyph glyph-name="asterisk" unicode="*" horiz-adv-x="451" 
d="M261 489l-96 -133l-34 25l97 131l-155 48l14 40l152 -49v157h44v-158l152 49l14 -39l-154 -48l96 -132l-34 -25z" />
    <glyph glyph-name="backslash" unicode="\" horiz-adv-x="378" 
d="M14 718l46 16l306 -741l-45 -15z" />
    <glyph glyph-name="periodcentered" unicode="&#xb7;" horiz-adv-x="255" 
d="M90 273q0 20 13.5 34t32.5 14q18 0 29.5 -11.5t11.5 -29.5q0 -20 -13 -34t-32 -14q-18 0 -30 11t-12 30z" />
    <glyph glyph-name="bullet" unicode="&#x2022;" horiz-adv-x="500" 
d="M73 354q0 48 24 88.5t64.5 64.5t88.5 24t88.5 -24t64.5 -64.5t24 -88.5t-24 -88.5t-64.5 -64.5t-88.5 -24t-88.5 24t-64.5 64.5t-24 88.5z" />
    <glyph glyph-name="colon" unicode=":" horiz-adv-x="294" 
d="M127 424q0 19 13 32.5t32 13.5q18 0 29.5 -10.5t11.5 -28.5q0 -19 -13.5 -33.5t-31.5 -14.5t-29.5 11t-11.5 30zM64 35q0 20 13.5 34t32.5 14q18 0 29 -11t11 -30q0 -20 -13 -34t-32 -14q-18 0 -29.5 11t-11.5 30z" />
    <glyph glyph-name="comma" unicode="," horiz-adv-x="255" 
d="M143 65q-1 -48 -35 -97t-80 -86l-22 15q27 22 51 54.5t34 67.5q-15 2 -25 12.5t-10 26.5q0 20 13.5 34.5t32.5 14.5q17 0 29 -11t12 -30v-1z" />
    <glyph glyph-name="ellipsis" unicode="&#x2026;" horiz-adv-x="1000" 
d="M84 33q0 22 13.5 36t33.5 14q17 0 28.5 -11.5t11.5 -29.5q0 -20 -14.5 -34t-32.5 -14t-29 10.5t-11 28.5zM419 33q0 21 13.5 35.5t32.5 14.5q17 0 28.5 -11t11.5 -28q0 -21 -14 -35.5t-33 -14.5q-17 0 -28 10.5t-11 28.5zM753 33q0 21 14 35.5t33 14.5q17 0 28.5 -11
t11.5 -28q0 -21 -14 -35.5t-33 -14.5q-18 0 -29 10.5t-11 28.5z" />
    <glyph glyph-name="exclam" unicode="!" horiz-adv-x="290" 
d="M194 708h60l-90 -507h-60zM68 35q0 20 13.5 34t32.5 14q18 0 29 -11t11 -30q0 -20 -13 -34t-32 -14q-18 0 -29.5 11t-11.5 30z" />
    <glyph glyph-name="exclamdown" unicode="&#xa1;" horiz-adv-x="290" 
d="M123 447q0 19 13.5 33.5t31.5 14.5t30 -11.5t12 -30.5t-13.5 -33t-32.5 -14q-18 0 -29.5 11.5t-11.5 29.5zM114 287h60l-90 -507h-59z" />
    <glyph glyph-name="uni203D" unicode="&#x203d;" horiz-adv-x="487" 
d="M262 544h53l-34 -190q14 18 30 32t40 33q43 35 64 68t21 75q0 53 -33 83t-86 30q-50 0 -95.5 -24t-76.5 -63l-27 44q36 43 87.5 68t114.5 25q75 0 123.5 -40.5t48.5 -118.5q0 -60 -32.5 -103.5t-91.5 -85.5q-54 -38 -74 -65t-28 -67l-8 -42h-55zM169 35q0 20 13.5 34
t32.5 14q18 0 29 -11t11 -30q0 -20 -13 -34t-32 -14q-18 0 -29.5 11t-11.5 30z" />
    <glyph glyph-name="numbersign" unicode="#" horiz-adv-x="561" 
d="M131 227h-104l7 42h110l54 172h-106l8 42h111l70 225h45l-69 -225h146l69 225h46l-70 -225h101l-7 -42h-108l-54 -172h104l-8 -42h-108l-70 -227h-45l69 227h-146l-69 -227h-45zM335 269l54 172h-146l-53 -172h145z" />
    <glyph glyph-name="period" unicode="." horiz-adv-x="255" 
d="M43 35q0 20 13 34t32 14q18 0 30 -11.5t12 -29.5q0 -20 -13.5 -34t-32.5 -14q-18 0 -29.5 11t-11.5 30z" />
    <glyph glyph-name="question" unicode="?" horiz-adv-x="487" 
d="M492 567q0 -60 -32 -102.5t-91 -83.5q-54 -38 -74.5 -65t-28.5 -74l-6 -39h-56l9 52q7 49 31.5 80.5t83.5 76.5q55 42 79.5 74.5t24.5 75.5q0 53 -32.5 81.5t-84.5 28.5q-50 0 -95 -23.5t-74 -62.5l-28 46q36 43 86 68t113 25q75 0 125 -40.5t50 -117.5zM171 35
q0 20 13 34t32 14q18 0 29.5 -11.5t11.5 -29.5q0 -20 -13 -34t-32 -14q-18 0 -29.5 11t-11.5 30z" />
    <glyph glyph-name="questiondown" unicode="&#xbf;" horiz-adv-x="487" 
d="M308 454q0 -20 -13 -34t-32 -14q-17 0 -29 12t-12 30q0 20 13 34t32 14q18 0 29.5 -11.5t11.5 -30.5zM-13 -77q0 59 32 101.5t91 83.5q54 37 74.5 64.5t28.5 74.5l6 40h56l-9 -53q-7 -49 -31.5 -80.5t-83.5 -76.5q-55 -42 -79.5 -74t-24.5 -76q0 -53 32.5 -81.5
t84.5 -28.5q49 0 94 24t75 62l28 -46q-35 -43 -85.5 -67.5t-113.5 -24.5q-76 0 -125.5 40t-49.5 118z" />
    <glyph glyph-name="quotedbl" unicode="&#x22;" horiz-adv-x="418" 
d="M216 708h50l-42 -237h-50zM301 708h51l-43 -237h-50z" />
    <glyph glyph-name="quotesingle" unicode="'" horiz-adv-x="265" 
d="M182 708h50l-42 -237h-50z" />
    <glyph glyph-name="semicolon" unicode=";" horiz-adv-x="294" 
d="M213 431q0 -19 -13.5 -33.5t-31.5 -14.5t-29.5 11t-11.5 30t13 32.5t32 13.5q18 0 29.5 -10.5t11.5 -28.5zM143 66v-1q-1 -48 -35 -97t-80 -86l-22 15q27 22 51 54.5t34 67.5q-15 2 -25 12.5t-10 26.5q0 20 13.5 34.5t32.5 14.5q17 0 29 -11t12 -30z" />
    <glyph glyph-name="slash" unicode="/" horiz-adv-x="377" 
d="M-34 -7l437 741l41 -16l-437 -740z" />
    <glyph glyph-name="underscore" unicode="_" horiz-adv-x="500" 
d="M0 -86h500v-39h-500v39z" />
    <glyph glyph-name="uni208D" unicode="&#x208d;" horiz-adv-x="257" 
d="M14 -19q0 93 36 186t102 166l24 -15q-56 -61 -93 -150.5t-37 -185.5q0 -49 10 -96t29 -81l-27 -13q-21 37 -32.5 86.5t-11.5 102.5z" />
    <glyph glyph-name="uni208E" unicode="&#x208e;" horiz-adv-x="266" 
d="M-13 -193q56 63 93.5 152.5t37.5 184.5q0 49 -10.5 95t-29.5 81l27 13q20 -38 31.5 -87t11.5 -101q0 -94 -35.5 -187t-101.5 -166z" />
    <glyph glyph-name="braceleft" unicode="{" horiz-adv-x="307" 
d="M24 -66q0 19 2 30l34 204q2 12 2 33q0 65 -60 65l8 44q77 0 95 106l32 187q11 66 47.5 97.5t87.5 31.5h58l-8 -43h-47q-37 0 -58.5 -24.5t-28.5 -67.5l-33 -186q-9 -59 -38 -87.5t-61 -34.5v-2q25 -4 42 -24.5t17 -61.5q0 -8 -2 -28l-34 -202q-2 -10 -2 -27q0 -57 56 -57
h48l-8 -43h-58q-42 0 -66.5 21.5t-24.5 68.5z" />
    <glyph glyph-name="braceright" unicode="}" horiz-adv-x="307" 
d="M-5 -113h48q70 0 86 92l33 186q9 59 37.5 87.5t61.5 34.5v2q-25 4 -42 24.5t-17 61.5q0 8 2 28l35 202q2 18 2 25q0 59 -57 59h-47l6 43h58q43 0 67.5 -21.5t24.5 -68.5q0 -8 -2 -30l-34 -204q-3 -18 -3 -31q0 -67 60 -67l-8 -44q-36 0 -60 -24.5t-34 -81.5l-32 -187
q-11 -66 -48 -97.5t-88 -31.5h-57z" />
    <glyph glyph-name="bracketleft" unicode="[" horiz-adv-x="307" 
d="M151 732h159l-7 -42h-107l-143 -804h108l-8 -42h-159z" />
    <glyph glyph-name="bracketright" unicode="]" horiz-adv-x="307" 
d="M13 -114h107l142 804h-107l7 42h158l-157 -888h-158z" />
    <glyph glyph-name="parenleft" unicode="(" horiz-adv-x="307" 
d="M48 153q0 154 59 307.5t168 274.5l40 -25q-93 -103 -154.5 -251t-61.5 -305q0 -81 17 -157.5t48 -134.5l-44 -20q-34 62 -53 143.5t-19 167.5z" />
    <glyph glyph-name="parenright" unicode=")" horiz-adv-x="307" 
d="M1 -134q93 103 154 251t61 305q0 81 -17 157.5t-48 134.5l44 21q34 -63 53 -144t19 -167q0 -154 -59 -308t-168 -274z" />
    <glyph glyph-name="uni207D" unicode="&#x207d;" horiz-adv-x="257" 
d="M129 565q0 93 36 186t102 167l24 -15q-57 -62 -94 -152t-37 -185q0 -49 10.5 -95.5t29.5 -81.5l-27 -13q-21 38 -32.5 87.5t-11.5 101.5z" />
    <glyph glyph-name="uni207E" unicode="&#x207e;" horiz-adv-x="257" 
d="M83 389q56 63 93.5 152.5t37.5 184.5q0 49 -10.5 95.5t-29.5 80.5l27 13q21 -38 32.5 -87.5t11.5 -100.5q0 -94 -36 -187t-102 -166z" />
    <glyph glyph-name="uni2015" unicode="&#x2015;" horiz-adv-x="600" 
d="M36 274h540l-8 -44h-540z" />
    <glyph glyph-name="emdash" unicode="&#x2014;" horiz-adv-x="600" 
d="M36 274h540l-8 -44h-540z" />
    <glyph glyph-name="endash" unicode="&#x2013;" horiz-adv-x="400" 
d="M36 274h340l-8 -43h-340z" />
    <glyph glyph-name="hyphen" unicode="-" horiz-adv-x="309" 
d="M55 276h204l-8 -48h-205z" />
    <glyph glyph-name="uni00AD" unicode="&#xad;" horiz-adv-x="309" 
d="M55 276h204l-8 -48h-205z" />
    <glyph glyph-name="uni2010" unicode="&#x2010;" horiz-adv-x="309" 
d="M55 276h204l-8 -48h-205z" />
    <glyph glyph-name="guillemotleft" unicode="&#xab;" horiz-adv-x="496" 
d="M62 242l170 205l33 -26l-148 -183l84 -178l-41 -24zM243 241l170 205l33 -26l-147 -183l83 -177l-41 -24z" />
    <glyph glyph-name="guillemotright" unicode="&#xbb;" horiz-adv-x="496" 
d="M43 63l147 182l-82 179l40 23l98 -205l-169 -205zM224 63l148 182l-84 179l41 23l98 -206l-170 -205z" />
    <glyph glyph-name="guilsinglleft" unicode="&#x2039;" horiz-adv-x="315" 
d="M62 242l170 205l33 -26l-148 -182l84 -178l-41 -24z" />
    <glyph glyph-name="guilsinglright" unicode="&#x203a;" horiz-adv-x="315" 
d="M43 62l147 182l-82 180l40 23l98 -206l-169 -206z" />
    <glyph glyph-name="quotedblbase" unicode="&#x201e;" horiz-adv-x="385" 
d="M129 65q-1 -48 -34.5 -96.5t-80.5 -87.5l-22 16q27 23 51 55t34 67q-15 2 -24.5 12t-9.5 27q0 19 13 33.5t33 14.5q17 0 28.5 -11t11.5 -30zM180 -119l-21 16q28 24 51.5 55.5t32.5 66.5q-16 2 -25 12t-9 27q0 19 13.5 33.5t32.5 14.5q17 0 28.5 -11t11.5 -30
q0 -48 -34 -96.5t-81 -87.5z" />
    <glyph glyph-name="quotedblleft" unicode="&#x201c;" horiz-adv-x="385" 
d="M241 693q-27 -22 -51 -54.5t-34 -67.5q16 -1 25.5 -11.5t9.5 -27.5q0 -20 -13.5 -34.5t-32.5 -14.5q-17 0 -28.5 11t-11.5 30l114 184zM323 571q15 -2 24.5 -12.5t9.5 -26.5q0 -20 -13.5 -34.5t-32.5 -14.5q-17 0 -28.5 11t-11.5 30v1q0 48 34 96.5t81 86.5l21 -15
q-27 -23 -51 -55.5t-33 -66.5z" />
    <glyph glyph-name="quotedblright" unicode="&#x201d;" horiz-adv-x="385" 
d="M237 667q0 -49 -34 -98t-81 -86l-21 16q27 21 51 53.5t33 68.5q-15 1 -24.5 11.5t-9.5 27.5q0 19 13.5 33.5t32.5 14.5q17 0 28.5 -11t11.5 -30zM289 483l-21 16q26 22 50 54t34 67q-16 2 -25 12.5t-9 27.5q0 19 13.5 33.5t32.5 14.5q17 0 28.5 -11t11.5 -30
q0 -48 -34 -97t-81 -87z" />
    <glyph glyph-name="quoteleft" unicode="&#x2018;" horiz-adv-x="234" 
d="M159 553l-49 -29q0 48 34 97t81 87l21 -15q-31 -27 -56.5 -64t-30.5 -76zM143 526q0 7 4 10t9 3q8 0 8 -9q0 -6 -3.5 -10.5t-8.5 -4.5q-9 0 -9 11z" />
    <glyph glyph-name="quoteright" unicode="&#x2019;" horiz-adv-x="234" 
d="M122 483l-21 16q27 21 51 53.5t33 68.5q-15 1 -24.5 11.5t-9.5 27.5q0 19 13.5 33.5t32.5 14.5q17 0 28.5 -11t11.5 -30q0 -49 -34 -98t-81 -86z" />
    <glyph glyph-name="quotesinglbase" unicode="&#x201a;" horiz-adv-x="235" 
d="M143 65q-1 -48 -35 -97t-80 -86l-22 15q27 22 51 54.5t34 67.5q-15 2 -25 12.5t-10 26.5q0 20 13.5 34.5t32.5 14.5q17 0 29 -11t12 -30v-1z" />
    <glyph glyph-name="uni00A0" unicode="&#xa0;" 
 />
    <glyph glyph-name="Euro" unicode="&#x20ac;" horiz-adv-x="580" 
d="M93 249h-77l23 43h55q0 19 6.5 57t15.5 67h-72l22 43h63q43 120 131.5 194t196.5 74q42 0 79 -8.5t63 -23.5l-24 -46q-50 28 -122 28q-86 0 -156.5 -61t-106.5 -157h308l-21 -43h-303q-9 -28 -15.5 -62t-7.5 -62h271l-21 -43h-250q1 -97 55.5 -157.5t147.5 -60.5
q76 0 142 39l15 -43q-71 -46 -165 -46q-81 0 -138 36.5t-85.5 97.5t-29.5 134z" />
    <glyph glyph-name="cent" unicode="&#xa2;" horiz-adv-x="580" 
d="M254 -14q-85 10 -131.5 65t-46.5 138q0 75 34 141t94.5 107t136.5 45l12 64h38l-12 -65q43 -3 79.5 -20t56.5 -45l-40 -36q-15 23 -43.5 37.5t-61.5 16.5l-69 -401q38 1 73.5 16t61.5 40l29 -35q-34 -32 -78.5 -50.5t-94.5 -19.5l-11 -57h-37zM334 434q-57 -4 -103.5 -38
t-72.5 -87.5t-26 -113.5q0 -64 34 -107.5t98 -51.5z" />
    <glyph glyph-name="currency" unicode="&#xa4;" horiz-adv-x="842" 
d="M130 50l96 96q-54 67 -54 164q0 93 51 158l-93 92l36 34l91 -91q68 57 165 57q98 0 163 -56l90 90l36 -34l-90 -90q52 -66 52 -160q0 -97 -56 -166l94 -94l-35 -35l-95 95q-67 -54 -159 -54t-160 56l-97 -97q-16 19 -35 35zM615 310q0 55 -24 100t-68 71.5t-101 26.5
t-101 -26.5t-68 -71.5t-24 -100q0 -56 24 -101.5t68 -72.5t101 -27t101 27t68 72.5t24 101.5z" />
    <glyph glyph-name="dollar" unicode="$" horiz-adv-x="580" 
d="M372 676l-51 -290q87 -30 132 -72t45 -115q0 -63 -30.5 -112t-86.5 -77t-131 -29l-11 -65h-34l11 66q-55 5 -105.5 25t-77.5 48l22 56q29 -32 74.5 -52.5t95.5 -25.5l54 309l-6 2q-83 27 -122 66.5t-39 107.5q0 61 31.5 107.5t84.5 72t118 28.5l11 66h35l-11 -66
q49 -2 95 -18.5t75 -40.5l-25 -54q-24 24 -66.5 42.5t-87.5 20.5zM289 397l48 278q-67 -7 -115 -47t-48 -105q0 -50 28 -77t87 -49zM311 331l-52 -298q79 3 128 47t49 113q0 52 -32 83t-93 55z" />
    <glyph glyph-name="florin" unicode="&#x192;" horiz-adv-x="580" 
d="M-51 -123l27 44q22 -13 47 -13q44 0 69 29.5t45 86.5l125 348h-121l19 43h118l53 149q25 72 64.5 114.5t107.5 42.5q52 0 83 -25l-31 -43q-20 17 -52 17q-44 0 -70.5 -30t-43.5 -78l-53 -147h126l-19 -43h-124l-134 -372q-25 -68 -62.5 -104.5t-101.5 -36.5q-46 0 -72 18
z" />
    <glyph glyph-name="sterling" unicode="&#xa3;" horiz-adv-x="580" 
d="M32 51h12q47 0 76 34.5t37 80.5l31 177h-109l20 47h98l19 112q18 100 79 162t162 62q38 0 74.5 -11.5t59.5 -29.5l-31 -47q-20 16 -48.5 26t-61.5 10q-76 0 -118.5 -50t-56.5 -127l-19 -107h179l-21 -47h-166l-30 -171q-8 -46 -31 -77t-57 -44h325l-21 -51h-411z" />
    <glyph glyph-name="yen" unicode="&#xa5;" horiz-adv-x="580" 
d="M248 186h-191l18 41h180l20 114h-192l20 42h165l-158 325h65l140 -311l251 311h70l-276 -325h171l-19 -42h-181l-20 -114h192l-18 -41h-180l-34 -186h-55z" />
    <glyph glyph-name="uni2126" unicode="&#x3a9;" horiz-adv-x="747" 
d="M127 386q0 -121 48.5 -197t142.5 -137v-52h-280v50h219q-92 55 -143 137.5t-51 202.5q0 98 41 173.5t114.5 117.5t167.5 42q97 0 170.5 -39.5t114 -114.5t40.5 -179q0 -122 -50 -204t-144 -136h219v-50h-281v52q98 58 145.5 136t47.5 198q0 89 -33.5 154t-92.5 98.5
t-136 33.5q-75 0 -133.5 -35t-92 -99.5t-33.5 -151.5z" />
    <glyph glyph-name="uni2126" unicode="&#x2126;" horiz-adv-x="747" 
d="M127 386q0 -121 48.5 -197t142.5 -137v-52h-280v50h219q-92 55 -143 137.5t-51 202.5q0 98 41 173.5t114.5 117.5t167.5 42q97 0 170.5 -39.5t114 -114.5t40.5 -179q0 -122 -50 -204t-144 -136h219v-50h-281v52q98 58 145.5 136t47.5 198q0 89 -33.5 154t-92.5 98.5
t-136 33.5q-75 0 -133.5 -35t-92 -99.5t-33.5 -151.5z" />
    <glyph glyph-name="approxequal" unicode="&#x2248;" horiz-adv-x="666" 
d="M172 409q30 0 63.5 -9.5t81.5 -26.5q50 -17 77 -24.5t51 -7.5q41 0 61 22t27 59h38q-6 -57 -37.5 -94t-91.5 -37q-29 0 -61.5 9t-83.5 28q-50 17 -75.5 24.5t-47.5 7.5q-76 0 -90 -80h-38q6 56 36 92.5t90 36.5zM171 222q30 0 63.5 -9t82.5 -27q44 -16 73.5 -24.5
t54.5 -8.5q73 0 87 80h39q-7 -56 -37.5 -93t-91.5 -37q-29 0 -62 9t-84 28q-43 16 -71.5 24.5t-50.5 8.5q-42 0 -63.5 -23t-26.5 -59h-39q7 56 37 93.5t89 37.5z" />
    <glyph glyph-name="asciitilde" unicode="~" horiz-adv-x="666" 
d="M91 273q55 94 133 94q29 0 53 -8t53 -28q68 -45 112 -45q33 0 58 21.5t48 57.5l31 -37q-59 -93 -134 -93q-30 0 -52.5 8t-52.5 28q-40 26 -62.5 35.5t-49.5 9.5q-34 0 -59.5 -21t-46.5 -59z" />
    <glyph glyph-name="divide" unicode="&#xf7;" horiz-adv-x="666" 
d="M284 472q0 20 14.5 35t34.5 15t35 -15t15 -35q0 -21 -15 -35.5t-35 -14.5t-34.5 14.5t-14.5 35.5zM87 327h492v-48h-492v48zM284 134q0 21 14 35.5t35 14.5q20 0 35 -15t15 -35t-15 -35t-35 -15t-34.5 15t-14.5 35z" />
    <glyph glyph-name="equal" unicode="=" horiz-adv-x="666" 
d="M89 412h488v-48h-488v48zM89 243h488v-47h-488v47z" />
    <glyph glyph-name="uni208C" unicode="&#x208c;" horiz-adv-x="368" 
d="M17 111h296v-29h-296v29zM17 9h296v-29h-296v29z" />
    <glyph glyph-name="uni207C" unicode="&#x207c;" horiz-adv-x="377" 
d="M100 714h296v-29h-296v29zM100 612h296v-28h-296v28z" />
    <glyph glyph-name="greater" unicode="&#x3e;" horiz-adv-x="666" 
d="M91 106l421 197l-421 197v51l484 -227v-42l-484 -227v51z" />
    <glyph glyph-name="greaterequal" unicode="&#x2265;" horiz-adv-x="666" 
d="M91 145l420 185l-420 185v52l484 -213v-48l-484 -213v52zM91 53h484v-48h-484v48z" />
    <glyph glyph-name="uni2206" unicode="&#x394;" horiz-adv-x="625" 
d="M583 29v-29h-577v30l259 683h60zM333 548q-15 40 -39 109q-21 -63 -36 -104l-188 -504h449z" />
    <glyph glyph-name="uni2206" unicode="&#x2206;" horiz-adv-x="625" 
d="M583 29v-29h-577v30l259 683h60zM333 548q-15 40 -39 109q-21 -63 -36 -104l-188 -504h449z" />
    <glyph glyph-name="infinity" unicode="&#x221e;" horiz-adv-x="747" 
d="M379 218q-55 -55 -95 -84t-86 -29q-61 0 -99.5 40.5t-38.5 105.5q0 64 37.5 105.5t97.5 41.5q46 0 91 -32.5t93 -84.5q47 52 91.5 84.5t90.5 32.5q60 0 98 -41t38 -105t-37.5 -105.5t-97.5 -41.5q-46 0 -91.5 32t-91.5 81zM651 250q0 44 -24 73t-65 29q-33 0 -68.5 -25
t-85.5 -77q52 -52 86 -76t69 -24q40 0 64 29t24 71zM349 250q-50 51 -85.5 76.5t-68.5 25.5q-40 0 -64 -29.5t-24 -72.5q0 -42 24 -71t65 -29q33 0 69.5 25t83.5 75z" />
    <glyph glyph-name="integral" unicode="&#x222b;" horiz-adv-x="554" 
d="M107 -163q0 13 9.5 22t22.5 9q9 0 15 -5t13 -16q6 -9 10 -13t10 -4q21 0 32 44t11 105q0 8 -0.5 22t-0.5 41l3 491q0 92 9 144.5t33 77t70 24.5q25 0 44.5 -11.5t19.5 -33.5q0 -15 -9 -23.5t-23 -8.5q-10 0 -16 5t-13 16q-11 17 -21 17q-21 0 -31.5 -42.5t-10.5 -89.5
v-91l-2 -506q0 -106 -25.5 -162.5t-87.5 -56.5q-25 0 -43.5 11.5t-18.5 33.5z" />
    <glyph glyph-name="less" unicode="&#x3c;" horiz-adv-x="666" 
d="M91 282v42l484 227v-51l-421 -197l421 -197v-51z" />
    <glyph glyph-name="lessequal" unicode="&#x2264;" horiz-adv-x="666" 
d="M91 306v48l484 213v-52l-420 -185l420 -185v-52zM91 53h484v-48h-484v48z" />
    <glyph glyph-name="logicalnot" unicode="&#xac;" horiz-adv-x="666" 
d="M532 363h-450v48h501v-276h-51v228z" />
    <glyph glyph-name="uni00B5" unicode="&#xb5;" horiz-adv-x="596" 
d="M509 0h-47l-7 91h-3q-44 -101 -163 -101q-54 0 -90.5 19.5t-54.5 54.5h-2l1 -94v-210h-57v708h57v-273q0 -74 38 -113t109 -39q86 0 124 50t38 147v228h57v-468z" />
    <glyph glyph-name="uni00B5" unicode="&#x3bc;" horiz-adv-x="596" 
d="M509 0h-47l-7 91h-3q-44 -101 -163 -101q-54 0 -90.5 19.5t-54.5 54.5h-2l1 -94v-210h-57v708h57v-273q0 -74 38 -113t109 -39q86 0 124 50t38 147v228h57v-468z" />
    <glyph glyph-name="minus" unicode="&#x2212;" horiz-adv-x="666" 
d="M89 329h488v-47h-488v47z" />
    <glyph glyph-name="uni208B" unicode="&#x208b;" horiz-adv-x="367" 
d="M23 59h296v-29h-296v29z" />
    <glyph glyph-name="uni207B" unicode="&#x207b;" horiz-adv-x="367" 
d="M103 658h296v-28h-296v28z" />
    <glyph glyph-name="multiply" unicode="&#xd7;" horiz-adv-x="666" 
d="M125 132l175 173l-175 174l34 34l175 -173l173 173l34 -33l-173 -174l174 -174l-35 -34l-173 172l-174 -172z" />
    <glyph glyph-name="notequal" unicode="&#x2260;" horiz-adv-x="666" 
d="M168 31l71 138h-152v48h177l67 135h-244v48h269l74 147l44 -21l-63 -126h160v-48h-186l-68 -135h254v-48h-279l-81 -160z" />
    <glyph glyph-name="partialdiff" unicode="&#x2202;" horiz-adv-x="513" 
d="M43 210q0 65 24.5 113.5t68 74.5t99.5 26q50 0 95 -25t73 -68q2 46 2 63q-2 123 -50 201.5t-133 78.5q-34 0 -60.5 -11t-54.5 -36l-29 40q32 29 67 42.5t76 13.5q125 0 182 -101t57 -258q0 -184 -57.5 -281.5t-164.5 -97.5q-57 0 -101.5 30t-69 81.5t-24.5 113.5z
M399 280q-31 43 -71.5 69t-86.5 26q-66 0 -103 -49t-37 -117q0 -43 16 -83.5t47.5 -66t75.5 -25.5q79 0 116.5 75.5t42.5 170.5z" />
    <glyph glyph-name="percent" unicode="%" horiz-adv-x="839" 
d="M132 -8l569 746l34 -22l-570 -745zM94 524q0 52 23.5 96t65.5 70.5t95 26.5q68 0 107.5 -39.5t39.5 -100.5q0 -52 -23.5 -96t-65.5 -70t-96 -26q-67 0 -106.5 39t-39.5 100zM377 572q0 44 -27 73.5t-76 29.5q-38 0 -68.5 -20t-47.5 -54t-17 -73q0 -44 26.5 -72.5
t75.5 -28.5q39 0 69.5 20t47.5 53t17 72zM454 130q0 52 23.5 96.5t65 70.5t95.5 26q68 0 107 -38.5t39 -100.5q0 -52 -23 -96.5t-65 -70.5t-95 -26q-68 0 -107.5 39t-39.5 100zM737 180q0 44 -27 73t-76 29q-39 0 -69 -20.5t-46.5 -54t-16.5 -71.5q0 -45 26.5 -73.5
t75.5 -28.5q39 0 69.5 20t47 53.5t16.5 72.5z" />
    <glyph glyph-name="perthousand" unicode="&#x2030;" horiz-adv-x="1044" 
d="M68 -8l561 746l34 -22l-562 -745zM92 540q0 48 22 88.5t61 64.5t89 24q63 0 99.5 -36t36.5 -94q0 -49 -21.5 -89.5t-60.5 -64t-89 -23.5q-63 0 -100 36.5t-37 93.5zM355 582q0 41 -24.5 67.5t-70.5 26.5q-54 0 -88 -38t-34 -93q0 -41 24.5 -67.5t69.5 -26.5
q54 0 88.5 38.5t34.5 92.5zM338 121q0 48 21.5 88.5t60.5 64t89 23.5q63 0 99.5 -36t36.5 -93q0 -49 -21.5 -89.5t-60.5 -64t-89 -23.5q-63 0 -99.5 36t-36.5 94zM689 121q0 49 21.5 89t60 63.5t88.5 23.5q63 0 99.5 -36t36.5 -93q0 -49 -21.5 -89.5t-60.5 -64t-89 -23.5
q-62 0 -98.5 36.5t-36.5 93.5zM600 163q0 40 -25 67t-70 27q-54 0 -88 -38.5t-34 -93.5q0 -40 24 -66.5t69 -26.5q54 0 89 38t35 93zM950 163q0 41 -24.5 67.5t-70.5 26.5q-53 0 -87.5 -38.5t-34.5 -93.5q0 -40 24.5 -66.5t69.5 -26.5q54 0 88.5 38t34.5 93z" />
    <glyph glyph-name="plus" unicode="+" horiz-adv-x="666" 
d="M309 280h-222v48h222v225h50v-225h221v-48h-221v-225h-50v225z" />
    <glyph glyph-name="uni208A" unicode="&#x208a;" horiz-adv-x="367" 
d="M158 30h-135v29h135v136h30v-136h133v-29h-133v-136h-30v136z" />
    <glyph glyph-name="plusminus" unicode="&#xb1;" horiz-adv-x="666" 
d="M308 342h-224v48h223v175h51v-175h227v-48h-227v-172h-50v172zM87 94h495v-49h-495v49z" />
    <glyph glyph-name="uni207A" unicode="&#x207a;" horiz-adv-x="367" 
d="M225 626h-135v29h135v136h30v-136h134v-29h-134v-136h-30v136z" />
    <glyph glyph-name="product" unicode="&#x220f;" horiz-adv-x="714" 
d="M81 786h553v-1000h-56v950h-441v-950h-56v1000z" />
    <glyph glyph-name="radical" unicode="&#x221a;" horiz-adv-x="496" 
d="M68 135l-56 -28l-21 44l103 48l156 -340l193 927h54l-210 -1001h-56z" />
    <glyph glyph-name="summation" unicode="&#x2211;" horiz-adv-x="608" 
d="M37 -168l328 458l-315 449v47h511v-50h-441l312 -446l-326 -454h466v-50h-535v46z" />
    <glyph glyph-name="uni2215" unicode="&#x2215;" horiz-adv-x="100" 
d="M-245 -8l566 746l32 -22l-567 -745z" />
    <glyph glyph-name="uni2219" unicode="&#x2219;" horiz-adv-x="255" 
d="M90 273q0 20 13.5 34t32.5 14q18 0 29.5 -11.5t11.5 -29.5q0 -20 -13 -34t-32 -14q-18 0 -30 11t-12 30z" />
    <glyph glyph-name="lozenge" unicode="&#x25ca;" horiz-adv-x="595" 
d="M105 356l166 391h51l169 -391l-169 -391h-51zM436 356l-140 340l-138 -340l138 -340z" />
    <glyph glyph-name="bar" unicode="|" horiz-adv-x="225" 
d="M86 750h51v-1000h-50z" />
    <glyph glyph-name="brokenbar" unicode="&#xa6;" horiz-adv-x="225" 
d="M89 675h47v-341h-47v341zM89 166h47v-341h-47v341z" />
    <glyph glyph-name="at" unicode="@" horiz-adv-x="800" 
d="M480 223q0 9 3 21h-2q-19 -31 -56.5 -57.5t-83.5 -26.5q-56 0 -83.5 31.5t-27.5 81.5q0 57 30.5 122.5t85 111t123.5 45.5q40 0 65 -21t28 -56h3l26 60h46l-91 -211q-8 -19 -15.5 -42.5t-7.5 -39.5q0 -39 49 -39q46 0 86.5 32.5t65 90t24.5 127.5q0 68 -34 121t-95 82
t-137 29q-107 0 -194 -53.5t-136.5 -142.5t-49.5 -190q0 -82 37 -144.5t103.5 -97t153.5 -34.5q81 0 151 29.5t126 82.5l26 -31q-62 -58 -140 -90.5t-168 -32.5q-101 0 -178 39.5t-119 110.5t-42 163q0 118 57 217.5t156 157.5t218 58q89 0 159.5 -33.5t111 -94.5t40.5 -142
q0 -82 -30.5 -150t-84 -107.5t-120.5 -39.5q-34 0 -56.5 17t-22.5 46zM521 428q0 35 -15 48t-47 13q-50 0 -90.5 -40t-59.5 -88t-19 -82q0 -29 14.5 -41.5t35.5 -12.5q52 0 98.5 38.5t64.5 83.5t18 81z" />
    <glyph glyph-name="ampersand" unicode="&#x26;" horiz-adv-x="717" 
d="M46 162q0 84 56.5 140t150.5 94q-63 81 -63 151q0 52 23.5 93t65 63.5t92.5 22.5q68 0 111.5 -39t43.5 -102q0 -67 -46.5 -115.5t-148.5 -90.5l145 -188l127 183h69l-162 -221l122 -153h-74l-85 110q-54 -64 -108.5 -95t-121.5 -31q-84 0 -140.5 45.5t-56.5 132.5z
M470 581q0 44 -27.5 72t-71.5 28q-32 0 -61 -15.5t-47 -45t-18 -69.5q0 -34 15.5 -67.5t43.5 -69.5q84 34 125 72.5t41 94.5zM441 149l-160 209q-175 -67 -175 -192q0 -62 40.5 -97.5t100.5 -35.5q56 0 103.5 29.5t90.5 86.5z" />
    <glyph glyph-name="paragraph" unicode="&#xb6;" horiz-adv-x="603" 
d="M273 333q-84 1 -133.5 43t-49.5 107q0 64 31.5 115t91.5 80.5t141 29.5h219l-147 -835h-49l140 795h-135l-140 -795h-49z" />
    <glyph glyph-name="uni2105" unicode="&#x2105;" horiz-adv-x="830" 
d="M124 -8l570 746l34 -22l-571 -745zM88 524q0 53 24 98.5t67.5 72.5t97.5 27q35 0 64.5 -13t47.5 -38l-33 -30q-13 18 -34.5 28.5t-45.5 10.5q-39 0 -70.5 -21t-49.5 -55.5t-18 -74.5q0 -45 25.5 -72.5t74.5 -27.5q26 0 50 10.5t42 28.5l28 -31q-53 -51 -125 -51
q-69 0 -107 38t-38 100zM434 128q0 53 23 97.5t66 71t98 26.5q70 0 110.5 -39t40.5 -102q0 -53 -23 -97.5t-65.5 -70.5t-97.5 -26q-71 0 -111.5 38.5t-40.5 101.5zM723 179q0 45 -27 73.5t-78 28.5q-40 0 -70.5 -20.5t-47.5 -54.5t-17 -74q0 -45 27 -73.5t77 -28.5
q40 0 71 20.5t48 54.5t17 74z" />
    <glyph glyph-name="copyright" unicode="&#xa9;" horiz-adv-x="800" 
d="M20 353q0 103 51.5 189.5t139 137t190.5 50.5t190 -50.5t138 -137t51 -189.5t-51 -189t-138 -136t-190 -50t-190.5 50t-139 136t-51.5 189zM741 353q0 93 -45.5 171t-123.5 123.5t-171 45.5t-171.5 -45.5t-124.5 -123.5t-46 -171q0 -92 46 -170t124.5 -123t171.5 -45
q92 0 170 45t124 123t46 170zM194 353q0 65 28.5 116.5t79.5 80.5t114 29q40 0 81 -14t66 -35l-16 -44q-24 22 -58.5 35.5t-72.5 13.5q-51 0 -90 -24.5t-60 -66t-21 -91.5q0 -49 21 -90.5t60 -66t91 -24.5q38 0 73.5 13.5t57.5 34.5l6 -45q-22 -22 -59 -35t-79 -13
q-63 0 -114 28.5t-79.5 80t-28.5 117.5z" />
    <glyph glyph-name="registered" unicode="&#xae;" horiz-adv-x="600" 
d="M112 494q0 62 31 114t83.5 82t114.5 30t114 -30t82.5 -82t30.5 -114t-30.5 -113.5t-82.5 -81.5t-114 -30t-114.5 30t-83.5 81.5t-31 113.5zM540 494q0 54 -27 99.5t-72.5 72.5t-99.5 27q-55 0 -101 -27t-73 -72.5t-27 -99.5t27 -100t73.5 -73.5t100.5 -27.5t99.5 27.5
t72.5 73.5t27 100zM255 624h91q41 0 66.5 -19t25.5 -56q0 -29 -18 -47t-44 -22l72 -112h-46l-65 108h-43v-108h-39v256zM335 505q63 0 63 45q0 22 -15 31.5t-38 9.5h-51v-86h41z" />
    <glyph glyph-name="uni2117" unicode="&#x2117;" horiz-adv-x="800" 
d="M20 353q0 103 51.5 189.5t139 137t190.5 50.5t190 -50.5t138 -137t51 -189.5t-51 -189t-138 -136t-190 -50t-190.5 50t-139 136t-51.5 189zM741 353q0 93 -45.5 171t-123.5 123.5t-171 45.5t-171.5 -45.5t-124.5 -123.5t-46 -171q0 -92 46 -170t124.5 -123t171.5 -45
q92 0 170 45t124 123t46 170zM286 567h154q69 0 112.5 -33.5t43.5 -100.5q0 -63 -42.5 -100.5t-109.5 -37.5h-108v-168h-50v440zM443 338q47 0 75 25t28 70t-29.5 68.5t-75.5 23.5h-105v-187h107z" />
    <glyph glyph-name="section" unicode="&#xa7;" horiz-adv-x="575" 
d="M22 -52l47 34q23 -34 60 -51.5t79 -17.5q59 0 100 27.5t41 84.5q0 44 -26 69t-85 47q-82 32 -114.5 64t-32.5 87q0 61 40.5 99t101.5 53q-33 19 -50 44.5t-17 64.5q0 50 26.5 89.5t71.5 61.5t98 22q56 0 98.5 -18.5t65.5 -52.5l-45 -33q-19 27 -51 41t-70 14
q-36 0 -67 -15.5t-49.5 -42.5t-18.5 -61q0 -42 24.5 -64.5t80.5 -45.5t87.5 -43t46.5 -47t15 -67q0 -59 -40.5 -96t-98.5 -50q68 -39 68 -111q0 -85 -58.5 -128t-143.5 -43q-57 0 -106 23t-78 62zM423 284q0 42 -24.5 67t-71.5 44l-52 22q-48 -6 -87.5 -36.5t-39.5 -79.5
q0 -43 23 -65t73 -41l55 -23q49 6 86.5 35.5t37.5 76.5z" />
    <glyph glyph-name="trademark" unicode="&#x2122;" horiz-adv-x="1000" 
d="M271 667h-131v41h309v-41h-132v-371h-46v371zM544 708h71l141 -341l141 341h71v-412h-47v356h-2l-149 -356h-31l-146 356h-2v-356h-47v412z" />
    <glyph glyph-name="degree" unicode="&#xb0;" horiz-adv-x="403" 
d="M103 569q0 41 20 75.5t54.5 54t75.5 19.5t75.5 -19.5t54.5 -54t20 -75.5t-20 -75.5t-54.5 -54.5t-75.5 -20t-75.5 20t-54.5 54.5t-20 75.5zM366 569q0 47 -33 80t-80 33q-46 0 -79 -33t-33 -80t33 -80t79 -33q47 0 80 33.5t33 79.5z" />
    <glyph glyph-name="estimated" unicode="&#x212e;" horiz-adv-x="587" 
d="M44 259q0 77 32 140t90.5 99.5t135.5 36.5q76 0 134.5 -35t91.5 -98t33 -143h-404v-181q59 -59 145 -59q63 0 109.5 28.5t83.5 91.5l35 -21q-46 -72 -98 -103.5t-130 -31.5q-77 0 -135.5 36.5t-90.5 99.5t-32 140zM448 295v145q-63 60 -147 60t-144 -60v-145h291z" />
    <glyph glyph-name="uni2113" unicode="&#x2113;" horiz-adv-x="500" 
d="M153 76q0 22 31 160l-71 -62h-2l-17 34l101 82l59 274q18 76 58 116.5t90 40.5q37 0 61 -27.5t24 -70.5q0 -143 -240 -347l-16 -73q-11 -44 -16 -70.5t-5 -46.5q0 -57 59 -57q46 0 98 40h2l15 -33q-63 -50 -129 -50q-46 0 -74 22.5t-28 67.5zM439 622q0 26 -12 42t-31 16
q-27 0 -51.5 -29t-36.5 -89l-50 -232q71 67 126 145.5t55 146.5z" />
    <glyph glyph-name="asciicircum" unicode="^" horiz-adv-x="670" 
d="M312 708h47l222 -440h-53l-193 388l-193 -388h-53z" />
    <glyph glyph-name="dagger" unicode="&#x2020;" horiz-adv-x="543" 
d="M279 455h-198l9 48h197l37 205h54l-37 -205h196l-7 -48h-197l-102 -582h-54z" />
    <glyph glyph-name="daggerdbl" unicode="&#x2021;" horiz-adv-x="543" 
d="M212 72h-195l9 48h194l61 342h-195l8 48h194l36 198h54l-36 -198h194l-9 -48h-193l-60 -342h193l-8 -48h-194l-34 -199h-54z" />
    <glyph glyph-name="uniF8FF" unicode="&#xf8ff;" horiz-adv-x="512" 
d="M0 718h512v-718h-512v718zM462 50v617h-412v-617h412zM223 251q0 38 5 60t17 38.5t37 41.5q31 31 40.5 47t9.5 36q0 36 -22.5 60.5t-53.5 24.5q-33 0 -54.5 -23t-27.5 -72l-50 8q7 69 43 103t92 34q54 0 89 -36t35 -95q0 -33 -13 -60t-50 -60q-26 -24 -35.5 -37.5
t-11.5 -28.5t-2 -58h-46zM222 184h56v-67h-56v67z" />
    <glyph glyph-name="uni0374" unicode="&#x374;" horiz-adv-x="383" 
d="M195 731h69l-98 -187h-47z" />
    <glyph glyph-name="uni0375" unicode="&#x375;" horiz-adv-x="383" 
d="M217 20h47l-77 -187h-68z" />
    <glyph glyph-name="uni0326" unicode="&#x326;" horiz-adv-x="0" 
d="M-124 -45h56l-106 -188h-46z" />
    <glyph glyph-name="uni0326.alt" horiz-adv-x="0" 
d="M-16 754h45l-95 -189h-57z" />
    <glyph glyph-name="uni02C9" unicode="&#x2c9;" 
d="M63 851h260l-7 -39h-259z" />
    <glyph glyph-name="acute" unicode="&#xb4;" 
d="M246 709h67l-147 -144h-47z" />
    <glyph glyph-name="breve" unicode="&#x2d8;" 
d="M64 704h36q0 -45 24 -67.5t64 -22.5q95 0 120 90h34q-14 -63 -55.5 -97t-100.5 -34q-57 0 -89.5 33.5t-32.5 97.5z" />
    <glyph glyph-name="caron" unicode="&#x2c7;" 
d="M63 709h50l64 -117l110 117h53l-134 -144h-63z" />
    <glyph glyph-name="cedilla" unicode="&#xb8;" 
d="M-64 -208l15 29q16 -8 39 -12.5t43 -4.5q39 0 60.5 14.5t21.5 39.5q0 21 -16 31.5t-38 10.5q-13 0 -31.5 -3.5t-29.5 -8.5l-14 14l85 98h37l-68 -79q21 6 40 6q32 0 56 -15.5t24 -49.5q0 -46 -36 -68.5t-89 -22.5q-24 0 -52 5.5t-47 15.5z" />
    <glyph glyph-name="circumflex" unicode="&#x2c6;" 
d="M173 709h62l80 -144h-50l-64 118l-109 -118h-54z" />
    <glyph glyph-name="dieresis" unicode="&#xa8;" 
d="M67 653q0 18 12 31t30 13q16 0 26 -10.5t10 -27.5q0 -18 -12 -31.5t-29 -13.5q-16 0 -26.5 10.5t-10.5 28.5zM241 653q0 18 12 31t29 13q16 0 27 -10.5t11 -27.5q0 -18 -12.5 -31.5t-29.5 -13.5q-16 0 -26.5 10.5t-10.5 28.5z" />
    <glyph glyph-name="dotaccent" unicode="&#x2d9;" 
d="M154 652q0 18 12.5 31t29.5 13t27 -10t10 -27q0 -18 -12 -31.5t-29 -13.5q-16 0 -27 10.5t-11 27.5z" />
    <glyph glyph-name="grave" unicode="`" 
d="M59 709h66l105 -144h-47z" />
    <glyph glyph-name="hungarumlaut" unicode="&#x2dd;" 
d="M180 709h68l-148 -144h-47zM331 709h68l-148 -144h-48z" />
    <glyph glyph-name="macron" unicode="&#xaf;" 
d="M63 652h260l-7 -39h-259z" />
    <glyph glyph-name="ogonek" unicode="&#x2db;" 
d="M-39 -157q0 39 29.5 75t89.5 83h41q-63 -54 -88 -85t-25 -61q0 -20 13 -31t35 -11q17 0 34.5 7t31.5 19l11 -30q-44 -34 -92 -34q-35 0 -57.5 17.5t-22.5 50.5z" />
    <glyph glyph-name="ring" unicode="&#x2da;" 
d="M100 636q0 47 29.5 80t76.5 33q40 0 62.5 -22t22.5 -58q0 -48 -29.5 -81t-76.5 -33q-40 0 -62.5 22.5t-22.5 58.5zM264 666q0 25 -15.5 42t-43.5 17q-34 0 -56 -25t-22 -61q0 -25 15 -41.5t44 -16.5q34 0 56 25t22 60z" />
    <glyph glyph-name="tilde" unicode="&#x2dc;" 
d="M132 674q16 0 29.5 -5t34.5 -18q22 -13 34 -18t25 -5q35 0 51 48h33q-12 -41 -35.5 -64.5t-55.5 -23.5q-13 0 -29.5 6.5t-40.5 18.5q-16 9 -30 15.5t-23 6.5q-34 0 -52 -50h-33q13 41 37 65t55 24z" />
    <glyph glyph-name="caron.alt" 
d="M182 708h56l-106 -188h-46z" />
    <glyph glyph-name="acute.cap" 
d="M246 908h67l-147 -144h-47z" />
    <glyph glyph-name="breve.cap" 
d="M64 902h36q0 -45 24 -67.5t64 -22.5q95 0 120 90h34q-14 -63 -55.5 -97t-100.5 -34q-57 0 -89.5 33.5t-32.5 97.5z" />
    <glyph glyph-name="caron.cap" 
d="M63 908h50l64 -118l110 118h53l-134 -144h-63z" />
    <glyph glyph-name="circumflex.cap" 
d="M173 908h62l80 -144h-50l-64 118l-109 -118h-54z" />
    <glyph glyph-name="dieresis.cap" 
d="M67 851q0 18 12 31t30 13q16 0 26 -10t10 -27q0 -18 -12 -31.5t-29 -13.5q-16 0 -26.5 10t-10.5 28zM241 851q0 18 12 31t29 13q16 0 27 -10t11 -27q0 -18 -12.5 -31.5t-29.5 -13.5q-16 0 -26.5 10t-10.5 28z" />
    <glyph glyph-name="dotaccent.cap" 
d="M154 851q0 18 12.5 31t29.5 13t27 -10t10 -27q0 -19 -12 -32t-29 -13q-16 0 -27 10.5t-11 27.5z" />
    <glyph glyph-name="grave.cap" 
d="M59 908h66l105 -144h-47z" />
    <glyph glyph-name="hungarumlaut.cap" 
d="M180 908h68l-148 -144h-47zM331 908h68l-148 -144h-48z" />
    <glyph glyph-name="macron.cap" 
d="M63 851h260l-7 -40h-259z" />
    <glyph glyph-name="ring.cap" 
d="M100 835q0 46 29.5 79.5t76.5 33.5q40 0 62.5 -22.5t22.5 -58.5q0 -47 -29.5 -80t-76.5 -33q-40 0 -62.5 22.5t-22.5 58.5zM264 864q0 25 -15.5 42t-43.5 17q-34 0 -56 -25t-22 -61q0 -25 15 -41.5t44 -16.5q34 0 56 25t22 60z" />
    <glyph glyph-name="tilde.cap" 
d="M132 873q26 0 66 -23.5t57 -23.5q34 0 51 48h33q-12 -40 -36 -64t-55 -24q-25 0 -61 23.5t-62 23.5q-33 0 -52 -49h-33q13 41 37 65t55 24z" />
    <glyph glyph-name="cyrbreve.cap" 
d="M67 897l36 7q1 -43 25 -67t63 -24q89 0 119 91l34 -7q-15 -61 -55.5 -93.5t-97.5 -32.5q-56 0 -89.5 33t-34.5 93z" />
    </font>
</defs>
</svg>
