<?xml version="1.0" standalone="no"?>
<!DOCTYPE svg PUBLIC "-//W3C//DTD SVG 1.1//EN" "http://www.w3.org/Graphics/SVG/1.1/DTD/svg11.dtd" >
<svg>
<metadata>
Created by FontForge 20120731 at Mon Jun 27 19:06:03 2016
 By ,,,
Copyright (c) 2015 Rogers Communications
</metadata>
<defs>
<font id="TedNext-Bold" horiz-adv-x="420" >
  <font-face 
    font-family="Ted Next"
    font-weight="700"
    font-stretch="normal"
    units-per-em="1000"
    panose-1="2 0 8 7 0 0 0 0 0 4"
    ascent="800"
    descent="-200"
    x-height="498"
    cap-height="708"
    bbox="-277 -250 1210 963"
    underline-thickness="50"
    underline-position="-50"
    unicode-range="U+000D-FB04"
  />
<missing-glyph horiz-adv-x="512" 
d="M0 718h512v-718h-512v718zM462 50v617h-412v-617h412zM223 251q0 56 13 81q15 28 46 59q31 29 40.5 46t9.5 37q0 36 -22.5 60.5t-53.5 24.5q-33 0 -54.5 -23t-27.5 -72l-50 8q7 69 43 103t92 34q54 0 89 -36t35 -95q0 -34 -13 -60t-50 -60q-37 -33 -43 -52t-6 -72h-46z
M222 184h56v-67h-56v67z" />
    <glyph glyph-name="f_f" unicode="ff" horiz-adv-x="764" 
d="M645 548v-50h131l-20 -123h-111v-375h-164v375h-212v-375h-164v375h-101l20 123h81v48q0 103 49 166t165 63q53 0 99 -10l-11 -130q-38 7 -65 7q-73 0 -73 -94v-50h212v48q0 103 49 166t165 63q53 0 99 -10l-11 -130q-38 7 -65 7q-73 0 -73 -94z" />
    <glyph glyph-name="f_f_i" unicode="ffi" horiz-adv-x="999" 
d="M644 548v-50h121l-20 -123h-101v-375h-164v375h-211v-375h-164v375h-101l20 123h81v48q0 103 49 166t165 63q53 0 99 -10l-11 -130q-38 7 -65 7q-73 0 -73 -94v-50h211v48q0 103 44.5 166t149.5 63q53 0 99 -10l-11 -130q-33 7 -55 7q-63 0 -63 -94zM824.5 593.5
q-27.5 26.5 -27.5 63.5q0 36 27.5 63t66.5 27t66.5 -26.5t27.5 -63.5q0 -38 -27 -64t-67 -26q-39 0 -66.5 26.5zM809 498h164v-498h-164v498z" />
    <glyph glyph-name="f_f_l" unicode="ffl" horiz-adv-x="1049" 
d="M991.5 156.5q14.5 -28.5 49.5 -55.5l-97 -122q-63 34 -98 89t-35 146v416q-28 12 -72 12q-51 0 -72 -32t-21 -82v-30h121l-20 -123h-101v-375h-164v375h-213v-375h-164v375h-101l20 123h81v48q0 103 49 166t165 63q53 0 99 -10l-11 -130q-38 7 -65 7q-73 0 -73 -94v-50
h213v28q0 112 56 180.5t188 68.5q49 0 113 -16l138 17v-542q0 -49 14.5 -77.5z" />
    <glyph glyph-name="fi" unicode="fi" horiz-adv-x="664" 
d="M105 375h-101l20 123h81v48q0 103 44.5 166t149.5 63q53 0 99 -10l-11 -130q-33 7 -55 7q-63 0 -63 -94v-50h121l-20 -123h-101v-375h-164v375zM449.5 593.5q-27.5 26.5 -27.5 63.5q0 36 27.5 63t66.5 27t66.5 -26.5t27.5 -63.5q0 -38 -27 -64t-67 -26q-39 0 -66.5 26.5z
M434 498h164v-498h-164v498z" />
    <glyph glyph-name="fl" unicode="fl" horiz-adv-x="672" 
d="M614.5 156.5q14.5 -28.5 49.5 -55.5l-97 -122q-63 34 -98 89t-35 146v416q-28 12 -72 12q-51 0 -72 -32t-21 -82v-30h121l-20 -123h-101v-375h-164v375h-101l20 123h81v28q0 112 56 180.5t188 68.5q49 0 113 -16l138 17v-542q0 -49 14.5 -77.5z" />
    <glyph glyph-name=".notdef" horiz-adv-x="512" 
d="M0 718h512v-718h-512v718zM462 50v617h-412v-617h412zM223 251q0 56 13 81q15 28 46 59q31 29 40.5 46t9.5 37q0 36 -22.5 60.5t-53.5 24.5q-33 0 -54.5 -23t-27.5 -72l-50 8q7 69 43 103t92 34q54 0 89 -36t35 -95q0 -34 -13 -60t-50 -60q-37 -33 -43 -52t-6 -72h-46z
M222 184h56v-67h-56v67z" />
    <glyph glyph-name="NULL" horiz-adv-x="0" 
 />
    <glyph glyph-name="nonmarkingreturn" unicode="&#xd;" horiz-adv-x="250" 
 />
    <glyph glyph-name="space" unicode=" " horiz-adv-x="250" 
 />
    <glyph glyph-name="A" unicode="A" horiz-adv-x="729" 
d="M283 708h166l294 -708h-190l-65 166h-254l-62 -166h-186zM441 303l-78 216l-80 -216h158z" />
    <glyph glyph-name="Aacute" unicode="&#xc1;" horiz-adv-x="729" 
d="M283 708h166l294 -708h-190l-65 166h-254l-62 -166h-186zM441 303l-78 216l-80 -216h158zM398 908h166l-146 -144h-124z" />
    <glyph glyph-name="Abreve" unicode="&#x102;" horiz-adv-x="729" 
d="M283 708h166l294 -708h-190l-65 166h-254l-62 -166h-186zM441 303l-78 216l-80 -216h158zM241 799q-47 35 -52 109h84q5 -30 30 -42.5t60 -12.5q39 0 61.5 11.5t28.5 43.5h84q-6 -74 -53 -109t-122 -35q-74 0 -121 35z" />
    <glyph glyph-name="Acircumflex" unicode="&#xc2;" horiz-adv-x="729" 
d="M283 708h166l294 -708h-190l-65 166h-254l-62 -166h-186zM441 303l-78 216l-80 -216h158zM294 908h148l122 -144h-130l-68 81l-68 -81h-128z" />
    <glyph glyph-name="Adieresis" unicode="&#xc4;" horiz-adv-x="729" 
d="M283 708h166l294 -708h-190l-65 166h-254l-62 -166h-186zM441 303l-78 216l-80 -216h158zM198.5 792q-24.5 24 -24.5 58q0 33 24.5 57t58.5 24q35 0 59.5 -23.5t24.5 -57.5t-24.5 -58t-59.5 -24q-34 0 -58.5 24zM416 792q-24 24 -24 58q0 33 24 57t59 24q34 0 58.5 -23.5
t24.5 -57.5t-24.5 -58t-58.5 -24q-35 0 -59 24z" />
    <glyph glyph-name="Agrave" unicode="&#xc0;" horiz-adv-x="729" 
d="M283 708h166l294 -708h-190l-65 166h-254l-62 -166h-186zM441 303l-78 216l-80 -216h158zM169 908h166l104 -144h-124z" />
    <glyph glyph-name="Amacron" unicode="&#x100;" horiz-adv-x="729" 
d="M283 708h166l294 -708h-190l-65 166h-254l-62 -166h-186zM441 303l-78 216l-80 -216h158zM196 879h336v-86h-336v86z" />
    <glyph glyph-name="Aogonek" unicode="&#x104;" horiz-adv-x="729" 
d="M647 -134l32 -62q-24 -18 -54.5 -29t-60.5 -11q-46 0 -79.5 23t-33.5 68q0 39 30 76.5t72 68.5l-65 166h-254l-62 -166h-186l297 708h166l294 -708h-98q-90 -72 -90 -118q0 -16 10.5 -26t26.5 -10q27 0 55 20zM441 303l-78 216l-80 -216h158z" />
    <glyph glyph-name="Aring" unicode="&#xc5;" horiz-adv-x="729" 
d="M283 708h166l294 -708h-190l-65 166h-254l-62 -166h-186zM441 303l-78 216l-80 -216h158zM290 779.5q-32 30.5 -32 75.5q0 46 31.5 77t77.5 31q45 0 77 -31t32 -76q0 -46 -31.5 -76.5t-77.5 -30.5q-45 0 -77 30.5zM409 814.5q17 16.5 17 41.5t-17 41.5t-42 16.5t-42 -17
t-17 -42q0 -24 17 -40.5t42 -16.5t42 16.5z" />
    <glyph glyph-name="Atilde" unicode="&#xc3;" horiz-adv-x="729" 
d="M283 708h166l294 -708h-190l-65 166h-254l-62 -166h-186zM441 303l-78 216l-80 -216h158zM357 789q-39 20 -63 20q-31 0 -42 -40h-72q8 58 35 94t78 36q37 0 80 -20t65 -20q18 0 27.5 10.5t14.5 30.5h71q-7 -58 -34.5 -95t-78.5 -37q-35 0 -81 21z" />
    <glyph glyph-name="AE" unicode="&#xc6;" horiz-adv-x="1033" 
d="M410 708h575l-20 -145h-288v-133h281l-20 -137h-261v-147h326l-20 -146h-469v153h-231l-88 -153h-199zM514 291v272h-10l-153 -272h163z" />
    <glyph glyph-name="AEacute" unicode="&#x1fc;" horiz-adv-x="1033" 
d="M410 708h575l-20 -145h-288v-133h281l-20 -137h-261v-147h326l-20 -146h-469v153h-231l-88 -153h-199zM514 291v272h-10l-153 -272h163zM679 908h166l-146 -144h-124z" />
    <glyph glyph-name="B" unicode="B" horiz-adv-x="645" 
d="M73 708h262q99 0 170 -42t71 -140q0 -57 -31 -96t-85 -57v-2q64 -11 104.5 -54.5t40.5 -110.5q0 -107 -77.5 -156.5t-192.5 -49.5h-262v708zM310 426q48 0 74.5 20t26.5 57q0 36 -27 52.5t-82 16.5h-64v-146h72zM314 138q50 0 85 18.5t35 65.5q0 42 -31.5 60t-89.5 18
h-75v-162h76z" />
    <glyph glyph-name="C" unicode="C" horiz-adv-x="696" 
d="M226 28.5q-87 47.5 -136.5 132.5t-49.5 194q0 111 50.5 195.5t138 130.5t195.5 46q70 0 133.5 -19t106.5 -48l-43 -157q-39 29 -88.5 49t-102.5 20q-59 0 -105.5 -28t-72.5 -77.5t-26 -111.5q0 -64 26 -113t73.5 -76.5t110.5 -27.5q111 0 207 76l26 -153
q-45 -35 -108 -57.5t-140 -22.5q-108 0 -195 47.5z" />
    <glyph glyph-name="Cacute" unicode="&#x106;" horiz-adv-x="696" 
d="M226 28.5q-87 47.5 -136.5 132.5t-49.5 194q0 111 50.5 195.5t138 130.5t195.5 46q70 0 133.5 -19t106.5 -48l-43 -157q-39 29 -88.5 49t-102.5 20q-59 0 -105.5 -28t-72.5 -77.5t-26 -111.5q0 -64 26 -113t73.5 -76.5t110.5 -27.5q111 0 207 76l26 -153
q-45 -35 -108 -57.5t-140 -22.5q-108 0 -195 47.5zM433 908h166l-146 -144h-124z" />
    <glyph glyph-name="Ccaron" unicode="&#x10c;" horiz-adv-x="696" 
d="M226 28.5q-87 47.5 -136.5 132.5t-49.5 194q0 111 50.5 195.5t138 130.5t195.5 46q70 0 133.5 -19t106.5 -48l-43 -157q-39 29 -88.5 49t-102.5 20q-59 0 -105.5 -28t-72.5 -77.5t-26 -111.5q0 -64 26 -113t73.5 -76.5t110.5 -27.5q111 0 207 76l26 -153
q-45 -35 -108 -57.5t-140 -22.5q-108 0 -195 47.5zM230 908h130l68 -81l68 81h128l-123 -144h-147z" />
    <glyph glyph-name="Ccedilla" unicode="&#xc7;" horiz-adv-x="696" 
d="M491.5 -77.5q29.5 -18.5 29.5 -64.5q0 -52 -44.5 -75t-102.5 -23q-31 0 -63.5 7t-55.5 18l27 60q40 -19 84 -19q20 0 35 7.5t15 25.5q0 16 -14 22.5t-33 6.5q-22 0 -40 -6l-31 29l56 75q-91 14 -162.5 64t-111.5 128.5t-40 176.5q0 111 50.5 195.5t138 130.5t195.5 46
q70 0 133.5 -19t106.5 -48l-43 -157q-39 29 -88.5 49t-102.5 20q-59 0 -105.5 -28t-72.5 -77.5t-26 -111.5q0 -64 26 -113t73.5 -76.5t110.5 -27.5q111 0 207 76l26 -153q-43 -34 -103 -56t-134 -24l-32 -41q7 1 18 1q44 0 73.5 -18.5z" />
    <glyph glyph-name="Ccircumflex" unicode="&#x108;" horiz-adv-x="696" 
d="M226 28.5q-87 47.5 -136.5 132.5t-49.5 194q0 111 50.5 195.5t138 130.5t195.5 46q70 0 133.5 -19t106.5 -48l-43 -157q-39 29 -88.5 49t-102.5 20q-59 0 -105.5 -28t-72.5 -77.5t-26 -111.5q0 -64 26 -113t73.5 -76.5t110.5 -27.5q111 0 207 76l26 -153
q-45 -35 -108 -57.5t-140 -22.5q-108 0 -195 47.5zM355 908h148l122 -144h-130l-68 81l-68 -81h-128z" />
    <glyph glyph-name="Cdotaccent" unicode="&#x10a;" horiz-adv-x="696" 
d="M226 28.5q-87 47.5 -136.5 132.5t-49.5 194q0 111 50.5 195.5t138 130.5t195.5 46q70 0 133.5 -19t106.5 -48l-43 -157q-39 29 -88.5 49t-102.5 20q-59 0 -105.5 -28t-72.5 -77.5t-26 -111.5q0 -64 26 -113t73.5 -76.5t110.5 -27.5q111 0 207 76l26 -153
q-45 -35 -108 -57.5t-140 -22.5q-108 0 -195 47.5zM362 789q-26 25 -26 60t26 60.5t63 25.5q38 0 64 -25t26 -61t-26 -60.5t-64 -24.5q-37 0 -63 25z" />
    <glyph glyph-name="D" unicode="D" horiz-adv-x="774" 
d="M73 708h256q109 0 200 -34t148 -112.5t57 -205.5q0 -118 -56.5 -198.5t-147 -119t-193.5 -38.5h-264v708zM321 148q103 0 169 49t66 159t-65 158t-166 48h-85v-414h81z" />
    <glyph glyph-name="Eth" unicode="&#xd0;" horiz-adv-x="774" 
d="M74 309h-61v107h61v292h273q106 0 193 -37t139.5 -116t52.5 -199q0 -116 -55.5 -196.5t-144 -120t-186.5 -39.5h-272v309zM315 150q111 0 176.5 50.5t65.5 155.5q0 101 -61 152t-165 51h-90v-143h181v-107h-181v-159h74z" />
    <glyph glyph-name="Dcaron" unicode="&#x10e;" horiz-adv-x="774" 
d="M73 708h256q109 0 200 -34t148 -112.5t57 -205.5q0 -118 -56.5 -198.5t-147 -119t-193.5 -38.5h-264v708zM321 148q103 0 169 49t66 159t-65 158t-166 48h-85v-414h81zM160 908h130l68 -81l68 81h128l-123 -144h-147z" />
    <glyph glyph-name="Dcroat" unicode="&#x110;" horiz-adv-x="774" 
d="M74 309h-61v107h61v292h273q106 0 193 -37t139.5 -116t52.5 -199q0 -116 -55.5 -196.5t-144 -120t-186.5 -39.5h-272v309zM315 150q111 0 176.5 50.5t65.5 155.5q0 101 -61 152t-165 51h-90v-143h181v-107h-181v-159h74z" />
    <glyph glyph-name="E" unicode="E" horiz-adv-x="577" 
d="M73 708h456l-20 -145h-271v-133h264l-20 -137h-244v-147h309l-20 -146h-454v708z" />
    <glyph glyph-name="Eacute" unicode="&#xc9;" horiz-adv-x="577" 
d="M73 708h456l-20 -145h-271v-133h264l-20 -137h-244v-147h309l-20 -146h-454v708zM337 908h166l-146 -144h-124z" />
    <glyph glyph-name="Ebreve" unicode="&#x114;" horiz-adv-x="577" 
d="M73 708h456l-20 -145h-271v-133h264l-20 -137h-244v-147h309l-20 -146h-454v708zM188 799q-47 35 -52 109h84q5 -30 30 -42.5t60 -12.5q39 0 61.5 11.5t28.5 43.5h84q-6 -74 -53 -109t-122 -35q-74 0 -121 35z" />
    <glyph glyph-name="Ecaron" unicode="&#x11a;" horiz-adv-x="577" 
d="M73 708h456l-20 -145h-271v-133h264l-20 -137h-244v-147h309l-20 -146h-454v708zM114 908h130l68 -81l68 81h128l-123 -144h-147z" />
    <glyph glyph-name="Ecircumflex" unicode="&#xca;" horiz-adv-x="577" 
d="M73 708h456l-20 -145h-271v-133h264l-20 -137h-244v-147h309l-20 -146h-454v708zM242 908h148l122 -144h-130l-68 81l-68 -81h-128z" />
    <glyph glyph-name="Edieresis" unicode="&#xcb;" horiz-adv-x="577" 
d="M73 708h456l-20 -145h-271v-133h264l-20 -137h-244v-147h309l-20 -146h-454v708zM147.5 792q-24.5 24 -24.5 58q0 33 24.5 57t58.5 24q35 0 59.5 -23.5t24.5 -57.5t-24.5 -58t-59.5 -24q-34 0 -58.5 24zM365 792q-24 24 -24 58q0 33 24 57t59 24q34 0 58.5 -23.5
t24.5 -57.5t-24.5 -58t-58.5 -24q-35 0 -59 24z" />
    <glyph glyph-name="Edotaccent" unicode="&#x116;" horiz-adv-x="577" 
d="M73 708h456l-20 -145h-271v-133h264l-20 -137h-244v-147h309l-20 -146h-454v708zM247 789q-26 25 -26 60t26 60.5t63 25.5q38 0 64 -25t26 -61t-26 -60.5t-64 -24.5q-37 0 -63 25z" />
    <glyph glyph-name="Egrave" unicode="&#xc8;" horiz-adv-x="577" 
d="M73 708h456l-20 -145h-271v-133h264l-20 -137h-244v-147h309l-20 -146h-454v708zM136 908h166l104 -144h-124z" />
    <glyph glyph-name="Emacron" unicode="&#x112;" horiz-adv-x="577" 
d="M73 708h456l-20 -145h-271v-133h264l-20 -137h-244v-147h309l-20 -146h-454v708zM132 879h336v-86h-336v86z" />
    <glyph glyph-name="Eogonek" unicode="&#x118;" horiz-adv-x="577" 
d="M396 -118q0 -16 10.5 -26t26.5 -10q27 0 55 20l32 -62q-24 -18 -54.5 -29t-60.5 -11q-46 0 -79.5 23t-33.5 68q0 39 30 76.5t72 68.5h-321v708h456l-20 -145h-271v-133h264l-20 -137h-244v-147h309l-20 -146h-41q-90 -72 -90 -118z" />
    <glyph glyph-name="F" unicode="F" horiz-adv-x="546" 
d="M73 708h446l-20 -146h-257v-146h254l-20 -141h-234v-275h-169v708z" />
    <glyph glyph-name="G" unicode="G" horiz-adv-x="769" 
d="M228.5 29q-88.5 47 -138.5 131.5t-50 194.5q0 111 50.5 195.5t138 130.5t195.5 46q78 0 149 -22.5t123 -55.5l-64 -139q-102 66 -202 66q-59 0 -106.5 -28.5t-74.5 -79t-27 -113.5q0 -100 57 -161.5t159 -61.5q63 0 107 19v129h-135l20 138h272v-375q-54 -28 -124 -44.5
t-149 -16.5q-112 0 -200.5 47z" />
    <glyph glyph-name="Gbreve" unicode="&#x11e;" horiz-adv-x="769" 
d="M228.5 29q-88.5 47 -138.5 131.5t-50 194.5q0 111 50.5 195.5t138 130.5t195.5 46q78 0 149 -22.5t123 -55.5l-64 -139q-102 66 -202 66q-59 0 -106.5 -28.5t-74.5 -79t-27 -113.5q0 -100 57 -161.5t159 -61.5q63 0 107 19v129h-135l20 138h272v-375q-54 -28 -124 -44.5
t-149 -16.5q-112 0 -200.5 47zM314 799q-47 35 -52 109h84q5 -30 30 -42.5t60 -12.5q39 0 61.5 11.5t28.5 43.5h84q-6 -74 -53 -109t-122 -35q-74 0 -121 35z" />
    <glyph glyph-name="Gcircumflex" unicode="&#x11c;" horiz-adv-x="769" 
d="M228.5 29q-88.5 47 -138.5 131.5t-50 194.5q0 111 50.5 195.5t138 130.5t195.5 46q78 0 149 -22.5t123 -55.5l-64 -139q-102 66 -202 66q-59 0 -106.5 -28.5t-74.5 -79t-27 -113.5q0 -100 57 -161.5t159 -61.5q63 0 107 19v129h-135l20 138h272v-375q-54 -28 -124 -44.5
t-149 -16.5q-112 0 -200.5 47zM359 908h148l122 -144h-130l-68 81l-68 -81h-128z" />
    <glyph glyph-name="Gcommaaccent" unicode="&#x122;" horiz-adv-x="769" 
d="M228.5 29q-88.5 47 -138.5 131.5t-50 194.5q0 111 50.5 195.5t138 130.5t195.5 46q78 0 149 -22.5t123 -55.5l-64 -139q-102 66 -202 66q-59 0 -106.5 -28.5t-74.5 -79t-27 -113.5q0 -100 57 -161.5t159 -61.5q63 0 107 19v129h-135l20 138h272v-375q-54 -28 -124 -44.5
t-149 -16.5q-112 0 -200.5 47zM361 -45h145l-86 -195h-126z" />
    <glyph glyph-name="Gdotaccent" unicode="&#x120;" horiz-adv-x="769" 
d="M228.5 29q-88.5 47 -138.5 131.5t-50 194.5q0 111 50.5 195.5t138 130.5t195.5 46q78 0 149 -22.5t123 -55.5l-64 -139q-102 66 -202 66q-59 0 -106.5 -28.5t-74.5 -79t-27 -113.5q0 -100 57 -161.5t159 -61.5q63 0 107 19v129h-135l20 138h272v-375q-54 -28 -124 -44.5
t-149 -16.5q-112 0 -200.5 47zM368 789q-26 25 -26 60t26 60.5t63 25.5q38 0 64 -25t26 -61t-26 -60.5t-64 -24.5q-37 0 -63 25z" />
    <glyph glyph-name="H" unicode="H" horiz-adv-x="794" 
d="M73 708h171v-268h306v268h171v-708h-171v296h-306v-296h-171v708z" />
    <glyph glyph-name="Hbar" unicode="&#x126;" horiz-adv-x="794" 
d="M73 708h171v-119h306v119h171v-708h-171v296h-306v-296h-171v708zM550 440v60h-306v-60h306z" />
    <glyph glyph-name="Hcircumflex" unicode="&#x124;" horiz-adv-x="764" 
d="M73 708h171v-268h306v268h171v-708h-171v296h-306v-296h-171v708zM312 908h148l122 -144h-130l-68 81l-68 -81h-128z" />
    <glyph glyph-name="I" unicode="I" horiz-adv-x="318" 
d="M73 708h172v-708h-172v708z" />
    <glyph glyph-name="IJ" unicode="&#x132;" horiz-adv-x="722" 
d="M73 708h172v-708h-172v708zM382 136q50 0 74.5 28t24.5 77v467h172v-475q0 -112 -60.5 -182t-180.5 -70q-28 0 -55 3l-29 162q30 -10 54 -10z" />
    <glyph glyph-name="Iacute" unicode="&#xcd;" horiz-adv-x="318" 
d="M73 708h172v-708h-172v708zM177 908h166l-146 -144h-124z" />
    <glyph glyph-name="Ibreve" unicode="&#x12c;" horiz-adv-x="318" 
d="M73 708h172v-708h-172v708zM37 799q-47 35 -52 109h84q5 -30 30 -42.5t60 -12.5q39 0 61.5 11.5t28.5 43.5h84q-6 -74 -53 -109t-122 -35q-74 0 -121 35z" />
    <glyph glyph-name="Icircumflex" unicode="&#xce;" horiz-adv-x="318" 
d="M73 708h172v-708h-172v708zM85 908h148l122 -144h-130l-68 81l-68 -81h-128z" />
    <glyph glyph-name="Idieresis" unicode="&#xcf;" horiz-adv-x="318" 
d="M73 708h172v-708h-172v708zM-8.5 792q-24.5 24 -24.5 58q0 33 24.5 57t58.5 24q35 0 59.5 -23.5t24.5 -57.5t-24.5 -58t-59.5 -24q-34 0 -58.5 24zM209 792q-24 24 -24 58q0 33 24 57t59 24q34 0 58.5 -23.5t24.5 -57.5t-24.5 -58t-58.5 -24q-35 0 -59 24z" />
    <glyph glyph-name="Idotaccent" unicode="&#x130;" horiz-adv-x="318" 
d="M73 708h172v-708h-172v708zM96 789q-26 25 -26 60t26 60.5t63 25.5q38 0 64 -25t26 -61t-26 -60.5t-64 -24.5q-37 0 -63 25z" />
    <glyph glyph-name="Igrave" unicode="&#xcc;" horiz-adv-x="318" 
d="M73 708h172v-708h-172v708zM-25 908h166l104 -144h-124z" />
    <glyph glyph-name="Imacron" unicode="&#x12a;" horiz-adv-x="318" 
d="M73 708h172v-708h-172v708zM-10 879h336v-86h-336v86z" />
    <glyph glyph-name="Iogonek" unicode="&#x12e;" horiz-adv-x="318" 
d="M267 -196q-24 -18 -54.5 -29t-60.5 -11q-46 0 -79.5 23t-33.5 68q0 39 30 76.5t72 68.5h-68v708h172v-708h-12q-90 -72 -90 -118q0 -16 10.5 -26t26.5 -10q27 0 55 20z" />
    <glyph glyph-name="Itilde" unicode="&#x128;" horiz-adv-x="318" 
d="M73 708h172v-708h-172v708zM151 789q-39 20 -63 20q-31 0 -42 -40h-72q8 58 35 94t78 36q37 0 80 -20t65 -20q18 0 27.5 10.5t14.5 30.5h71q-7 -58 -34.5 -95t-78.5 -37q-35 0 -81 21z" />
    <glyph glyph-name="J" unicode="J" horiz-adv-x="414" 
d="M74 136q50 0 74.5 28t24.5 77v467h172v-475q0 -112 -60.5 -182t-180.5 -70q-28 0 -55 3l-29 162q30 -10 54 -10z" />
    <glyph glyph-name="Jcircumflex" unicode="&#x134;" horiz-adv-x="414" 
d="M74 136q50 0 74.5 28t24.5 77v467h172v-475q0 -112 -60.5 -182t-180.5 -70q-28 0 -55 3l-29 162q30 -10 54 -10zM178 908h148l122 -144h-130l-68 81l-68 -81h-128z" />
    <glyph glyph-name="K" unicode="K" horiz-adv-x="711" 
d="M73 708h168v-308l256 308h214l-298 -331l316 -377h-223l-265 336v-336h-168v708z" />
    <glyph glyph-name="Kcommaaccent" unicode="&#x136;" horiz-adv-x="711" 
d="M73 708h168v-308l256 308h214l-298 -331l316 -377h-223l-265 336v-336h-168v708zM298 -45h145l-86 -195h-126z" />
    <glyph glyph-name="L" unicode="L" horiz-adv-x="526" 
d="M73 708h172v-559h274l-20 -149h-426v708z" />
    <glyph glyph-name="Lacute" unicode="&#x139;" horiz-adv-x="526" 
d="M73 708h172v-559h274l-20 -149h-426v708zM199 908h166l-146 -144h-124z" />
    <glyph glyph-name="Lcaron" unicode="&#x13d;" horiz-adv-x="526" 
d="M73 708h172v-559h274l-20 -149h-426v708zM341 708h145l-86 -195h-126z" />
    <glyph glyph-name="Lcommaaccent" unicode="&#x13b;" horiz-adv-x="526" 
d="M73 708h172v-559h274l-20 -149h-426v708zM221 -45h145l-86 -195h-126z" />
    <glyph glyph-name="Ldot" unicode="&#x13f;" horiz-adv-x="526" 
d="M73 708h172v-559h274l-20 -149h-426v708zM325 377q-26 25 -26 60t26 60.5t63 25.5q38 0 64 -25t26 -61t-26 -60.5t-64 -24.5q-37 0 -63 25z" />
    <glyph glyph-name="Lslash" unicode="&#x141;" horiz-adv-x="526" 
d="M73 177l-64 -56v142l64 56v389h172v-262l191 167v-141l-191 -167v-156h274l-20 -149h-426v177z" />
    <glyph glyph-name="M" unicode="M" horiz-adv-x="955" 
d="M73 708h243l163 -454l156 454h247v-708h-167l4 501l-187 -501h-120l-182 501l4 -501h-161v708z" />
    <glyph glyph-name="N" unicode="N" horiz-adv-x="790" 
d="M73 708h195l284 -462h3l-4 462h166v-708h-194l-285 463h-3l4 -463h-166v708z" />
    <glyph glyph-name="Nacute" unicode="&#x143;" horiz-adv-x="790" 
d="M73 708h195l284 -462h3l-4 462h166v-708h-194l-285 463h-3l4 -463h-166v708zM422 908h166l-146 -144h-124z" />
    <glyph glyph-name="Ncaron" unicode="&#x147;" horiz-adv-x="790" 
d="M73 708h195l284 -462h3l-4 462h166v-708h-194l-285 463h-3l4 -463h-166v708zM201 908h130l68 -81l68 81h128l-123 -144h-147z" />
    <glyph glyph-name="Ncommaaccent" unicode="&#x145;" horiz-adv-x="790" 
d="M73 708h195l284 -462h3l-4 462h166v-708h-194l-285 463h-3l4 -463h-166v708zM320 -45h145l-86 -195h-126z" />
    <glyph glyph-name="Eng" unicode="&#x14a;" horiz-adv-x="790" 
d="M268 708l284 -433h3l-4 433h166v-721q0 -105 -43.5 -166t-155.5 -61q-42 0 -71 8l11 137q15 -5 35 -5q34 0 47 22.5t13 64.5v5l-315 471h-3l4 -463h-166v708h195z" />
    <glyph glyph-name="Ntilde" unicode="&#xd1;" horiz-adv-x="790" 
d="M73 708h195l284 -462h3l-4 462h166v-708h-194l-285 463h-3l4 -463h-166v708zM390 789q-39 20 -63 20q-31 0 -42 -40h-72q8 58 35 94t78 36q37 0 80 -20t65 -20q18 0 27.5 10.5t14.5 30.5h71q-7 -58 -34.5 -95t-78.5 -37q-35 0 -81 21z" />
    <glyph glyph-name="O" unicode="O" horiz-adv-x="851" 
d="M227.5 28.5q-87.5 47.5 -137.5 133t-50 195.5q0 111 49.5 195t137.5 129.5t198 45.5q111 0 198.5 -45.5t137.5 -129.5t50 -195q0 -110 -50 -195.5t-138 -133t-198 -47.5t-197.5 47.5zM530 165q46 28 72 78.5t26 113.5q0 61 -26 110.5t-72 77.5t-105 28t-105 -28
t-71.5 -77t-25.5 -111q0 -63 25.5 -113.5t71.5 -78.5t105 -28t105 28z" />
    <glyph glyph-name="Oacute" unicode="&#xd3;" horiz-adv-x="851" 
d="M227.5 28.5q-87.5 47.5 -137.5 133t-50 195.5q0 111 49.5 195t137.5 129.5t198 45.5q111 0 198.5 -45.5t137.5 -129.5t50 -195q0 -110 -50 -195.5t-138 -133t-198 -47.5t-197.5 47.5zM530 165q46 28 72 78.5t26 113.5q0 61 -26 110.5t-72 77.5t-105 28t-105 -28
t-71.5 -77t-25.5 -111q0 -63 25.5 -113.5t71.5 -78.5t105 -28t105 28zM439 908h166l-146 -144h-124z" />
    <glyph glyph-name="Obreve" unicode="&#x14e;" horiz-adv-x="851" 
d="M227.5 28.5q-87.5 47.5 -137.5 133t-50 195.5q0 111 49.5 195t137.5 129.5t198 45.5q111 0 198.5 -45.5t137.5 -129.5t50 -195q0 -110 -50 -195.5t-138 -133t-198 -47.5t-197.5 47.5zM530 165q46 28 72 78.5t26 113.5q0 61 -26 110.5t-72 77.5t-105 28t-105 -28
t-71.5 -77t-25.5 -111q0 -63 25.5 -113.5t71.5 -78.5t105 -28t105 28zM302 799q-47 35 -52 109h84q5 -30 30 -42.5t60 -12.5q39 0 61.5 11.5t28.5 43.5h84q-6 -74 -53 -109t-122 -35q-74 0 -121 35z" />
    <glyph glyph-name="Ocircumflex" unicode="&#xd4;" horiz-adv-x="851" 
d="M227.5 28.5q-87.5 47.5 -137.5 133t-50 195.5q0 111 49.5 195t137.5 129.5t198 45.5q111 0 198.5 -45.5t137.5 -129.5t50 -195q0 -110 -50 -195.5t-138 -133t-198 -47.5t-197.5 47.5zM530 165q46 28 72 78.5t26 113.5q0 61 -26 110.5t-72 77.5t-105 28t-105 -28
t-71.5 -77t-25.5 -111q0 -63 25.5 -113.5t71.5 -78.5t105 -28t105 28zM353 908h148l122 -144h-130l-68 81l-68 -81h-128z" />
    <glyph glyph-name="Odieresis" unicode="&#xd6;" horiz-adv-x="851" 
d="M227.5 28.5q-87.5 47.5 -137.5 133t-50 195.5q0 111 49.5 195t137.5 129.5t198 45.5q111 0 198.5 -45.5t137.5 -129.5t50 -195q0 -110 -50 -195.5t-138 -133t-198 -47.5t-197.5 47.5zM530 165q46 28 72 78.5t26 113.5q0 61 -26 110.5t-72 77.5t-105 28t-105 -28
t-71.5 -77t-25.5 -111q0 -63 25.5 -113.5t71.5 -78.5t105 -28t105 28zM258.5 792q-24.5 24 -24.5 58q0 33 24.5 57t58.5 24q35 0 59.5 -23.5t24.5 -57.5t-24.5 -58t-59.5 -24q-34 0 -58.5 24zM476 792q-24 24 -24 58q0 33 24 57t59 24q34 0 58.5 -23.5t24.5 -57.5t-24.5 -58
t-58.5 -24q-35 0 -59 24z" />
    <glyph glyph-name="Ograve" unicode="&#xd2;" horiz-adv-x="851" 
d="M227.5 28.5q-87.5 47.5 -137.5 133t-50 195.5q0 111 49.5 195t137.5 129.5t198 45.5q111 0 198.5 -45.5t137.5 -129.5t50 -195q0 -110 -50 -195.5t-138 -133t-198 -47.5t-197.5 47.5zM530 165q46 28 72 78.5t26 113.5q0 61 -26 110.5t-72 77.5t-105 28t-105 -28
t-71.5 -77t-25.5 -111q0 -63 25.5 -113.5t71.5 -78.5t105 -28t105 28zM257 908h166l104 -144h-124z" />
    <glyph glyph-name="Ohungarumlaut" unicode="&#x150;" horiz-adv-x="851" 
d="M227.5 28.5q-87.5 47.5 -137.5 133t-50 195.5q0 111 49.5 195t137.5 129.5t198 45.5q111 0 198.5 -45.5t137.5 -129.5t50 -195q0 -110 -50 -195.5t-138 -133t-198 -47.5t-197.5 47.5zM530 165q46 28 72 78.5t26 113.5q0 61 -26 110.5t-72 77.5t-105 28t-105 -28
t-71.5 -77t-25.5 -111q0 -63 25.5 -113.5t71.5 -78.5t105 -28t105 28zM349 908h166l-146 -144h-124zM569 908h166l-146 -144h-124z" />
    <glyph glyph-name="Omacron" unicode="&#x14c;" horiz-adv-x="851" 
d="M227.5 28.5q-87.5 47.5 -137.5 133t-50 195.5q0 111 49.5 195t137.5 129.5t198 45.5q111 0 198.5 -45.5t137.5 -129.5t50 -195q0 -110 -50 -195.5t-138 -133t-198 -47.5t-197.5 47.5zM530 165q46 28 72 78.5t26 113.5q0 61 -26 110.5t-72 77.5t-105 28t-105 -28
t-71.5 -77t-25.5 -111q0 -63 25.5 -113.5t71.5 -78.5t105 -28t105 28zM255 879h336v-86h-336v86z" />
    <glyph glyph-name="Oslash" unicode="&#xd8;" horiz-adv-x="851" 
d="M195 51l-89 -95l-67 57l89 97q-43 46 -65.5 109t-22.5 137q0 111 49.5 195t137.5 129.5t198 45.5q126 0 219 -58l87 97l67 -59l-86 -93q99 -101 99 -257q0 -110 -50 -194.5t-138.5 -132t-198.5 -47.5q-140 0 -229 69zM535 550q-44 29 -110 29q-64 0 -112 -29.5t-73.5 -81
t-25.5 -113.5q0 -73 31 -120zM535 160.5q48 29.5 74 80.5t26 115q0 80 -38 130l-292 -318q46 -37 119 -37q63 0 111 29.5z" />
    <glyph glyph-name="Oslashacute" unicode="&#x1fe;" horiz-adv-x="851" 
d="M195 51l-89 -95l-67 57l89 97q-43 46 -65.5 109t-22.5 137q0 111 49.5 195t137.5 129.5t198 45.5q126 0 219 -58l87 97l67 -59l-86 -93q99 -101 99 -257q0 -110 -50 -194.5t-138.5 -132t-198.5 -47.5q-140 0 -229 69zM535 550q-44 29 -110 29q-64 0 -112 -29.5t-73.5 -81
t-25.5 -113.5q0 -73 31 -120zM535 160.5q48 29.5 74 80.5t26 115q0 80 -38 130l-292 -318q46 -37 119 -37q63 0 111 29.5zM456 908h166l-146 -144h-124z" />
    <glyph glyph-name="Otilde" unicode="&#xd5;" horiz-adv-x="851" 
d="M227.5 28.5q-87.5 47.5 -137.5 133t-50 195.5q0 111 49.5 195t137.5 129.5t198 45.5q111 0 198.5 -45.5t137.5 -129.5t50 -195q0 -110 -50 -195.5t-138 -133t-198 -47.5t-197.5 47.5zM530 165q46 28 72 78.5t26 113.5q0 61 -26 110.5t-72 77.5t-105 28t-105 -28
t-71.5 -77t-25.5 -111q0 -63 25.5 -113.5t71.5 -78.5t105 -28t105 28zM418 789q-39 20 -63 20q-31 0 -42 -40h-72q8 58 35 94t78 36q37 0 80 -20t65 -20q18 0 27.5 10.5t14.5 30.5h71q-7 -58 -34.5 -95t-78.5 -37q-35 0 -81 21z" />
    <glyph glyph-name="OE" unicode="&#x152;" horiz-adv-x="1019" 
d="M244 37q-91 37 -147.5 116.5t-56.5 201.5q0 123 56.5 202t147.5 115t198 36h530l-20 -145h-288v-133h281l-20 -137h-261v-147h325l-20 -146h-527q-107 0 -198 37zM501 146v417h-46q-103 0 -168 -48.5t-65 -162.5q0 -105 66 -155.5t163 -50.5h50z" />
    <glyph glyph-name="P" unicode="P" horiz-adv-x="620" 
d="M73 708h240q126 0 201.5 -54t75.5 -174t-79.5 -176.5t-201.5 -56.5h-65v-247h-171v708zM296 383q55 0 89 22t34 74t-33 71.5t-87 19.5h-55v-187h52z" />
    <glyph glyph-name="Thorn" unicode="&#xde;" horiz-adv-x="640" 
d="M73 708h171v-121h89q126 0 201.5 -51.5t75.5 -166.5t-79 -169t-202 -54h-85v-146h-171v708zM316 282q55 0 89 20t34 66q0 47 -33 64.5t-87 17.5h-75v-168h72z" />
    <glyph glyph-name="Q" unicode="Q" horiz-adv-x="851" 
d="M215.5 42.5q-85.5 42.5 -132.5 124.5t-47 196q0 106 50 188.5t137.5 129t196.5 46.5t196 -46t136 -128t49 -187q0 -75 -31 -136t-74 -94v-3l149 3l-20 -136h-411q-113 0 -198.5 42.5zM529.5 165.5q46.5 28.5 72.5 78.5t26 113q0 61 -26 110.5t-72 77.5t-105 28t-105 -28
t-71.5 -77t-25.5 -111q0 -63 25.5 -113.5t71.5 -78.5t105 -28q58 0 104.5 28.5z" />
    <glyph glyph-name="R" unicode="R" horiz-adv-x="663" 
d="M73 708h250q117 0 194 -52.5t77 -171.5q0 -65 -38.5 -122.5t-98.5 -78.5l195 -283h-200l-163 261h-48v-261h-168v708zM301 385q124 0 124 96q0 45 -34.5 67t-79.5 22h-71v-185h61z" />
    <glyph glyph-name="Racute" unicode="&#x154;" horiz-adv-x="663" 
d="M73 708h250q117 0 194 -52.5t77 -171.5q0 -65 -38.5 -122.5t-98.5 -78.5l195 -283h-200l-163 261h-48v-261h-168v708zM301 385q124 0 124 96q0 45 -34.5 67t-79.5 22h-71v-185h61zM330 908h166l-146 -144h-124z" />
    <glyph glyph-name="Rcaron" unicode="&#x158;" horiz-adv-x="663" 
d="M73 708h250q117 0 194 -52.5t77 -171.5q0 -65 -38.5 -122.5t-98.5 -78.5l195 -283h-200l-163 261h-48v-261h-168v708zM301 385q124 0 124 96q0 45 -34.5 67t-79.5 22h-71v-185h61zM123 908h130l68 -81l68 81h128l-123 -144h-147z" />
    <glyph glyph-name="Rcommaaccent" unicode="&#x156;" horiz-adv-x="663" 
d="M73 708h250q117 0 194 -52.5t77 -171.5q0 -65 -38.5 -122.5t-98.5 -78.5l195 -283h-200l-163 261h-48v-261h-168v708zM301 385q124 0 124 96q0 45 -34.5 67t-79.5 22h-71v-185h61zM268 -45h145l-86 -195h-126z" />
    <glyph glyph-name="S" unicode="S" horiz-adv-x="591" 
d="M158.5 0q-64.5 18 -115.5 50l29 155q50 -37 105.5 -59.5t102.5 -22.5q44 0 71 17t27 57q0 26 -16.5 43.5t-46 30t-84.5 30.5q-83 27 -132 71.5t-49 131.5q0 74 39 124t100 74t128 24q63 0 122.5 -15.5t99.5 -39.5l-52 -136q-30 20 -78 35t-86 15q-41 0 -71 -16.5
t-30 -54.5q0 -32 25 -48t84 -35q66 -21 110.5 -43t77 -63.5t32.5 -106.5q0 -77 -38 -130.5t-97 -79.5t-123 -26q-70 0 -134.5 18z" />
    <glyph glyph-name="Sacute" unicode="&#x15a;" horiz-adv-x="591" 
d="M158.5 0q-64.5 18 -115.5 50l29 155q50 -37 105.5 -59.5t102.5 -22.5q44 0 71 17t27 57q0 26 -16.5 43.5t-46 30t-84.5 30.5q-83 27 -132 71.5t-49 131.5q0 74 39 124t100 74t128 24q63 0 122.5 -15.5t99.5 -39.5l-52 -136q-30 20 -78 35t-86 15q-41 0 -71 -16.5
t-30 -54.5q0 -32 25 -48t84 -35q66 -21 110.5 -43t77 -63.5t32.5 -106.5q0 -77 -38 -130.5t-97 -79.5t-123 -26q-70 0 -134.5 18zM321 908h166l-146 -144h-124z" />
    <glyph glyph-name="Scaron" unicode="&#x160;" horiz-adv-x="591" 
d="M158.5 0q-64.5 18 -115.5 50l29 155q50 -37 105.5 -59.5t102.5 -22.5q44 0 71 17t27 57q0 26 -16.5 43.5t-46 30t-84.5 30.5q-83 27 -132 71.5t-49 131.5q0 74 39 124t100 74t128 24q63 0 122.5 -15.5t99.5 -39.5l-52 -136q-30 20 -78 35t-86 15q-41 0 -71 -16.5
t-30 -54.5q0 -32 25 -48t84 -35q66 -21 110.5 -43t77 -63.5t32.5 -106.5q0 -77 -38 -130.5t-97 -79.5t-123 -26q-70 0 -134.5 18zM126 908h130l68 -81l68 81h128l-123 -144h-147z" />
    <glyph glyph-name="Scedilla" unicode="&#x15e;" horiz-adv-x="591" 
d="M521 100.5q-30 -49.5 -78.5 -78.5t-105.5 -37l-35 -45q7 1 18 1q44 0 73.5 -18.5t29.5 -64.5q0 -52 -44.5 -75t-102.5 -23q-31 0 -63.5 7t-55.5 18l27 60q40 -19 84 -19q20 0 35 7.5t15 25.5q0 16 -14 22.5t-33 6.5q-22 0 -40 -6l-31 29l55 72q-118 9 -212 67l29 155
q50 -37 105.5 -59.5t102.5 -22.5q44 0 71 17t27 57q0 26 -16.5 43.5t-46 30t-84.5 30.5q-83 27 -132 71.5t-49 131.5q0 74 39 124t100 74t128 24q63 0 122.5 -15.5t99.5 -39.5l-52 -136q-30 20 -78 35t-86 15q-41 0 -71 -16.5t-30 -54.5q0 -32 25 -48t84 -35
q66 -21 110.5 -43t77 -63.5t32.5 -106.5q0 -68 -30 -117.5z" />
    <glyph glyph-name="Scircumflex" unicode="&#x15c;" horiz-adv-x="591" 
d="M158.5 0q-64.5 18 -115.5 50l29 155q50 -37 105.5 -59.5t102.5 -22.5q44 0 71 17t27 57q0 26 -16.5 43.5t-46 30t-84.5 30.5q-83 27 -132 71.5t-49 131.5q0 74 39 124t100 74t128 24q63 0 122.5 -15.5t99.5 -39.5l-52 -136q-30 20 -78 35t-86 15q-41 0 -71 -16.5
t-30 -54.5q0 -32 25 -48t84 -35q66 -21 110.5 -43t77 -63.5t32.5 -106.5q0 -77 -38 -130.5t-97 -79.5t-123 -26q-70 0 -134.5 18zM248 908h148l122 -144h-130l-68 81l-68 -81h-128z" />
    <glyph glyph-name="Scommaaccent" unicode="&#x218;" horiz-adv-x="591" 
d="M158.5 0q-64.5 18 -115.5 50l29 155q50 -37 105.5 -59.5t102.5 -22.5q44 0 71 17t27 57q0 26 -16.5 43.5t-46 30t-84.5 30.5q-83 27 -132 71.5t-49 131.5q0 74 39 124t100 74t128 24q63 0 122.5 -15.5t99.5 -39.5l-52 -136q-30 20 -78 35t-86 15q-41 0 -71 -16.5
t-30 -54.5q0 -32 25 -48t84 -35q66 -21 110.5 -43t77 -63.5t32.5 -106.5q0 -77 -38 -130.5t-97 -79.5t-123 -26q-70 0 -134.5 18zM219 -45h145l-86 -195h-126z" />
    <glyph glyph-name="T" unicode="T" horiz-adv-x="581" 
d="M205 562h-210l20 146h571l-20 -146h-190v-562h-171v562z" />
    <glyph glyph-name="Tbar" unicode="&#x166;" horiz-adv-x="581" 
d="M205 388h-131v89h131v85h-210l20 146h571l-20 -146h-190v-85h136v-89h-136v-388h-171v388z" />
    <glyph glyph-name="Tcaron" unicode="&#x164;" horiz-adv-x="581" 
d="M205 562h-210l20 146h571l-20 -146h-190v-562h-171v562zM94 908h130l68 -81l68 81h128l-123 -144h-147z" />
    <glyph glyph-name="U" unicode="U" horiz-adv-x="738" 
d="M208 17q-68 36 -105 100.5t-37 149.5v441h170v-427q0 -63 33 -104.5t100 -41.5q68 0 100.5 41.5t32.5 104.5v427h171v-441q0 -84 -37.5 -149t-107 -101t-160.5 -36q-92 0 -160 36z" />
    <glyph glyph-name="Uacute" unicode="&#xda;" horiz-adv-x="738" 
d="M208 17q-68 36 -105 100.5t-37 149.5v441h170v-427q0 -63 33 -104.5t100 -41.5q68 0 100.5 41.5t32.5 104.5v427h171v-441q0 -84 -37.5 -149t-107 -101t-160.5 -36q-92 0 -160 36zM377 908h166l-146 -144h-124z" />
    <glyph glyph-name="Ubreve" unicode="&#x16c;" horiz-adv-x="738" 
d="M208 17q-68 36 -105 100.5t-37 149.5v441h170v-427q0 -63 33 -104.5t100 -41.5q68 0 100.5 41.5t32.5 104.5v427h171v-441q0 -84 -37.5 -149t-107 -101t-160.5 -36q-92 0 -160 36zM248 799q-47 35 -52 109h84q5 -30 30 -42.5t60 -12.5q39 0 61.5 11.5t28.5 43.5h84
q-6 -74 -53 -109t-122 -35q-74 0 -121 35z" />
    <glyph glyph-name="Ucircumflex" unicode="&#xdb;" horiz-adv-x="738" 
d="M208 17q-68 36 -105 100.5t-37 149.5v441h170v-427q0 -63 33 -104.5t100 -41.5q68 0 100.5 41.5t32.5 104.5v427h171v-441q0 -84 -37.5 -149t-107 -101t-160.5 -36q-92 0 -160 36zM297 908h148l122 -144h-130l-68 81l-68 -81h-128z" />
    <glyph glyph-name="Udieresis" unicode="&#xdc;" horiz-adv-x="738" 
d="M208 17q-68 36 -105 100.5t-37 149.5v441h170v-427q0 -63 33 -104.5t100 -41.5q68 0 100.5 41.5t32.5 104.5v427h171v-441q0 -84 -37.5 -149t-107 -101t-160.5 -36q-92 0 -160 36zM202.5 792q-24.5 24 -24.5 58q0 33 24.5 57t58.5 24q35 0 59.5 -23.5t24.5 -57.5
t-24.5 -58t-59.5 -24q-34 0 -58.5 24zM420 792q-24 24 -24 58q0 33 24 57t59 24q34 0 58.5 -23.5t24.5 -57.5t-24.5 -58t-58.5 -24q-35 0 -59 24z" />
    <glyph glyph-name="Ugrave" unicode="&#xd9;" horiz-adv-x="738" 
d="M208 17q-68 36 -105 100.5t-37 149.5v441h170v-427q0 -63 33 -104.5t100 -41.5q68 0 100.5 41.5t32.5 104.5v427h171v-441q0 -84 -37.5 -149t-107 -101t-160.5 -36q-92 0 -160 36zM200 908h166l104 -144h-124z" />
    <glyph glyph-name="Uhungarumlaut" unicode="&#x170;" horiz-adv-x="738" 
d="M208 17q-68 36 -105 100.5t-37 149.5v441h170v-427q0 -63 33 -104.5t100 -41.5q68 0 100.5 41.5t32.5 104.5v427h171v-441q0 -84 -37.5 -149t-107 -101t-160.5 -36q-92 0 -160 36zM300 908h166l-146 -144h-124zM520 908h166l-146 -144h-124z" />
    <glyph glyph-name="Umacron" unicode="&#x16a;" horiz-adv-x="738" 
d="M208 17q-68 36 -105 100.5t-37 149.5v441h170v-427q0 -63 33 -104.5t100 -41.5q68 0 100.5 41.5t32.5 104.5v427h171v-441q0 -84 -37.5 -149t-107 -101t-160.5 -36q-92 0 -160 36zM206 879h336v-86h-336v86z" />
    <glyph glyph-name="Uogonek" unicode="&#x172;" horiz-adv-x="738" 
d="M673 708v-441q0 -103 -56 -176t-153 -98q-81 -67 -81 -111q0 -16 10.5 -26t26.5 -10q27 0 55 20l32 -62q-24 -18 -54.5 -29t-60.5 -11q-46 0 -79.5 23t-33.5 68q0 60 78 126q-88 2 -154 38.5t-101.5 100.5t-35.5 147v441h170v-427q0 -63 33 -104.5t100 -41.5
q68 0 100.5 41.5t32.5 104.5v427h171z" />
    <glyph glyph-name="Uring" unicode="&#x16e;" horiz-adv-x="738" 
d="M208 17q-68 36 -105 100.5t-37 149.5v441h170v-427q0 -63 33 -104.5t100 -41.5q68 0 100.5 41.5t32.5 104.5v427h171v-441q0 -84 -37.5 -149t-107 -101t-160.5 -36q-92 0 -160 36zM297 779.5q-32 30.5 -32 75.5q0 46 31.5 77t77.5 31q45 0 77 -31t32 -76
q0 -46 -31.5 -76.5t-77.5 -30.5q-45 0 -77 30.5zM416 814.5q17 16.5 17 41.5t-17 41.5t-42 16.5t-42 -17t-17 -42q0 -24 17 -40.5t42 -16.5t42 16.5z" />
    <glyph glyph-name="Utilde" unicode="&#x168;" horiz-adv-x="738" 
d="M208 17q-68 36 -105 100.5t-37 149.5v441h170v-427q0 -63 33 -104.5t100 -41.5q68 0 100.5 41.5t32.5 104.5v427h171v-441q0 -84 -37.5 -149t-107 -101t-160.5 -36q-92 0 -160 36zM365 789q-39 20 -63 20q-31 0 -42 -40h-72q8 58 35 94t78 36q37 0 80 -20t65 -20
q18 0 27.5 10.5t14.5 30.5h71q-7 -58 -34.5 -95t-78.5 -37q-35 0 -81 21z" />
    <glyph glyph-name="V" unicode="V" horiz-adv-x="682" 
d="M-15 708h192l164 -502h4l163 502h189l-273 -708h-171z" />
    <glyph glyph-name="W" unicode="W" horiz-adv-x="1025" 
d="M0 708h184l112 -471h3l126 471h178l127 -471h3l114 471h178l-202 -708h-169l-140 479h-3l-140 -479h-170z" />
    <glyph glyph-name="Wacute" unicode="&#x1e82;" horiz-adv-x="1025" 
d="M0 708h184l112 -471h3l126 471h178l127 -471h3l114 471h178l-202 -708h-169l-140 479h-3l-140 -479h-170zM541 908h166l-146 -144h-124z" />
    <glyph glyph-name="Wcircumflex" unicode="&#x174;" horiz-adv-x="1025" 
d="M0 708h184l112 -471h3l126 471h178l127 -471h3l114 471h178l-202 -708h-169l-140 479h-3l-140 -479h-170zM442 908h148l122 -144h-130l-68 81l-68 -81h-128z" />
    <glyph glyph-name="Wdieresis" unicode="&#x1e84;" horiz-adv-x="1025" 
d="M0 708h184l112 -471h3l126 471h178l127 -471h3l114 471h178l-202 -708h-169l-140 479h-3l-140 -479h-170zM344.5 792q-24.5 24 -24.5 58q0 33 24.5 57t58.5 24q35 0 59.5 -23.5t24.5 -57.5t-24.5 -58t-59.5 -24q-34 0 -58.5 24zM562 792q-24 24 -24 58q0 33 24 57t59 24
q34 0 58.5 -23.5t24.5 -57.5t-24.5 -58t-58.5 -24q-35 0 -59 24z" />
    <glyph glyph-name="Wgrave" unicode="&#x1e80;" horiz-adv-x="1025" 
d="M0 708h184l112 -471h3l126 471h178l127 -471h3l114 471h178l-202 -708h-169l-140 479h-3l-140 -479h-170zM321 908h166l104 -144h-124z" />
    <glyph glyph-name="X" unicode="X" horiz-adv-x="703" 
d="M240 374l-228 334h206l132 -220l130 220h199l-224 -334l256 -374h-211l-155 250l-149 -250h-204z" />
    <glyph glyph-name="Y" unicode="Y" horiz-adv-x="669" 
d="M246 300l-266 408h207l151 -262l151 262h200l-272 -408v-300h-171v300z" />
    <glyph glyph-name="Yacute" unicode="&#xdd;" horiz-adv-x="669" 
d="M246 300l-266 408h207l151 -262l151 262h200l-272 -408v-300h-171v300zM377 908h166l-146 -144h-124z" />
    <glyph glyph-name="Ycircumflex" unicode="&#x176;" horiz-adv-x="669" 
d="M246 300l-266 408h207l151 -262l151 262h200l-272 -408v-300h-171v300zM265 908h148l122 -144h-130l-68 81l-68 -81h-128z" />
    <glyph glyph-name="Ydieresis" unicode="&#x178;" horiz-adv-x="669" 
d="M246 300l-266 408h207l151 -262l151 262h200l-272 -408v-300h-171v300zM170.5 792q-24.5 24 -24.5 58q0 33 24.5 57t58.5 24q35 0 59.5 -23.5t24.5 -57.5t-24.5 -58t-59.5 -24q-34 0 -58.5 24zM388 792q-24 24 -24 58q0 33 24 57t59 24q34 0 58.5 -23.5t24.5 -57.5
t-24.5 -58t-58.5 -24q-35 0 -59 24z" />
    <glyph glyph-name="Ygrave" unicode="&#x1ef2;" horiz-adv-x="669" 
d="M246 300l-266 408h207l151 -262l151 262h200l-272 -408v-300h-171v300zM139 908h166l104 -144h-124z" />
    <glyph glyph-name="Z" unicode="Z" horiz-adv-x="635" 
d="M39 148l327 415h-309v145h523v-137l-335 -423h372l-20 -148h-558v148z" />
    <glyph glyph-name="Zacute" unicode="&#x179;" horiz-adv-x="635" 
d="M39 148l327 415h-309v145h523v-137l-335 -423h372l-20 -148h-558v148zM351 908h166l-146 -144h-124z" />
    <glyph glyph-name="Zcaron" unicode="&#x17d;" horiz-adv-x="635" 
d="M39 148l327 415h-309v145h523v-137l-335 -423h372l-20 -148h-558v148zM122 908h130l68 -81l68 81h128l-123 -144h-147z" />
    <glyph glyph-name="Zdotaccent" unicode="&#x17b;" horiz-adv-x="635" 
d="M39 148l327 415h-309v145h523v-137l-335 -423h372l-20 -148h-558v148zM265 789q-26 25 -26 60t26 60.5t63 25.5q38 0 64 -25t26 -61t-26 -60.5t-64 -24.5q-37 0 -63 25z" />
    <glyph glyph-name="uni0162" unicode="&#x162;" horiz-adv-x="581" 
d="M205 562h-210l20 146h571l-20 -146h-190v-562h-171v562zM220 -45h145l-86 -195h-126z" />
    <glyph glyph-name="uni021A" unicode="&#x21a;" horiz-adv-x="581" 
d="M205 562h-210l20 146h571l-20 -146h-190v-562h-171v562zM220 -45h145l-86 -195h-126z" />
    <glyph glyph-name="a" unicode="a" horiz-adv-x="546" 
d="M78.5 26q-45.5 38 -45.5 118q0 166 288 168h12v8q0 35 -25 53.5t-65 18.5q-33 0 -74.5 -14.5t-71.5 -33.5l-37 115q50 29 102 42t116 13q210 0 210 -223v-198q0 -61 8 -93h-149q-6 25 -9 53h-3q-18 -30 -61 -47.5t-89 -17.5q-61 0 -106.5 38zM309 126q29 28 29 74v21h-21
q-57 0 -95 -16t-38 -56q0 -27 14.5 -39t36.5 -12q45 0 74 28z" />
    <glyph glyph-name="aacute" unicode="&#xe1;" horiz-adv-x="546" 
d="M78.5 26q-45.5 38 -45.5 118q0 166 288 168h12v8q0 35 -25 53.5t-65 18.5q-33 0 -74.5 -14.5t-71.5 -33.5l-37 115q50 29 102 42t116 13q210 0 210 -223v-198q0 -61 8 -93h-149q-6 25 -9 53h-3q-18 -30 -61 -47.5t-89 -17.5q-61 0 -106.5 38zM309 126q29 28 29 74v21h-21
q-57 0 -95 -16t-38 -56q0 -27 14.5 -39t36.5 -12q45 0 74 28zM292 716h166l-146 -144h-124z" />
    <glyph glyph-name="abreve" unicode="&#x103;" horiz-adv-x="546" 
d="M78.5 26q-45.5 38 -45.5 118q0 166 288 168h12v8q0 35 -25 53.5t-65 18.5q-33 0 -74.5 -14.5t-71.5 -33.5l-37 115q50 29 102 42t116 13q210 0 210 -223v-198q0 -61 8 -93h-149q-6 25 -9 53h-3q-18 -30 -61 -47.5t-89 -17.5q-61 0 -106.5 38zM309 126q29 28 29 74v21h-21
q-57 0 -95 -16t-38 -56q0 -27 14.5 -39t36.5 -12q45 0 74 28zM164 607q-47 35 -52 109h84q10 -55 90 -55q39 0 61.5 11.5t28.5 43.5h84q-6 -74 -53 -109t-122 -35q-74 0 -121 35z" />
    <glyph glyph-name="acircumflex" unicode="&#xe2;" horiz-adv-x="546" 
d="M78.5 26q-45.5 38 -45.5 118q0 166 288 168h12v8q0 35 -25 53.5t-65 18.5q-33 0 -74.5 -14.5t-71.5 -33.5l-37 115q50 29 102 42t116 13q210 0 210 -223v-198q0 -61 8 -93h-149q-6 25 -9 53h-3q-18 -30 -61 -47.5t-89 -17.5q-61 0 -106.5 38zM309 126q29 28 29 74v21h-21
q-57 0 -95 -16t-38 -56q0 -27 14.5 -39t36.5 -12q45 0 74 28zM212 716h148l122 -144h-130l-68 81l-68 -81h-128z" />
    <glyph glyph-name="adieresis" unicode="&#xe4;" horiz-adv-x="546" 
d="M78.5 26q-45.5 38 -45.5 118q0 166 288 168h12v8q0 35 -25 53.5t-65 18.5q-33 0 -74.5 -14.5t-71.5 -33.5l-37 115q50 29 102 42t116 13q210 0 210 -223v-198q0 -61 8 -93h-149q-6 25 -9 53h-3q-18 -30 -61 -47.5t-89 -17.5q-61 0 -106.5 38zM309 126q29 28 29 74v21h-21
q-57 0 -95 -16t-38 -56q0 -27 14.5 -39t36.5 -12q45 0 74 28zM117.5 600q-24.5 24 -24.5 58q0 33 24.5 57t58.5 24q35 0 59.5 -23.5t24.5 -57.5t-24.5 -58t-59.5 -24q-34 0 -58.5 24zM335 600q-24 24 -24 58q0 32 24.5 56.5t58.5 24.5t58.5 -23.5t24.5 -57.5t-24.5 -58
t-58.5 -24q-35 0 -59 24z" />
    <glyph glyph-name="agrave" unicode="&#xe0;" horiz-adv-x="546" 
d="M78.5 26q-45.5 38 -45.5 118q0 166 288 168h12v8q0 35 -25 53.5t-65 18.5q-33 0 -74.5 -14.5t-71.5 -33.5l-37 115q50 29 102 42t116 13q210 0 210 -223v-198q0 -61 8 -93h-149q-6 25 -9 53h-3q-18 -30 -61 -47.5t-89 -17.5q-61 0 -106.5 38zM309 126q29 28 29 74v21h-21
q-57 0 -95 -16t-38 -56q0 -27 14.5 -39t36.5 -12q45 0 74 28zM112 716h166l104 -144h-124z" />
    <glyph glyph-name="amacron" unicode="&#x101;" horiz-adv-x="546" 
d="M78.5 26q-45.5 38 -45.5 118q0 166 288 168h12v8q0 35 -25 53.5t-65 18.5q-33 0 -74.5 -14.5t-71.5 -33.5l-37 115q50 29 102 42t116 13q210 0 210 -223v-198q0 -61 8 -93h-149q-6 25 -9 53h-3q-18 -30 -61 -47.5t-89 -17.5q-61 0 -106.5 38zM309 126q29 28 29 74v21h-21
q-57 0 -95 -16t-38 -56q0 -27 14.5 -39t36.5 -12q45 0 74 28zM118 687h336v-86h-336v86z" />
    <glyph glyph-name="aogonek" unicode="&#x105;" horiz-adv-x="546" 
d="M439 -134l32 -62q-24 -18 -54.5 -29t-60.5 -11q-46 0 -79.5 23t-33.5 68q0 39 30.5 77t73.5 69q-6 25 -9 52h-3q-18 -30 -61 -47.5t-89 -17.5q-61 0 -106.5 38t-45.5 118q0 166 288 168h12v8q0 35 -25 53.5t-65 18.5q-33 0 -74.5 -14.5t-71.5 -33.5l-37 115q50 29 102 42
t116 13q210 0 210 -223v-198q0 -61 8 -93h-59q-90 -72 -90 -118q0 -16 10.5 -26t26.5 -10q27 0 55 20zM338 221h-21q-57 0 -95 -16t-38 -56q0 -27 14.5 -39t36.5 -12q45 0 74 28t29 74v21z" />
    <glyph glyph-name="aring" unicode="&#xe5;" horiz-adv-x="546" 
d="M78.5 26q-45.5 38 -45.5 118q0 166 288 168h12v8q0 35 -25 53.5t-65 18.5q-33 0 -74.5 -14.5t-71.5 -33.5l-37 115q50 29 102 42t116 13q210 0 210 -223v-198q0 -61 8 -93h-149q-6 25 -9 53h-3q-18 -30 -61 -47.5t-89 -17.5q-61 0 -106.5 38zM309 126q29 28 29 74v21h-21
q-57 0 -95 -16t-38 -56q0 -27 14.5 -39t36.5 -12q45 0 74 28zM210 587.5q-32 30.5 -32 75.5q0 46 31.5 77t77.5 31q45 0 77 -31t32 -76q0 -46 -31.5 -76.5t-77.5 -30.5q-45 0 -77 30.5zM329 622.5q17 16.5 17 41.5t-17 41.5t-42 16.5t-42 -17t-17 -42q0 -24 17 -40.5
t42 -16.5t42 16.5z" />
    <glyph glyph-name="atilde" unicode="&#xe3;" horiz-adv-x="566" 
d="M78.5 26q-45.5 38 -45.5 118q0 166 288 168h12v8q0 35 -25 53.5t-65 18.5q-33 0 -74.5 -14.5t-71.5 -33.5l-37 115q50 29 102 42t116 13q210 0 210 -223v-198q0 -61 8 -93h-149q-6 25 -9 53h-3q-18 -30 -61 -47.5t-89 -17.5q-61 0 -106.5 38zM309 126q29 28 29 74v21h-21
q-57 0 -95 -16t-38 -56q0 -27 14.5 -39t36.5 -12q45 0 74 28zM137 671q27 36 78 36q37 0 80 -20t65 -20q18 0 27.5 10.5t14.5 30.5h71q-7 -58 -34.5 -95t-78.5 -37q-35 0 -81 21q-39 20 -63 20q-31 0 -42 -40h-72q8 58 35 94z" />
    <glyph glyph-name="ae" unicode="&#xe6;" horiz-adv-x="899" 
d="M134 4q-44 16 -72.5 51t-28.5 89q0 94 82.5 127.5t229.5 33.5h8v7q0 41 -23.5 60.5t-65.5 19.5q-63 0 -138 -56l-51 103q39 36 93 55.5t111 19.5t98 -20.5t63 -52.5q29 33 72.5 53t98.5 20q73 0 129.5 -32.5t88.5 -94t32 -144.5q0 -15 -2 -39h-360q5 -43 43 -68.5
t99 -25.5q45 0 90.5 12.5t74.5 29.5l22 -117q-82 -51 -214 -51q-59 0 -108.5 23.5t-78.5 66.5q-53 -86 -202 -86q-47 0 -91 16zM709 306q0 41 -25.5 68t-72.5 27q-46 0 -78 -28t-35 -67h211zM331 123q27 25 27 68v16h-21q-77 0 -115 -12t-38 -46q0 -26 21 -38.5t50 -12.5
q49 0 76 25z" />
    <glyph glyph-name="aeacute" unicode="&#x1fd;" horiz-adv-x="899" 
d="M134 4q-44 16 -72.5 51t-28.5 89q0 94 82.5 127.5t229.5 33.5h8v7q0 41 -23.5 60.5t-65.5 19.5q-63 0 -138 -56l-51 103q39 36 93 55.5t111 19.5t98 -20.5t63 -52.5q29 33 72.5 53t98.5 20q73 0 129.5 -32.5t88.5 -94t32 -144.5q0 -15 -2 -39h-360q5 -43 43 -68.5
t99 -25.5q45 0 90.5 12.5t74.5 29.5l22 -117q-82 -51 -214 -51q-59 0 -108.5 23.5t-78.5 66.5q-53 -86 -202 -86q-47 0 -91 16zM709 306q0 41 -25.5 68t-72.5 27q-46 0 -78 -28t-35 -67h211zM331 123q27 25 27 68v16h-21q-77 0 -115 -12t-38 -46q0 -26 21 -38.5t50 -12.5
q49 0 76 25zM493 716h166l-146 -144h-124z" />
    <glyph glyph-name="b" unicode="b" horiz-adv-x="659" 
d="M287.5 7q-44.5 21 -68.5 58h-2q-1 -26 -10 -65h-147q6 80 6 119v637l164 20v-331h2q24 28 63 47.5t89 19.5q70 0 123.5 -35.5t82.5 -95.5t29 -130q0 -71 -28.5 -131.5t-82.5 -97t-126 -36.5q-50 0 -94.5 21zM429.5 160q31.5 38 31.5 91q0 52 -31.5 89.5t-86.5 37.5
q-35 0 -62.5 -18.5t-42.5 -48t-15 -61.5q0 -33 15 -62.5t42 -47.5t63 -18q55 0 86.5 38z" />
    <glyph glyph-name="c" unicode="c" horiz-adv-x="503" 
d="M171.5 16.5q-60.5 32.5 -96.5 92.5t-36 140q0 79 37 139.5t100 93t141 32.5q46 0 95 -15t77 -36l-57 -121q-52 35 -112 35q-51 0 -83 -37.5t-32 -90.5q0 -54 35 -90.5t95 -36.5q39 0 70.5 11.5t62.5 35.5l21 -128q-29 -25 -78 -41t-107 -16q-72 0 -132.5 32.5z" />
    <glyph glyph-name="cacute" unicode="&#x107;" horiz-adv-x="503" 
d="M171.5 16.5q-60.5 32.5 -96.5 92.5t-36 140q0 79 37 139.5t100 93t141 32.5q46 0 95 -15t77 -36l-57 -121q-52 35 -112 35q-51 0 -83 -37.5t-32 -90.5q0 -54 35 -90.5t95 -36.5q39 0 70.5 11.5t62.5 35.5l21 -128q-29 -25 -78 -41t-107 -16q-72 0 -132.5 32.5zM337 716
h166l-146 -144h-124z" />
    <glyph glyph-name="ccaron" unicode="&#x10d;" horiz-adv-x="503" 
d="M171.5 16.5q-60.5 32.5 -96.5 92.5t-36 140q0 79 37 139.5t100 93t141 32.5q46 0 95 -15t77 -36l-57 -121q-52 35 -112 35q-51 0 -83 -37.5t-32 -90.5q0 -54 35 -90.5t95 -36.5q39 0 70.5 11.5t62.5 35.5l21 -128q-29 -25 -78 -41t-107 -16q-72 0 -132.5 32.5zM120 716
h130l68 -81l68 81h128l-123 -144h-147z" />
    <glyph glyph-name="ccedilla" unicode="&#xe7;" horiz-adv-x="503" 
d="M418.5 2.5q-43.5 -15.5 -95.5 -18.5l-35 -44q7 1 18 1q44 0 73.5 -18.5t29.5 -64.5q0 -52 -44.5 -75t-102.5 -23q-31 0 -63.5 7t-55.5 18l27 60q40 -19 84 -19q20 0 35 7.5t15 25.5q0 16 -14 22.5t-33 6.5q-22 0 -40 -6l-31 29l59 79q-90 18 -148 87t-58 172
q0 79 37 139.5t100 93t141 32.5q46 0 95 -15t77 -36l-57 -121q-52 35 -112 35q-51 0 -83 -37.5t-32 -90.5q0 -54 35 -90.5t95 -36.5q39 0 70.5 11.5t62.5 35.5l21 -128q-27 -23 -70.5 -38.5z" />
    <glyph glyph-name="ccircumflex" unicode="&#x109;" horiz-adv-x="503" 
d="M171.5 16.5q-60.5 32.5 -96.5 92.5t-36 140q0 79 37 139.5t100 93t141 32.5q46 0 95 -15t77 -36l-57 -121q-52 35 -112 35q-51 0 -83 -37.5t-32 -90.5q0 -54 35 -90.5t95 -36.5q39 0 70.5 11.5t62.5 35.5l21 -128q-29 -25 -78 -41t-107 -16q-72 0 -132.5 32.5zM246 716
h148l122 -144h-130l-68 81l-68 -81h-128z" />
    <glyph glyph-name="cdotaccent" unicode="&#x10b;" horiz-adv-x="503" 
d="M171.5 16.5q-60.5 32.5 -96.5 92.5t-36 140q0 79 37 139.5t100 93t141 32.5q46 0 95 -15t77 -36l-57 -121q-52 35 -112 35q-51 0 -83 -37.5t-32 -90.5q0 -54 35 -90.5t95 -36.5q39 0 70.5 11.5t62.5 35.5l21 -128q-29 -25 -78 -41t-107 -16q-72 0 -132.5 32.5zM257 597
q-26 25 -26 60t26 60.5t63 25.5q38 0 64 -25t26 -61t-26 -60.5t-64 -24.5q-37 0 -63 25z" />
    <glyph glyph-name="d" unicode="d" horiz-adv-x="658" 
d="M150 22.5q-54 36.5 -82.5 97t-28.5 131.5q0 70 29 130t82.5 95.5t123.5 35.5q50 0 89 -19.5t63 -47.5h2v311l164 20v-656q0 -40 4 -120h-151q-4 44 -4 65h-2q-24 -37 -68.5 -58t-94.5 -21q-72 0 -126 36.5zM378 140q27 18 42 47.5t15 62.5q0 32 -15 61.5t-42.5 48
t-62.5 18.5q-55 0 -86.5 -37.5t-31.5 -89.5q0 -53 31.5 -91t86.5 -38q36 0 63 18z" />
    <glyph glyph-name="eth" unicode="&#xf0;" horiz-adv-x="632" 
d="M176 17q-63 33 -100 93.5t-37 139.5q0 77 35 136.5t95.5 91.5t133.5 32q49 0 82 -25l2 1q-51 75 -98 114l-108 -48l-80 70l109 47q-25 25 -75 59l127 71q34 -25 86 -72l113 50l87 -71l-121 -52q78 -85 122 -176.5t44 -195.5q0 -91 -34.5 -158.5t-97.5 -103.5t-146 -36
q-76 0 -139 33zM403 160q32 38 32 90q0 51 -32.5 89t-87.5 38t-86.5 -38t-31.5 -89q0 -52 32 -90t87 -38t87 38z" />
    <glyph glyph-name="dcaron" unicode="&#x10f;" horiz-adv-x="791" 
d="M150 22.5q-54 36.5 -82.5 97t-28.5 131.5q0 70 29 130t82.5 95.5t123.5 35.5q50 0 89 -19.5t63 -47.5h2v311l164 20v-656q0 -40 4 -120h-151q-4 44 -4 65h-2q-24 -37 -68.5 -58t-94.5 -21q-72 0 -126 36.5zM378 140q27 18 42 47.5t15 62.5q0 32 -15 61.5t-42.5 48
t-62.5 18.5q-55 0 -86.5 -37.5t-31.5 -89.5q0 -53 31.5 -91t86.5 -38q36 0 63 18zM687 708h145l-86 -195h-126z" />
    <glyph glyph-name="dcroat" unicode="&#x111;" horiz-adv-x="658" 
d="M150 22.5q-54 36.5 -82.5 97t-28.5 131.5q0 70 29 130t82.5 95.5t123.5 35.5q50 0 89 -19.5t63 -47.5h2v125h-149v89h149v97h164v-97h46v-89h-46v-460q0 -54 3 -110h-151q-3 33 -3 65h-2q-24 -37 -68.5 -58t-94.5 -21q-72 0 -126 36.5zM378 140q27 18 42 47.5t15 62.5
q0 32 -15 61.5t-42.5 48t-62.5 18.5q-55 0 -86.5 -37.5t-31.5 -89.5q0 -53 31.5 -91t86.5 -38q36 0 63 18z" />
    <glyph glyph-name="e" unicode="e" horiz-adv-x="596" 
d="M174.5 15q-62.5 31 -99 91t-36.5 141q0 80 35.5 140.5t96.5 93.5t137 33q74 0 130.5 -32.5t88 -94t31.5 -144.5q0 -27 -1 -39h-361q4 -41 45.5 -67.5t96.5 -26.5q84 0 165 42l22 -118q-86 -50 -212 -50q-76 0 -138.5 31zM407 306q0 41 -25.5 68t-72.5 27q-46 0 -78 -28
t-35 -67h211z" />
    <glyph glyph-name="eacute" unicode="&#xe9;" horiz-adv-x="596" 
d="M174.5 15q-62.5 31 -99 91t-36.5 141q0 80 35.5 140.5t96.5 93.5t137 33q74 0 130.5 -32.5t88 -94t31.5 -144.5q0 -27 -1 -39h-361q4 -41 45.5 -67.5t96.5 -26.5q84 0 165 42l22 -118q-86 -50 -212 -50q-76 0 -138.5 31zM407 306q0 41 -25.5 68t-72.5 27q-46 0 -78 -28
t-35 -67h211zM311 716h166l-146 -144h-124z" />
    <glyph glyph-name="ebreve" unicode="&#x115;" horiz-adv-x="596" 
d="M174.5 15q-62.5 31 -99 91t-36.5 141q0 80 35.5 140.5t96.5 93.5t137 33q74 0 130.5 -32.5t88 -94t31.5 -144.5q0 -27 -1 -39h-361q4 -41 45.5 -67.5t96.5 -26.5q84 0 165 42l22 -118q-86 -50 -212 -50q-76 0 -138.5 31zM407 306q0 41 -25.5 68t-72.5 27q-46 0 -78 -28
t-35 -67h211zM190 607q-47 35 -52 109h84q10 -55 90 -55q39 0 61.5 11.5t28.5 43.5h84q-6 -74 -53 -109t-122 -35q-74 0 -121 35z" />
    <glyph glyph-name="ecaron" unicode="&#x11b;" horiz-adv-x="596" 
d="M174.5 15q-62.5 31 -99 91t-36.5 141q0 80 35.5 140.5t96.5 93.5t137 33q74 0 130.5 -32.5t88 -94t31.5 -144.5q0 -27 -1 -39h-361q4 -41 45.5 -67.5t96.5 -26.5q84 0 165 42l22 -118q-86 -50 -212 -50q-76 0 -138.5 31zM407 306q0 41 -25.5 68t-72.5 27q-46 0 -78 -28
t-35 -67h211zM115 716h130l68 -81l68 81h128l-123 -144h-147z" />
    <glyph glyph-name="ecircumflex" unicode="&#xea;" horiz-adv-x="596" 
d="M174.5 15q-62.5 31 -99 91t-36.5 141q0 80 35.5 140.5t96.5 93.5t137 33q74 0 130.5 -32.5t88 -94t31.5 -144.5q0 -27 -1 -39h-361q4 -41 45.5 -67.5t96.5 -26.5q84 0 165 42l22 -118q-86 -50 -212 -50q-76 0 -138.5 31zM407 306q0 41 -25.5 68t-72.5 27q-46 0 -78 -28
t-35 -67h211zM241 716h148l122 -144h-130l-68 81l-68 -81h-128z" />
    <glyph glyph-name="edieresis" unicode="&#xeb;" horiz-adv-x="596" 
d="M174.5 15q-62.5 31 -99 91t-36.5 141q0 80 35.5 140.5t96.5 93.5t137 33q74 0 130.5 -32.5t88 -94t31.5 -144.5q0 -27 -1 -39h-361q4 -41 45.5 -67.5t96.5 -26.5q84 0 165 42l22 -118q-86 -50 -212 -50q-76 0 -138.5 31zM407 306q0 41 -25.5 68t-72.5 27q-46 0 -78 -28
t-35 -67h211zM145.5 600q-24.5 24 -24.5 58q0 33 24.5 57t58.5 24q35 0 59.5 -23.5t24.5 -57.5t-24.5 -58t-59.5 -24q-34 0 -58.5 24zM363 600q-24 24 -24 58q0 32 24.5 56.5t58.5 24.5t58.5 -23.5t24.5 -57.5t-24.5 -58t-58.5 -24q-35 0 -59 24z" />
    <glyph glyph-name="edotaccent" unicode="&#x117;" horiz-adv-x="596" 
d="M174.5 15q-62.5 31 -99 91t-36.5 141q0 80 35.5 140.5t96.5 93.5t137 33q74 0 130.5 -32.5t88 -94t31.5 -144.5q0 -27 -1 -39h-361q4 -41 45.5 -67.5t96.5 -26.5q84 0 165 42l22 -118q-86 -50 -212 -50q-76 0 -138.5 31zM407 306q0 41 -25.5 68t-72.5 27q-46 0 -78 -28
t-35 -67h211zM248 597q-26 25 -26 60t26 60.5t63 25.5q38 0 64 -25t26 -61t-26 -60.5t-64 -24.5q-37 0 -63 25z" />
    <glyph glyph-name="egrave" unicode="&#xe8;" horiz-adv-x="596" 
d="M174.5 15q-62.5 31 -99 91t-36.5 141q0 80 35.5 140.5t96.5 93.5t137 33q74 0 130.5 -32.5t88 -94t31.5 -144.5q0 -27 -1 -39h-361q4 -41 45.5 -67.5t96.5 -26.5q84 0 165 42l22 -118q-86 -50 -212 -50q-76 0 -138.5 31zM407 306q0 41 -25.5 68t-72.5 27q-46 0 -78 -28
t-35 -67h211zM132 716h166l104 -144h-124z" />
    <glyph glyph-name="emacron" unicode="&#x113;" horiz-adv-x="596" 
d="M174.5 15q-62.5 31 -99 91t-36.5 141q0 80 35.5 140.5t96.5 93.5t137 33q74 0 130.5 -32.5t88 -94t31.5 -144.5q0 -27 -1 -39h-361q4 -41 45.5 -67.5t96.5 -26.5q84 0 165 42l22 -118q-86 -50 -212 -50q-76 0 -138.5 31zM407 306q0 41 -25.5 68t-72.5 27q-46 0 -78 -28
t-35 -67h211zM144 687h336v-86h-336v86z" />
    <glyph glyph-name="eogonek" unicode="&#x119;" horiz-adv-x="596" 
d="M557 204h-361q4 -41 45.5 -67.5t96.5 -26.5q84 0 165 42l22 -118q-55 -32 -126 -43q-79 -67 -79 -109q0 -16 10.5 -26t26.5 -10q27 0 55 20l32 -62q-24 -18 -54.5 -29t-60.5 -11q-46 0 -79.5 23t-33.5 68q0 61 82 129q-72 3 -131 35t-93.5 90.5t-34.5 137.5
q0 80 35.5 140.5t96.5 93.5t137 33q74 0 130.5 -32.5t88 -94t31.5 -144.5q0 -27 -1 -39zM407 306q0 41 -25.5 68t-72.5 27q-46 0 -78 -28t-35 -67h211z" />
    <glyph glyph-name="f" unicode="f" horiz-adv-x="388" 
d="M105 375h-101l20 123h81v48q0 103 49 166t165 63q53 0 99 -10l-11 -130q-38 7 -65 7q-73 0 -73 -94v-50h131l-20 -123h-111v-375h-164v375z" />
    <glyph glyph-name="g" unicode="g" horiz-adv-x="658" 
d="M182.5 -222.5q-66.5 17.5 -110.5 44.5l23 138q44 -30 97 -49t107 -19q64 0 98 37.5t34 101.5v30h-3q-24 -31 -63 -48.5t-88 -17.5q-73 0 -127 34.5t-82.5 93t-28.5 128.5t28.5 129.5t82.5 95.5t126 36q49 0 91.5 -20t67.5 -58h2q2 28 7 64h152q-4 -40 -4 -109v-342
q0 -142 -76 -214.5t-205 -72.5q-62 0 -128.5 17.5zM403 162q33 37 33 90t-33.5 89.5t-87.5 36.5t-85.5 -36t-31.5 -90q0 -52 32 -89.5t85 -37.5q55 0 88 37z" />
    <glyph glyph-name="gbreve" unicode="&#x11f;" horiz-adv-x="658" 
d="M182.5 -222.5q-66.5 17.5 -110.5 44.5l23 138q44 -30 97 -49t107 -19q64 0 98 37.5t34 101.5v30h-3q-24 -31 -63 -48.5t-88 -17.5q-73 0 -127 34.5t-82.5 93t-28.5 128.5t28.5 129.5t82.5 95.5t126 36q49 0 91.5 -20t67.5 -58h2q2 28 7 64h152q-4 -40 -4 -109v-342
q0 -142 -76 -214.5t-205 -72.5q-62 0 -128.5 17.5zM403 162q33 37 33 90t-33.5 89.5t-87.5 36.5t-85.5 -36t-31.5 -90q0 -52 32 -89.5t85 -37.5q55 0 88 37zM203 607q-47 35 -52 109h84q10 -55 90 -55q39 0 61.5 11.5t28.5 43.5h84q-6 -74 -53 -109t-122 -35q-74 0 -121 35z
" />
    <glyph glyph-name="gcircumflex" unicode="&#x11d;" horiz-adv-x="658" 
d="M182.5 -222.5q-66.5 17.5 -110.5 44.5l23 138q44 -30 97 -49t107 -19q64 0 98 37.5t34 101.5v30h-3q-24 -31 -63 -48.5t-88 -17.5q-73 0 -127 34.5t-82.5 93t-28.5 128.5t28.5 129.5t82.5 95.5t126 36q49 0 91.5 -20t67.5 -58h2q2 28 7 64h152q-4 -40 -4 -109v-342
q0 -142 -76 -214.5t-205 -72.5q-62 0 -128.5 17.5zM403 162q33 37 33 90t-33.5 89.5t-87.5 36.5t-85.5 -36t-31.5 -90q0 -52 32 -89.5t85 -37.5q55 0 88 37zM247 716h148l122 -144h-130l-68 81l-68 -81h-128z" />
    <glyph glyph-name="gcommaaccent" unicode="&#x123;" horiz-adv-x="658" 
d="M182.5 -222.5q-66.5 17.5 -110.5 44.5l23 138q44 -30 97 -49t107 -19q64 0 98 37.5t34 101.5v30h-3q-24 -31 -63 -48.5t-88 -17.5q-73 0 -127 34.5t-82.5 93t-28.5 128.5t28.5 129.5t82.5 95.5t126 36q49 0 91.5 -20t67.5 -58h2q2 28 7 64h152q-4 -40 -4 -109v-342
q0 -142 -76 -214.5t-205 -72.5q-62 0 -128.5 17.5zM403 162q33 37 33 90t-33.5 89.5t-87.5 36.5t-85.5 -36t-31.5 -90q0 -52 32 -89.5t85 -37.5q55 0 88 37zM333 767h126l-67 -195h-145z" />
    <glyph glyph-name="gdotaccent" unicode="&#x121;" horiz-adv-x="658" 
d="M182.5 -222.5q-66.5 17.5 -110.5 44.5l23 138q44 -30 97 -49t107 -19q64 0 98 37.5t34 101.5v30h-3q-24 -31 -63 -48.5t-88 -17.5q-73 0 -127 34.5t-82.5 93t-28.5 128.5t28.5 129.5t82.5 95.5t126 36q49 0 91.5 -20t67.5 -58h2q2 28 7 64h152q-4 -40 -4 -109v-342
q0 -142 -76 -214.5t-205 -72.5q-62 0 -128.5 17.5zM403 162q33 37 33 90t-33.5 89.5t-87.5 36.5t-85.5 -36t-31.5 -90q0 -52 32 -89.5t85 -37.5q55 0 88 37zM258 597q-26 25 -26 60t26 60.5t63 25.5q38 0 64 -25t26 -61t-26 -60.5t-64 -24.5q-37 0 -63 25z" />
    <glyph glyph-name="h" unicode="h" horiz-adv-x="617" 
d="M66 756l164 20v-341h2q18 32 56 54.5t87 22.5q94 0 138 -59.5t44 -144.5v-308h-165v270q0 48 -16 76.5t-57 28.5t-65 -30t-24 -76v-269h-164v756z" />
    <glyph glyph-name="hbar" unicode="&#x127;" horiz-adv-x="617" 
d="M66 570h-46v89h46v97h164v-97h149v-89h-149v-135h2q18 32 56 54.5t87 22.5q94 0 138 -59.5t44 -144.5v-308h-165v270q0 48 -16 76.5t-57 28.5t-65 -30t-24 -76v-269h-164v570z" />
    <glyph glyph-name="hcircumflex" unicode="&#x125;" horiz-adv-x="617" 
d="M66 756l164 20v-341h2q18 32 56 54.5t87 22.5q94 0 138 -59.5t44 -144.5v-308h-165v270q0 48 -16 76.5t-57 28.5t-65 -30t-24 -76v-269h-164v756zM242 940h148l122 -144h-130l-68 81l-68 -81h-128z" />
    <glyph glyph-name="i" unicode="i" horiz-adv-x="296" 
d="M81.5 593.5q-27.5 26.5 -27.5 63.5q0 36 27.5 63t66.5 27t66.5 -26.5t27.5 -63.5q0 -38 -27.5 -64t-66.5 -26t-66.5 26.5zM66 498h164v-498h-164v498z" />
    <glyph glyph-name="dotlessi" unicode="&#x131;" horiz-adv-x="296" 
d="M66 498h164v-498h-164v498z" />
    <glyph glyph-name="iacute" unicode="&#xed;" horiz-adv-x="296" 
d="M66 498h164v-498h-164v498zM171 716h166l-146 -144h-124z" />
    <glyph glyph-name="ibreve" unicode="&#x12d;" horiz-adv-x="296" 
d="M66 498h164v-498h-164v498zM26 607q-47 35 -52 109h84q10 -55 90 -55q39 0 61.5 11.5t28.5 43.5h84q-6 -74 -53 -109t-122 -35q-74 0 -121 35z" />
    <glyph glyph-name="icircumflex" unicode="&#xee;" horiz-adv-x="296" 
d="M66 498h164v-498h-164v498zM78 716h148l122 -144h-130l-68 81l-68 -81h-128z" />
    <glyph glyph-name="idieresis" unicode="&#xef;" horiz-adv-x="296" 
d="M66 498h164v-498h-164v498zM-17.5 600q-24.5 24 -24.5 58q0 33 24.5 57t58.5 24q35 0 59.5 -23.5t24.5 -57.5t-24.5 -58t-59.5 -24q-34 0 -58.5 24zM200 600q-24 24 -24 58q0 32 24.5 56.5t58.5 24.5t58.5 -23.5t24.5 -57.5t-24.5 -58t-58.5 -24q-35 0 -59 24z" />
    <glyph glyph-name="igrave" unicode="&#xec;" horiz-adv-x="296" 
d="M66 498h164v-498h-164v498zM-42 716h166l104 -144h-124z" />
    <glyph glyph-name="ij" unicode="&#x133;" horiz-adv-x="589" 
d="M81.5 593.5q-27.5 26.5 -27.5 63.5q0 36 27.5 63t66.5 27t66.5 -26.5t27.5 -63.5q0 -38 -27.5 -64t-66.5 -26t-66.5 26.5zM66 498h164v-498h-164v498zM374.5 593.5q-27.5 26.5 -27.5 63.5q0 36 27.5 63t66.5 27t66.5 -26.5t27.5 -63.5q0 -38 -27.5 -64t-66.5 -26
t-66.5 26.5zM333.5 -71q25.5 29 25.5 78v491h164v-491q0 -113 -49 -179.5t-174 -67.5l-41 140q49 0 74.5 29z" />
    <glyph glyph-name="imacron" unicode="&#x12b;" horiz-adv-x="296" 
d="M66 498h164v-498h-164v498zM-18 687h336v-86h-336v86z" />
    <glyph glyph-name="iogonek" unicode="&#x12f;" horiz-adv-x="296" 
d="M81.5 593.5q-27.5 26.5 -27.5 63.5q0 36 27.5 63t66.5 27t66.5 -26.5t27.5 -63.5q0 -38 -27.5 -64t-66.5 -26t-66.5 26.5zM258 -196q-24 -18 -54.5 -29t-60.5 -11q-46 0 -79.5 23t-33.5 68q0 39 30 76.5t72 68.5h-66v498h164v-498h-6q-90 -72 -90 -118q0 -16 10.5 -26
t26.5 -10q27 0 55 20z" />
    <glyph glyph-name="itilde" unicode="&#x129;" horiz-adv-x="296" 
d="M66 498h164v-498h-164v498zM-1 671q27 36 78 36q37 0 80 -20t65 -20q18 0 27.5 10.5t14.5 30.5h71q-7 -58 -34.5 -95t-78.5 -37q-35 0 -81 21q-39 20 -63 20q-31 0 -42 -40h-72q8 58 35 94z" />
    <glyph glyph-name="j" unicode="j" horiz-adv-x="299" 
d="M84.5 593.5q-27.5 26.5 -27.5 63.5q0 36 27.5 63t66.5 27t66.5 -26.5t27.5 -63.5q0 -38 -27.5 -64t-66.5 -26t-66.5 26.5zM43.5 -71q25.5 29 25.5 78v491h164v-491q0 -113 -49 -179.5t-174 -67.5l-41 140q49 0 74.5 29z" />
    <glyph glyph-name="uni0237" unicode="&#x237;" horiz-adv-x="299" 
d="M-37 -232l11 137q15 -5 35 -5q34 0 47 22.5t13 64.5v511h164v-511q0 -105 -43.5 -166t-155.5 -61q-42 0 -71 8z" />
    <glyph glyph-name="jcircumflex" unicode="&#x135;" horiz-adv-x="299" 
d="M-37 -232l11 137q15 -5 35 -5q34 0 47 22.5t13 64.5v511h164v-511q0 -105 -43.5 -166t-155.5 -61q-42 0 -71 8zM76 716h148l122 -144h-130l-68 81l-68 -81h-128z" />
    <glyph glyph-name="k" unicode="k" horiz-adv-x="595" 
d="M65 756l165 20v-494h3l159 216h192l-181 -225l187 -273h-187l-170 244h-3v-244h-165v756z" />
    <glyph glyph-name="kcommaaccent" unicode="&#x137;" horiz-adv-x="595" 
d="M65 756l165 20v-494h3l159 216h192l-181 -225l187 -273h-187l-170 244h-3v-244h-165v756zM240 -45h145l-86 -195h-126z" />
    <glyph glyph-name="kgreenlandic" unicode="&#x138;" horiz-adv-x="595" 
d="M396 0l-163 239h-3v-239h-165v498h165v-202h3l159 202h199l-192 -225l200 -273h-203z" />
    <glyph glyph-name="l" unicode="l" horiz-adv-x="304" 
d="M101 69q-35 55 -35 146v541l166 20v-541q0 -49 14.5 -77.5t49.5 -55.5l-97 -122q-63 34 -98 89z" />
    <glyph glyph-name="lacute" unicode="&#x13a;" horiz-adv-x="304" 
d="M101 69q-35 55 -35 146v541l166 20v-541q0 -49 14.5 -77.5t49.5 -55.5l-97 -122q-63 34 -98 89zM170 936h166l-146 -144h-124z" />
    <glyph glyph-name="lcaron" unicode="&#x13e;" horiz-adv-x="432" 
d="M101 69q-35 55 -35 146v541l166 20v-541q0 -49 14.5 -77.5t49.5 -55.5l-97 -122q-63 34 -98 89zM328 708h145l-86 -195h-126z" />
    <glyph glyph-name="lcommaaccent" unicode="&#x13c;" horiz-adv-x="304" 
d="M101 69q-35 55 -35 146v541l166 20v-541q0 -49 14.5 -77.5t49.5 -55.5l-97 -122q-63 34 -98 89zM78 -45h145l-86 -195h-126z" />
    <glyph glyph-name="ldot" unicode="&#x140;" horiz-adv-x="448" 
d="M101 69q-35 55 -35 146v541l166 20v-541q0 -49 14.5 -77.5t49.5 -55.5l-97 -122q-63 34 -98 89zM295 407q-26 25 -26 60t26 60.5t63 25.5q38 0 64 -25t26 -61t-26 -60.5t-64 -24.5q-37 0 -63 25z" />
    <glyph glyph-name="lslash" unicode="&#x142;" horiz-adv-x="304" 
d="M246.5 157.5q14.5 -28.5 49.5 -55.5l-97 -122q-63 34 -98 89t-35 146v52l-58 -56v143l58 57v345l166 20v-237l58 57v-142l-58 -56v-163q0 -49 14.5 -77.5z" />
    <glyph glyph-name="m" unicode="m" horiz-adv-x="924" 
d="M64 402q0 43 -5 96h158q6 -28 6 -69h2q19 35 58 59t91 24q106 0 150 -85q54 85 159 85q64 0 104.5 -30t58.5 -76.5t18 -97.5v-308h-164v272q0 49 -15.5 77t-55.5 28t-61.5 -31.5t-21.5 -76.5v-269h-164v284q0 44 -17.5 68.5t-53.5 24.5q-38 0 -60 -30.5t-22 -76.5v-270
h-165v402z" />
    <glyph glyph-name="n" unicode="n" horiz-adv-x="616" 
d="M64 404q0 42 -5 94h158q6 -34 6 -69h2q18 35 58.5 59t90.5 24q93 0 137.5 -59.5t44.5 -144.5v-308h-165v272q0 105 -74 105q-42 0 -65 -31t-23 -76v-270h-165v404z" />
    <glyph glyph-name="nacute" unicode="&#x144;" horiz-adv-x="616" 
d="M64 404q0 42 -5 94h158q6 -34 6 -69h2q18 35 58.5 59t90.5 24q93 0 137.5 -59.5t44.5 -144.5v-308h-165v272q0 105 -74 105q-42 0 -65 -31t-23 -76v-270h-165v404zM318 716h166l-146 -144h-124z" />
    <glyph glyph-name="napostrophe" unicode="&#x149;" horiz-adv-x="706" 
d="M154 404q0 42 -5 94h158q6 -34 6 -69h2q18 35 58.5 59t90.5 24q93 0 137.5 -59.5t44.5 -144.5v-308h-165v272q0 105 -74 105q-42 0 -65 -31t-23 -76v-270h-165v404zM58 708h145l-86 -195h-126z" />
    <glyph glyph-name="ncaron" unicode="&#x148;" horiz-adv-x="616" 
d="M64 404q0 42 -5 94h158q6 -34 6 -69h2q18 35 58.5 59t90.5 24q93 0 137.5 -59.5t44.5 -144.5v-308h-165v272q0 105 -74 105q-42 0 -65 -31t-23 -76v-270h-165v404zM113 716h130l68 -81l68 81h128l-123 -144h-147z" />
    <glyph glyph-name="ncommaaccent" unicode="&#x146;" horiz-adv-x="616" 
d="M64 404q0 42 -5 94h158q6 -34 6 -69h2q18 35 58.5 59t90.5 24q93 0 137.5 -59.5t44.5 -144.5v-308h-165v272q0 105 -74 105q-42 0 -65 -31t-23 -76v-270h-165v404zM234 -45h145l-86 -195h-126z" />
    <glyph glyph-name="eng" unicode="&#x14b;" horiz-adv-x="616" 
d="M286 -232l11 137q15 -5 35 -5q34 0 46.5 22.5t12.5 64.5v285q0 105 -74 105q-42 0 -65 -31t-23 -76v-270h-165v420q0 39 -3 78h159q3 -34 3 -69h2q18 35 58.5 59t90.5 24q93 0 137.5 -59.5t44.5 -144.5v-321q0 -105 -43.5 -166t-155.5 -61q-42 0 -71 8z" />
    <glyph glyph-name="ntilde" unicode="&#xf1;" horiz-adv-x="616" 
d="M64 404q0 42 -5 94h158q6 -34 6 -69h2q18 35 58.5 59t90.5 24q93 0 137.5 -59.5t44.5 -144.5v-308h-165v272q0 105 -74 105q-42 0 -65 -31t-23 -76v-270h-165v404zM161 671q27 36 78 36q37 0 80 -20t65 -20q18 0 27.5 10.5t14.5 30.5h71q-7 -58 -34.5 -95t-78.5 -37
q-35 0 -81 21q-39 20 -63 20q-31 0 -42 -40h-72q8 58 35 94z" />
    <glyph glyph-name="o" unicode="o" horiz-adv-x="632" 
d="M176.5 17q-63.5 33 -100.5 94t-37 140t37 139t100 92t139 32t139.5 -32t100.5 -92t37 -139t-37.5 -140t-100.5 -94t-139 -33q-75 0 -138.5 33zM402.5 160.5q31.5 38.5 31.5 90.5q0 51 -32 89t-87 38t-86 -37.5t-31 -89.5t31.5 -90.5t86.5 -38.5t86.5 38.5z" />
    <glyph glyph-name="oacute" unicode="&#xf3;" horiz-adv-x="632" 
d="M176.5 17q-63.5 33 -100.5 94t-37 140t37 139t100 92t139 32t139.5 -32t100.5 -92t37 -139t-37.5 -140t-100.5 -94t-139 -33q-75 0 -138.5 33zM402.5 160.5q31.5 38.5 31.5 90.5q0 51 -32 89t-87 38t-86 -37.5t-31 -89.5t31.5 -90.5t86.5 -38.5t86.5 38.5zM334 716h166
l-146 -144h-124z" />
    <glyph glyph-name="obreve" unicode="&#x14f;" horiz-adv-x="632" 
d="M176.5 17q-63.5 33 -100.5 94t-37 140t37 139t100 92t139 32t139.5 -32t100.5 -92t37 -139t-37.5 -140t-100.5 -94t-139 -33q-75 0 -138.5 33zM402.5 160.5q31.5 38.5 31.5 90.5q0 51 -32 89t-87 38t-86 -37.5t-31 -89.5t31.5 -90.5t86.5 -38.5t86.5 38.5zM192 607
q-47 35 -52 109h84q10 -55 90 -55q39 0 61.5 11.5t28.5 43.5h84q-6 -74 -53 -109t-122 -35q-74 0 -121 35z" />
    <glyph glyph-name="ocircumflex" unicode="&#xf4;" horiz-adv-x="632" 
d="M176.5 17q-63.5 33 -100.5 94t-37 140t37 139t100 92t139 32t139.5 -32t100.5 -92t37 -139t-37.5 -140t-100.5 -94t-139 -33q-75 0 -138.5 33zM402.5 160.5q31.5 38.5 31.5 90.5q0 51 -32 89t-87 38t-86 -37.5t-31 -89.5t31.5 -90.5t86.5 -38.5t86.5 38.5zM245 716h148
l122 -144h-130l-68 81l-68 -81h-128z" />
    <glyph glyph-name="odieresis" unicode="&#xf6;" horiz-adv-x="632" 
d="M176.5 17q-63.5 33 -100.5 94t-37 140t37 139t100 92t139 32t139.5 -32t100.5 -92t37 -139t-37.5 -140t-100.5 -94t-139 -33q-75 0 -138.5 33zM402.5 160.5q31.5 38.5 31.5 90.5q0 51 -32 89t-87 38t-86 -37.5t-31 -89.5t31.5 -90.5t86.5 -38.5t86.5 38.5zM147.5 600
q-24.5 24 -24.5 58q0 33 24.5 57t58.5 24q35 0 59.5 -23.5t24.5 -57.5t-24.5 -58t-59.5 -24q-34 0 -58.5 24zM365 600q-24 24 -24 58q0 32 24.5 56.5t58.5 24.5t58.5 -23.5t24.5 -57.5t-24.5 -58t-58.5 -24q-35 0 -59 24z" />
    <glyph glyph-name="ograve" unicode="&#xf2;" horiz-adv-x="632" 
d="M176.5 17q-63.5 33 -100.5 94t-37 140t37 139t100 92t139 32t139.5 -32t100.5 -92t37 -139t-37.5 -140t-100.5 -94t-139 -33q-75 0 -138.5 33zM402.5 160.5q31.5 38.5 31.5 90.5q0 51 -32 89t-87 38t-86 -37.5t-31 -89.5t31.5 -90.5t86.5 -38.5t86.5 38.5zM127 716h166
l104 -144h-124z" />
    <glyph glyph-name="ohungarumlaut" unicode="&#x151;" horiz-adv-x="632" 
d="M176.5 17q-63.5 33 -100.5 94t-37 140t37 139t100 92t139 32t139.5 -32t100.5 -92t37 -139t-37.5 -140t-100.5 -94t-139 -33q-75 0 -138.5 33zM402.5 160.5q31.5 38.5 31.5 90.5q0 51 -32 89t-87 38t-86 -37.5t-31 -89.5t31.5 -90.5t86.5 -38.5t86.5 38.5zM247 716h166
l-146 -144h-124zM467 716h166l-146 -144h-124z" />
    <glyph glyph-name="omacron" unicode="&#x14d;" horiz-adv-x="632" 
d="M176.5 17q-63.5 33 -100.5 94t-37 140t37 139t100 92t139 32t139.5 -32t100.5 -92t37 -139t-37.5 -140t-100.5 -94t-139 -33q-75 0 -138.5 33zM402.5 160.5q31.5 38.5 31.5 90.5q0 51 -32 89t-87 38t-86 -37.5t-31 -89.5t31.5 -90.5t86.5 -38.5t86.5 38.5zM147 687h336
v-86h-336v86z" />
    <glyph glyph-name="oslash" unicode="&#xf8;" horiz-adv-x="632" 
d="M24 15l72 71q-27 31 -42 73t-15 91q0 78 37 138.5t100 93.5t139 33q94 0 160 -49l72 72l60 -58l-70 -69q55 -64 55 -161q0 -78 -37 -138.5t-100.5 -94t-139.5 -33.5q-45 0 -85.5 12t-71.5 35l-75 -74zM372 365q-11 8 -27 13.5t-32 5.5q-56 0 -88.5 -38.5t-32.5 -91.5
q0 -16 3.5 -32t10.5 -25zM404.5 156.5q31.5 38.5 31.5 91.5q0 36 -13 58l-167 -168q10 -10 26.5 -15t34.5 -5q56 0 87.5 38.5z" />
    <glyph glyph-name="oslashacute" unicode="&#x1ff;" horiz-adv-x="632" 
d="M24 15l72 71q-27 31 -42 73t-15 91q0 78 37 138.5t100 93.5t139 33q94 0 160 -49l72 72l60 -58l-70 -69q55 -64 55 -161q0 -78 -37 -138.5t-100.5 -94t-139.5 -33.5q-45 0 -85.5 12t-71.5 35l-75 -74zM372 365q-11 8 -27 13.5t-32 5.5q-56 0 -88.5 -38.5t-32.5 -91.5
q0 -16 3.5 -32t10.5 -25zM404.5 156.5q31.5 38.5 31.5 91.5q0 36 -13 58l-167 -168q10 -10 26.5 -15t34.5 -5q56 0 87.5 38.5zM337 716h166l-146 -144h-124z" />
    <glyph glyph-name="otilde" unicode="&#xf5;" horiz-adv-x="632" 
d="M176.5 17q-63.5 33 -100.5 94t-37 140t37 139t100 92t139 32t139.5 -32t100.5 -92t37 -139t-37.5 -140t-100.5 -94t-139 -33q-75 0 -138.5 33zM402.5 160.5q31.5 38.5 31.5 90.5q0 51 -32 89t-87 38t-86 -37.5t-31 -89.5t31.5 -90.5t86.5 -38.5t86.5 38.5zM165 671
q27 36 78 36q37 0 80 -20t65 -20q18 0 27.5 10.5t14.5 30.5h71q-7 -58 -34.5 -95t-78.5 -37q-35 0 -81 21q-39 20 -63 20q-31 0 -42 -40h-72q8 58 35 94z" />
    <glyph glyph-name="oe" unicode="&#x153;" horiz-adv-x="973" 
d="M174.5 17q-62.5 33 -99 93.5t-36.5 140.5q0 79 36.5 138.5t99 92t138.5 32.5q59 0 108.5 -24t78.5 -63q33 39 81 63t106 24q73 0 129 -32.5t87.5 -94t31.5 -144.5q0 -27 -1 -39h-361q5 -43 43 -68.5t99 -25.5q47 0 90.5 12t74.5 30l22 -115q-36 -24 -90 -38.5t-122 -14.5
q-62 0 -112.5 22.5t-78.5 60.5q-30 -39 -78 -61t-108 -22q-76 0 -138.5 33zM784 306q0 41 -25.5 68t-72.5 27q-46 0 -78 -28t-35 -67h211zM401.5 160.5q31.5 38.5 31.5 90.5q0 51 -31.5 89t-86.5 38t-86 -38t-31 -89q0 -52 31 -90.5t86 -38.5t86.5 38.5z" />
    <glyph glyph-name="p" unicode="p" horiz-adv-x="657" 
d="M64 397q0 33 -2 101h156q2 -40 2 -61h3q24 33 65.5 54t93.5 21q70 0 124 -35.5t83 -95.5t29 -130q0 -71 -28.5 -131.5t-82.5 -97t-126 -36.5q-46 0 -87 18.5t-64 50.5h-2v-295h-164v637zM428 160q31 38 31 91q0 52 -31 89.5t-86 37.5q-35 0 -62.5 -18.5t-42.5 -48
t-15 -61.5q0 -33 15 -62.5t42 -47.5t63 -18q55 0 86 38z" />
    <glyph glyph-name="thorn" unicode="&#xfe;" horiz-adv-x="659" 
d="M66 756h163v-311h3q24 29 62.5 48t89.5 19q70 0 123.5 -35.5t82.5 -95.5t29 -130q0 -71 -28.5 -131.5t-82 -97t-126.5 -36.5q-46 0 -87.5 19t-63.5 51h-2v-296h-163v996zM429.5 160q31.5 38 31.5 91q0 52 -31.5 89.5t-86.5 37.5q-35 0 -62.5 -18.5t-42.5 -48t-15 -61.5
q0 -33 15 -62.5t42 -47.5t63 -18q55 0 86.5 38z" />
    <glyph glyph-name="q" unicode="q" horiz-adv-x="657" 
d="M429 2v53h-2q-24 -32 -64.5 -50.5t-86.5 -18.5q-73 0 -126.5 36.5t-82 97t-28.5 131.5q0 70 29 130t82.5 95.5t123.5 35.5q52 0 94 -21t66 -54h3q0 31 3 61h154q-2 -52 -2 -79v-408q0 -49 14.5 -77.5t49.5 -55.5l-97 -122q-130 70 -130 246zM378 140q27 18 42 47.5
t15 62.5q0 32 -15 61.5t-42.5 48t-62.5 18.5q-55 0 -86.5 -37.5t-31.5 -89.5q0 -53 31.5 -91t86.5 -38q36 0 63 18z" />
    <glyph glyph-name="r" unicode="r" horiz-adv-x="396" 
d="M64 372q0 80 -6 126h157q7 -32 7 -72h2q16 39 46.5 62.5t68.5 23.5q29 0 55 -7l-22 -141q-20 5 -42 5q-53 0 -77.5 -36t-24.5 -77v-256h-164v372z" />
    <glyph glyph-name="racute" unicode="&#x155;" horiz-adv-x="396" 
d="M64 372q0 80 -6 126h157q7 -32 7 -72h2q16 39 46.5 62.5t68.5 23.5q29 0 55 -7l-22 -141q-20 5 -42 5q-53 0 -77.5 -36t-24.5 -77v-256h-164v372zM211 716h166l-146 -144h-124z" />
    <glyph glyph-name="rcaron" unicode="&#x159;" horiz-adv-x="396" 
d="M64 372q0 80 -6 126h157q7 -32 7 -72h2q16 39 46.5 62.5t68.5 23.5q29 0 55 -7l-22 -141q-20 5 -42 5q-53 0 -77.5 -36t-24.5 -77v-256h-164v372zM31 716h130l68 -81l68 81h128l-123 -144h-147z" />
    <glyph glyph-name="rcommaaccent" unicode="&#x157;" horiz-adv-x="396" 
d="M64 372q0 80 -6 126h157q7 -32 7 -72h2q16 39 46.5 62.5t68.5 23.5q29 0 55 -7l-22 -141q-20 5 -42 5q-53 0 -77.5 -36t-24.5 -77v-256h-164v372zM79 -46h145l-86 -195h-126z" />
    <glyph glyph-name="s" unicode="s" horiz-adv-x="472" 
d="M117 -2q-55 14 -86 34l21 123q81 -53 156 -53q76 0 76 43q0 22 -21.5 33t-77.5 24q-145 34 -145 145q0 56 30 93.5t76 55.5t94 18q58 0 107 -15.5t82 -39.5l-59 -106q-25 18 -57.5 30.5t-59.5 12.5q-26 0 -44 -10t-18 -30t19 -29t72 -21q159 -36 159 -152
q0 -87 -62.5 -128.5t-149.5 -41.5q-57 0 -112 14z" />
    <glyph glyph-name="sacute" unicode="&#x15b;" horiz-adv-x="472" 
d="M117 -2q-55 14 -86 34l21 123q81 -53 156 -53q76 0 76 43q0 22 -21.5 33t-77.5 24q-145 34 -145 145q0 56 30 93.5t76 55.5t94 18q58 0 107 -15.5t82 -39.5l-59 -106q-25 18 -57.5 30.5t-59.5 12.5q-26 0 -44 -10t-18 -30t19 -29t72 -21q159 -36 159 -152
q0 -87 -62.5 -128.5t-149.5 -41.5q-57 0 -112 14zM258 716h166l-146 -144h-124z" />
    <glyph glyph-name="scaron" unicode="&#x161;" horiz-adv-x="472" 
d="M117 -2q-55 14 -86 34l21 123q81 -53 156 -53q76 0 76 43q0 22 -21.5 33t-77.5 24q-145 34 -145 145q0 56 30 93.5t76 55.5t94 18q58 0 107 -15.5t82 -39.5l-59 -106q-25 18 -57.5 30.5t-59.5 12.5q-26 0 -44 -10t-18 -30t19 -29t72 -21q159 -36 159 -152
q0 -87 -62.5 -128.5t-149.5 -41.5q-57 0 -112 14zM50 716h130l68 -81l68 81h128l-123 -144h-147z" />
    <glyph glyph-name="scedilla" unicode="&#x15f;" horiz-adv-x="472" 
d="M397.5 41.5q-43.5 -40.5 -111.5 -52.5l-38 -49q7 1 18 1q44 0 73.5 -18.5t29.5 -64.5q0 -52 -44.5 -75t-102.5 -23q-31 0 -63.5 7t-55.5 18l27 60q40 -19 84 -19q20 0 35 7.5t15 25.5q0 16 -14 22.5t-33 6.5q-22 0 -40 -6l-31 29l56 74q-51 3 -97 16t-74 31l21 123
q81 -53 156 -53q76 0 76 43q0 22 -21.5 33t-77.5 24q-145 34 -145 145q0 56 30 93.5t76 55.5t94 18q58 0 107 -15.5t82 -39.5l-59 -106q-25 18 -57.5 30.5t-59.5 12.5q-26 0 -44 -10t-18 -30t19 -29t72 -21q159 -36 159 -152q0 -72 -43.5 -112.5z" />
    <glyph glyph-name="scircumflex" unicode="&#x15d;" horiz-adv-x="472" 
d="M117 -2q-55 14 -86 34l21 123q81 -53 156 -53q76 0 76 43q0 22 -21.5 33t-77.5 24q-145 34 -145 145q0 56 30 93.5t76 55.5t94 18q58 0 107 -15.5t82 -39.5l-59 -106q-25 18 -57.5 30.5t-59.5 12.5q-26 0 -44 -10t-18 -30t19 -29t72 -21q159 -36 159 -152
q0 -87 -62.5 -128.5t-149.5 -41.5q-57 0 -112 14zM175 716h148l122 -144h-130l-68 81l-68 -81h-128z" />
    <glyph glyph-name="scommaaccent" unicode="&#x219;" horiz-adv-x="472" 
d="M117 -2q-55 14 -86 34l21 123q81 -53 156 -53q76 0 76 43q0 22 -21.5 33t-77.5 24q-145 34 -145 145q0 56 30 93.5t76 55.5t94 18q58 0 107 -15.5t82 -39.5l-59 -106q-25 18 -57.5 30.5t-59.5 12.5q-26 0 -44 -10t-18 -30t19 -29t72 -21q159 -36 159 -152
q0 -87 -62.5 -128.5t-149.5 -41.5q-57 0 -112 14zM159 -45h145l-86 -195h-126z" />
    <glyph glyph-name="germandbls" unicode="&#xdf;" horiz-adv-x="667" 
d="M277 -1v141q15 -6 37.5 -9.5t35.5 -3.5q52 0 82.5 25t30.5 78q0 57 -38 85.5t-97 28.5h-21v129h22q31 0 58.5 17t27.5 64q0 34 -22.5 57.5t-61.5 23.5q-55 0 -79 -39.5t-24 -95.5v-500h-164v501q0 120 69 193.5t205 73.5q67 0 122 -24.5t87.5 -70t32.5 -105.5
q0 -54 -29.5 -95t-74.5 -55v-1q70 -14 111.5 -66t41.5 -129q0 -109 -69.5 -172t-186.5 -63q-46 0 -96 12z" />
    <glyph glyph-name="t" unicode="t" horiz-adv-x="390" 
d="M121 35q-39 47 -39 130v210h-80l20 123h59v101l161 30v-131h133l-20 -123h-113v-190q0 -36 13.5 -53t44.5 -17q30 0 65 13l18 -112q-65 -28 -141 -28q-82 0 -121 47z" />
    <glyph glyph-name="tbar" unicode="&#x167;" horiz-adv-x="390" 
d="M383 16q-65 -28 -141 -28q-82 0 -121 47t-39 130v50h-61v89h61v71h-80l20 123h59v101l161 30v-131h133l-20 -123h-113v-71h107v-89h-107v-30q0 -36 13.5 -53t44.5 -17q30 0 65 13z" />
    <glyph glyph-name="tcaron" unicode="&#x165;" horiz-adv-x="432" 
d="M121 35q-39 47 -39 130v210h-80l20 123h59v101l161 30v-131h133l-20 -123h-113v-190q0 -36 13.5 -53t44.5 -17q30 0 65 13l18 -112q-65 -28 -141 -28q-82 0 -121 47zM337 731h145l-86 -195h-126z" />
    <glyph glyph-name="u" unicode="u" horiz-adv-x="614" 
d="M103 45.5q-44 59.5 -44 144.5v308h165v-270q0 -48 16.5 -77t57.5 -29t64.5 31t23.5 76v269h164v-406q0 -40 5 -92h-158q-5 38 -5 69q-20 -36 -62.5 -59.5t-89.5 -23.5q-93 0 -137 59.5z" />
    <glyph glyph-name="uacute" unicode="&#xfa;" horiz-adv-x="614" 
d="M103 45.5q-44 59.5 -44 144.5v308h165v-270q0 -48 16.5 -77t57.5 -29t64.5 31t23.5 76v269h164v-406q0 -40 5 -92h-158q-5 38 -5 69q-20 -36 -62.5 -59.5t-89.5 -23.5q-93 0 -137 59.5zM323 716h166l-146 -144h-124z" />
    <glyph glyph-name="ubreve" unicode="&#x16d;" horiz-adv-x="614" 
d="M103 45.5q-44 59.5 -44 144.5v308h165v-270q0 -48 16.5 -77t57.5 -29t64.5 31t23.5 76v269h164v-406q0 -40 5 -92h-158q-5 38 -5 69q-20 -36 -62.5 -59.5t-89.5 -23.5q-93 0 -137 59.5zM183 607q-47 35 -52 109h84q10 -55 90 -55q39 0 61.5 11.5t28.5 43.5h84
q-6 -74 -53 -109t-122 -35q-74 0 -121 35z" />
    <glyph glyph-name="ucircumflex" unicode="&#xfb;" horiz-adv-x="614" 
d="M103 45.5q-44 59.5 -44 144.5v308h165v-270q0 -48 16.5 -77t57.5 -29t64.5 31t23.5 76v269h164v-406q0 -40 5 -92h-158q-5 38 -5 69q-20 -36 -62.5 -59.5t-89.5 -23.5q-93 0 -137 59.5zM235 716h148l122 -144h-130l-68 81l-68 -81h-128z" />
    <glyph glyph-name="udieresis" unicode="&#xfc;" horiz-adv-x="614" 
d="M103 45.5q-44 59.5 -44 144.5v308h165v-270q0 -48 16.5 -77t57.5 -29t64.5 31t23.5 76v269h164v-406q0 -40 5 -92h-158q-5 38 -5 69q-20 -36 -62.5 -59.5t-89.5 -23.5q-93 0 -137 59.5zM139.5 600q-24.5 24 -24.5 58q0 33 24.5 57t58.5 24q35 0 59.5 -23.5t24.5 -57.5
t-24.5 -58t-59.5 -24q-34 0 -58.5 24zM357 600q-24 24 -24 58q0 32 24.5 56.5t58.5 24.5t58.5 -23.5t24.5 -57.5t-24.5 -58t-58.5 -24q-35 0 -59 24z" />
    <glyph glyph-name="ugrave" unicode="&#xf9;" horiz-adv-x="614" 
d="M103 45.5q-44 59.5 -44 144.5v308h165v-270q0 -48 16.5 -77t57.5 -29t64.5 31t23.5 76v269h164v-406q0 -40 5 -92h-158q-5 38 -5 69q-20 -36 -62.5 -59.5t-89.5 -23.5q-93 0 -137 59.5zM138 716h166l104 -144h-124z" />
    <glyph glyph-name="uhungarumlaut" unicode="&#x171;" horiz-adv-x="614" 
d="M103 45.5q-44 59.5 -44 144.5v308h165v-270q0 -48 16.5 -77t57.5 -29t64.5 31t23.5 76v269h164v-406q0 -40 5 -92h-158q-5 38 -5 69q-20 -36 -62.5 -59.5t-89.5 -23.5q-93 0 -137 59.5zM236 716h166l-146 -144h-124zM456 716h166l-146 -144h-124z" />
    <glyph glyph-name="umacron" unicode="&#x16b;" horiz-adv-x="614" 
d="M103 45.5q-44 59.5 -44 144.5v308h165v-270q0 -48 16.5 -77t57.5 -29t64.5 31t23.5 76v269h164v-406q0 -40 5 -92h-158q-5 38 -5 69q-20 -36 -62.5 -59.5t-89.5 -23.5q-93 0 -137 59.5zM136 687h336v-86h-336v86z" />
    <glyph glyph-name="uni0163" unicode="&#x163;" horiz-adv-x="390" 
d="M121 35q-39 47 -39 130v210h-80l20 123h59v101l161 30v-131h133l-20 -123h-113v-190q0 -36 13.5 -53t44.5 -17q30 0 65 13l18 -112q-65 -28 -141 -28q-82 0 -121 47zM143 -45h145l-86 -195h-126z" />
    <glyph glyph-name="uni021B" unicode="&#x21b;" horiz-adv-x="390" 
d="M121 35q-39 47 -39 130v210h-80l20 123h59v101l161 30v-131h133l-20 -123h-113v-190q0 -36 13.5 -53t44.5 -17q30 0 65 13l18 -112q-65 -28 -141 -28q-82 0 -121 47zM143 -45h145l-86 -195h-126z" />
    <glyph glyph-name="uogonek" unicode="&#x173;" horiz-adv-x="614" 
d="M556 -196q-24 -18 -54.5 -29t-60.5 -11q-46 0 -79.5 23t-33.5 68q0 39 30 76.5t72 68.5h-33q-5 38 -5 69q-20 -36 -62.5 -59.5t-89.5 -23.5q-93 0 -137 59.5t-44 144.5v308h165v-270q0 -48 16.5 -77t57.5 -29t64.5 31t23.5 76v269h164v-406q0 -40 5 -92h-33
q-90 -72 -90 -118q0 -16 10.5 -26t26.5 -10q27 0 55 20z" />
    <glyph glyph-name="uring" unicode="&#x16f;" horiz-adv-x="614" 
d="M103 45.5q-44 59.5 -44 144.5v308h165v-270q0 -48 16.5 -77t57.5 -29t64.5 31t23.5 76v269h164v-406q0 -40 5 -92h-158q-5 38 -5 69q-20 -36 -62.5 -59.5t-89.5 -23.5q-93 0 -137 59.5zM228 587.5q-32 30.5 -32 75.5q0 46 31.5 77t77.5 31q45 0 77 -31t32 -76
q0 -46 -31.5 -76.5t-77.5 -30.5q-45 0 -77 30.5zM347 622.5q17 16.5 17 41.5t-17 41.5t-42 16.5t-42 -17t-17 -42q0 -24 17 -40.5t42 -16.5t42 16.5z" />
    <glyph glyph-name="utilde" unicode="&#x169;" horiz-adv-x="614" 
d="M103 45.5q-44 59.5 -44 144.5v308h165v-270q0 -48 16.5 -77t57.5 -29t64.5 31t23.5 76v269h164v-406q0 -40 5 -92h-158q-5 38 -5 69q-20 -36 -62.5 -59.5t-89.5 -23.5q-93 0 -137 59.5zM155 671q27 36 78 36q37 0 80 -20t65 -20q18 0 27.5 10.5t14.5 30.5h71
q-7 -58 -34.5 -95t-78.5 -37q-35 0 -81 21q-39 20 -63 20q-31 0 -42 -40h-72q8 58 35 94z" />
    <glyph glyph-name="v" unicode="v" horiz-adv-x="567" 
d="M-1 498h181l105 -323l108 323h175l-196 -498h-177z" />
    <glyph glyph-name="w" unicode="w" horiz-adv-x="871" 
d="M0 498h177l86 -315h3l89 315h165l92 -315h2l87 315h170l-173 -498h-165l-98 310h-2l-96 -310h-165z" />
    <glyph glyph-name="wacute" unicode="&#x1e83;" horiz-adv-x="871" 
d="M0 498h177l86 -315h3l89 315h165l92 -315h2l87 315h170l-173 -498h-165l-98 310h-2l-96 -310h-165zM470 716h166l-146 -144h-124z" />
    <glyph glyph-name="wcircumflex" unicode="&#x175;" horiz-adv-x="871" 
d="M0 498h177l86 -315h3l89 315h165l92 -315h2l87 315h170l-173 -498h-165l-98 310h-2l-96 -310h-165zM365 716h148l122 -144h-130l-68 81l-68 -81h-128z" />
    <glyph glyph-name="wdieresis" unicode="&#x1e85;" horiz-adv-x="871" 
d="M0 498h177l86 -315h3l89 315h165l92 -315h2l87 315h170l-173 -498h-165l-98 310h-2l-96 -310h-165zM266.5 600q-24.5 24 -24.5 58q0 33 24.5 57t58.5 24q35 0 59.5 -23.5t24.5 -57.5t-24.5 -58t-59.5 -24q-34 0 -58.5 24zM484 600q-24 24 -24 58q0 32 24.5 56.5
t58.5 24.5t58.5 -23.5t24.5 -57.5t-24.5 -58t-58.5 -24q-35 0 -59 24z" />
    <glyph glyph-name="wgrave" unicode="&#x1e81;" horiz-adv-x="871" 
d="M0 498h177l86 -315h3l89 315h165l92 -315h2l87 315h170l-173 -498h-165l-98 310h-2l-96 -310h-165zM239 716h166l104 -144h-124z" />
    <glyph glyph-name="x" unicode="x" horiz-adv-x="594" 
d="M196 261l-180 237h191l93 -133l94 133h185l-179 -237l197 -261h-193l-107 153l-110 -153h-190z" />
    <glyph glyph-name="y" unicode="y" horiz-adv-x="567" 
d="M154.5 -69.5q32.5 22.5 52.5 59.5l7 18l-215 490h182l118 -320l95 320h174l-197 -522q-39 -103 -96.5 -152t-151.5 -64l-54 135q53 13 85.5 35.5z" />
    <glyph glyph-name="yacute" unicode="&#xfd;" horiz-adv-x="567" 
d="M154.5 -69.5q32.5 22.5 52.5 59.5l7 18l-215 490h182l118 -320l95 320h174l-197 -522q-39 -103 -96.5 -152t-151.5 -64l-54 135q53 13 85.5 35.5zM322 716h166l-146 -144h-124z" />
    <glyph glyph-name="ycircumflex" unicode="&#x177;" horiz-adv-x="567" 
d="M154.5 -69.5q32.5 22.5 52.5 59.5l7 18l-215 490h182l118 -320l95 320h174l-197 -522q-39 -103 -96.5 -152t-151.5 -64l-54 135q53 13 85.5 35.5zM219 716h148l122 -144h-130l-68 81l-68 -81h-128z" />
    <glyph glyph-name="ydieresis" unicode="&#xff;" horiz-adv-x="567" 
d="M154.5 -69.5q32.5 22.5 52.5 59.5l7 18l-215 490h182l118 -320l95 320h174l-197 -522q-39 -103 -96.5 -152t-151.5 -64l-54 135q53 13 85.5 35.5zM125.5 600q-24.5 24 -24.5 58q0 33 24.5 57t58.5 24q35 0 59.5 -23.5t24.5 -57.5t-24.5 -58t-59.5 -24q-34 0 -58.5 24z
M343 600q-24 24 -24 58q0 32 24.5 56.5t58.5 24.5t58.5 -23.5t24.5 -57.5t-24.5 -58t-58.5 -24q-35 0 -59 24z" />
    <glyph glyph-name="ygrave" unicode="&#x1ef3;" horiz-adv-x="567" 
d="M154.5 -69.5q32.5 22.5 52.5 59.5l7 18l-215 490h182l118 -320l95 320h174l-197 -522q-39 -103 -96.5 -152t-151.5 -64l-54 135q53 13 85.5 35.5zM86 716h166l104 -144h-124z" />
    <glyph glyph-name="z" unicode="z" horiz-adv-x="512" 
d="M34 128l234 244h-235l20 126h415v-123l-241 -248h261l-20 -127h-434v128z" />
    <glyph glyph-name="zacute" unicode="&#x17a;" horiz-adv-x="512" 
d="M34 128l234 244h-235l20 126h415v-123l-241 -248h261l-20 -127h-434v128zM277 716h166l-146 -144h-124z" />
    <glyph glyph-name="zcaron" unicode="&#x17e;" horiz-adv-x="512" 
d="M34 128l234 244h-235l20 126h415v-123l-241 -248h261l-20 -127h-434v128zM65 716h130l68 -81l68 81h128l-123 -144h-147z" />
    <glyph glyph-name="zdotaccent" unicode="&#x17c;" horiz-adv-x="512" 
d="M34 128l234 244h-235l20 126h415v-123l-241 -248h261l-20 -127h-434v128zM196 597q-26 25 -26 60t26 60.5t63 25.5q38 0 64 -25t26 -61t-26 -60.5t-64 -24.5q-37 0 -63 25z" />
    <glyph glyph-name="ordfeminine" unicode="&#xaa;" horiz-adv-x="384" 
d="M75.5 446.5q-30.5 22.5 -30.5 65.5q0 58 52.5 78t133.5 20v4q0 17 -13.5 26t-36.5 9q-25 0 -48 -7.5t-40 -20.5l-24 69q23 16 55 24.5t66 8.5q139 0 139 -128v-112q0 -18 4 -52h-93q-1 5 -4 33h-1q-11 -17 -35.5 -28.5t-54.5 -11.5q-39 0 -69.5 22.5zM218 505
q16 14 16 36v12h-12q-80 0 -80 -35q0 -13 10 -20t24 -7q26 0 42 14z" />
    <glyph glyph-name="ordmasculine" unicode="&#xba;" horiz-adv-x="384" 
d="M113.5 443q-35.5 19 -56 53.5t-20.5 78.5t20.5 78t56 52.5t78.5 18.5q67 0 111.5 -41.5t44.5 -107.5q0 -44 -20.5 -78.5t-56.5 -53.5t-79 -19t-78.5 19zM236.5 529.5q16.5 18.5 16.5 45.5q0 26 -17 44.5t-44 18.5t-43 -18.5t-16 -44.5q0 -27 16 -45.5t43 -18.5
q28 0 44.5 18.5z" />
    <glyph glyph-name="pi" unicode="&#x3c0;" horiz-adv-x="795" 
d="M718.5 125q21.5 5 37.5 12v-111q-25 -15 -65.5 -25.5t-82.5 -10.5q-85 0 -120 45t-35 137v194h-133v-366h-181v366h-128v71l98 61h647v-132h-122v-193q0 -27 13 -40t33 -13q17 0 38.5 5z" />
    <glyph glyph-name="zero" unicode="0" horiz-adv-x="646" 
d="M114 86.5q-68 105.5 -68 269.5q0 163 68 267t210 104q141 0 208.5 -104t67.5 -267q0 -165 -67.5 -270t-208.5 -105q-142 0 -210 105.5zM405.5 195q22.5 70 22.5 161q0 89 -22.5 159t-81.5 70t-82.5 -70t-23.5 -159q0 -90 23.5 -160.5t82.5 -70.5t81.5 70z" />
    <glyph glyph-name="one" unicode="1" horiz-adv-x="646" 
d="M283 520l-140 -112l-79 129l233 171h154v-708h-168v520z" />
    <glyph glyph-name="two" unicode="2" horiz-adv-x="646" 
d="M58 140l240 217q45 41 64.5 75t19.5 67q0 38 -24.5 61.5t-64.5 23.5t-82 -25t-73 -61l-72 122q38 46 100.5 76.5t150.5 30.5q70 0 125 -26.5t86 -74.5t31 -109q0 -76 -37 -133.5t-122 -128.5l-129 -109h329l-20 -146h-522v140z" />
    <glyph glyph-name="three" unicode="3" horiz-adv-x="646" 
d="M54 59l38 151q46 -37 103 -62.5t108 -25.5q48 0 78 21.5t30 68.5q0 50 -41.5 71.5t-102.5 21.5h-26v123h30q51 0 87.5 23.5t36.5 65.5q0 36 -23.5 54.5t-60.5 18.5t-82.5 -18.5t-83.5 -45.5l-68 119q50 40 109.5 61t138.5 21q60 0 115.5 -22t90.5 -64.5t35 -101.5
q0 -113 -119 -166v-3q60 -14 98 -59.5t38 -104.5q0 -74 -36 -124.5t-95 -75.5t-127 -25q-162 0 -271 78z" />
    <glyph glyph-name="four" unicode="4" horiz-adv-x="646" 
d="M358 138h-333v141l288 429h201v-434h118l-20 -136h-97v-138h-157v138zM359 274v262h-3l-168 -262h171z" />
    <glyph glyph-name="five" unicode="5" horiz-adv-x="646" 
d="M54 45l29 140q46 -27 101.5 -45t104.5 -18q51 0 87.5 28t36.5 76q0 58 -42.5 83t-102.5 25q-31 0 -78.5 -9t-84.5 -22l17 405h424l-20 -144h-255l-6 -112q25 7 61 7q72 0 130.5 -25.5t92 -76.5t33.5 -123q0 -82 -38 -139t-100.5 -85.5t-134.5 -28.5q-156 0 -255 64z" />
    <glyph glyph-name="six" unicode="6" horiz-adv-x="646" 
d="M184 19q-66 38 -103.5 110.5t-37.5 172.5q0 123 39 217t116.5 147t189.5 53q44 0 88.5 -9t72.5 -21l-38 -134q-59 24 -125 24q-59 0 -103.5 -39t-51.5 -110h2q22 17 59.5 28t76.5 11q62 0 115.5 -29.5t85 -82t31.5 -119.5q0 -79 -34.5 -137t-95.5 -89t-138 -31
q-83 0 -149 38zM402 152.5q31 31.5 31 81.5q0 48 -30.5 79.5t-79.5 31.5t-80.5 -31t-31.5 -81q0 -47 31 -79.5t80 -32.5t80 31.5z" />
    <glyph glyph-name="seven" unicode="7" horiz-adv-x="646" 
d="M398 564h-345l20 144h504v-134l-271 -574h-195z" />
    <glyph glyph-name="eight" unicode="8" horiz-adv-x="646" 
d="M190.5 5.5q-60.5 24.5 -97 74t-36.5 121.5q0 62 36 107t91 62v2q-48 18 -78 57.5t-30 95.5q0 63 33.5 109t90 69.5t123.5 23.5t123 -23t90 -68t34 -108q0 -57 -29.5 -98t-78.5 -57v-3q55 -15 91 -61t36 -107q0 -72 -36.5 -121.5t-97 -74.5t-132.5 -25t-132.5 24.5z
M383.5 457q24.5 25 24.5 59t-25 57.5t-60 23.5q-37 0 -60.5 -23t-23.5 -58t23 -59.5t61 -24.5q36 0 60.5 25zM394 139.5q27 25.5 27 68.5q0 41 -28 68.5t-70 27.5q-43 0 -71 -27.5t-28 -68.5q0 -42 27.5 -68t71.5 -26t71 25.5z" />
    <glyph glyph-name="nine" unicode="9" horiz-adv-x="646" 
d="M464.5 679.5q63.5 -39.5 100 -115t36.5 -178.5q0 -187 -88.5 -296t-256.5 -109q-47 0 -94 9t-77 21l28 134q25 -9 64.5 -16.5t84.5 -7.5q56 0 100 42t56 115h-2q-24 -19 -66 -33t-87 -14q-56 0 -107 29.5t-82 82t-31 119.5q0 79 35 137t98 89t145 31q80 0 143.5 -39.5z
M242 547.5q-31 -31.5 -31 -81.5q0 -48 30.5 -79.5t79.5 -31.5q50 0 81 31.5t31 80.5q0 47 -31 79.5t-80 32.5t-80 -31.5z" />
    <glyph glyph-name="zero.denominator" 
d="M343 54.5q-42 -63.5 -132 -63.5q-91 0 -133.5 64t-42.5 164t42.5 163t133.5 63q90 0 132 -63t42 -163q0 -101 -42 -164.5zM254.5 309q-12.5 37 -43.5 37t-44.5 -37.5t-13.5 -89.5q0 -54 13.5 -91.5t44.5 -37.5t43.5 37.5t12.5 91.5q0 53 -12.5 90z" />
    <glyph glyph-name="one.denominator" 
d="M181 306l-87 -68l-40 96l138 102h106v-436h-117v306z" />
    <glyph glyph-name="two.denominator" 
d="M30 82l170 164q29 29 29 58q0 18 -14.5 29t-39.5 11t-52.5 -15t-48.5 -36l-43 86q68 66 166 66q65 0 108.5 -33t43.5 -94q0 -44 -20.5 -76.5t-55.5 -64.5l-87 -77h183l-20 -100h-319v82z" />
    <glyph glyph-name="three.denominator" 
d="M30 30l29 96q21 -15 55.5 -26.5t65.5 -11.5q62 0 62 46q0 47 -78 47h-33v84h36q29 0 47 11t18 36q0 17 -14 27.5t-38 10.5q-47 0 -95 -37l-41 84q62 48 150 48q64 0 108.5 -31t44.5 -90q0 -33 -15.5 -58t-41.5 -38q32 -11 49.5 -37.5t17.5 -62.5q0 -45 -24.5 -76
t-62.5 -46t-79 -15q-90 0 -161 39z" />
    <glyph glyph-name="four.denominator" 
d="M229 83h-200v93l175 260h131v-259h68l-20 -94h-48v-83h-106v83zM228 311l-88 -134h89v134h-1z" />
    <glyph glyph-name="five.denominator" 
d="M354.5 61.5q-23.5 -35.5 -62 -53t-83.5 -17.5q-108 0 -169 50l29 98q61 -51 128 -51q32 0 49 14.5t17 40.5q0 28 -20.5 43t-56.5 15q-21 0 -54 -5.5t-58 -12.5l10 253h278l-10 -100h-169l-3 -51q20 3 40 3q69 0 113.5 -37t44.5 -103q0 -51 -23.5 -86.5z" />
    <glyph glyph-name="six.denominator" 
d="M127 14q-41 23 -64.5 69t-23.5 110q0 111 56.5 181.5t161.5 70.5q26 0 52.5 -5.5t42.5 -12.5l-23 -88q-36 14 -73 14t-65 -25.5t-32 -72.5h2q12 10 35 16.5t45 6.5q58 0 97 -38t39 -98q0 -70 -43.5 -110.5t-114.5 -40.5q-51 0 -92 23zM251.5 95q16.5 17 16.5 45
q0 25 -17.5 42.5t-41.5 17.5q-26 0 -43.5 -17t-17.5 -44q0 -25 17 -43t43 -18q27 0 43.5 17z" />
    <glyph glyph-name="seven.denominator" 
d="M248 336h-204l20 100h310v-87l-164 -349h-133z" />
    <glyph glyph-name="eight.denominator" 
d="M327.5 26q-47.5 -35 -117.5 -35t-117.5 35t-47.5 101q0 35 18.5 61.5t49.5 39.5v2q-27 12 -42.5 35t-15.5 54q0 59 45 92.5t110 33.5t110 -32.5t45 -91.5q0 -31 -15 -55t-42 -36v-2q30 -12 48.5 -39t18.5 -62q0 -66 -47.5 -101zM178.5 342.5q-12.5 -12.5 -12.5 -30.5
t12.5 -30.5t31.5 -12.5t31.5 12.5t12.5 30.5t-12.5 30.5t-31.5 12.5t-31.5 -12.5zM172 168.5q-15 -14.5 -15 -36.5t15 -35.5t38 -13.5t38 13.5t15 35.5q0 21 -15.5 36t-37.5 15q-23 0 -38 -14.5z" />
    <glyph glyph-name="nine.denominator" 
d="M291 422q41 -23 64.5 -69t23.5 -110q0 -111 -56.5 -181.5t-161.5 -70.5q-26 0 -52.5 5.5t-42.5 12.5l23 88q36 -14 73 -14t65 25.5t32 72.5h-2q-12 -10 -35 -16.5t-45 -6.5q-58 0 -97 38t-39 98q0 70 43.5 110.5t114.5 40.5q51 0 92 -23zM166.5 341q-16.5 -17 -16.5 -45
q0 -25 17.5 -42.5t41.5 -17.5q26 0 43.5 17t17.5 44q0 25 -17 43t-43 18q-27 0 -43.5 -17z" />
    <glyph glyph-name="zero.inferior" unicode="&#x2080;" 
d="M343 -90.5q-42 -63.5 -132 -63.5q-91 0 -133.5 64t-42.5 164t42.5 163t133.5 63q90 0 132 -63t42 -163q0 -101 -42 -164.5zM254.5 164q-12.5 37 -43.5 37t-44.5 -37.5t-13.5 -89.5q0 -54 13.5 -91.5t44.5 -37.5t43.5 37.5t12.5 91.5q0 53 -12.5 90z" />
    <glyph glyph-name="one.inferior" unicode="&#x2081;" 
d="M181 161l-87 -68l-40 96l138 102h106v-436h-117v306z" />
    <glyph glyph-name="two.inferior" unicode="&#x2082;" 
d="M30 -63l170 164q29 29 29 58q0 18 -14.5 29t-39.5 11t-52.5 -15t-48.5 -36l-43 86q68 66 166 66q65 0 108.5 -33t43.5 -94q0 -44 -20.5 -76.5t-55.5 -64.5l-87 -77h183l-20 -100h-319v82z" />
    <glyph glyph-name="three.inferior" unicode="&#x2083;" 
d="M30 -115l29 96q21 -15 55.5 -26.5t65.5 -11.5q62 0 62 46q0 47 -78 47h-33v84h36q29 0 47 11t18 36q0 17 -14 27.5t-38 10.5q-47 0 -95 -37l-41 84q62 48 150 48q64 0 108.5 -31t44.5 -90q0 -33 -15.5 -58t-41.5 -38q32 -11 49.5 -37.5t17.5 -62.5q0 -45 -24.5 -76
t-62.5 -46t-79 -15q-90 0 -161 39z" />
    <glyph glyph-name="four.inferior" unicode="&#x2084;" 
d="M229 -62h-200v93l175 260h131v-259h68l-20 -94h-48v-83h-106v83zM228 166l-88 -134h89v134h-1z" />
    <glyph glyph-name="five.inferior" unicode="&#x2085;" 
d="M354.5 -83.5q-23.5 -35.5 -62 -53t-83.5 -17.5q-108 0 -169 50l29 98q61 -51 128 -51q32 0 49 14.5t17 40.5q0 28 -20.5 43t-56.5 15q-21 0 -54 -5.5t-58 -12.5l10 253h278l-10 -100h-169l-3 -51q20 3 40 3q69 0 113.5 -37t44.5 -103q0 -51 -23.5 -86.5z" />
    <glyph glyph-name="six.inferior" unicode="&#x2086;" 
d="M127 -131q-41 23 -64.5 69t-23.5 110q0 111 56.5 181.5t161.5 70.5q26 0 52.5 -5.5t42.5 -12.5l-23 -88q-36 14 -73 14t-65 -25.5t-32 -72.5h2q12 10 35 16.5t45 6.5q58 0 97 -38t39 -98q0 -70 -43.5 -110.5t-114.5 -40.5q-51 0 -92 23zM251.5 -50q16.5 17 16.5 45
q0 25 -17.5 42.5t-41.5 17.5q-26 0 -43.5 -17t-17.5 -44q0 -25 17 -43t43 -18q27 0 43.5 17z" />
    <glyph glyph-name="seven.inferior" unicode="&#x2087;" 
d="M248 191h-204l20 100h310v-87l-164 -349h-133z" />
    <glyph glyph-name="eight.inferior" unicode="&#x2088;" 
d="M327.5 -119q-47.5 -35 -117.5 -35t-117.5 35t-47.5 101q0 35 18.5 61.5t49.5 39.5v2q-27 12 -42.5 35t-15.5 54q0 59 45 92.5t110 33.5t110 -32.5t45 -91.5q0 -31 -15 -55t-42 -36v-2q30 -12 48.5 -39t18.5 -62q0 -66 -47.5 -101zM178.5 197.5q-12.5 -12.5 -12.5 -30.5
t12.5 -30.5t31.5 -12.5t31.5 12.5t12.5 30.5t-12.5 30.5t-31.5 12.5t-31.5 -12.5zM172 23.5q-15 -14.5 -15 -36.5t15 -35.5t38 -13.5t38 13.5t15 35.5q0 21 -15.5 36t-37.5 15q-23 0 -38 -14.5z" />
    <glyph glyph-name="nine.inferior" unicode="&#x2089;" 
d="M291 277q41 -23 64.5 -69t23.5 -110q0 -111 -56.5 -181.5t-161.5 -70.5q-26 0 -52.5 5.5t-42.5 12.5l23 88q36 -14 73 -14t65 25.5t32 72.5h-2q-12 -10 -35 -16.5t-45 -6.5q-58 0 -97 38t-39 98q0 70 43.5 110.5t114.5 40.5q51 0 92 -23zM166.5 196q-16.5 -17 -16.5 -45
q0 -25 17.5 -42.5t41.5 -17.5q26 0 43.5 17t17.5 44q0 25 -17 43t-43 18q-27 0 -43.5 -17z" />
    <glyph glyph-name="zero.numerator" 
d="M343 326.5q-42 -63.5 -132 -63.5q-91 0 -133.5 64t-42.5 164t42.5 163t133.5 63q90 0 132 -63t42 -163q0 -101 -42 -164.5zM254.5 581q-12.5 37 -43.5 37t-44.5 -37.5t-13.5 -89.5q0 -54 13.5 -91.5t44.5 -37.5t43.5 37.5t12.5 91.5q0 53 -12.5 90z" />
    <glyph glyph-name="one.numerator" 
d="M181 578l-78 -66l-56 89l145 107h106v-436h-117v306z" />
    <glyph glyph-name="two.numerator" 
d="M30 354l170 164q29 29 29 58q0 18 -14.5 29t-39.5 11t-52.5 -15t-48.5 -36l-43 86q68 66 166 66q65 0 108.5 -33t43.5 -94q0 -44 -20.5 -76.5t-55.5 -64.5l-87 -77h183l-20 -100h-319v82z" />
    <glyph glyph-name="three.numerator" 
d="M30 302l29 96q21 -15 55.5 -26.5t65.5 -11.5q62 0 62 46q0 47 -78 47h-33v84h36q29 0 47 11t18 36q0 17 -14 27.5t-38 10.5q-47 0 -95 -37l-41 84q62 48 150 48q64 0 108.5 -31t44.5 -90q0 -33 -15.5 -58t-41.5 -38q32 -11 49.5 -37.5t17.5 -62.5q0 -45 -24.5 -76
t-62.5 -46t-79 -15q-90 0 -161 39z" />
    <glyph glyph-name="four.numerator" 
d="M229 355h-200v93l175 260h131v-259h68l-20 -94h-48v-83h-106v83zM228 583l-88 -134h89v134h-1z" />
    <glyph glyph-name="five.numerator" 
d="M354.5 333.5q-23.5 -35.5 -62 -53t-83.5 -17.5q-108 0 -169 50l29 98q61 -51 128 -51q32 0 49 14.5t17 40.5q0 28 -20.5 43t-56.5 15q-21 0 -54 -5.5t-58 -12.5l10 253h278l-10 -100h-169l-3 -51q20 3 40 3q69 0 113.5 -37t44.5 -103q0 -51 -23.5 -86.5z" />
    <glyph glyph-name="six.numerator" 
d="M127 286q-41 23 -64.5 69t-23.5 110q0 111 56.5 181.5t161.5 70.5q26 0 52.5 -5.5t42.5 -12.5l-23 -88q-36 14 -73 14t-65 -25.5t-32 -72.5h2q12 10 35 16.5t45 6.5q58 0 97 -38t39 -98q0 -70 -43.5 -110.5t-114.5 -40.5q-51 0 -92 23zM251.5 367q16.5 17 16.5 45
q0 25 -17.5 42.5t-41.5 17.5q-26 0 -43.5 -17t-17.5 -44q0 -25 17 -43t43 -18q27 0 43.5 17z" />
    <glyph glyph-name="seven.numerator" 
d="M248 608h-204l20 100h310v-87l-164 -349h-133z" />
    <glyph glyph-name="eight.numerator" 
d="M327.5 298q-47.5 -35 -117.5 -35t-117.5 35t-47.5 101q0 35 18.5 61.5t49.5 39.5v2q-27 12 -42.5 35t-15.5 54q0 59 45 92.5t110 33.5t110 -32.5t45 -91.5q0 -31 -15 -55t-42 -36v-2q30 -12 48.5 -39t18.5 -62q0 -66 -47.5 -101zM178.5 614.5q-12.5 -12.5 -12.5 -30.5
t12.5 -30.5t31.5 -12.5t31.5 12.5t12.5 30.5t-12.5 30.5t-31.5 12.5t-31.5 -12.5zM172 440.5q-15 -14.5 -15 -36.5t15 -35.5t38 -13.5t38 13.5t15 35.5q0 21 -15.5 36t-37.5 15q-23 0 -38 -14.5z" />
    <glyph glyph-name="nine.numerator" 
d="M291 694q41 -23 64.5 -69t23.5 -110q0 -111 -56.5 -181.5t-161.5 -70.5q-26 0 -52.5 5.5t-42.5 12.5l23 88q36 -14 73 -14t65 25.5t32 72.5h-2q-12 -10 -35 -16.5t-45 -6.5q-58 0 -97 38t-39 98q0 70 43.5 110.5t114.5 40.5q51 0 92 -23zM166.5 613q-16.5 -17 -16.5 -45
q0 -25 17.5 -42.5t41.5 -17.5q26 0 43.5 17t17.5 44q0 25 -17 43t-43 18q-27 0 -43.5 -17z" />
    <glyph glyph-name="zero.onum" horiz-adv-x="722" 
d="M631.5 126.5q-41.5 -68.5 -113 -106t-158.5 -37.5q-85 0 -156 37.5t-112.5 106t-41.5 158.5t41.5 157.5t112 104t156.5 36.5q87 0 158.5 -36.5t113 -104t41.5 -157.5t-41.5 -158.5zM465.5 394q-40.5 44 -105.5 44q-64 0 -104 -44t-40 -109q0 -66 40 -110.5t104 -44.5
q66 0 106 44t40 111q0 65 -40.5 109z" />
    <glyph glyph-name="one.onum" horiz-adv-x="477" 
d="M199 391l-98 -72l-81 114l188 133h160v-566h-169v391z" />
    <glyph glyph-name="two.onum" horiz-adv-x="602" 
d="M506.5 310q-21.5 -41 -68 -82.5t-126.5 -94.5h236l-20 -133h-468v128l53 31q129 76 183.5 124t54.5 90q0 67 -81 67q-40 0 -82 -25t-73 -61l-72 122q38 46 100.5 76.5t150.5 30.5q65 0 118.5 -23t84.5 -64.5t31 -95.5q0 -49 -21.5 -90z" />
    <glyph glyph-name="three.onum" horiz-adv-x="576" 
d="M12 -92l38 151q46 -37 103 -62.5t108 -25.5q48 0 78 21.5t30 68.5q0 50 -41.5 71.5t-102.5 21.5h-26v123h30q51 0 87.5 23.5t36.5 65.5q0 36 -23.5 54.5t-60.5 18.5t-82.5 -18.5t-83.5 -45.5l-68 119q50 40 109.5 61t138.5 21q60 0 115.5 -22t90.5 -64.5t35 -101.5
q0 -113 -119 -166v-3q60 -14 98 -59.5t38 -104.5q0 -74 -36 -124.5t-95 -75.5t-127 -25q-162 0 -271 78z" />
    <glyph glyph-name="four.onum" horiz-adv-x="645" 
d="M358 0h-333v141l288 429h201v-434h118l-20 -136h-97v-138h-157v138zM359 136v262h-3l-168 -262h171z" />
    <glyph glyph-name="five.onum" horiz-adv-x="573" 
d="M13 -98l29 140q46 -27 101.5 -45t104.5 -18q51 0 87.5 28t36.5 76q0 58 -42.5 83t-102.5 25q-31 0 -78.5 -9t-84.5 -22l17 405h424l-20 -144h-255l-6 -112q25 7 61 7q72 0 130.5 -25.5t92 -76.5t33.5 -123q0 -82 -38 -139t-100.5 -85.5t-134.5 -28.5q-156 0 -255 64z" />
    <glyph glyph-name="six.onum" horiz-adv-x="656" 
d="M195 19q-66 38 -103.5 110.5t-37.5 172.5q0 123 39 217t116.5 147t189.5 53q44 0 88.5 -9t72.5 -21l-38 -134q-59 24 -125 24q-59 0 -103.5 -39t-51.5 -110h2q22 17 59.5 28t76.5 11q62 0 115.5 -29.5t85 -82t31.5 -119.5q0 -79 -34.5 -137t-95.5 -89t-138 -31
q-83 0 -149 38zM413 152.5q31 31.5 31 81.5q0 48 -30.5 79.5t-79.5 31.5t-80.5 -31t-31.5 -81q0 -47 31 -79.5t80 -32.5t80 31.5z" />
    <glyph glyph-name="seven.onum" horiz-adv-x="576" 
d="M365 421h-345l20 144h504v-134l-271 -574h-195z" />
    <glyph glyph-name="eight.onum" horiz-adv-x="649" 
d="M554 79q-37 -49 -97.5 -73.5t-131.5 -24.5q-72 0 -132.5 24.5t-97.5 73.5t-37 119q0 62 35 107.5t91 64.5v2q-48 17 -78 58t-30 96q0 64 34.5 109.5t91 68.5t123.5 23q66 0 122.5 -23t91 -68t34.5 -109q0 -55 -29.5 -96.5t-78.5 -57.5v-3q55 -17 90.5 -63t35.5 -108
q0 -71 -37 -120zM263 573q-24 -24 -24 -59t24.5 -59.5t61.5 -24.5q36 0 61 25t25 59q0 35 -24.5 59t-61.5 24q-38 0 -62 -24zM396.5 276.5q-27.5 27.5 -71.5 27.5q-45 0 -72.5 -27.5t-27.5 -68.5t27.5 -68t72.5 -27q44 0 71.5 27t27.5 68t-27.5 68.5z" />
    <glyph glyph-name="nine.onum" horiz-adv-x="656" 
d="M468.5 543.5q63.5 -39.5 100 -115t36.5 -178.5q0 -187 -88.5 -296t-256.5 -109q-47 0 -94 9t-77 21l28 134q25 -9 64.5 -16.5t84.5 -7.5q56 0 100 42t56 115h-2q-24 -19 -66 -33t-87 -14q-56 0 -107 29.5t-82 82t-31 119.5q0 79 35 137t98 89t145 31q80 0 143.5 -39.5z
M246 411.5q-31 -31.5 -31 -81.5q0 -48 30.5 -79.5t79.5 -31.5q50 0 81 31.5t31 80.5q0 47 -31 79.5t-80 32.5t-80 -31.5z" />
    <glyph glyph-name="zero.superior" unicode="&#x2070;" 
d="M343 499.5q-42 -63.5 -132 -63.5q-91 0 -133.5 64t-42.5 164t42.5 163t133.5 63q90 0 132 -63t42 -163q0 -101 -42 -164.5zM254.5 754q-12.5 37 -43.5 37t-44.5 -37.5t-13.5 -89.5q0 -54 13.5 -91.5t44.5 -37.5t43.5 37.5t12.5 91.5q0 53 -12.5 90z" />
    <glyph glyph-name="four.superior" unicode="&#x2074;" 
d="M229 528h-200v93l175 260h131v-259h68l-20 -94h-48v-83h-106v83zM228 756l-88 -134h89v134h-1z" />
    <glyph glyph-name="five.superior" unicode="&#x2075;" 
d="M354.5 506.5q-23.5 -35.5 -62 -53t-83.5 -17.5q-108 0 -169 50l29 98q61 -51 128 -51q32 0 49 14.5t17 40.5q0 28 -20.5 43t-56.5 15q-21 0 -54 -5.5t-58 -12.5l10 253h278l-10 -100h-169l-3 -51q20 3 40 3q69 0 113.5 -37t44.5 -103q0 -51 -23.5 -86.5z" />
    <glyph glyph-name="six.superior" unicode="&#x2076;" 
d="M127 459q-41 23 -64.5 69t-23.5 110q0 111 56.5 181.5t161.5 70.5q26 0 52.5 -5.5t42.5 -12.5l-23 -88q-36 14 -73 14t-65 -25.5t-32 -72.5h2q12 10 35 16.5t45 6.5q58 0 97 -38t39 -98q0 -70 -43.5 -110.5t-114.5 -40.5q-51 0 -92 23zM251.5 540q16.5 17 16.5 45
q0 25 -17.5 42.5t-41.5 17.5q-26 0 -43.5 -17t-17.5 -44q0 -25 17 -43t43 -18q27 0 43.5 17z" />
    <glyph glyph-name="seven.superior" unicode="&#x2077;" 
d="M248 781h-204l20 100h310v-87l-164 -349h-133z" />
    <glyph glyph-name="eight.superior" unicode="&#x2078;" 
d="M327.5 471q-47.5 -35 -117.5 -35t-117.5 35t-47.5 101q0 35 18.5 61.5t49.5 39.5v2q-27 12 -42.5 35t-15.5 54q0 59 45 92.5t110 33.5t110 -32.5t45 -91.5q0 -31 -15 -55t-42 -36v-2q30 -12 48.5 -39t18.5 -62q0 -66 -47.5 -101zM178.5 787.5q-12.5 -12.5 -12.5 -30.5
t12.5 -30.5t31.5 -12.5t31.5 12.5t12.5 30.5t-12.5 30.5t-31.5 12.5t-31.5 -12.5zM172 613.5q-15 -14.5 -15 -36.5t15 -35.5t38 -13.5t38 13.5t15 35.5q0 21 -15.5 36t-37.5 15q-23 0 -38 -14.5z" />
    <glyph glyph-name="nine.superior" unicode="&#x2079;" 
d="M291 867q41 -23 64.5 -69t23.5 -110q0 -111 -56.5 -181.5t-161.5 -70.5q-26 0 -52.5 5.5t-42.5 12.5l23 88q36 -14 73 -14t65 25.5t32 72.5h-2q-12 -10 -35 -16.5t-45 -6.5q-58 0 -97 38t-39 98q0 70 43.5 110.5t114.5 40.5q51 0 92 -23zM166.5 786q-16.5 -17 -16.5 -45
q0 -25 17.5 -42.5t41.5 -17.5q26 0 43.5 17t17.5 44q0 25 -17 43t-43 18q-27 0 -43.5 -17z" />
    <glyph glyph-name="fraction" unicode="&#x2044;" horiz-adv-x="100" 
d="M-194 9l388 731l87 -41l-388 -729z" />
    <glyph glyph-name="onehalf" unicode="&#xbd;" horiz-adv-x="940" 
d="M226 9l388 731l87 -41l-388 -729zM180 578l-87 -68l-40 96l138 102h106v-436h-117v306zM550 82l170 164q29 29 29 58q0 18 -14.5 29t-39.5 11t-52.5 -15t-48.5 -36l-43 86q68 66 166 66q65 0 108.5 -33t43.5 -94q0 -44 -20.5 -76.5t-55.5 -64.5l-87 -77h183l-20 -100
h-319v82z" />
    <glyph glyph-name="uni2153" unicode="&#x2153;" horiz-adv-x="940" 
d="M226 9l388 731l87 -41l-388 -729zM180 578l-87 -68l-40 96l138 102h106v-436h-117v306zM554 30l29 96q21 -15 55.5 -26.5t65.5 -11.5q62 0 62 46q0 47 -78 47h-33v84h36q29 0 47 11t18 36q0 17 -14 27.5t-38 10.5q-47 0 -95 -37l-41 84q62 48 150 48q64 0 108.5 -31
t44.5 -90q0 -33 -15.5 -58t-41.5 -38q32 -11 49.5 -37.5t17.5 -62.5q0 -45 -24.5 -76t-62.5 -46t-79 -15q-90 0 -161 39z" />
    <glyph glyph-name="uni2154" unicode="&#x2154;" horiz-adv-x="932" 
d="M226 9l388 731l87 -41l-388 -729zM30 354l170 164q29 29 29 58q0 18 -14.5 29t-39.5 11t-52.5 -15t-48.5 -36l-43 86q68 66 166 66q65 0 108.5 -33t43.5 -94q0 -44 -20.5 -76.5t-55.5 -64.5l-87 -77h183l-20 -100h-319v82zM554 30l29 96q21 -15 55.5 -26.5t65.5 -11.5
q62 0 62 46q0 47 -78 47h-33v84h36q29 0 47 11t18 36q0 17 -14 27.5t-38 10.5q-47 0 -95 -37l-41 84q62 48 150 48q64 0 108.5 -31t44.5 -90q0 -33 -15.5 -58t-41.5 -38q32 -11 49.5 -37.5t17.5 -62.5q0 -45 -24.5 -76t-62.5 -46t-79 -15q-90 0 -161 39z" />
    <glyph glyph-name="onequarter" unicode="&#xbc;" horiz-adv-x="940" 
d="M226 9l388 731l87 -41l-388 -729zM180 578l-87 -68l-40 96l138 102h106v-436h-117v306zM718 83h-200v93l175 260h131v-259h58v-94h-58v-83h-106v83zM717 311l-88 -134h89v134h-1z" />
    <glyph glyph-name="threequarters" unicode="&#xbe;" horiz-adv-x="940" 
d="M226 9l388 731l87 -41l-388 -729zM30 306l29 96q21 -15 55.5 -26.5t65.5 -11.5q62 0 62 46q0 47 -78 47h-33v84h36q29 0 47 11t18 36q0 17 -14 27.5t-38 10.5q-47 0 -95 -37l-41 84q62 48 150 48q64 0 108.5 -31t44.5 -90q0 -33 -15.5 -58t-41.5 -38q32 -11 49.5 -37.5
t17.5 -62.5q0 -45 -24.5 -76t-62.5 -46t-79 -15q-90 0 -161 39zM718 83h-200v93l175 260h131v-259h58v-94h-58v-83h-106v83zM718 177v134h-1l-88 -134h89z" />
    <glyph glyph-name="oneeighth" unicode="&#x215b;" horiz-adv-x="943" 
d="M226 9l388 731l87 -41l-388 -729zM180 578l-87 -68l-40 96l138 102h106v-436h-117v306zM844.5 26q-47.5 -35 -117.5 -35t-117.5 35t-47.5 101q0 35 18.5 61.5t49.5 39.5v2q-27 12 -42.5 35t-15.5 54q0 59 45 92.5t110 33.5t110 -32.5t45 -91.5q0 -31 -15 -55t-42 -36v-2
q30 -12 48.5 -39t18.5 -62q0 -66 -47.5 -101zM695.5 342.5q-12.5 -12.5 -12.5 -30.5t12.5 -30.5t31.5 -12.5t31.5 12.5t12.5 30.5t-12.5 30.5t-31.5 12.5t-31.5 -12.5zM689 168.5q-15 -14.5 -15 -36.5t15 -35.5t38 -13.5t38 13.5t15 35.5q0 21 -15.5 36t-37.5 15
q-23 0 -38 -14.5z" />
    <glyph glyph-name="threeeighths" unicode="&#x215c;" horiz-adv-x="866" 
d="M186 9l388 731l87 -41l-388 -729zM30 302l29 96q21 -15 55.5 -26.5t65.5 -11.5q62 0 62 46q0 47 -78 47h-33v84h36q29 0 47 11t18 36q0 17 -14 27.5t-38 10.5q-47 0 -95 -37l-41 84q62 48 150 48q64 0 108.5 -31t44.5 -90q0 -33 -15.5 -58t-41.5 -38q32 -11 49.5 -37.5
t17.5 -62.5q0 -45 -24.5 -76t-62.5 -46t-79 -15q-90 0 -161 39zM777.5 26q-47.5 -35 -117.5 -35t-117.5 35t-47.5 101q0 35 18.5 61.5t49.5 39.5v2q-27 12 -42.5 35t-15.5 54q0 59 45 92.5t110 33.5t110 -32.5t45 -91.5q0 -31 -15 -55t-42 -36v-2q30 -12 48.5 -39t18.5 -62
q0 -66 -47.5 -101zM628.5 342.5q-12.5 -12.5 -12.5 -30.5t12.5 -30.5t31.5 -12.5t31.5 12.5t12.5 30.5t-12.5 30.5t-31.5 12.5t-31.5 -12.5zM622 168.5q-15 -14.5 -15 -36.5t15 -35.5t38 -13.5t38 13.5t15 35.5q0 21 -15.5 36t-37.5 15q-23 0 -38 -14.5z" />
    <glyph glyph-name="fiveeighths" unicode="&#x215d;" horiz-adv-x="866" 
d="M186 9l388 731l87 -41l-388 -729zM334.5 333.5q-23.5 -35.5 -62 -53t-83.5 -17.5q-108 0 -169 50l29 98q61 -51 128 -51q32 0 49 14.5t17 40.5q0 28 -20.5 43t-56.5 15q-21 0 -54 -5.5t-58 -12.5l10 253h278l-10 -100h-169l-3 -51q20 3 40 3q69 0 113.5 -37t44.5 -103
q0 -51 -23.5 -86.5zM777.5 26q-47.5 -35 -117.5 -35t-117.5 35t-47.5 101q0 35 18.5 61.5t49.5 39.5v2q-27 12 -42.5 35t-15.5 54q0 59 45 92.5t110 33.5t110 -32.5t45 -91.5q0 -31 -15 -55t-42 -36v-2q30 -12 48.5 -39t18.5 -62q0 -66 -47.5 -101zM628.5 342.5
q-12.5 -12.5 -12.5 -30.5t12.5 -30.5t31.5 -12.5t31.5 12.5t12.5 30.5t-12.5 30.5t-31.5 12.5t-31.5 -12.5zM622 168.5q-15 -14.5 -15 -36.5t15 -35.5t38 -13.5t38 13.5t15 35.5q0 21 -15.5 36t-37.5 15q-23 0 -38 -14.5z" />
    <glyph glyph-name="seveneighths" unicode="&#x215e;" horiz-adv-x="866" 
d="M156 9l388 731l87 -41l-388 -729zM248 608h-204l20 100h310v-87l-164 -349h-133zM767.5 26q-47.5 -35 -117.5 -35t-117.5 35t-47.5 101q0 35 18.5 61.5t49.5 39.5v2q-27 12 -42.5 35t-15.5 54q0 59 45 92.5t110 33.5t110 -32.5t45 -91.5q0 -31 -15 -55t-42 -36v-2
q30 -12 48.5 -39t18.5 -62q0 -66 -47.5 -101zM618.5 342.5q-12.5 -12.5 -12.5 -30.5t12.5 -30.5t31.5 -12.5t31.5 12.5t12.5 30.5t-12.5 30.5t-31.5 12.5t-31.5 -12.5zM612 168.5q-15 -14.5 -15 -36.5t15 -35.5t38 -13.5t38 13.5t15 35.5q0 21 -15.5 36t-37.5 15
q-23 0 -38 -14.5z" />
    <glyph glyph-name="uni00B9" unicode="&#xb9;" 
d="M181 751l-87 -68l-40 96l138 102h106v-436h-117v306z" />
    <glyph glyph-name="uni00B2" unicode="&#xb2;" horiz-adv-x="395" 
d="M30 527l170 164q29 29 29 58q0 18 -14.5 29t-39.5 11t-52.5 -15t-48.5 -36l-43 86q68 66 166 66q65 0 108.5 -33t43.5 -94q0 -44 -20.5 -76.5t-55.5 -64.5l-87 -77h183l-20 -100h-319v82z" />
    <glyph glyph-name="uni00B3" unicode="&#xb3;" horiz-adv-x="398" 
d="M30 475l29 96q21 -15 55.5 -26.5t65.5 -11.5q62 0 62 46q0 47 -78 47h-33v84h36q29 0 47 11t18 36q0 17 -14 27.5t-38 10.5q-47 0 -95 -37l-41 84q62 48 150 48q64 0 108.5 -31t44.5 -90q0 -33 -15.5 -58t-41.5 -38q32 -11 49.5 -37.5t17.5 -62.5q0 -45 -24.5 -76
t-62.5 -46t-79 -15q-90 0 -161 39z" />
    <glyph glyph-name="asterisk" unicode="*" horiz-adv-x="489" 
d="M243 417l-79 -105l-88 63l81 104l-129 43l35 100l127 -44v130h110v-130l127 40l34 -100l-128 -40l81 -107l-90 -63z" />
    <glyph glyph-name="backslash" unicode="\" horiz-adv-x="415" 
d="M1 723l113 39l308 -777l-113 -37z" />
    <glyph glyph-name="periodcentered" unicode="&#xb7;" horiz-adv-x="300" 
d="M79 221q-30 28 -30 69t30 70t72 29q41 0 70.5 -28.5t29.5 -69.5t-29.5 -69.5t-70.5 -28.5q-42 0 -72 28z" />
    <glyph glyph-name="bullet" unicode="&#x2022;" horiz-adv-x="500" 
d="M161.5 201q-40.5 24 -64.5 64.5t-24 88.5t24 88.5t64.5 64.5t88.5 24t88.5 -24t64.5 -64.5t24 -88.5t-24 -88.5t-64.5 -64.5t-88.5 -24t-88.5 24z" />
    <glyph glyph-name="colon" unicode=":" horiz-adv-x="332" 
d="M97.5 341.5q-29.5 27.5 -29.5 66.5q0 40 29 68t70 28q39 0 68 -27.5t29 -66.5t-29 -67.5t-68 -28.5q-40 0 -69.5 27.5zM97.5 21.5q-29.5 27.5 -29.5 66.5q0 40 29 68t70 28q39 0 68 -28t29 -67t-29 -67t-68 -28q-40 0 -69.5 27.5z" />
    <glyph glyph-name="comma" unicode="," horiz-adv-x="300" 
d="M251 77q0 -82 -52.5 -146t-127.5 -101l-51 46q82 52 108 117q-34 7 -56.5 33t-22.5 61q0 41 30 70t72 29t71 -30t29 -79z" />
    <glyph glyph-name="ellipsis" unicode="&#x2026;" horiz-adv-x="1000" 
d="M96 18q-30 28 -30 69q0 40 30 69.5t71 29.5t70.5 -28.5t29.5 -69.5t-29.5 -69.5t-70.5 -28.5t-71 28zM428.5 18q-30.5 28 -30.5 69t30 70t72 29q41 0 70.5 -28.5t29.5 -69.5t-29.5 -69.5t-70.5 -28.5t-71.5 28zM761.5 18q-30.5 28 -30.5 69t30 70t72 29q41 0 70.5 -28.5
t29.5 -69.5t-29.5 -69.5t-70.5 -28.5t-71.5 28z" />
    <glyph glyph-name="exclam" unicode="!" horiz-adv-x="357" 
d="M90 708h176l-14 -471h-148zM110 17.5q-29 27.5 -29 66.5t28.5 67t68.5 28q41 0 69.5 -27.5t28.5 -66.5q0 -40 -28.5 -67.5t-69.5 -27.5q-39 0 -68 27.5z" />
    <glyph glyph-name="exclamdown" unicode="&#xa1;" horiz-adv-x="357" 
d="M109.5 356.5q-28.5 27.5 -28.5 66.5q0 40 28.5 67.5t69.5 27.5q39 0 68 -27.5t29 -66.5t-28.5 -67t-68.5 -28q-41 0 -69.5 27.5zM105 271h148l14 -471h-176z" />
    <glyph glyph-name="uni203D" unicode="&#x203d;" horiz-adv-x="546" 
d="M388.5 705q52.5 -22 84 -66t31.5 -106q0 -45 -12.5 -76.5t-33 -55t-56.5 -53.5q-40 -33 -52 -54t-12 -59v-9h-156l-1 278h133l-2 -40q12 15 17.5 28.5t5.5 29.5q0 28 -21 46t-58 18q-38 0 -76 -22t-72 -55l-78 119q47 45 106 72t137 27q63 0 115.5 -22zM329.5 151.5
q28.5 -27.5 28.5 -66.5q0 -40 -28 -67.5t-69 -27.5q-40 0 -69 27.5t-29 66.5t29 67t69 28t68.5 -27.5z" />
    <glyph glyph-name="numbersign" unicode="#" horiz-adv-x="603" 
d="M131 200h-85v104h99l15 100h-85v104h98l29 200h111l-29 -200h78l29 200h110l-28 -200h84v-104h-99l-14 -100h85v-104h-98l-30 -200h-110l29 200h-79l-29 -200h-110zM334 304l14 100h-79l-13 -100h78z" />
    <glyph glyph-name="period" unicode="." horiz-adv-x="300" 
d="M79 18q-30 28 -30 69t30 70t72 29q41 0 70.5 -28.5t29.5 -69.5t-29.5 -69.5t-70.5 -28.5q-42 0 -72 28z" />
    <glyph glyph-name="question" unicode="?" horiz-adv-x="546" 
d="M182 247q0 51 18 87t66 82q41 40 55 60t14 46q0 28 -21 46t-58 18q-38 0 -76 -22t-72 -55l-78 119q47 45 106 72t137 27q63 0 115.5 -22t84 -66t31.5 -106q0 -45 -12.5 -76.5t-33 -55t-56.5 -53.5q-40 -33 -52 -54t-12 -59v-9h-156v21zM192 17.5q-29 27.5 -29 66.5t29 67
t69 28t68.5 -27.5t28.5 -66.5q0 -40 -28 -67.5t-69 -27.5q-40 0 -69 27.5z" />
    <glyph glyph-name="questiondown" unicode="&#xbf;" horiz-adv-x="546" 
d="M352 490.5q29 -27.5 29 -66.5t-29 -67t-69 -28t-68.5 27.5t-28.5 66.5q0 40 28 67.5t69 27.5q40 0 69 -27.5zM362 261q0 -51 -18 -87t-66 -82q-41 -40 -55 -60t-14 -46q0 -28 21 -46t58 -18q38 0 76 22t72 55l78 -119q-47 -45 -106 -72t-137 -27q-63 0 -115.5 22t-84 66
t-31.5 106q0 45 12.5 76.5t33 55t56.5 53.5q40 33 52 54t12 59v9h156v-21z" />
    <glyph glyph-name="quotedbl" unicode="&#x22;" horiz-adv-x="498" 
d="M86 708h131v-271h-131v271zM281 708h130v-271h-130v271z" />
    <glyph glyph-name="quotesingle" unicode="'" horiz-adv-x="303" 
d="M86 708h130v-271h-130v271z" />
    <glyph glyph-name="semicolon" unicode=";" horiz-adv-x="332" 
d="M98 342.5q-29 27.5 -29 66.5q0 40 28.5 68t69.5 28q39 0 68 -28t29 -67q0 -40 -28.5 -67.5t-68.5 -27.5t-69 27.5zM267 77q0 -82 -52.5 -146t-127.5 -101l-51 46q37 21 68.5 50.5t47.5 64.5q-37 5 -62 32t-25 64q0 41 30 70t72 29t71 -30t29 -79z" />
    <glyph glyph-name="slash" unicode="/" horiz-adv-x="415" 
d="M-7 -15l309 777l113 -39l-309 -775z" />
    <glyph glyph-name="underscore" unicode="_" horiz-adv-x="500" 
d="M0 -75h500v-89h-500v89z" />
    <glyph glyph-name="uni208D" unicode="&#x208d;" horiz-adv-x="306" 
d="M176 59q26 -80 76 -149l-75 -53q-59 82 -90.5 175.5t-31.5 188.5q0 94 31.5 187.5t90.5 175.5l75 -54q-50 -68 -76 -147.5t-26 -161.5t26 -162z" />
    <glyph glyph-name="uni208E" unicode="&#x208e;" horiz-adv-x="301" 
d="M210.5 32.5q-31.5 -93.5 -90.5 -175.5l-75 53q50 69 76 148.5t26 161.5t-26 162t-76 148l75 54q59 -82 90.5 -175.5t31.5 -188.5q0 -94 -31.5 -187.5z" />
    <glyph glyph-name="braceleft" unicode="{" horiz-adv-x="342" 
d="M110.5 -115.5q-37.5 40.5 -37.5 107.5v167q0 74 -67 74v110q67 0 67 70v171q0 67 37.5 107.5t99.5 40.5h82v-105h-47q-46 0 -46 -60v-167q0 -52 -30.5 -79.5t-62.5 -31.5v-2q33 -3 63 -30t30 -85v-163q0 -60 46 -60h47v-105h-82q-62 0 -99.5 40.5z" />
    <glyph glyph-name="braceright" unicode="}" horiz-adv-x="342" 
d="M50 -51h47q46 0 46 60v163q0 58 30 85t63 30v2q-32 4 -62.5 31.5t-30.5 79.5v167q0 60 -46 60h-47v105h82q62 0 99.5 -40.5t37.5 -107.5v-171q0 -70 67 -70v-110q-67 0 -67 -74v-167q0 -67 -37.5 -107.5t-99.5 -40.5h-82v105z" />
    <glyph glyph-name="bracketleft" unicode="[" horiz-adv-x="342" 
d="M53 732h216v-102h-89v-684h89v-102h-216v888z" />
    <glyph glyph-name="bracketright" unicode="]" horiz-adv-x="342" 
d="M73 -54h89v684h-89v102h216v-888h-216v102z" />
    <glyph glyph-name="parenleft" unicode="(" horiz-adv-x="342" 
d="M67 49q-38 117 -38 239t38 239t109 215l112 -55q-63 -87 -96.5 -189t-33.5 -210t33.5 -210t96.5 -189l-112 -55q-71 98 -109 215z" />
    <glyph glyph-name="parenright" unicode=")" horiz-adv-x="342" 
d="M54 -111q63 87 96.5 189t33.5 210t-33.5 210t-96.5 189l112 55q71 -98 109 -215t38 -239t-38 -239t-109 -215z" />
    <glyph glyph-name="uni207D" unicode="&#x207d;" horiz-adv-x="306" 
d="M176 329q26 -80 76 -149l-75 -53q-59 82 -90.5 175.5t-31.5 188.5q0 94 31.5 187.5t90.5 175.5l75 -54q-50 -68 -76 -147.5t-26 -161.5t26 -162z" />
    <glyph glyph-name="uni207E" unicode="&#x207e;" horiz-adv-x="301" 
d="M210.5 306.5q-31.5 -93.5 -90.5 -175.5l-75 53q50 69 76 148.5t26 161.5t-26 162t-76 148l75 54q59 -82 90.5 -175.5t31.5 -188.5q0 -94 -31.5 -187.5z" />
    <glyph glyph-name="uni2015" unicode="&#x2015;" horiz-adv-x="600" 
d="M30 313h540v-104h-540v104z" />
    <glyph glyph-name="emdash" unicode="&#x2014;" horiz-adv-x="600" 
d="M30 313h540v-104h-540v104z" />
    <glyph glyph-name="endash" unicode="&#x2013;" horiz-adv-x="400" 
d="M30 313h340v-103h-340v103z" />
    <glyph glyph-name="hyphen" unicode="-" horiz-adv-x="326" 
d="M36 327h254v-130h-254v130z" />
    <glyph glyph-name="uni00AD" unicode="&#xad;" horiz-adv-x="326" 
d="M36 327h254v-130h-254v130z" />
    <glyph glyph-name="uni2010" unicode="&#x2010;" horiz-adv-x="326" 
d="M36 327h254v-130h-254v130z" />
    <glyph glyph-name="guillemotleft" unicode="&#xab;" horiz-adv-x="543" 
d="M25 254l161 232l97 -63l-115 -169l116 -169l-98 -63zM251 254l161 232l97 -63l-115 -169l115 -169l-97 -63z" />
    <glyph glyph-name="guillemotright" unicode="&#xbb;" horiz-adv-x="543" 
d="M35 85l115 168l-116 170l98 63l161 -233l-161 -231zM260 85l115 168l-115 170l97 63l162 -233l-162 -231z" />
    <glyph glyph-name="guilsinglleft" unicode="&#x2039;" horiz-adv-x="318" 
d="M25 254l161 232l97 -63l-115 -169l116 -169l-98 -63z" />
    <glyph glyph-name="guilsinglright" unicode="&#x203a;" horiz-adv-x="318" 
d="M35 85l115 168l-116 170l98 63l161 -233l-161 -231z" />
    <glyph glyph-name="quotedblbase" unicode="&#x201e;" horiz-adv-x="560" 
d="M221.5 156q29.5 -30 29.5 -76q0 -82 -53 -147.5t-127 -102.5l-51 46q81 50 108 116q-34 8 -56.5 34t-22.5 61q0 41 30 70t72 29q41 0 70.5 -30zM481.5 156q29.5 -30 29.5 -76q0 -82 -53 -147.5t-127 -102.5l-51 46q81 50 108 116q-34 8 -56.5 34t-22.5 61q0 41 30 70
t72 29q41 0 70.5 -30z" />
    <glyph glyph-name="quotedblleft" unicode="&#x201c;" horiz-adv-x="560" 
d="M143 546q34 -8 56.5 -34t22.5 -61q0 -41 -30 -70t-72 -29q-41 0 -70.5 30t-29.5 76q0 82 53 147.5t127 102.5l51 -46q-81 -50 -108 -116zM459.5 512q22.5 -26 22.5 -61q0 -41 -30 -70t-72 -29q-41 0 -70.5 30t-29.5 76q0 82 53 147.5t127 102.5l51 -46q-81 -50 -108 -116
q34 -8 56.5 -34z" />
    <glyph glyph-name="quotedblright" unicode="&#x201d;" horiz-adv-x="565" 
d="M226.5 678q29.5 -30 29.5 -76q0 -82 -53 -147.5t-127 -102.5l-51 46q81 50 108 116q-34 8 -56.5 34t-22.5 61q0 41 30 70t72 29q41 0 70.5 -30zM486.5 678q29.5 -30 29.5 -76q0 -82 -53 -147.5t-127 -102.5l-51 46q81 50 108 116q-34 8 -56.5 34t-22.5 61q0 41 30 70
t72 29q41 0 70.5 -30z" />
    <glyph glyph-name="quoteleft" unicode="&#x2018;" horiz-adv-x="305" 
d="M204.5 512q22.5 -26 22.5 -61q0 -41 -30 -70t-72 -29q-41 0 -70.5 30t-29.5 76q0 82 53 147.5t127 102.5l51 -46q-81 -50 -108 -116q34 -8 56.5 -34z" />
    <glyph glyph-name="quoteright" unicode="&#x2019;" horiz-adv-x="305" 
d="M226.5 678q29.5 -30 29.5 -76q0 -82 -53 -147.5t-127 -102.5l-51 46q81 50 108 116q-34 8 -56.5 34t-22.5 61q0 41 30 70t72 29q41 0 70.5 -30z" />
    <glyph glyph-name="quotesinglbase" unicode="&#x201a;" horiz-adv-x="300" 
d="M251 77q0 -82 -52.5 -146t-127.5 -101l-51 46q82 52 108 117q-34 7 -56.5 33t-22.5 61q0 41 30 70t72 29t71 -30t29 -79z" />
    <glyph glyph-name="uni00A0" unicode="&#xa0;" horiz-adv-x="250" 
 />
    <glyph glyph-name="Euro" unicode="&#x20ac;" horiz-adv-x="646" 
d="M527.5 -8q-46.5 -11 -99.5 -11q-126 0 -206.5 64.5t-108.5 170.5h-92l34 103h45q-1 12 -1 35q0 18 3 36h-78l36 104h57q32 109 121 171t212 62q44 0 89.5 -8.5t73.5 -21.5l-49 -126q-21 11 -53.5 17t-65.5 6q-53 0 -99 -26.5t-63 -73.5h265l-35 -104h-258q-2 -12 -2 -37
q0 -23 1 -34h241l-34 -103h-186q14 -43 60 -71.5t105 -28.5q74 0 127 31l37 -127q-30 -17 -76.5 -28z" />
    <glyph glyph-name="cent" unicode="&#xa2;" horiz-adv-x="646" 
d="M559 41q-25 -20 -63.5 -34.5t-85.5 -20.5v-65h-76v64q-68 7 -124 40.5t-88.5 91t-32.5 132.5q0 72 31.5 128.5t87.5 91t126 42.5v65h76v-64q43 -4 83.5 -17.5t65.5 -31.5l-57 -121q-45 27 -92 33v-253q37 1 67 12t61 35zM275 179q20 -31 59 -45v236q-38 -13 -58.5 -46
t-20.5 -75q0 -39 20 -70z" />
    <glyph glyph-name="currency" unicode="&#xa4;" horiz-adv-x="950" 
d="M755 309q0 -90 -45 -155l93 -93l-84 -84l-97 96q-64 -39 -146 -39q-78 0 -147 41l-99 -98l-84 84l96 96q-42 62 -42 152q0 83 39 147l-93 93l85 84l95 -94q68 41 150 41q83 0 150 -39l92 92l85 -84l-90 -90q42 -65 42 -150zM385.5 402.5q-35.5 -38.5 -35.5 -93.5
q0 -57 35.5 -95.5t90.5 -38.5q56 0 91.5 38.5t35.5 95.5q0 54 -36 93t-91 39t-90.5 -38.5z" />
    <glyph glyph-name="dollar" unicode="$" horiz-adv-x="646" 
d="M549 94q-31 -47 -81 -74t-109 -35v-69l-78 1v66q-66 4 -125 21t-104 46l29 155q46 -34 100 -56t101 -25l2 167l-10 3q-68 25 -110 48.5t-68.5 62.5t-26.5 99q0 96 62.5 151t155.5 68v65h73v-63q60 -2 116.5 -17.5t91.5 -36.5l-42 -136q-26 20 -74.5 37.5t-91.5 21.5v-167
l24 -9q62 -22 102.5 -44.5t67 -63t26.5 -104.5q0 -65 -31 -112zM251.5 486q10.5 -14 33.5 -26l1 126q-45 -19 -45 -65q0 -21 10.5 -35zM407 197q0 22 -12 37t-36 27v-129q48 17 48 65z" />
    <glyph glyph-name="florin" unicode="&#x192;" horiz-adv-x="646" 
d="M56 -131.5q-32 7.5 -58 20.5l58 120q23 -16 50 -16q31 0 46.5 22.5t23.5 66.5l49 241h-124l20 113h124l16 78q13 62 34 107t63 73.5t111 28.5q79 0 137 -34l-60 -121q-30 18 -57 18q-33 0 -48.5 -22t-24.5 -63l-14 -65h136l-20 -113h-138l-55 -274q-19 -93 -68 -140.5
t-137 -47.5q-32 0 -64 7.5z" />
    <glyph glyph-name="sterling" unicode="&#xa3;" horiz-adv-x="646" 
d="M72 141h12q37 0 60 25t23 67v68h-115l20 115h95v61q0 59 27.5 116.5t86 95.5t146.5 38q49 0 101.5 -17.5t86.5 -41.5l-63 -124q-22 17 -53 29.5t-62 12.5q-56 0 -80.5 -35.5t-24.5 -83.5v-51h176l-20 -115h-156v-54q0 -75 -57 -106h326l-20 -141h-509v141z" />
    <glyph glyph-name="yen" unicode="&#xa5;" horiz-adv-x="646" 
d="M245 145h-188l20 103h168v65h-188l20 103h117l-182 292h185l132 -260l129 260h179l-179 -292h134l-20 -103h-169v-65h189l-20 -103h-169v-145h-158v145z" />
    <glyph glyph-name="uni2126" unicode="&#x3a9;" horiz-adv-x="792" 
d="M283 529q-45 -48 -45 -140q0 -85 25.5 -138t88.5 -93v-158h-328v138h182q-76 38 -116 113.5t-40 160.5q0 94 43 162t122 104.5t183 36.5q103 0 182 -36.5t122.5 -104.5t43.5 -161q0 -87 -40 -159.5t-120 -115.5h186v-138h-331v158q65 41 91 94t26 139q0 91 -45.5 138.5
t-114.5 47.5q-70 0 -115 -48z" />
    <glyph glyph-name="uni2126" unicode="&#x2126;" horiz-adv-x="792" 
d="M283 529q-45 -48 -45 -140q0 -85 25.5 -138t88.5 -93v-158h-328v138h182q-76 38 -116 113.5t-40 160.5q0 94 43 162t122 104.5t183 36.5q103 0 182 -36.5t122.5 -104.5t43.5 -161q0 -87 -40 -159.5t-120 -115.5h186v-138h-331v158q65 41 91 94t26 139q0 91 -45.5 138.5
t-114.5 47.5q-70 0 -115 -48z" />
    <glyph glyph-name="approxequal" unicode="&#x2248;" horiz-adv-x="666" 
d="M72.5 415.5q39.5 52.5 115.5 52.5q27 0 55 -7.5t70 -22.5q39 -14 66.5 -21.5t53.5 -7.5q42 0 50 59h97q-8 -91 -50.5 -141.5t-110.5 -50.5q-29 0 -61 9t-78 26q-41 15 -64.5 22t-42.5 7q-20 0 -33 -16t-18 -39h-96q7 78 46.5 130.5zM70 201q39 56 112 56q28 0 57 -8
t69 -23q42 -15 70 -22.5t55 -7.5q37 0 49 51h97q-9 -78 -46 -131t-113 -53q-29 0 -60.5 9t-81.5 27q-39 15 -63 22t-43 7q-20 0 -33.5 -17t-18.5 -45h-96q7 79 46 135z" />
    <glyph glyph-name="asciitilde" unicode="~" horiz-adv-x="666" 
d="M85 295q51 99 137 99q58 0 120 -37q35 -20 58.5 -30t40.5 -10q25 0 44.5 18.5t42.5 52.5l65 -103q-27 -46 -59 -73t-80 -27q-30 0 -55 9t-57 29t-56 29t-51 9q-28 0 -48 -18t-36 -52z" />
    <glyph glyph-name="divide" unicode="&#xf7;" horiz-adv-x="666" 
d="M272 429q-26 25 -26 60q0 34 26 59t61 25t60.5 -25t25.5 -59q0 -35 -25.5 -60t-60.5 -25t-61 25zM79 367h507v-127h-507v127zM272 57.5q-26 25.5 -26 59.5t26 59t61 25t60.5 -25t25.5 -59q0 -35 -25.5 -60t-60.5 -25t-61 25.5z" />
    <glyph glyph-name="equal" unicode="=" horiz-adv-x="666" 
d="M68 458h530v-123h-530v123zM68 273h530v-123h-530v123z" />
    <glyph glyph-name="uni208C" unicode="&#x208c;" horiz-adv-x="422" 
d="M55 314h312v-72h-312v72zM55 206h312v-73h-312v73z" />
    <glyph glyph-name="uni207C" unicode="&#x207c;" horiz-adv-x="422" 
d="M55 602h312v-72h-312v72zM55 494h312v-73h-312v73z" />
    <glyph glyph-name="greater" unicode="&#x3e;" horiz-adv-x="666" 
d="M79 174l306 127l-306 131v136l508 -214v-103l-508 -214v137z" />
    <glyph glyph-name="greaterequal" unicode="&#x2265;" horiz-adv-x="666" 
d="M79 291l306 127l-306 131v136l508 -214v-103l-508 -214v137zM79 141h508v-123h-508v123z" />
    <glyph glyph-name="uni2206" unicode="&#x394;" horiz-adv-x="744" 
d="M690 108v-108h-674v109l224 599h228zM376 507q-1 4 -10.5 31t-12.5 49q-5 -30 -22 -79l-129 -367h304z" />
    <glyph glyph-name="uni2206" unicode="&#x2206;" horiz-adv-x="744" 
d="M690 108v-108h-674v109l224 599h228zM376 507q-1 4 -10.5 31t-12.5 49q-5 -30 -22 -79l-129 -367h304z" />
    <glyph glyph-name="infinity" unicode="&#x221e;" horiz-adv-x="837" 
d="M507.5 102.5q-45.5 27.5 -88.5 75.5q-47 -50 -88.5 -76t-99.5 -26q-56 0 -98 24.5t-65 67.5t-23 97q0 52 22 95t63.5 67.5t96.5 24.5q59 0 103.5 -28.5t88.5 -80.5q43 51 87.5 80.5t103.5 29.5q55 0 96.5 -24.5t63.5 -67.5t22 -95q0 -53 -22 -96.5t-63.5 -69t-97.5 -25.5
t-101.5 27.5zM656.5 213.5q17.5 19.5 17.5 49.5q0 31 -18 51t-49 20q-29 0 -57 -20.5t-57 -51.5q62 -68 117 -68q29 0 46.5 19.5zM344 262q-71 71 -117 71q-28 0 -46 -20.5t-18 -49.5q0 -31 18 -49.5t49 -18.5q51 0 114 67z" />
    <glyph glyph-name="integral" unicode="&#x222b;" horiz-adv-x="633" 
d="M118 -191q-39 23 -39 69q0 24 20.5 44t46.5 20q20 0 30.5 -10t18.5 -27q6 -11 10 -16t11 -5q8 0 14 32t6 95v496q0 88 7 141.5t42 95t111 41.5q43 0 83 -22.5t40 -66.5q0 -28 -18.5 -47.5t-47.5 -19.5q-21 0 -32 10.5t-21 28.5q-5 11 -9.5 16t-10.5 5q-10 0 -14.5 -30
t-4.5 -106v-494q0 -81 -19.5 -143t-55 -96t-83.5 -34q-46 0 -85 23z" />
    <glyph glyph-name="less" unicode="&#x3c;" horiz-adv-x="666" 
d="M79 251v103l508 214v-136l-306 -131l306 -127v-137z" />
    <glyph glyph-name="lessequal" unicode="&#x2264;" horiz-adv-x="666" 
d="M79 368v103l508 214v-136l-306 -131l306 -127v-137zM79 141h508v-123h-508v123z" />
    <glyph glyph-name="logicalnot" unicode="&#xac;" horiz-adv-x="666" 
d="M476 328h-425v123h555v-306h-130v183z" />
    <glyph glyph-name="uni00B5" unicode="&#xb5;" horiz-adv-x="672" 
d="M606 0h-133l-26 74h-8q-16 -41 -47.5 -62.5t-66.5 -21.5q-33 0 -50.5 9.5t-31.5 31.5h-2q6 -56 6 -115v-156h-181v738h181v-255q0 -58 18.5 -85t62.5 -27q53 0 74.5 44t21.5 126v197h182v-498z" />
    <glyph glyph-name="uni00B5" unicode="&#x3bc;" horiz-adv-x="672" 
d="M606 0h-133l-26 74h-8q-16 -41 -47.5 -62.5t-66.5 -21.5q-33 0 -50.5 9.5t-31.5 31.5h-2q6 -56 6 -115v-156h-181v738h181v-255q0 -58 18.5 -85t62.5 -27q53 0 74.5 44t21.5 126v197h182v-498z" />
    <glyph glyph-name="minus" unicode="&#x2212;" horiz-adv-x="666" 
d="M68 365h530v-123h-530v123z" />
    <glyph glyph-name="uni208B" unicode="&#x208b;" horiz-adv-x="421" 
d="M54 261h312v-73h-312v73z" />
    <glyph glyph-name="uni207B" unicode="&#x207b;" 
d="M54 534h312v-73h-312v73z" />
    <glyph glyph-name="multiply" unicode="&#xd7;" horiz-adv-x="666" 
d="M64 126l177 175l-178 174l94 91l177 -173l174 172l91 -87l-174 -173l179 -175l-94 -93l-177 173l-176 -173z" />
    <glyph glyph-name="notequal" unicode="&#x2260;" horiz-adv-x="666" 
d="M107 20l47 90h-102v127h167l43 84h-210v127h275l75 145l115 -55l-47 -90h99v-127h-164l-43 -84h207v-127h-273l-74 -146z" />
    <glyph glyph-name="partialdiff" unicode="&#x2202;" horiz-adv-x="666" 
d="M188 18q-56 31 -87.5 86t-31.5 125q0 66 29 118t83 81t128 29q65 0 118 -29l1 22q0 30 -15 60.5t-45 51t-70 20.5q-76 0 -137 -55l-77 101q93 93 215 93q105 0 170 -53t92.5 -134.5t27.5 -174.5q0 -152 -59.5 -262t-213.5 -110q-72 0 -128 31zM394 165q26 45 26 127
q-47 36 -92 36t-69 -29t-24 -77q0 -45 23.5 -73.5t60.5 -28.5q49 0 75 45z" />
    <glyph glyph-name="percent" unicode="%" horiz-adv-x="911" 
d="M207 10l413 730l93 -45l-417 -729zM123.5 367.5q-43.5 25.5 -69 69t-25.5 94.5q0 52 25.5 95.5t69 68.5t95.5 25t95.5 -25t69 -68.5t25.5 -95.5q0 -51 -25.5 -94.5t-69 -69t-95.5 -25.5t-95.5 25.5zM274 476.5q23 22.5 23 54.5t-23 55t-55 23t-55 -23t-23 -55t23 -54.5
t55 -22.5t55 22.5zM603.5 13.5q-43.5 25.5 -69 68.5t-25.5 95t25.5 95t69 68.5t95.5 25.5t95.5 -25.5t69 -68.5t25.5 -95t-25.5 -95t-69 -68.5t-95.5 -25.5t-95.5 25.5zM754 122.5q23 22.5 23 54.5t-23 55t-55 23t-55 -23t-23 -55t23 -54.5t55 -22.5t55 22.5z" />
    <glyph glyph-name="perthousand" unicode="&#x2030;" horiz-adv-x="1245" 
d="M183 9l388 731l89 -41l-388 -729zM124 387q-41 24 -65.5 65t-24.5 90t24.5 89.5t65.5 64.5t90 24q48 0 89.5 -24t66 -64.5t24.5 -89.5t-24.5 -90t-66 -65t-89.5 -24q-49 0 -90 24zM266.5 489.5q21.5 21.5 21.5 52.5t-21.5 52.5t-52.5 21.5t-52.5 -21t-21.5 -53
q0 -31 21.5 -52.5t52.5 -21.5t52.5 21.5zM542 12q-41 24 -65.5 65t-24.5 90t24.5 89.5t65.5 64.5t90 24q48 0 89.5 -24t66 -64.5t24.5 -89.5t-24.5 -90t-66 -65t-89.5 -24q-49 0 -90 24zM940.5 12q-41.5 24 -65.5 65t-24 90t24 89.5t65.5 64.5t89.5 24q49 0 90 -24
t65.5 -64.5t24.5 -89.5t-24.5 -90t-65.5 -65t-90 -24q-48 0 -89.5 24zM684.5 114.5q21.5 21.5 21.5 52.5t-21.5 52.5t-52.5 21.5t-52.5 -21t-21.5 -53q0 -31 21.5 -52.5t52.5 -21.5t52.5 21.5zM1083 114.5q21 21.5 21 52.5q0 32 -21 53t-53 21q-31 0 -52.5 -21t-21.5 -53
q0 -31 21.5 -52.5t52.5 -21.5q32 0 53 21.5z" />
    <glyph glyph-name="plus" unicode="+" horiz-adv-x="666" 
d="M269 240h-213v126h212v209h130v-209h213v-126h-212v-209h-130v209z" />
    <glyph glyph-name="uni208A" unicode="&#x208a;" horiz-adv-x="421" 
d="M173 187h-126v74h125v123h76v-123h126v-74h-125v-123h-76v123z" />
    <glyph glyph-name="plusminus" unicode="&#xb1;" horiz-adv-x="666" 
d="M274 331h-213v127h213v132h130v-132h212v-127h-212v-132h-130v132zM61 158h555v-127h-555v127z" />
    <glyph glyph-name="uni207A" unicode="&#x207a;" horiz-adv-x="421" 
d="M173 461h-126v74h125v123h76v-123h126v-74h-125v-123h-76v123z" />
    <glyph glyph-name="product" unicode="&#x220f;" horiz-adv-x="753" 
d="M59 786h636v-1000h-152v867h-333v-867h-151v1000z" />
    <glyph glyph-name="radical" unicode="&#x221a;" horiz-adv-x="569" 
d="M94 86l-51 -24l-54 114l175 79l112 -239l158 770h145l-214 -1000h-126z" />
    <glyph glyph-name="summation" unicode="&#x2211;" horiz-adv-x="666" 
d="M26 -103l292 395l-280 383v111h594v-133h-402l256 -360l-273 -374h431v-133h-618v111z" />
    <glyph glyph-name="uni2215" unicode="&#x2215;" horiz-adv-x="100" 
d="M-194 9l388 731l87 -41l-388 -729z" />
    <glyph glyph-name="uni2219" unicode="&#x2219;" horiz-adv-x="300" 
d="M79 221q-30 28 -30 69t30 70t72 29q41 0 70.5 -28.5t29.5 -69.5t-29.5 -69.5t-70.5 -28.5q-42 0 -72 28z" />
    <glyph glyph-name="lozenge" unicode="&#x25ca;" horiz-adv-x="606" 
d="M61 356l182 391h119l184 -391l-184 -391h-120zM405 356l-103 241l-101 -241l101 -241z" />
    <glyph glyph-name="bar" unicode="|" horiz-adv-x="241" 
d="M55 750h131v-1000h-130z" />
    <glyph glyph-name="brokenbar" unicode="&#xa6;" horiz-adv-x="241" 
d="M55 675h131v-362h-131v362zM55 187h131v-362h-131v362z" />
    <glyph glyph-name="at" unicode="@" horiz-adv-x="800" 
d="M215 29.5q-88 47.5 -137 132t-49 191.5q0 104 51.5 189.5t140 134.5t193.5 49q97 0 179 -37.5t131.5 -111t49.5 -176.5q0 -75 -26.5 -129.5t-73.5 -83t-105 -28.5q-39 0 -65 17.5t-30 46.5h-4q-15 -26 -46 -45t-73 -19q-67 0 -105.5 47t-38.5 122q0 57 24 109t68 84
t100 32q37 0 62.5 -15.5t32.5 -38.5h1l7 34h108l-31 -157q-13 -59 -13 -83q0 -36 29 -36q32 0 54.5 36.5t22.5 102.5q0 114 -71 176t-188 62q-80 0 -142.5 -36.5t-97 -101t-34.5 -144.5q0 -84 36.5 -146.5t101.5 -96.5t149 -34q136 0 230 86l63 -70q-57 -55 -134 -82.5
t-170 -27.5q-112 0 -200 47.5zM443 297q22 38 22 82q0 78 -56 78q-36 0 -59.5 -40.5t-23.5 -87.5q0 -29 13 -49.5t42 -20.5q40 0 62 38z" />
    <glyph glyph-name="ampersand" unicode="&#x26;" horiz-adv-x="781" 
d="M174 9.5q-58 23.5 -93.5 71t-35.5 116.5q0 70 41.5 118.5t106.5 77.5q-73 71 -73 154q0 61 32 101.5t82.5 59.5t106.5 19q57 0 106 -19.5t79.5 -60t30.5 -100.5q0 -63 -38 -107.5t-104 -77.5l89 -91l71 109h182l-153 -205l176 -175h-207l-67 69q-78 -83 -207 -83
q-67 0 -125 23.5zM387.5 488.5q22.5 23.5 22.5 53.5q0 28 -18.5 46.5t-48.5 18.5q-29 0 -48.5 -18.5t-19.5 -46.5q0 -48 53 -92q37 15 59.5 38.5zM409 169l-125 130q-34 -14 -54.5 -36t-20.5 -59q0 -40 29 -64.5t67 -24.5q64 0 104 54z" />
    <glyph glyph-name="paragraph" unicode="&#xb6;" horiz-adv-x="618" 
d="M238 335q-98 2 -156 52t-58 131q0 102 66 146t178 44h287v-837h-116v737h-85v-737h-116v464z" />
    <glyph glyph-name="uni2105" unicode="&#x2105;" horiz-adv-x="942" 
d="M206 10l416 730l90 -45l-417 -729zM137 369q-45 23 -71.5 65.5t-26.5 99.5t26.5 100t72 66.5t100.5 23.5q35 0 69 -9.5t58 -24.5l-35 -103q-15 10 -40.5 19t-49.5 9q-33 0 -54 -22t-21 -59q0 -32 24.5 -55.5t59.5 -23.5q49 0 84 27l36 -97q-26 -19 -60 -29t-71 -10
q-56 0 -101 23zM607 12q-45 24 -71.5 67.5t-26.5 99.5t26.5 98.5t71.5 65.5t99 23t99 -23t71.5 -65.5t26.5 -98.5t-26.5 -99.5t-71.5 -67.5t-99 -24t-99 24zM762 121.5q20 24.5 20 57.5q0 32 -20.5 55.5t-55.5 23.5q-36 0 -56 -23.5t-20 -55.5q0 -33 20 -57.5t56 -24.5
t56 24.5z" />
    <glyph glyph-name="copyright" unicode="&#xa9;" horiz-adv-x="800" 
d="M210.5 28q-87.5 50 -139 136t-51.5 189t51.5 189.5t139 137t190.5 50.5t190 -50.5t138 -137t51 -189.5t-51 -189t-138 -136t-190 -50t-190.5 50zM559.5 77q73.5 43 117 116.5t43.5 159.5q0 87 -43 161t-116 117t-160 43t-161 -43t-117 -117t-43 -161t43 -160t116 -116
t160 -43t160.5 43zM299 149.5q-54 27.5 -85.5 79.5t-31.5 123q0 69 32 121t86 80t119 28q42 0 86.5 -15t69.5 -37l-31 -100q-20 20 -55.5 35t-70.5 15q-53 0 -83.5 -34t-30.5 -92q0 -57 31 -92.5t89 -35.5q35 0 69 11t55 28l16 -99q-25 -20 -63 -31.5t-82 -11.5
q-66 0 -120 27.5z" />
    <glyph glyph-name="registered" unicode="&#xae;" horiz-adv-x="600" 
d="M186.5 297q-52.5 30 -83.5 81.5t-31 113.5t31 114t83.5 82.5t114.5 30.5t114 -30.5t82.5 -82.5t30.5 -114t-30.5 -113.5t-82.5 -81.5t-114 -30t-114.5 30zM397 326q44 26 69.5 70t25.5 96t-25.5 96t-69.5 70t-96 26q-53 0 -97 -26t-70 -70t-26 -96t26 -96t70 -70t97 -26
q52 0 96 26zM191 631h114q50 0 85.5 -20t35.5 -66q0 -26 -12.5 -45.5t-35.5 -28.5l61 -106h-100l-44 94h-16v-94h-88v266zM305 521q12 0 20 6.5t8 16.5q0 8 -8.5 13t-19.5 5h-26v-41h26z" />
    <glyph glyph-name="uni2117" unicode="&#x2117;" horiz-adv-x="800" 
d="M71.5 542.5q51.5 86.5 139 137t190.5 50.5t190 -50.5t138 -137t51 -189.5t-51 -189t-138 -136t-190 -50t-190.5 50t-139 136t-51.5 189t51.5 189.5zM123 193q43 -73 116 -116t160 -43t160.5 43t117 116.5t43.5 159.5q0 87 -43 161t-116 117t-160 43t-161 -43t-117 -117
t-43 -161t43 -160zM438 569q80 0 128.5 -37t48.5 -111t-50 -112.5t-127 -38.5h-59v-145h-119v444h178zM481.5 379.5q16.5 13.5 16.5 40.5q0 26 -16.5 39.5t-45.5 13.5h-57v-107h55q31 0 47.5 13.5z" />
    <glyph glyph-name="section" unicode="&#xa7;" horiz-adv-x="607" 
d="M148 -116.5q-70 31.5 -108 89.5l122 87q21 -36 59 -54.5t75 -18.5q28 0 50.5 13.5t22.5 37.5q0 21 -13 35t-38 25t-80 30q-58 20 -95 40t-59 51.5t-22 78.5q0 48 24 82t62 56q-53 39 -53 113q0 58 34.5 98t87.5 59.5t108 19.5q74 0 134 -26.5t94 -76.5l-116 -88
q-18 27 -47 43.5t-58 16.5q-28 0 -49.5 -12.5t-21.5 -36.5q0 -25 26.5 -42.5t90.5 -39.5q89 -33 136.5 -74t47.5 -111q0 -39 -20.5 -72.5t-54.5 -52.5q50 -35 50 -110q0 -65 -36 -108t-92 -63.5t-116 -20.5q-75 0 -145 31.5zM406 233q8 14 8 30q0 27 -20 43.5t-58 32.5
l-86 35q-41 -17 -41 -53q0 -27 19.5 -41.5t60.5 -30.5l94 -37q15 7 23 21z" />
    <glyph glyph-name="trademark" unicode="&#x2122;" horiz-adv-x="1000" 
d="M158 613h-123l10 95h346l-10 -95h-113v-317h-110v317zM461 708h150l95 -260l92 260h150v-412h-106v259h-2l-97 -259h-79l-96 259h-2v-259h-105v412z" />
    <glyph glyph-name="degree" unicode="&#xb0;" horiz-adv-x="416" 
d="M123.5 412.5q-38.5 22.5 -61 61t-22.5 84.5t22.5 84.5t61 60.5t84.5 22t84.5 -22t61 -60.5t22.5 -84.5t-22.5 -84.5t-61 -61t-84.5 -22.5t-84.5 22.5zM270.5 495.5q25.5 25.5 25.5 62.5q0 36 -25.5 62t-62.5 26t-62.5 -26t-25.5 -62q0 -37 25.5 -62.5t62.5 -25.5
t62.5 25.5z" />
    <glyph glyph-name="estimated" unicode="&#x212e;" horiz-adv-x="500" 
d="M157 78q59 -59 145 -59q63 0 109.5 28.5t83.5 91.5l35 -21q-46 -72 -98 -103.5t-130 -31.5q-77 0 -135.5 36.5t-90.5 99.5t-32 140t32 140t90.5 99.5t135.5 36.5q76 0 134.5 -35t91.5 -98t33 -143h-404v-181zM448 440q-63 60 -147 60t-144 -60v-145h291v145z" />
    <glyph glyph-name="uni2113" unicode="&#x2113;" horiz-adv-x="500" 
d="M378 3q-44 -17 -94 -17q-82 0 -127.5 42.5t-45.5 108.5v25l-54 -45h-2l-54 84l109 86v233q0 56 24.5 102t68.5 72.5t99 26.5q73 0 116.5 -42.5t43.5 -112.5q0 -77 -47 -149t-149 -154v-101q0 -33 16.5 -48t40.5 -15q36 0 88 37h2l52 -80q-43 -36 -87 -53zM326.5 601
q-9.5 18 -25.5 18q-15 0 -25 -19.5t-10 -49.5v-157q70 71 70 164q0 26 -9.5 44z" />
    <glyph glyph-name="asciicircum" unicode="^" horiz-adv-x="690" 
d="M286 708h118l212 -365h-148l-124 213l-123 -213h-148z" />
    <glyph glyph-name="dagger" unicode="&#x2020;" horiz-adv-x="603" 
d="M229 382h-191v125h191v201h142v-201h194v-125h-194v-511h-142v511z" />
    <glyph glyph-name="daggerdbl" unicode="&#x2021;" horiz-adv-x="603" 
d="M231 50h-189v124h189v232h-189v123h188v179h142v-179h190v-123h-190v-232h190v-124h-190v-179h-141v179z" />
    <glyph glyph-name="uniF8FF" unicode="&#xf8ff;" horiz-adv-x="512" 
d="M0 718h512v-718h-512v718zM462 50v617h-412v-617h412zM223 251q0 50 11 76.5t48 63.5q31 29 40.5 46t9.5 37q0 36 -22.5 60.5t-53.5 24.5q-33 0 -54.5 -23t-27.5 -72l-50 8q7 69 43 103t92 34q54 0 89 -36t35 -95q0 -34 -13 -60t-50 -60q-24 -22 -34 -36t-12.5 -31.5
t-2.5 -56.5h-46zM222 184h56v-67h-56v67z" />
    <glyph glyph-name="uni0374" unicode="&#x374;" horiz-adv-x="245" 
d="M69 544l39 194h176l-96 -194h-119z" />
    <glyph glyph-name="uni0375" unicode="&#x375;" horiz-adv-x="245" 
d="M284 25l-39 -194h-176l96 194h119z" />
    <glyph glyph-name="uni0326" unicode="&#x326;" horiz-adv-x="0" 
d="M-210 -45h145l-86 -195h-126z" />
    <glyph glyph-name="uni0326.alt" horiz-adv-x="0" 
d="M-158 767h126l-67 -195h-145z" />
    <glyph glyph-name="uni02C9" unicode="&#x2c9;" horiz-adv-x="300" 
d="M-18 879h336v-86h-336v86z" />
    <glyph glyph-name="acute" unicode="&#xb4;" horiz-adv-x="300" 
d="M173 716h166l-146 -144h-124z" />
    <glyph glyph-name="breve" unicode="&#x2d8;" horiz-adv-x="300" 
d="M28 607q-47 35 -52 109h84q10 -55 90 -55q39 0 61.5 11.5t28.5 43.5h84q-6 -74 -53 -109t-122 -35q-74 0 -121 35z" />
    <glyph glyph-name="caron" unicode="&#x2c7;" horiz-adv-x="300" 
d="M-47 716h130l68 -81l68 81h128l-123 -144h-147z" />
    <glyph glyph-name="cedilla" unicode="&#xb8;" horiz-adv-x="300" 
d="M72.5 -233q-32.5 7 -55.5 18l27 60q40 -19 84 -19q20 0 35 7.5t15 25.5q0 16 -14 22.5t-33 6.5q-22 0 -40 -6l-31 29l67 89h82l-47 -60q7 1 18 1q44 0 73.5 -18.5t29.5 -64.5q0 -52 -44.5 -75t-102.5 -23q-31 0 -63.5 7z" />
    <glyph glyph-name="circumflex" unicode="&#x2c6;" horiz-adv-x="300" 
d="M77 716h148l122 -144h-130l-68 81l-68 -81h-128z" />
    <glyph glyph-name="dieresis" unicode="&#xa8;" horiz-adv-x="300" 
d="M-17.5 600q-24.5 24 -24.5 58q0 33 24.5 57t58.5 24q35 0 59.5 -23.5t24.5 -57.5t-24.5 -58t-59.5 -24q-34 0 -58.5 24zM200 600q-24 24 -24 58q0 32 24.5 56.5t58.5 24.5t58.5 -23.5t24.5 -57.5t-24.5 -58t-58.5 -24q-35 0 -59 24z" />
    <glyph glyph-name="dotaccent" unicode="&#x2d9;" horiz-adv-x="300" 
d="M87 597q-26 25 -26 60t26 60.5t63 25.5q38 0 64 -25t26 -61t-26 -60.5t-64 -24.5q-37 0 -63 25z" />
    <glyph glyph-name="grave" unicode="`" horiz-adv-x="300" 
d="M-39 716h166l104 -144h-124z" />
    <glyph glyph-name="hungarumlaut" unicode="&#x2dd;" horiz-adv-x="300" 
d="M70 716h166l-146 -144h-124zM290 716h166l-146 -144h-124z" />
    <glyph glyph-name="macron" unicode="&#xaf;" horiz-adv-x="300" 
d="M-18 687h336v-86h-336v86z" />
    <glyph glyph-name="ogonek" unicode="&#x2db;" horiz-adv-x="300" 
d="M45.5 -213q-33.5 23 -33.5 68q0 40 32 79t76 70h91q-95 -75 -95 -122q0 -16 10.5 -26t26.5 -10q27 0 55 20l32 -62q-24 -18 -54.5 -29t-60.5 -11q-46 0 -79.5 23z" />
    <glyph glyph-name="ring" unicode="&#x2da;" horiz-adv-x="300" 
d="M73 587.5q-32 30.5 -32 75.5q0 46 31.5 77t77.5 31q45 0 77 -31t32 -76q0 -46 -31.5 -76.5t-77.5 -30.5q-45 0 -77 30.5zM192 622.5q17 16.5 17 41.5t-17 41.5t-42 16.5t-42 -17t-17 -42q0 -24 17 -40.5t42 -16.5t42 16.5z" />
    <glyph glyph-name="tilde" unicode="&#x2dc;" horiz-adv-x="300" 
d="M-1 671q27 36 78 36q37 0 80 -20t65 -20q18 0 27.5 10.5t14.5 30.5h71q-7 -58 -34.5 -95t-78.5 -37q-35 0 -81 21q-39 20 -63 20q-31 0 -42 -40h-72q8 58 35 94z" />
    <glyph glyph-name="caron.alt" horiz-adv-x="300" 
d="M136 708h145l-86 -195h-126z" />
    <glyph glyph-name="acute.cap" horiz-adv-x="300" 
d="M169 908h166l-146 -144h-124z" />
    <glyph glyph-name="breve.cap" horiz-adv-x="300" 
d="M28 799q-47 35 -52 109h84q5 -30 30 -42.5t60 -12.5q39 0 61.5 11.5t28.5 43.5h84q-6 -74 -53 -109t-122 -35q-74 0 -121 35z" />
    <glyph glyph-name="caron.cap" horiz-adv-x="300" 
d="M-47 908h130l68 -81l68 81h128l-123 -144h-147z" />
    <glyph glyph-name="circumflex.cap" horiz-adv-x="300" 
d="M77 908h148l122 -144h-130l-68 81l-68 -81h-128z" />
    <glyph glyph-name="dieresis.cap" horiz-adv-x="300" 
d="M-17.5 792q-24.5 24 -24.5 58q0 33 24.5 57t58.5 24q35 0 59.5 -23.5t24.5 -57.5t-24.5 -58t-59.5 -24q-34 0 -58.5 24zM200 792q-24 24 -24 58q0 33 24 57t59 24q34 0 58.5 -23.5t24.5 -57.5t-24.5 -58t-58.5 -24q-35 0 -59 24z" />
    <glyph glyph-name="dotaccent.cap" horiz-adv-x="300" 
d="M87 789q-26 25 -26 60t26 60.5t63 25.5q38 0 64 -25t26 -61t-26 -60.5t-64 -24.5q-37 0 -63 25z" />
    <glyph glyph-name="grave.cap" horiz-adv-x="300" 
d="M-35 908h166l104 -144h-124z" />
    <glyph glyph-name="hungarumlaut.cap" horiz-adv-x="300" 
d="M70 908h166l-146 -144h-124zM290 908h166l-146 -144h-124z" />
    <glyph glyph-name="macron.cap" horiz-adv-x="300" 
d="M-18 879h336v-86h-336v86z" />
    <glyph glyph-name="ring.cap" horiz-adv-x="300" 
d="M73 779.5q-32 30.5 -32 75.5q0 46 31.5 77t77.5 31q45 0 77 -31t32 -76q0 -46 -31.5 -76.5t-77.5 -30.5q-45 0 -77 30.5zM192 814.5q17 16.5 17 41.5t-17 41.5t-42 16.5t-42 -17t-17 -42q0 -24 17 -40.5t42 -16.5t42 16.5z" />
    <glyph glyph-name="tilde.cap" horiz-adv-x="300" 
d="M141 789q-39 20 -63 20q-31 0 -42 -40h-72q8 58 35 94t78 36q37 0 80 -20t65 -20q18 0 27.5 10.5t14.5 30.5h71q-7 -58 -34.5 -95t-78.5 -37q-35 0 -81 21z" />
    <glyph glyph-name="cyrbreve.cap" horiz-adv-x="300" 
d="M32.5 799q-46.5 35 -57.5 105l85 17q4 -31 28 -49t62 -18q37 0 61 18t28 49l86 -17q-12 -70 -58 -105t-117 -35t-117.5 35z" />
    </font>
</defs>
</svg>
