<?xml version="1.0" standalone="no"?>
<!DOCTYPE svg PUBLIC "-//W3C//DTD SVG 1.1//EN" "http://www.w3.org/Graphics/SVG/1.1/DTD/svg11.dtd" >
<svg>
<metadata>
Created by FontForge 20120731 at Mon Jun 27 19:06:05 2016
 By ,,,
Copyright (c) 2015 Rogers Communications
</metadata>
<defs>
<font id="TedNext" horiz-adv-x="367" >
  <font-face 
    font-family="Ted Next"
    font-weight="400"
    font-stretch="normal"
    units-per-em="1000"
    panose-1="2 0 5 7 0 0 0 0 0 4"
    ascent="800"
    descent="-200"
    x-height="468"
    cap-height="708"
    bbox="-196 -250 1010 948"
    underline-thickness="50"
    underline-position="-50"
    unicode-range="U+000D-FB04"
  />
<missing-glyph horiz-adv-x="512" 
d="M0 718h512v-718h-512v718zM462 50v617h-412v-617h412zM223 251q0 56 13 81q15 28 46 59q31 29 40.5 46t9.5 37q0 36 -22.5 60.5t-53.5 24.5q-33 0 -54.5 -23t-27.5 -72l-50 8q7 69 43 103t92 34q54 0 89 -36t35 -95q0 -34 -13 -60t-50 -60q-37 -33 -43 -52t-6 -72h-46z
M222 184h56v-67h-56v67z" />
    <glyph glyph-name="f_f" unicode="ff" horiz-adv-x="605" 
d="M496 687q-21 -33 -21 -84v-135h122l-14 -46h-108v-422h-58v422h-243v-422h-58v422h-98l12 46h85v136q0 82 39 123.5t107 41.5q23 0 46.5 -3t38.5 -8l-7 -48q-38 10 -74 10q-49 0 -70 -33t-21 -84v-135h242v136q0 82 39 123.5t107 41.5q23 0 46.5 -3t38.5 -8l-7 -48
q-38 10 -74 10q-49 0 -70 -33z" />
    <glyph glyph-name="f_f_i" unicode="ffi" horiz-adv-x="831" 
d="M454 727.5q38 41.5 104 41.5q23 0 47 -3t38 -8l-7 -48q-35 10 -72 10q-48 0 -68.5 -33t-20.5 -84v-135h120l-13 -46h-107v-422h-59v422h-242v-422h-58v422h-98l12 46h85v136q0 82 39 123.5t107 41.5q23 0 46.5 -3t38.5 -8l-7 -48q-38 10 -74 10q-49 0 -70 -33t-21 -84
v-135h242v136q0 82 38 123.5zM745 625.5q-12 -12.5 -29 -12.5t-29.5 12.5t-12.5 30.5q0 17 12.5 29.5t29.5 12.5q16 0 28.5 -12t12.5 -30t-12 -30.5zM687 468h58v-468h-58v468z" />
    <glyph glyph-name="f_f_l" unicode="ffl" horiz-adv-x="814" 
d="M730 67q10 -16 34 -29l-26 -49q-35 11 -55.5 40t-20.5 75v600q-46 16 -93 16q-61 0 -90.5 -37.5t-29.5 -99.5v-115h121l-14 -46h-107v-422h-58v422h-217v-422h-58v422h-98l12 46h85v136q0 82 39 123.5t107 41.5q23 0 46.5 -3t38.5 -8l-7 -48q-38 10 -74 10q-49 0 -70 -33
t-21 -84v-135h216v116q0 92 48.5 138.5t128.5 46.5q46 0 103 -16l50 9v-645q0 -34 10 -50z" />
    <glyph glyph-name="fi" unicode="fi" horiz-adv-x="536" 
d="M116 422h-98l12 46h85v136q0 82 38.5 123.5t104.5 41.5q23 0 46.5 -3t38.5 -8l-7 -48q-37 10 -73 10q-48 0 -68.5 -33t-20.5 -84v-135h120l-13 -46h-107v-422h-58v422zM384.5 625.5q-12.5 12.5 -12.5 30.5q0 17 12.5 29.5t29.5 12.5t29.5 -12t12.5 -30t-12.5 -30.5
t-29.5 -12.5t-29.5 12.5zM385 468h59v-468h-59v468z" />
    <glyph glyph-name="fl" unicode="fl" horiz-adv-x="539" 
d="M454.5 66.5q9.5 -16.5 34.5 -28.5l-27 -49q-34 11 -55 40t-21 75v600q-17 6 -42.5 11t-50.5 5q-61 0 -90 -37.5t-29 -99.5v-115h120l-13 -46h-107v-422h-58v422h-98l12 46h85v116q0 91 48.5 138t127.5 47q47 0 104 -16l50 9v-645q0 -34 9.5 -50.5z" />
    <glyph glyph-name=".notdef" horiz-adv-x="512" 
d="M0 718h512v-718h-512v718zM462 50v617h-412v-617h412zM223 251q0 56 13 81q15 28 46 59q31 29 40.5 46t9.5 37q0 36 -22.5 60.5t-53.5 24.5q-33 0 -54.5 -23t-27.5 -72l-50 8q7 69 43 103t92 34q54 0 89 -36t35 -95q0 -34 -13 -60t-50 -60q-37 -33 -43 -52t-6 -72h-46z
M222 184h56v-67h-56v67z" />
    <glyph glyph-name="NULL" horiz-adv-x="0" 
 />
    <glyph glyph-name="nonmarkingreturn" unicode="&#xd;" horiz-adv-x="250" 
 />
    <glyph glyph-name="space" unicode=" " horiz-adv-x="250" 
 />
    <glyph glyph-name="A" unicode="A" horiz-adv-x="686" 
d="M315 708h63l297 -708h-67l-108 262h-315l-108 -262h-66zM481 313l-136 334l-140 -334h276z" />
    <glyph glyph-name="Aacute" unicode="&#xc1;" horiz-adv-x="686" 
d="M315 708h63l297 -708h-67l-108 262h-315l-108 -262h-66zM481 313l-136 334l-140 -334h276zM421 908h67l-122 -144h-48z" />
    <glyph glyph-name="Abreve" unicode="&#x102;" horiz-adv-x="686" 
d="M315 708h63l297 -708h-67l-108 262h-315l-108 -262h-66zM481 313l-136 334l-140 -334h276zM249.5 805q-37.5 34 -43.5 97h36q8 -44 35.5 -66.5t66.5 -22.5q86 0 104 89h37q-8 -63 -46 -97t-95 -34t-94.5 34z" />
    <glyph glyph-name="Acircumflex" unicode="&#xc2;" horiz-adv-x="686" 
d="M315 708h63l297 -708h-67l-108 262h-315l-108 -262h-66zM481 313l-136 334l-140 -334h276zM315 908h62l108 -144h-52l-87 117l-87 -117h-52z" />
    <glyph glyph-name="Adieresis" unicode="&#xc4;" horiz-adv-x="686" 
d="M315 708h63l297 -708h-67l-108 262h-315l-108 -262h-66zM481 313l-136 334l-140 -334h276zM230 825q-12 12 -12 29t12.5 29t28.5 12q17 0 29 -12t12 -29q0 -18 -12 -29.5t-29 -11.5t-29 12zM405 825q-12 12 -12 29t12 29t29 12t29 -12t12 -29q0 -18 -12 -29.5t-29 -11.5
t-29 12z" />
    <glyph glyph-name="Agrave" unicode="&#xc0;" horiz-adv-x="686" 
d="M315 708h63l297 -708h-67l-108 262h-315l-108 -262h-66zM481 313l-136 334l-140 -334h276zM205 908h68l102 -144h-48z" />
    <glyph glyph-name="Amacron" unicode="&#x100;" horiz-adv-x="686" 
d="M315 708h63l297 -708h-67l-108 262h-315l-108 -262h-66zM481 313l-136 334l-140 -334h276zM216 851h260v-40h-260v40z" />
    <glyph glyph-name="Aogonek" unicode="&#x104;" horiz-adv-x="686" 
d="M696 -191q-17 -16 -41 -25t-49 -9q-38 0 -64.5 22.5t-26.5 60.5q0 36 25 69.5t68 72.5l-108 262h-315l-108 -262h-66l304 708h63l297 -708h-25q-47 -45 -67.5 -74t-20.5 -58q0 -25 15.5 -40t40.5 -15q17 0 33.5 7t27.5 19zM481 313l-136 334l-140 -334h276z" />
    <glyph glyph-name="Aring" unicode="&#xc5;" horiz-adv-x="686" 
d="M315 708h63l297 -708h-67l-108 262h-315l-108 -262h-66zM481 313l-136 334l-140 -334h276zM277 782q-29 28 -29 69t29 69t69 28q41 0 69.5 -28t28.5 -69t-28.5 -69t-69.5 -28q-40 0 -69 28zM395.5 801.5q20.5 20.5 20.5 49.5t-20.5 49.5t-49.5 20.5t-49.5 -20.5
t-20.5 -49.5t20.5 -49.5t49.5 -20.5t49.5 20.5z" />
    <glyph glyph-name="Atilde" unicode="&#xc3;" horiz-adv-x="686" 
d="M315 708h63l297 -708h-67l-108 262h-315l-108 -262h-66zM481 313l-136 334l-140 -334h276zM381 791.5q-15 5.5 -38 18.5q-22 13 -35.5 18t-26.5 5q-33 0 -43 -49h-32q5 41 24 65t51 24q16 0 31.5 -5.5t37.5 -17.5q23 -13 36 -18t26 -5q34 0 42 47h33q-5 -41 -24 -64.5
t-51 -23.5q-16 0 -31 5.5z" />
    <glyph glyph-name="AE" unicode="&#xc6;" horiz-adv-x="955" 
d="M465 708h420l-12 -53h-312v-263h291l-11 -51h-280v-287h340l-12 -54h-387v259h-252l-166 -259h-71zM502 310v345h-5l-219 -345h224z" />
    <glyph glyph-name="AEacute" unicode="&#x1fc;" horiz-adv-x="955" 
d="M465 708h420l-12 -53h-312v-263h291l-11 -51h-280v-287h340l-12 -54h-387v259h-252l-166 -259h-71zM502 310v345h-5l-219 -345h224zM683 908h67l-122 -144h-48z" />
    <glyph glyph-name="B" unicode="B" horiz-adv-x="582" 
d="M97 708h165q96 0 161 -40t65 -133q0 -64 -38 -104.5t-97 -55.5v-2q42 -5 80 -26.5t62.5 -60t24.5 -92.5q0 -100 -70.5 -147t-173.5 -47h-179v708zM259 395q70 0 119.5 33.5t49.5 99.5q0 68 -49.5 98.5t-129.5 30.5h-92v-262h102zM265 51q87 0 140.5 35.5t53.5 109.5
q0 75 -53.5 112.5t-130.5 37.5h-118v-295h108z" />
    <glyph glyph-name="C" unicode="C" horiz-adv-x="718" 
d="M239.5 29q-83.5 48 -130.5 133t-47 192t47.5 192t131.5 133t189 48q71 0 138.5 -24t107.5 -60l-18 -60q-37 38 -98.5 63.5t-128.5 25.5q-89 0 -158.5 -42.5t-107.5 -115t-38 -160.5t38 -160.5t107 -115t160 -42.5q69 0 129.5 26.5t103.5 68.5l14 -55q-37 -39 -106 -67
t-144 -28q-106 0 -189.5 48z" />
    <glyph glyph-name="Cacute" unicode="&#x106;" horiz-adv-x="718" 
d="M239.5 29q-83.5 48 -130.5 133t-47 192t47.5 192t131.5 133t189 48q71 0 138.5 -24t107.5 -60l-18 -60q-37 38 -98.5 63.5t-128.5 25.5q-89 0 -158.5 -42.5t-107.5 -115t-38 -160.5t38 -160.5t107 -115t160 -42.5q69 0 129.5 26.5t103.5 68.5l14 -55q-37 -39 -106 -67
t-144 -28q-106 0 -189.5 48zM478 908h67l-122 -144h-48z" />
    <glyph glyph-name="Ccaron" unicode="&#x10c;" horiz-adv-x="718" 
d="M239.5 29q-83.5 48 -130.5 133t-47 192t47.5 192t131.5 133t189 48q71 0 138.5 -24t107.5 -60l-18 -60q-37 38 -98.5 63.5t-128.5 25.5q-89 0 -158.5 -42.5t-107.5 -115t-38 -160.5t38 -160.5t107 -115t160 -42.5q69 0 129.5 26.5t103.5 68.5l14 -55q-37 -39 -106 -67
t-144 -28q-106 0 -189.5 48zM290 908h52l87 -117l87 117h52l-108 -144h-62z" />
    <glyph glyph-name="Ccedilla" unicode="&#xc7;" horiz-adv-x="718" 
d="M428 -19l-40 -60q21 6 42 6q36 0 62.5 -17t26.5 -54q0 -46 -36.5 -65.5t-83.5 -19.5q-22 0 -48.5 5.5t-47.5 15.5l11 29q35 -17 83 -17q30 0 53 12t23 40q0 23 -18.5 33.5t-44.5 10.5q-13 0 -30 -3.5t-27 -8.5l-16 14l55 81q-96 8 -171 58t-117 131t-42 182
q0 107 47.5 192t131.5 133t189 48q71 0 138.5 -24t107.5 -60l-18 -60q-37 38 -98.5 63.5t-128.5 25.5q-89 0 -158.5 -42.5t-107.5 -115t-38 -160.5t38 -160.5t107 -115t160 -42.5q69 0 129.5 26.5t103.5 68.5l14 -55q-37 -39 -106 -67t-144 -28h-1z" />
    <glyph glyph-name="Ccircumflex" unicode="&#x108;" horiz-adv-x="718" 
d="M239.5 29q-83.5 48 -130.5 133t-47 192t47.5 192t131.5 133t189 48q71 0 138.5 -24t107.5 -60l-18 -60q-37 38 -98.5 63.5t-128.5 25.5q-89 0 -158.5 -42.5t-107.5 -115t-38 -160.5t38 -160.5t107 -115t160 -42.5q69 0 129.5 26.5t103.5 68.5l14 -55q-37 -39 -106 -67
t-144 -28q-106 0 -189.5 48zM398 908h62l108 -144h-52l-87 117l-87 -117h-52z" />
    <glyph glyph-name="Cdotaccent" unicode="&#x10a;" horiz-adv-x="718" 
d="M239.5 29q-83.5 48 -130.5 133t-47 192t47.5 192t131.5 133t189 48q71 0 138.5 -24t107.5 -60l-18 -60q-37 38 -98.5 63.5t-128.5 25.5q-89 0 -158.5 -42.5t-107.5 -115t-38 -160.5t38 -160.5t107 -115t160 -42.5q69 0 129.5 26.5t103.5 68.5l14 -55q-37 -39 -106 -67
t-144 -28q-106 0 -189.5 48zM397 825q-12 12 -12 30q0 17 12 29t29 12t29.5 -12t12.5 -29q0 -18 -13 -30t-29 -12q-17 0 -29 12z" />
    <glyph glyph-name="D" unicode="D" horiz-adv-x="767" 
d="M97 708h220q107 0 195 -38t140.5 -117.5t52.5 -198.5q0 -117 -52.5 -196.5t-140.5 -118.5t-194 -39h-221v708zM307 54q99 0 174.5 34t118 101.5t42.5 164.5t-42.5 164.5t-118 101.5t-173.5 34h-151v-600h150z" />
    <glyph glyph-name="Eth" unicode="&#xd0;" horiz-adv-x="767" 
d="M95 347h-75v43h75v318h222q107 0 194 -38.5t139 -118t52 -197.5q0 -116 -52.5 -196t-140 -119t-192.5 -39h-222v347zM303 54q100 0 176 34.5t118 102t42 163.5t-41.5 163.5t-116.5 102t-175 34.5h-150v-264h250v-43h-250v-293h147z" />
    <glyph glyph-name="Dcaron" unicode="&#x10e;" horiz-adv-x="767" 
d="M97 708h220q107 0 195 -38t140.5 -117.5t52.5 -198.5q0 -117 -52.5 -196.5t-140.5 -118.5t-194 -39h-221v708zM307 54q99 0 174.5 34t118 101.5t42.5 164.5t-42.5 164.5t-118 101.5t-173.5 34h-151v-600h150zM214 908h52l87 -117l87 117h52l-108 -144h-62z" />
    <glyph glyph-name="Dcroat" unicode="&#x110;" horiz-adv-x="767" 
d="M95 347h-75v43h75v318h222q107 0 194 -38.5t139 -118t52 -197.5q0 -116 -52.5 -196t-140 -119t-192.5 -39h-222v347zM303 54q100 0 176 34.5t118 102t42 163.5t-41.5 163.5t-116.5 102t-175 34.5h-150v-264h250v-43h-250v-293h147z" />
    <glyph glyph-name="E" unicode="E" horiz-adv-x="545" 
d="M97 708h379l-12 -53h-308v-263h296l-12 -51h-284v-287h335l-12 -54h-382v708z" />
    <glyph glyph-name="Eacute" unicode="&#xc9;" horiz-adv-x="545" 
d="M97 708h379l-12 -53h-308v-263h296l-12 -51h-284v-287h335l-12 -54h-382v708zM341 906h67l-122 -144h-48z" />
    <glyph glyph-name="Ebreve" unicode="&#x114;" horiz-adv-x="545" 
d="M97 708h379l-12 -53h-308v-263h296l-12 -51h-284v-287h335l-12 -54h-382v708zM192.5 793q-37.5 34 -43.5 97h36q8 -44 35.5 -66.5t66.5 -22.5q86 0 104 89h37q-8 -63 -46 -97t-95 -34t-94.5 34z" />
    <glyph glyph-name="Ecaron" unicode="&#x11a;" horiz-adv-x="545" 
d="M97 708h379l-12 -53h-308v-263h296l-12 -51h-284v-287h335l-12 -54h-382v708zM151 907h52l87 -117l87 117h52l-108 -144h-62z" />
    <glyph glyph-name="Ecircumflex" unicode="&#xca;" horiz-adv-x="545" 
d="M97 708h379l-12 -53h-308v-263h296l-12 -51h-284v-287h335l-12 -54h-382v708zM261 906h62l108 -144h-52l-87 117l-87 -117h-52z" />
    <glyph glyph-name="Edieresis" unicode="&#xcb;" horiz-adv-x="545" 
d="M97 708h379l-12 -53h-308v-263h296l-12 -51h-284v-287h335l-12 -54h-382v708zM165 825q-12 12 -12 29t12.5 29t28.5 12q17 0 29 -12t12 -29q0 -18 -12 -29.5t-29 -11.5t-29 12zM340 825q-12 12 -12 29t12 29t29 12t29 -12t12 -29q0 -18 -12 -29.5t-29 -11.5t-29 12z" />
    <glyph glyph-name="Edotaccent" unicode="&#x116;" horiz-adv-x="545" 
d="M97 708h379l-12 -53h-308v-263h296l-12 -51h-284v-287h335l-12 -54h-382v708zM256 806q-12 12 -12 30q0 17 12 29t29 12t29.5 -12t12.5 -29q0 -18 -13 -30t-29 -12q-17 0 -29 12z" />
    <glyph glyph-name="Egrave" unicode="&#xc8;" horiz-adv-x="545" 
d="M97 708h379l-12 -53h-308v-263h296l-12 -51h-284v-287h335l-12 -54h-382v708zM160 910h68l102 -144h-48z" />
    <glyph glyph-name="Emacron" unicode="&#x112;" horiz-adv-x="545" 
d="M97 708h379l-12 -53h-308v-263h296l-12 -51h-284v-287h335l-12 -54h-382v708zM154 852h260v-40h-260v40z" />
    <glyph glyph-name="Eogonek" unicode="&#x118;" horiz-adv-x="545" 
d="M345.5 -74q-20.5 -29 -20.5 -58q0 -25 15.5 -40t40.5 -15q17 0 33.5 7t28.5 19l16 -30q-17 -16 -41 -25t-49 -9q-38 0 -64 22.5t-26 60.5q0 37 25 70.5t68 71.5h-275v708h379l-12 -53h-308v-263h296l-12 -51h-284v-287h335l-12 -54h-66q-47 -45 -67.5 -74z" />
    <glyph glyph-name="F" unicode="F" horiz-adv-x="509" 
d="M97 708h363l-3 -54h-299v-265h286l-12 -52h-274v-337h-61v708z" />
    <glyph glyph-name="G" unicode="G" horiz-adv-x="786" 
d="M242.5 29.5q-85.5 48.5 -133 133.5t-47.5 192t48 192t132.5 132.5t191.5 47.5q71 0 138 -21t112 -54l-20 -53q-43 33 -104 53.5t-125 20.5q-91 0 -161.5 -42.5t-109 -115t-38.5 -160.5t38 -161t109 -116t167 -43q111 0 199 43v238h-170l11 51h217v-323
q-50 -29 -116.5 -46t-143.5 -17q-109 0 -194.5 48.5z" />
    <glyph glyph-name="Gbreve" unicode="&#x11e;" horiz-adv-x="786" 
d="M242.5 29.5q-85.5 48.5 -133 133.5t-47.5 192t48 192t132.5 132.5t191.5 47.5q71 0 138 -21t112 -54l-20 -53q-43 33 -104 53.5t-125 20.5q-91 0 -161.5 -42.5t-109 -115t-38.5 -160.5t38 -161t109 -116t167 -43q111 0 199 43v238h-170l11 51h217v-323
q-50 -29 -116.5 -46t-143.5 -17q-109 0 -194.5 48.5zM338.5 805q-37.5 34 -43.5 97h36q8 -44 35.5 -66.5t66.5 -22.5q86 0 104 89h37q-8 -63 -46 -97t-95 -34t-94.5 34z" />
    <glyph glyph-name="Gcircumflex" unicode="&#x11c;" horiz-adv-x="786" 
d="M242.5 29.5q-85.5 48.5 -133 133.5t-47.5 192t48 192t132.5 132.5t191.5 47.5q71 0 138 -21t112 -54l-20 -53q-43 33 -104 53.5t-125 20.5q-91 0 -161.5 -42.5t-109 -115t-38.5 -160.5t38 -161t109 -116t167 -43q111 0 199 43v238h-170l11 51h217v-323
q-50 -29 -116.5 -46t-143.5 -17q-109 0 -194.5 48.5zM402 908h62l108 -144h-52l-87 117l-87 -117h-52z" />
    <glyph glyph-name="Gcommaaccent" unicode="&#x122;" horiz-adv-x="786" 
d="M242.5 29.5q-85.5 48.5 -133 133.5t-47.5 192t48 192t132.5 132.5t191.5 47.5q71 0 138 -21t112 -54l-20 -53q-43 33 -104 53.5t-125 20.5q-91 0 -161.5 -42.5t-109 -115t-38.5 -160.5t38 -161t109 -116t167 -43q111 0 199 43v238h-170l11 51h217v-323
q-50 -29 -116.5 -46t-143.5 -17q-109 0 -194.5 48.5zM416 -43h57l-68 -187h-46z" />
    <glyph glyph-name="Gdotaccent" unicode="&#x120;" horiz-adv-x="786" 
d="M242.5 29.5q-85.5 48.5 -133 133.5t-47.5 192t48 192t132.5 132.5t191.5 47.5q71 0 138 -21t112 -54l-20 -53q-43 33 -104 53.5t-125 20.5q-91 0 -161.5 -42.5t-109 -115t-38.5 -160.5t38 -161t109 -116t167 -43q111 0 199 43v238h-170l11 51h217v-323
q-50 -29 -116.5 -46t-143.5 -17q-109 0 -194.5 48.5zM402 825q-12 12 -12 30q0 17 12 29t29 12t29.5 -12t12.5 -29q0 -18 -13 -30t-29 -12q-17 0 -29 12z" />
    <glyph glyph-name="H" unicode="H" horiz-adv-x="755" 
d="M97 708h61v-314h440v314h60v-708h-60v341h-440v-341h-61v708z" />
    <glyph glyph-name="Hbar" unicode="&#x126;" horiz-adv-x="755" 
d="M97 708h61v-169h440v169h60v-708h-60v341h-440v-341h-61v708zM598 394v106h-440v-106h440z" />
    <glyph glyph-name="Hcircumflex" unicode="&#x124;" horiz-adv-x="750" 
d="M97 708h61v-314h440v314h60v-708h-60v341h-440v-341h-61v708zM336 908h62l108 -144h-52l-87 117l-87 -117h-52z" />
    <glyph glyph-name="I" unicode="I" horiz-adv-x="255" 
d="M97 708h61v-708h-61v708z" />
    <glyph glyph-name="IJ" unicode="&#x132;" horiz-adv-x="625" 
d="M97 708h61v-708h-61v708zM331 36q73 0 107 46.5t34 124.5v501h60v-506q0 -97 -48 -158.5t-145 -61.5q-28 0 -58 5l-11 58q29 -9 61 -9z" />
    <glyph glyph-name="Iacute" unicode="&#xcd;" horiz-adv-x="255" 
d="M97 708h61v-708h-61v708zM199 908h67l-122 -144h-48z" />
    <glyph glyph-name="Ibreve" unicode="&#x12c;" horiz-adv-x="255" 
d="M97 708h61v-708h-61v708zM31.5 805q-37.5 34 -43.5 97h36q8 -44 35.5 -66.5t66.5 -22.5q86 0 104 89h37q-8 -63 -46 -97t-95 -34t-94.5 34z" />
    <glyph glyph-name="Icircumflex" unicode="&#xce;" horiz-adv-x="255" 
d="M97 708h61v-708h-61v708zM95 908h62l108 -144h-52l-87 117l-87 -117h-52z" />
    <glyph glyph-name="Idieresis" unicode="&#xcf;" horiz-adv-x="255" 
d="M97 708h61v-708h-61v708zM11 825q-12 12 -12 29t12.5 29t28.5 12q17 0 29 -12t12 -29q0 -18 -12 -29.5t-29 -11.5t-29 12zM186 825q-12 12 -12 29t12 29t29 12t29 -12t12 -29q0 -18 -12 -29.5t-29 -11.5t-29 12z" />
    <glyph glyph-name="Idotaccent" unicode="&#x130;" horiz-adv-x="255" 
d="M97 708h61v-708h-61v708zM99 825q-12 12 -12 30q0 17 12 29t29 12t29.5 -12t12.5 -29q0 -18 -13 -30t-29 -12q-17 0 -29 12z" />
    <glyph glyph-name="Igrave" unicode="&#xcc;" horiz-adv-x="255" 
d="M97 708h61v-708h-61v708zM-12 908h68l102 -144h-48z" />
    <glyph glyph-name="Imacron" unicode="&#x12a;" horiz-adv-x="255" 
d="M97 708h61v-708h-61v708zM-2 851h260v-40h-260v40z" />
    <glyph glyph-name="Iogonek" unicode="&#x12e;" horiz-adv-x="255" 
d="M202 -191q-17 -16 -41 -25t-49 -9q-38 0 -64 22.5t-26 60.5q0 37 25 70.5t68 71.5h-18v708h61v-708h-2q-47 -45 -67.5 -74t-20.5 -58q0 -25 15.5 -40t40.5 -15q17 0 33.5 7t27.5 19z" />
    <glyph glyph-name="Itilde" unicode="&#x128;" horiz-adv-x="255" 
d="M97 708h61v-708h-61v708zM163 791.5q-15 5.5 -38 18.5q-22 13 -35.5 18t-26.5 5q-33 0 -43 -49h-32q5 41 24 65t51 24q16 0 31.5 -5.5t37.5 -17.5q23 -13 36 -18t26 -5q34 0 42 47h33q-5 -41 -24 -64.5t-51 -23.5q-16 0 -31 5.5z" />
    <glyph glyph-name="J" unicode="J" horiz-adv-x="381" 
d="M87 36q73 0 107 46.5t34 124.5v501h60v-506q0 -97 -48 -158.5t-145 -61.5q-28 0 -58 5l-11 58q29 -9 61 -9z" />
    <glyph glyph-name="Jcircumflex" unicode="&#x134;" horiz-adv-x="381" 
d="M87 36q73 0 107 46.5t34 124.5v501h60v-506q0 -97 -48 -158.5t-145 -61.5q-28 0 -58 5l-11 58q29 -9 61 -9zM217 908h62l108 -144h-52l-87 117l-87 -117h-52z" />
    <glyph glyph-name="K" unicode="K" horiz-adv-x="606" 
d="M97 708h61v-339l334 339h82l-348 -343l366 -365h-84l-350 354v-354h-61v708z" />
    <glyph glyph-name="Kcommaaccent" unicode="&#x136;" horiz-adv-x="606" 
d="M97 708h61v-339l334 339h82l-348 -343l366 -365h-84l-350 354v-354h-61v708zM304 -45h57l-68 -187h-46z" />
    <glyph glyph-name="L" unicode="L" horiz-adv-x="506" 
d="M97 708h61v-654h318l-12 -54h-367v708z" />
    <glyph glyph-name="Lacute" unicode="&#x139;" horiz-adv-x="506" 
d="M97 708h61v-654h318l-12 -54h-367v708zM205 877h67l-122 -144h-48z" />
    <glyph glyph-name="Lcaron" unicode="&#x13d;" horiz-adv-x="506" 
d="M97 708h61v-654h318l-12 -54h-367v708zM316 709h57l-68 -187h-46z" />
    <glyph glyph-name="Lcommaaccent" unicode="&#x13b;" horiz-adv-x="506" 
d="M97 708h61v-654h318l-12 -54h-367v708zM268 -45h57l-68 -187h-46z" />
    <glyph glyph-name="Ldot" unicode="&#x13f;" horiz-adv-x="506" 
d="M97 708h61v-654h318l-12 -54h-367v708zM284 295q-12 12 -12 30q0 17 12 29.5t29 12.5t29.5 -12.5t12.5 -29.5q0 -18 -13 -30t-29 -12q-17 0 -29 12z" />
    <glyph glyph-name="Lslash" unicode="&#x141;" horiz-adv-x="506" 
d="M97 240l-69 -62v58l69 62v410h61v-365l207 182v-56l-207 -185v-230h333l-12 -54h-382v240z" />
    <glyph glyph-name="M" unicode="M" horiz-adv-x="910" 
d="M97 708h93l265 -614l264 614h94v-708h-61l1 640l-280 -640h-40l-277 640v-640h-59v708z" />
    <glyph glyph-name="N" unicode="N" horiz-adv-x="776" 
d="M97 708h75l445 -622h2v622h60v-708h-75l-445 624h-2v-624h-60v708z" />
    <glyph glyph-name="Nacute" unicode="&#x143;" horiz-adv-x="776" 
d="M97 708h75l445 -622h2v622h60v-708h-75l-445 624h-2v-624h-60v708zM455 908h67l-122 -144h-48z" />
    <glyph glyph-name="Ncaron" unicode="&#x147;" horiz-adv-x="776" 
d="M97 708h75l445 -622h2v622h60v-708h-75l-445 624h-2v-624h-60v708zM250 908h52l87 -117l87 117h52l-108 -144h-62z" />
    <glyph glyph-name="Ncommaaccent" unicode="&#x145;" horiz-adv-x="776" 
d="M97 708h75l445 -622h2v622h60v-708h-75l-445 624h-2v-624h-60v708zM362 -45h57l-68 -187h-46z" />
    <glyph glyph-name="Eng" unicode="&#x14a;" horiz-adv-x="776" 
d="M172 708l445 -611h2v611h60v-790q0 -78 -29 -118.5t-104 -40.5q-25 0 -43 6l7 48q22 -4 32 -4q48 0 63 29t15 82v70l-461 634h-2v-624h-60v708h75z" />
    <glyph glyph-name="Ntilde" unicode="&#xd1;" horiz-adv-x="776" 
d="M97 708h75l445 -622h2v622h60v-708h-75l-445 624h-2v-624h-60v708zM426 791.5q-15 5.5 -38 18.5q-22 13 -35.5 18t-26.5 5q-33 0 -43 -49h-32q5 41 24 65t51 24q16 0 31.5 -5.5t37.5 -17.5q23 -13 36 -18t26 -5q34 0 42 47h33q-5 -41 -24 -64.5t-51 -23.5q-16 0 -31 5.5z
" />
    <glyph glyph-name="O" unicode="O" horiz-adv-x="863" 
d="M242.5 29q-84.5 48 -132.5 133t-48 193q0 107 48 192t132.5 132.5t189.5 47.5t189 -47.5t131.5 -132.5t47.5 -192q0 -108 -48 -193t-132 -133t-188 -48q-105 0 -189.5 48zM590.5 78.5q69.5 42.5 107.5 115.5t38 161t-38.5 160.5t-107.5 115t-158 42.5t-159 -42.5
t-108.5 -115t-38.5 -160.5t38 -161t108 -115.5t160 -42.5q89 0 158.5 42.5z" />
    <glyph glyph-name="Oacute" unicode="&#xd3;" horiz-adv-x="863" 
d="M242.5 29q-84.5 48 -132.5 133t-48 193q0 107 48 192t132.5 132.5t189.5 47.5t189 -47.5t131.5 -132.5t47.5 -192q0 -108 -48 -193t-132 -133t-188 -48q-105 0 -189.5 48zM590.5 78.5q69.5 42.5 107.5 115.5t38 161t-38.5 160.5t-107.5 115t-158 42.5t-159 -42.5
t-108.5 -115t-38.5 -160.5t38 -161t108 -115.5t160 -42.5q89 0 158.5 42.5zM489 908h67l-122 -144h-48z" />
    <glyph glyph-name="Obreve" unicode="&#x14e;" horiz-adv-x="863" 
d="M242.5 29q-84.5 48 -132.5 133t-48 193q0 107 48 192t132.5 132.5t189.5 47.5t189 -47.5t131.5 -132.5t47.5 -192q0 -108 -48 -193t-132 -133t-188 -48q-105 0 -189.5 48zM590.5 78.5q69.5 42.5 107.5 115.5t38 161t-38.5 160.5t-107.5 115t-158 42.5t-159 -42.5
t-108.5 -115t-38.5 -160.5t38 -161t108 -115.5t160 -42.5q89 0 158.5 42.5zM335.5 805q-37.5 34 -43.5 97h36q8 -44 35.5 -66.5t66.5 -22.5q86 0 104 89h37q-8 -63 -46 -97t-95 -34t-94.5 34z" />
    <glyph glyph-name="Ocircumflex" unicode="&#xd4;" horiz-adv-x="863" 
d="M242.5 29q-84.5 48 -132.5 133t-48 193q0 107 48 192t132.5 132.5t189.5 47.5t189 -47.5t131.5 -132.5t47.5 -192q0 -108 -48 -193t-132 -133t-188 -48q-105 0 -189.5 48zM590.5 78.5q69.5 42.5 107.5 115.5t38 161t-38.5 160.5t-107.5 115t-158 42.5t-159 -42.5
t-108.5 -115t-38.5 -160.5t38 -161t108 -115.5t160 -42.5q89 0 158.5 42.5zM401 908h62l108 -144h-52l-87 117l-87 -117h-52z" />
    <glyph glyph-name="Odieresis" unicode="&#xd6;" horiz-adv-x="863" 
d="M242.5 29q-84.5 48 -132.5 133t-48 193q0 107 48 192t132.5 132.5t189.5 47.5t189 -47.5t131.5 -132.5t47.5 -192q0 -108 -48 -193t-132 -133t-188 -48q-105 0 -189.5 48zM590.5 78.5q69.5 42.5 107.5 115.5t38 161t-38.5 160.5t-107.5 115t-158 42.5t-159 -42.5
t-108.5 -115t-38.5 -160.5t38 -161t108 -115.5t160 -42.5q89 0 158.5 42.5zM316 825q-12 12 -12 29t12.5 29t28.5 12q17 0 29 -12t12 -29q0 -18 -12 -29.5t-29 -11.5t-29 12zM491 825q-12 12 -12 29t12 29t29 12t29 -12t12 -29q0 -18 -12 -29.5t-29 -11.5t-29 12z" />
    <glyph glyph-name="Ograve" unicode="&#xd2;" horiz-adv-x="863" 
d="M242.5 29q-84.5 48 -132.5 133t-48 193q0 107 48 192t132.5 132.5t189.5 47.5t189 -47.5t131.5 -132.5t47.5 -192q0 -108 -48 -193t-132 -133t-188 -48q-105 0 -189.5 48zM590.5 78.5q69.5 42.5 107.5 115.5t38 161t-38.5 160.5t-107.5 115t-158 42.5t-159 -42.5
t-108.5 -115t-38.5 -160.5t38 -161t108 -115.5t160 -42.5q89 0 158.5 42.5zM318 908h68l102 -144h-48z" />
    <glyph glyph-name="Ohungarumlaut" unicode="&#x150;" horiz-adv-x="863" 
d="M242.5 29q-84.5 48 -132.5 133t-48 193q0 107 48 192t132.5 132.5t189.5 47.5t189 -47.5t131.5 -132.5t47.5 -192q0 -108 -48 -193t-132 -133t-188 -48q-105 0 -189.5 48zM590.5 78.5q69.5 42.5 107.5 115.5t38 161t-38.5 160.5t-107.5 115t-158 42.5t-159 -42.5
t-108.5 -115t-38.5 -160.5t38 -161t108 -115.5t160 -42.5q89 0 158.5 42.5zM472 908h68l-123 -145h-48zM544 908h67l-122 -145h-48z" />
    <glyph glyph-name="Omacron" unicode="&#x14c;" horiz-adv-x="863" 
d="M242.5 29q-84.5 48 -132.5 133t-48 193q0 107 48 192t132.5 132.5t189.5 47.5t189 -47.5t131.5 -132.5t47.5 -192q0 -108 -48 -193t-132 -133t-188 -48q-105 0 -189.5 48zM590.5 78.5q69.5 42.5 107.5 115.5t38 161t-38.5 160.5t-107.5 115t-158 42.5t-159 -42.5
t-108.5 -115t-38.5 -160.5t38 -161t108 -115.5t160 -42.5q89 0 158.5 42.5zM303 851h260v-40h-260v40z" />
    <glyph glyph-name="Oslash" unicode="&#xd8;" horiz-adv-x="863" 
d="M293 2.5q-61 21.5 -108 60.5l-73 -81l-29 26l73 82q-48 48 -74.5 116t-26.5 148q0 108 47.5 193t132 132.5t189.5 47.5q65 0 124 -19.5t107 -56.5l73 83l29 -27l-72 -82q52 -49 80 -118.5t28 -152.5q0 -107 -48 -192t-132.5 -133t-188.5 -48q-70 0 -131 21.5zM616 609
q-38 31 -87 48t-105 17q-90 0 -160 -43t-108.5 -116t-38.5 -161q0 -63 21 -120t59 -99zM584.5 77q69.5 43 107.5 116t38 161q0 67 -22 125t-64 101l-419 -474q82 -72 199 -72q91 0 160.5 43z" />
    <glyph glyph-name="Oslashacute" unicode="&#x1fe;" horiz-adv-x="863" 
d="M293 2.5q-61 21.5 -108 60.5l-73 -81l-29 26l73 82q-48 48 -74.5 116t-26.5 148q0 108 47.5 193t132 132.5t189.5 47.5q65 0 124 -19.5t107 -56.5l73 83l29 -27l-72 -82q52 -49 80 -118.5t28 -152.5q0 -107 -48 -192t-132.5 -133t-188.5 -48q-70 0 -131 21.5zM616 609
q-38 31 -87 48t-105 17q-90 0 -160 -43t-108.5 -116t-38.5 -161q0 -63 21 -120t59 -99zM584.5 77q69.5 43 107.5 116t38 161q0 67 -22 125t-64 101l-419 -474q82 -72 199 -72q91 0 160.5 43zM482 908h67l-122 -144h-48z" />
    <glyph glyph-name="Otilde" unicode="&#xd5;" horiz-adv-x="863" 
d="M242.5 29q-84.5 48 -132.5 133t-48 193q0 107 48 192t132.5 132.5t189.5 47.5t189 -47.5t131.5 -132.5t47.5 -192q0 -108 -48 -193t-132 -133t-188 -48q-105 0 -189.5 48zM590.5 78.5q69.5 42.5 107.5 115.5t38 161t-38.5 160.5t-107.5 115t-158 42.5t-159 -42.5
t-108.5 -115t-38.5 -160.5t38 -161t108 -115.5t160 -42.5q89 0 158.5 42.5zM468 791.5q-15 5.5 -38 18.5q-22 13 -35.5 18t-26.5 5q-33 0 -43 -49h-32q5 41 24 65t51 24q16 0 31.5 -5.5t37.5 -17.5q23 -13 36 -18t26 -5q34 0 42 47h33q-5 -41 -24 -64.5t-51 -23.5
q-16 0 -31 5.5z" />
    <glyph glyph-name="OE" unicode="&#x152;" horiz-adv-x="1002" 
d="M259 38.5q-88 38.5 -140.5 118.5t-52.5 197t52.5 197t140.5 118.5t195 38.5h478l-11 -53h-336v-263h316l-12 -51h-304v-287h363l-12 -54h-482q-107 0 -195 38.5zM526 54v601h-62q-98 0 -173.5 -34.5t-118 -102t-42.5 -164.5t42.5 -164.5t117.5 -101.5t173 -34h63z" />
    <glyph glyph-name="P" unicode="P" horiz-adv-x="582" 
d="M97 708h203q100 0 167 -48.5t67 -146.5q0 -64 -30.5 -112t-82.5 -74t-115 -26h-148v-301h-61v708zM303 351q46 0 85 19.5t62 56.5t23 86q0 72 -49.5 108.5t-122.5 36.5h-143v-307h145z" />
    <glyph glyph-name="Thorn" unicode="&#xde;" horiz-adv-x="586" 
d="M97 708h61v-151h145q102 0 168 -44.5t66 -141.5q0 -94 -64 -143.5t-164 -49.5h-151v-178h-61v708zM305 229q74 0 122 35t48 106q0 72 -49 104t-124 32h-144v-277h147z" />
    <glyph glyph-name="Q" unicode="Q" horiz-adv-x="863" 
d="M239 46.5q-83 46.5 -130 128.5t-47 187q0 103 46.5 186.5t130 131t188.5 47.5q104 0 187.5 -47.5t131 -130.5t47.5 -186q0 -68 -25.5 -131.5t-71 -111t-102.5 -67.5v-2l240 1l-11 -52h-397q-104 0 -187 46.5zM583 92.5q69 41.5 108.5 112.5t39.5 156q0 87 -38.5 158
t-107.5 112.5t-157 41.5q-86 0 -155 -41t-108 -112.5t-39 -158.5q0 -86 39 -157t108 -112t156 -41q85 0 154 41.5z" />
    <glyph glyph-name="R" unicode="R" horiz-adv-x="608" 
d="M97 708h195q103 0 169.5 -42.5t66.5 -144.5q0 -80 -48.5 -132t-116.5 -67l200 -322h-71l-188 312h-146v-312h-61v708zM289 361q80 0 129.5 43.5t49.5 116.5t-52 105t-135 32h-124v-297h132z" />
    <glyph glyph-name="Racute" unicode="&#x154;" horiz-adv-x="608" 
d="M97 708h195q103 0 169.5 -42.5t66.5 -144.5q0 -80 -48.5 -132t-116.5 -67l200 -322h-71l-188 312h-146v-312h-61v708zM289 361q80 0 129.5 43.5t49.5 116.5t-52 105t-135 32h-124v-297h132zM329 910h67l-122 -144h-48z" />
    <glyph glyph-name="Rcaron" unicode="&#x158;" horiz-adv-x="608" 
d="M97 708h195q103 0 169.5 -42.5t66.5 -144.5q0 -80 -48.5 -132t-116.5 -67l200 -322h-71l-188 312h-146v-312h-61v708zM289 361q80 0 129.5 43.5t49.5 116.5t-52 105t-135 32h-124v-297h132zM149 905h52l87 -117l87 117h52l-108 -144h-62z" />
    <glyph glyph-name="Rcommaaccent" unicode="&#x156;" horiz-adv-x="608" 
d="M97 708h195q103 0 169.5 -42.5t66.5 -144.5q0 -80 -48.5 -132t-116.5 -67l200 -322h-71l-188 312h-146v-312h-61v708zM289 361q80 0 129.5 43.5t49.5 116.5t-52 105t-135 32h-124v-297h132zM281 -45h57l-68 -187h-46z" />
    <glyph glyph-name="S" unicode="S" horiz-adv-x="572" 
d="M162 2q-60 21 -97 53l13 58q39 -36 93.5 -57.5t108.5 -21.5q69 0 118 38t49 105q0 44 -22.5 72.5t-56.5 45t-94 37.5q-63 22 -103.5 43.5t-68 59.5t-27.5 98q0 62 32 106t84 66t112 22q53 0 104.5 -16.5t87.5 -42.5l-18 -55q-31 25 -78.5 43.5t-95.5 18.5
q-42 0 -80.5 -15.5t-63 -47t-24.5 -77.5q0 -44 22 -72.5t55 -45t89 -35.5q68 -23 109 -43.5t70 -58.5t29 -98q0 -64 -31.5 -109.5t-83.5 -68.5t-112 -23t-120 21z" />
    <glyph glyph-name="Sacute" unicode="&#x15a;" horiz-adv-x="572" 
d="M162 2q-60 21 -97 53l13 58q39 -36 93.5 -57.5t108.5 -21.5q69 0 118 38t49 105q0 44 -22.5 72.5t-56.5 45t-94 37.5q-63 22 -103.5 43.5t-68 59.5t-27.5 98q0 62 32 106t84 66t112 22q53 0 104.5 -16.5t87.5 -42.5l-18 -55q-31 25 -78.5 43.5t-95.5 18.5
q-42 0 -80.5 -15.5t-63 -47t-24.5 -77.5q0 -44 22 -72.5t55 -45t89 -35.5q68 -23 109 -43.5t70 -58.5t29 -98q0 -64 -31.5 -109.5t-83.5 -68.5t-112 -23t-120 21zM353 908h67l-122 -144h-48z" />
    <glyph glyph-name="Scaron" unicode="&#x160;" horiz-adv-x="572" 
d="M162 2q-60 21 -97 53l13 58q39 -36 93.5 -57.5t108.5 -21.5q69 0 118 38t49 105q0 44 -22.5 72.5t-56.5 45t-94 37.5q-63 22 -103.5 43.5t-68 59.5t-27.5 98q0 62 32 106t84 66t112 22q53 0 104.5 -16.5t87.5 -42.5l-18 -55q-31 25 -78.5 43.5t-95.5 18.5
q-42 0 -80.5 -15.5t-63 -47t-24.5 -77.5q0 -44 22 -72.5t55 -45t89 -35.5q68 -23 109 -43.5t70 -58.5t29 -98q0 -64 -31.5 -109.5t-83.5 -68.5t-112 -23t-120 21zM161 908h52l87 -117l87 117h52l-108 -144h-62z" />
    <glyph glyph-name="Scedilla" unicode="&#x15e;" horiz-adv-x="572" 
d="M481 78.5q-28 -43.5 -75 -68t-102 -28.5l-42 -61q23 6 43 6q36 0 62 -17t26 -54q0 -46 -36.5 -65.5t-82.5 -19.5q-22 0 -48.5 5.5t-47.5 15.5l11 29q18 -8 40 -12.5t42 -4.5q30 0 53.5 12t23.5 40q0 23 -18.5 33.5t-44.5 10.5q-13 0 -30 -3.5t-27 -8.5l-16 14l54 80
q-56 2 -111.5 22.5t-89.5 50.5l13 58q39 -36 93.5 -57.5t108.5 -21.5q69 0 118 38t49 105q0 44 -22.5 72.5t-56.5 45t-94 37.5q-63 22 -103.5 43.5t-68 59.5t-27.5 98q0 62 32 106t84 66t112 22q53 0 104.5 -16.5t87.5 -42.5l-18 -55q-31 25 -78.5 43.5t-95.5 18.5
q-42 0 -80.5 -15.5t-63 -47t-24.5 -77.5q0 -44 22 -72.5t55 -45t89 -35.5q68 -23 109 -43.5t70 -58.5t29 -98t-28 -103.5z" />
    <glyph glyph-name="Scircumflex" unicode="&#x15c;" horiz-adv-x="572" 
d="M162 2q-60 21 -97 53l13 58q39 -36 93.5 -57.5t108.5 -21.5q69 0 118 38t49 105q0 44 -22.5 72.5t-56.5 45t-94 37.5q-63 22 -103.5 43.5t-68 59.5t-27.5 98q0 62 32 106t84 66t112 22q53 0 104.5 -16.5t87.5 -42.5l-18 -55q-31 25 -78.5 43.5t-95.5 18.5
q-42 0 -80.5 -15.5t-63 -47t-24.5 -77.5q0 -44 22 -72.5t55 -45t89 -35.5q68 -23 109 -43.5t70 -58.5t29 -98q0 -64 -31.5 -109.5t-83.5 -68.5t-112 -23t-120 21zM272 908h62l108 -144h-52l-87 117l-87 -117h-52z" />
    <glyph glyph-name="Scommaaccent" unicode="&#x218;" horiz-adv-x="572" 
d="M162 2q-60 21 -97 53l13 58q39 -36 93.5 -57.5t108.5 -21.5q69 0 118 38t49 105q0 44 -22.5 72.5t-56.5 45t-94 37.5q-63 22 -103.5 43.5t-68 59.5t-27.5 98q0 62 32 106t84 66t112 22q53 0 104.5 -16.5t87.5 -42.5l-18 -55q-31 25 -78.5 43.5t-95.5 18.5
q-42 0 -80.5 -15.5t-63 -47t-24.5 -77.5q0 -44 22 -72.5t55 -45t89 -35.5q68 -23 109 -43.5t70 -58.5t29 -98q0 -64 -31.5 -109.5t-83.5 -68.5t-112 -23t-120 21zM272 -45h57l-68 -187h-46z" />
    <glyph glyph-name="T" unicode="T" horiz-adv-x="522" 
d="M231 654h-227l12 54h501l-11 -54h-215v-654h-60v654z" />
    <glyph glyph-name="Tbar" unicode="&#x166;" horiz-adv-x="522" 
d="M231 494h-165v38h165v122h-227l12 54h501l-11 -54h-215v-122h163v-38h-163v-494h-60v494z" />
    <glyph glyph-name="Tcaron" unicode="&#x164;" horiz-adv-x="522" 
d="M231 654h-227l12 54h501l-11 -54h-215v-654h-60v654zM139 908h52l87 -117l87 117h52l-108 -144h-62z" />
    <glyph glyph-name="U" unicode="U" horiz-adv-x="727" 
d="M156 61.5q-67 80.5 -67 205.5v441h61v-434q0 -99 47.5 -169t166.5 -70q118 0 166 70t48 169v434h60v-441q0 -125 -66.5 -205.5t-207.5 -80.5t-208 80.5z" />
    <glyph glyph-name="Uacute" unicode="&#xda;" horiz-adv-x="727" 
d="M156 61.5q-67 80.5 -67 205.5v441h61v-434q0 -99 47.5 -169t166.5 -70q118 0 166 70t48 169v434h60v-441q0 -125 -66.5 -205.5t-207.5 -80.5t-208 80.5zM413 908h67l-122 -144h-48z" />
    <glyph glyph-name="Ubreve" unicode="&#x16c;" horiz-adv-x="727" 
d="M156 61.5q-67 80.5 -67 205.5v441h61v-434q0 -99 47.5 -169t166.5 -70q118 0 166 70t48 169v434h60v-441q0 -125 -66.5 -205.5t-207.5 -80.5t-208 80.5zM268.5 805q-37.5 34 -43.5 97h36q8 -44 35.5 -66.5t66.5 -22.5q86 0 104 89h37q-8 -63 -46 -97t-95 -34t-94.5 34z
" />
    <glyph glyph-name="Ucircumflex" unicode="&#xdb;" horiz-adv-x="727" 
d="M156 61.5q-67 80.5 -67 205.5v441h61v-434q0 -99 47.5 -169t166.5 -70q118 0 166 70t48 169v434h60v-441q0 -125 -66.5 -205.5t-207.5 -80.5t-208 80.5zM333 908h62l108 -144h-52l-87 117l-87 -117h-52z" />
    <glyph glyph-name="Udieresis" unicode="&#xdc;" horiz-adv-x="727" 
d="M156 61.5q-67 80.5 -67 205.5v441h61v-434q0 -99 47.5 -169t166.5 -70q118 0 166 70t48 169v434h60v-441q0 -125 -66.5 -205.5t-207.5 -80.5t-208 80.5zM248 825q-12 12 -12 29t12.5 29t28.5 12q17 0 29 -12t12 -29q0 -18 -12 -29.5t-29 -11.5t-29 12zM423 825
q-12 12 -12 29t12 29t29 12t29 -12t12 -29q0 -18 -12 -29.5t-29 -11.5t-29 12z" />
    <glyph glyph-name="Ugrave" unicode="&#xd9;" horiz-adv-x="727" 
d="M156 61.5q-67 80.5 -67 205.5v441h61v-434q0 -99 47.5 -169t166.5 -70q118 0 166 70t48 169v434h60v-441q0 -125 -66.5 -205.5t-207.5 -80.5t-208 80.5zM246 908h68l102 -144h-48z" />
    <glyph glyph-name="Uhungarumlaut" unicode="&#x170;" horiz-adv-x="727" 
d="M156 61.5q-67 80.5 -67 205.5v441h61v-434q0 -99 47.5 -169t166.5 -70q118 0 166 70t48 169v434h60v-441q0 -125 -66.5 -205.5t-207.5 -80.5t-208 80.5zM403 908h68l-123 -145h-48zM475 908h67l-122 -145h-48z" />
    <glyph glyph-name="Umacron" unicode="&#x16a;" horiz-adv-x="727" 
d="M156 61.5q-67 80.5 -67 205.5v441h61v-434q0 -99 47.5 -169t166.5 -70q118 0 166 70t48 169v434h60v-441q0 -125 -66.5 -205.5t-207.5 -80.5t-208 80.5zM236 851h260v-40h-260v40z" />
    <glyph glyph-name="Uogonek" unicode="&#x172;" horiz-adv-x="727" 
d="M638 708v-441q0 -113 -55.5 -191t-171.5 -92q-37 -37 -54 -63.5t-17 -52.5q0 -25 15.5 -40t40.5 -15q17 0 33.5 7t28.5 19l16 -30q-17 -16 -41 -25t-48 -9q-38 0 -64.5 22.5t-26.5 60.5q0 57 72 123h-2q-141 0 -208 80.5t-67 205.5v441h61v-434q0 -99 47.5 -169
t166.5 -70q118 0 166 70t48 169v434h60z" />
    <glyph glyph-name="Uring" unicode="&#x16e;" horiz-adv-x="727" 
d="M156 61.5q-67 80.5 -67 205.5v441h61v-434q0 -99 47.5 -169t166.5 -70q118 0 166 70t48 169v434h60v-441q0 -125 -66.5 -205.5t-207.5 -80.5t-208 80.5zM297 782q-29 28 -29 69t29 69t69 28q41 0 69.5 -28t28.5 -69t-28.5 -69t-69.5 -28q-40 0 -69 28zM415.5 801.5
q20.5 20.5 20.5 49.5t-20.5 49.5t-49.5 20.5t-49.5 -20.5t-20.5 -49.5t20.5 -49.5t49.5 -20.5t49.5 20.5z" />
    <glyph glyph-name="Utilde" unicode="&#x168;" horiz-adv-x="727" 
d="M156 61.5q-67 80.5 -67 205.5v441h61v-434q0 -99 47.5 -169t166.5 -70q118 0 166 70t48 169v434h60v-441q0 -125 -66.5 -205.5t-207.5 -80.5t-208 80.5zM400 791.5q-15 5.5 -38 18.5q-22 13 -35.5 18t-26.5 5q-33 0 -43 -49h-32q5 41 24 65t51 24q16 0 31.5 -5.5
t37.5 -17.5q23 -13 36 -18t26 -5q34 0 42 47h33q-5 -41 -24 -64.5t-51 -23.5q-16 0 -31 5.5z" />
    <glyph glyph-name="V" unicode="V" horiz-adv-x="623" 
d="M8 708h67l235 -637h2l237 637h66l-270 -708h-69z" />
    <glyph glyph-name="W" unicode="W" horiz-adv-x="972" 
d="M20 708h64l181 -630h3l181 630h72l185 -630h2l181 630h63l-209 -708h-70l-187 631h-2l-185 -631h-70z" />
    <glyph glyph-name="Wacute" unicode="&#x1e82;" horiz-adv-x="972" 
d="M20 708h64l181 -630h3l181 630h72l185 -630h2l181 630h63l-209 -708h-70l-187 631h-2l-185 -631h-70zM560 908h67l-122 -144h-48z" />
    <glyph glyph-name="Wcircumflex" unicode="&#x174;" horiz-adv-x="972" 
d="M20 708h64l181 -630h3l181 630h72l185 -630h2l181 630h63l-209 -708h-70l-187 631h-2l-185 -631h-70zM454 908h62l108 -144h-52l-87 117l-87 -117h-52z" />
    <glyph glyph-name="Wdieresis" unicode="&#x1e84;" horiz-adv-x="972" 
d="M20 708h64l181 -630h3l181 630h72l185 -630h2l181 630h63l-209 -708h-70l-187 631h-2l-185 -631h-70zM369 825q-12 12 -12 29t12.5 29t28.5 12q17 0 29 -12t12 -29q0 -18 -12 -29.5t-29 -11.5t-29 12zM544 825q-12 12 -12 29t12 29t29 12t29 -12t12 -29q0 -18 -12 -29.5
t-29 -11.5t-29 12z" />
    <glyph glyph-name="Wgrave" unicode="&#x1e80;" horiz-adv-x="972" 
d="M20 708h64l181 -630h3l181 630h72l185 -630h2l181 630h63l-209 -708h-70l-187 631h-2l-185 -631h-70zM343 908h68l102 -144h-48z" />
    <glyph glyph-name="X" unicode="X" horiz-adv-x="625" 
d="M274 372l-229 336h73l195 -293l193 293h71l-228 -336l254 -372h-75l-217 327l-216 -327h-73z" />
    <glyph glyph-name="Y" unicode="Y" horiz-adv-x="577" 
d="M258 307l-253 401h74l211 -348l211 348h71l-253 -401v-307h-61v307z" />
    <glyph glyph-name="Yacute" unicode="&#xdd;" horiz-adv-x="577" 
d="M258 307l-253 401h74l211 -348l211 348h71l-253 -401v-307h-61v307zM365 908h67l-122 -144h-48z" />
    <glyph glyph-name="Ycircumflex" unicode="&#x176;" horiz-adv-x="577" 
d="M258 307l-253 401h74l211 -348l211 348h71l-253 -401v-307h-61v307zM259 908h62l108 -144h-52l-87 117l-87 -117h-52z" />
    <glyph glyph-name="Ydieresis" unicode="&#x178;" horiz-adv-x="577" 
d="M258 307l-253 401h74l211 -348l211 348h71l-253 -401v-307h-61v307zM175 825q-12 12 -12 29t12.5 29t28.5 12q17 0 29 -12t12 -29q0 -18 -12 -29.5t-29 -11.5t-29 12zM350 825q-12 12 -12 29t12 29t29 12t29 -12t12 -29q0 -18 -12 -29.5t-29 -11.5t-29 12z" />
    <glyph glyph-name="Ygrave" unicode="&#x1ef2;" horiz-adv-x="577" 
d="M258 307l-253 401h74l211 -348l211 348h71l-253 -401v-307h-61v307zM155 908h68l102 -144h-48z" />
    <glyph glyph-name="Z" unicode="Z" horiz-adv-x="595" 
d="M46 56l422 599h-401v53h470v-56l-422 -598h454l-12 -54h-511v56z" />
    <glyph glyph-name="Zacute" unicode="&#x179;" horiz-adv-x="595" 
d="M46 56l422 599h-401v53h470v-56l-422 -598h454l-12 -54h-511v56zM366 908h67l-122 -144h-48z" />
    <glyph glyph-name="Zcaron" unicode="&#x17d;" horiz-adv-x="595" 
d="M46 56l422 599h-401v53h470v-56l-422 -598h454l-12 -54h-511v56zM162 908h52l87 -117l87 117h52l-108 -144h-62z" />
    <glyph glyph-name="Zdotaccent" unicode="&#x17b;" horiz-adv-x="595" 
d="M46 56l422 599h-401v53h470v-56l-422 -598h454l-12 -54h-511v56zM275 825q-12 12 -12 30q0 17 12 29t29 12t29.5 -12t12.5 -29q0 -18 -13 -30t-29 -12q-17 0 -29 12z" />
    <glyph glyph-name="uni0162" unicode="&#x162;" horiz-adv-x="522" 
d="M231 654h-227l12 54h501l-11 -54h-215v-654h-60v654zM245 -45h57l-68 -187h-46z" />
    <glyph glyph-name="uni021A" unicode="&#x21a;" horiz-adv-x="522" 
d="M231 654h-227l12 54h501l-11 -54h-215v-654h-60v654zM242 -45h57l-68 -187h-46z" />
    <glyph glyph-name="a" unicode="a" horiz-adv-x="524" 
d="M102 22q-44 35 -44 104q0 155 268 155h57v27q0 63 -35.5 95.5t-97.5 32.5q-38 0 -79.5 -17t-69.5 -41l-17 46q33 28 79 43.5t95 15.5q85 0 132.5 -45t47.5 -134v-202q0 -65 8 -102h-54q-3 16 -5 43t-2 48h-3q-21 -51 -69.5 -77.5t-105.5 -26.5q-61 0 -105 35zM309 55.5
q37 24.5 55.5 62.5t18.5 77v47h-49q-220 0 -220 -114q0 -50 30.5 -73.5t74.5 -23.5q53 0 90 24.5z" />
    <glyph glyph-name="aacute" unicode="&#xe1;" horiz-adv-x="524" 
d="M102 22q-44 35 -44 104q0 155 268 155h57v27q0 63 -35.5 95.5t-97.5 32.5q-38 0 -79.5 -17t-69.5 -41l-17 46q33 28 79 43.5t95 15.5q85 0 132.5 -45t47.5 -134v-202q0 -65 8 -102h-54q-3 16 -5 43t-2 48h-3q-21 -51 -69.5 -77.5t-105.5 -26.5q-61 0 -105 35zM309 55.5
q37 24.5 55.5 62.5t18.5 77v47h-49q-220 0 -220 -114q0 -50 30.5 -73.5t74.5 -23.5q53 0 90 24.5zM322 709h68l-122 -144h-48z" />
    <glyph glyph-name="abreve" unicode="&#x103;" horiz-adv-x="524" 
d="M102 22q-44 35 -44 104q0 155 268 155h57v27q0 63 -35.5 95.5t-97.5 32.5q-38 0 -79.5 -17t-69.5 -41l-17 46q33 28 79 43.5t95 15.5q85 0 132.5 -45t47.5 -134v-202q0 -65 8 -102h-54q-3 16 -5 43t-2 48h-3q-21 -51 -69.5 -77.5t-105.5 -26.5q-61 0 -105 35zM309 55.5
q37 24.5 55.5 62.5t18.5 77v47h-49q-220 0 -220 -114q0 -50 30.5 -73.5t74.5 -23.5q53 0 90 24.5zM173.5 607q-37.5 34 -43.5 97h36q8 -44 35.5 -67t66.5 -23q86 0 104 90h37q-8 -63 -46 -97t-95 -34t-94.5 34z" />
    <glyph glyph-name="acircumflex" unicode="&#xe2;" horiz-adv-x="524" 
d="M102 22q-44 35 -44 104q0 155 268 155h57v27q0 63 -35.5 95.5t-97.5 32.5q-38 0 -79.5 -17t-69.5 -41l-17 46q33 28 79 43.5t95 15.5q85 0 132.5 -45t47.5 -134v-202q0 -65 8 -102h-54q-3 16 -5 43t-2 48h-3q-21 -51 -69.5 -77.5t-105.5 -26.5q-61 0 -105 35zM309 55.5
q37 24.5 55.5 62.5t18.5 77v47h-49q-220 0 -220 -114q0 -50 30.5 -73.5t74.5 -23.5q53 0 90 24.5zM229 709h62l108 -144h-52l-87 118l-87 -118h-52z" />
    <glyph glyph-name="adieresis" unicode="&#xe4;" horiz-adv-x="524" 
d="M102 22q-44 35 -44 104q0 155 268 155h57v27q0 63 -35.5 95.5t-97.5 32.5q-38 0 -79.5 -17t-69.5 -41l-17 46q33 28 79 43.5t95 15.5q85 0 132.5 -45t47.5 -134v-202q0 -65 8 -102h-54q-3 16 -5 43t-2 48h-3q-21 -51 -69.5 -77.5t-105.5 -26.5q-61 0 -105 35zM309 55.5
q37 24.5 55.5 62.5t18.5 77v47h-49q-220 0 -220 -114q0 -50 30.5 -73.5t74.5 -23.5q53 0 90 24.5zM145 626q-12 12 -12 30q0 17 12.5 29t28.5 12q17 0 29 -12t12 -29q0 -18 -12 -30t-29 -12t-29 12zM320 626q-12 12 -12 30q0 17 12 29t29 12t29 -12t12 -29q0 -18 -12 -30
t-29 -12t-29 12z" />
    <glyph glyph-name="agrave" unicode="&#xe0;" horiz-adv-x="524" 
d="M102 22q-44 35 -44 104q0 155 268 155h57v27q0 63 -35.5 95.5t-97.5 32.5q-38 0 -79.5 -17t-69.5 -41l-17 46q33 28 79 43.5t95 15.5q85 0 132.5 -45t47.5 -134v-202q0 -65 8 -102h-54q-3 16 -5 43t-2 48h-3q-21 -51 -69.5 -77.5t-105.5 -26.5q-61 0 -105 35zM309 55.5
q37 24.5 55.5 62.5t18.5 77v47h-49q-220 0 -220 -114q0 -50 30.5 -73.5t74.5 -23.5q53 0 90 24.5zM150 709h68l102 -144h-48z" />
    <glyph glyph-name="amacron" unicode="&#x101;" horiz-adv-x="524" 
d="M102 22q-44 35 -44 104q0 155 268 155h57v27q0 63 -35.5 95.5t-97.5 32.5q-38 0 -79.5 -17t-69.5 -41l-17 46q33 28 79 43.5t95 15.5q85 0 132.5 -45t47.5 -134v-202q0 -65 8 -102h-54q-3 16 -5 43t-2 48h-3q-21 -51 -69.5 -77.5t-105.5 -26.5q-61 0 -105 35zM309 55.5
q37 24.5 55.5 62.5t18.5 77v47h-49q-220 0 -220 -114q0 -50 30.5 -73.5t74.5 -23.5q53 0 90 24.5zM138 652h260v-39h-260v39z" />
    <glyph glyph-name="aogonek" unicode="&#x105;" horiz-adv-x="524" 
d="M481 -191q-17 -16 -41 -25t-48 -9q-38 0 -64.5 22.5t-26.5 60.5q0 37 25 70.5t68 71.5h-2q-3 16 -5 43t-2 48h-3q-21 -51 -69.5 -77.5t-105.5 -26.5q-61 0 -105 35t-44 104q0 155 268 155h57v27q0 63 -35.5 95.5t-97.5 32.5q-38 0 -79.5 -17t-69.5 -41l-17 46
q33 28 79 43.5t95 15.5q85 0 132.5 -45t47.5 -134v-202q0 -65 8 -102h-11q-47 -45 -67.5 -74t-20.5 -58q0 -25 15.5 -40t40.5 -15q17 0 33.5 7t28.5 19zM383 242h-49q-220 0 -220 -114q0 -50 30.5 -73.5t74.5 -23.5q53 0 90 24.5t55.5 62.5t18.5 77v47z" />
    <glyph glyph-name="aring" unicode="&#xe5;" horiz-adv-x="524" 
d="M102 22q-44 35 -44 104q0 155 268 155h57v27q0 63 -35.5 95.5t-97.5 32.5q-38 0 -79.5 -17t-69.5 -41l-17 46q33 28 79 43.5t95 15.5q85 0 132.5 -45t47.5 -134v-202q0 -65 8 -102h-54q-3 16 -5 43t-2 48h-3q-21 -51 -69.5 -77.5t-105.5 -26.5q-61 0 -105 35zM309 55.5
q37 24.5 55.5 62.5t18.5 77v47h-49q-220 0 -220 -114q0 -50 30.5 -73.5t74.5 -23.5q53 0 90 24.5zM192 583q-29 28 -29 69t29 69.5t69 28.5q41 0 69.5 -28t28.5 -70q0 -41 -28.5 -69t-69.5 -28q-40 0 -69 28zM310.5 603q20.5 20 20.5 49t-20.5 49.5t-49.5 20.5t-49.5 -20.5
t-20.5 -49.5t20.5 -49t49.5 -20t49.5 20z" />
    <glyph glyph-name="atilde" unicode="&#xe3;" horiz-adv-x="527" 
d="M102 22q-44 35 -44 104q0 155 268 155h57v27q0 63 -35.5 95.5t-97.5 32.5q-38 0 -79.5 -17t-69.5 -41l-17 46q33 28 79 43.5t95 15.5q85 0 132.5 -45t47.5 -134v-202q0 -65 8 -102h-54q-3 16 -5 43t-2 48h-3q-21 -51 -69.5 -77.5t-105.5 -26.5q-61 0 -105 35zM309 55.5
q37 24.5 55.5 62.5t18.5 77v47h-49q-220 0 -220 -114q0 -50 30.5 -73.5t74.5 -23.5q53 0 90 24.5zM145 650.5q19 24.5 51 24.5q17 0 32.5 -5.5t36.5 -18.5q24 -13 37 -18t25 -5q34 0 42 48h33q-5 -41 -24 -64.5t-51 -23.5q-17 0 -32 5.5t-37 17.5q-22 13 -35.5 18t-26.5 5
q-33 0 -43 -49h-32q5 41 24 65.5z" />
    <glyph glyph-name="ae" unicode="&#xe6;" horiz-adv-x="872" 
d="M107 20q-49 33 -49 101q0 147 276 147h52v32q0 67 -33.5 101.5t-95.5 34.5q-82 0 -151 -60l-19 46q32 29 79 45t96 16q66 0 107.5 -32t53.5 -83q26 53 73.5 84t107.5 31q63 0 111 -29.5t74.5 -82.5t26.5 -121l-1 -25h-375q1 -49 20.5 -92.5t59 -70.5t94.5 -27
q46 0 89.5 16t75.5 40l9 -49q-33 -24 -79 -40t-100 -16q-67 0 -118 35.5t-75 97.5q-16 -60 -65.5 -96t-126.5 -36q-68 0 -117 33zM759 268q-2 75 -44 122t-111 47q-51 0 -88 -27t-56 -66.5t-20 -75.5h319zM349 76q38 45 38 113v36h-43q-105 0 -167 -20.5t-62 -82.5
q0 -48 35 -69.5t83 -21.5q78 0 116 45z" />
    <glyph glyph-name="aeacute" unicode="&#x1fd;" horiz-adv-x="872" 
d="M107 20q-49 33 -49 101q0 147 276 147h52v32q0 67 -33.5 101.5t-95.5 34.5q-82 0 -151 -60l-19 46q32 29 79 45t96 16q66 0 107.5 -32t53.5 -83q26 53 73.5 84t107.5 31q63 0 111 -29.5t74.5 -82.5t26.5 -121l-1 -25h-375q1 -49 20.5 -92.5t59 -70.5t94.5 -27
q46 0 89.5 16t75.5 40l9 -49q-33 -24 -79 -40t-100 -16q-67 0 -118 35.5t-75 97.5q-16 -60 -65.5 -96t-126.5 -36q-68 0 -117 33zM759 268q-2 75 -44 122t-111 47q-51 0 -88 -27t-56 -66.5t-20 -75.5h319zM349 76q38 45 38 113v36h-43q-105 0 -167 -20.5t-62 -82.5
q0 -48 35 -69.5t83 -21.5q78 0 116 45zM507 709h68l-122 -144h-48z" />
    <glyph glyph-name="b" unicode="b" horiz-adv-x="634" 
d="M230 17.5q-53 30.5 -78 84.5h-3q-2 -57 -7 -102h-54q5 53 5 116v640l59 11v-400h2q28 55 79 85t111 30q69 0 122 -32.5t82.5 -89t29.5 -126.5q0 -69 -29.5 -125.5t-83 -89t-121.5 -32.5q-61 0 -114 30.5zM433 63q42 27 64.5 72t22.5 99t-22.5 99.5t-64.5 72.5t-98 27
q-52 0 -94.5 -27t-66.5 -72.5t-24 -99.5t24 -99t66.5 -72t94.5 -27q56 0 98 27z" />
    <glyph glyph-name="c" unicode="c" horiz-adv-x="489" 
d="M174.5 17.5q-55.5 31.5 -87 88t-31.5 128.5q0 71 32 128t88 89t126 32q45 0 89 -15.5t70 -40.5l-24 -45q-24 24 -60.5 37.5t-73.5 13.5q-55 0 -97.5 -27t-65.5 -72.5t-23 -99.5t23 -99t66 -71.5t99 -26.5q45 0 80.5 14t66.5 41l9 -49q-28 -25 -70.5 -41t-90.5 -16
q-70 0 -125.5 31.5z" />
    <glyph glyph-name="cacute" unicode="&#x107;" horiz-adv-x="489" 
d="M174.5 17.5q-55.5 31.5 -87 88t-31.5 128.5q0 71 32 128t88 89t126 32q45 0 89 -15.5t70 -40.5l-24 -45q-24 24 -60.5 37.5t-73.5 13.5q-55 0 -97.5 -27t-65.5 -72.5t-23 -99.5t23 -99t66 -71.5t99 -26.5q45 0 80.5 14t66.5 41l9 -49q-28 -25 -70.5 -41t-90.5 -16
q-70 0 -125.5 31.5zM343 709h68l-122 -144h-48z" />
    <glyph glyph-name="ccaron" unicode="&#x10d;" horiz-adv-x="489" 
d="M174.5 17.5q-55.5 31.5 -87 88t-31.5 128.5q0 71 32 128t88 89t126 32q45 0 89 -15.5t70 -40.5l-24 -45q-24 24 -60.5 37.5t-73.5 13.5q-55 0 -97.5 -27t-65.5 -72.5t-23 -99.5t23 -99t66 -71.5t99 -26.5q45 0 80.5 14t66.5 41l9 -49q-28 -25 -70.5 -41t-90.5 -16
q-70 0 -125.5 31.5zM151 709h52l87 -117l87 117h52l-108 -144h-62z" />
    <glyph glyph-name="ccedilla" unicode="&#xe7;" horiz-adv-x="489" 
d="M255 -79q21 6 43 6q36 0 62 -17t26 -54q0 -46 -36.5 -65.5t-83.5 -19.5q-22 0 -48 5.5t-48 15.5l12 29q35 -17 82 -17q30 0 53 12t23 40q0 23 -18 33.5t-44 10.5q-13 0 -30 -3.5t-28 -8.5l-16 14l59 87q-60 8 -107 41t-73.5 86t-26.5 118q0 71 32 128t88 89t126 32
q45 0 89 -15.5t70 -40.5l-24 -45q-24 24 -60.5 37.5t-73.5 13.5q-55 0 -97.5 -27t-65.5 -72.5t-23 -99.5t23 -99t66 -71.5t99 -26.5q45 0 80.5 14t66.5 41l9 -49q-28 -25 -70.5 -41t-90.5 -16z" />
    <glyph glyph-name="ccircumflex" unicode="&#x109;" horiz-adv-x="489" 
d="M174.5 17.5q-55.5 31.5 -87 88t-31.5 128.5q0 71 32 128t88 89t126 32q45 0 89 -15.5t70 -40.5l-24 -45q-24 24 -60.5 37.5t-73.5 13.5q-55 0 -97.5 -27t-65.5 -72.5t-23 -99.5t23 -99t66 -71.5t99 -26.5q45 0 80.5 14t66.5 41l9 -49q-28 -25 -70.5 -41t-90.5 -16
q-70 0 -125.5 31.5zM254 709h62l108 -144h-52l-87 118l-87 -118h-52z" />
    <glyph glyph-name="cdotaccent" unicode="&#x10b;" horiz-adv-x="489" 
d="M174.5 17.5q-55.5 31.5 -87 88t-31.5 128.5q0 71 32 128t88 89t126 32q45 0 89 -15.5t70 -40.5l-24 -45q-24 24 -60.5 37.5t-73.5 13.5q-55 0 -97.5 -27t-65.5 -72.5t-23 -99.5t23 -99t66 -71.5t99 -26.5q45 0 80.5 14t66.5 41l9 -49q-28 -25 -70.5 -41t-90.5 -16
q-70 0 -125.5 31.5zM262 626q-12 12 -12 30q0 17 12 29.5t29 12.5t29.5 -12.5t12.5 -29.5q0 -18 -13 -30t-29 -12q-17 0 -29 12z" />
    <glyph glyph-name="d" unicode="d" horiz-adv-x="634" 
d="M168.5 19.5q-53.5 32.5 -83 89t-29.5 125.5t29.5 126t83 89.5t122.5 32.5q60 0 111 -30t79 -85h2v389l58 12v-649q0 -52 5 -119h-56q-5 57 -5 102h-2q-29 -55 -80.5 -85t-111.5 -30q-69 0 -122.5 32.5zM394.5 63q42.5 27 66.5 72t24 99t-24 99.5t-66.5 72.5t-95.5 27
q-56 0 -97.5 -27t-64 -72.5t-22.5 -99.5t22.5 -99.5t64 -72t97.5 -26.5q53 0 95.5 27z" />
    <glyph glyph-name="eth" unicode="&#xf0;" horiz-adv-x="611" 
d="M175.5 18q-56.5 32 -88.5 88.5t-32 128.5t31.5 128t87.5 87.5t127 31.5q92 0 155 -63l4 2q-27 60 -70 120.5t-84 98.5l-112 -58l-29 29l109 58q-42 41 -94 76l47 28q38 -25 97 -80l106 56l34 -29l-107 -56q75 -76 135.5 -187.5t60.5 -228.5q0 -74 -30 -133.5t-86.5 -94
t-133.5 -34.5q-71 0 -127.5 32zM403.5 62.5q43.5 26.5 67 72t23.5 100.5t-23.5 100t-67 71t-100.5 26q-58 0 -101 -26t-66 -71t-23 -100t23 -100.5t66.5 -72t100.5 -26.5t100.5 26.5z" />
    <glyph glyph-name="dcaron" unicode="&#x10f;" horiz-adv-x="683" 
d="M168.5 19.5q-53.5 32.5 -83 89t-29.5 125.5t29.5 126t83 89.5t122.5 32.5q60 0 111 -30t79 -85h2v389l58 12v-649q0 -52 5 -119h-56q-5 57 -5 102h-2q-29 -55 -80.5 -85t-111.5 -30q-69 0 -122.5 32.5zM394.5 63q42.5 27 66.5 72t24 99t-24 99.5t-66.5 72.5t-95.5 27
q-56 0 -97.5 -27t-64 -72.5t-22.5 -99.5t22.5 -99.5t64 -72t97.5 -26.5q53 0 95.5 27zM653 708h57l-68 -187h-46z" />
    <glyph glyph-name="dcroat" unicode="&#x111;" horiz-adv-x="634" 
d="M168.5 19.5q-53.5 32.5 -83 89t-29.5 125.5t29.5 126t83 89.5t122.5 32.5q60 0 111 -30t79 -85h2v203h-187v39h187v147h58v-147h62v-39h-62v-464q0 -36 4 -106h-56q-4 45 -4 102h-2q-29 -55 -80.5 -85t-111.5 -30q-69 0 -122.5 32.5zM395.5 62.5q42.5 26.5 66.5 72
t24 99.5t-24 99.5t-66.5 72.5t-96.5 27q-56 0 -97.5 -27t-64 -72.5t-22.5 -99.5t22.5 -99.5t64 -72t97.5 -26.5q54 0 96.5 26.5z" />
    <glyph glyph-name="e" unicode="e" horiz-adv-x="567" 
d="M172.5 18q-54.5 32 -85.5 89t-31 130q0 71 30.5 127t83.5 87.5t118 31.5q70 0 120.5 -31t76.5 -84t26 -117q0 -17 -1 -25h-397q1 -53 25 -96.5t66.5 -69.5t96.5 -26q51 0 96 17.5t76 43.5l10 -50q-78 -59 -187 -59q-69 0 -123.5 32zM455 269q-2 76 -47 122t-120 46
q-53 0 -92 -26.5t-59.5 -65.5t-22.5 -76h341z" />
    <glyph glyph-name="eacute" unicode="&#xe9;" horiz-adv-x="567" 
d="M172.5 18q-54.5 32 -85.5 89t-31 130q0 71 30.5 127t83.5 87.5t118 31.5q70 0 120.5 -31t76.5 -84t26 -117q0 -17 -1 -25h-397q1 -53 25 -96.5t66.5 -69.5t96.5 -26q51 0 96 17.5t76 43.5l10 -50q-78 -59 -187 -59q-69 0 -123.5 32zM455 269q-2 76 -47 122t-120 46
q-53 0 -92 -26.5t-59.5 -65.5t-22.5 -76h341zM349 709h68l-122 -144h-48z" />
    <glyph glyph-name="ebreve" unicode="&#x115;" horiz-adv-x="567" 
d="M172.5 18q-54.5 32 -85.5 89t-31 130q0 71 30.5 127t83.5 87.5t118 31.5q70 0 120.5 -31t76.5 -84t26 -117q0 -17 -1 -25h-397q1 -53 25 -96.5t66.5 -69.5t96.5 -26q51 0 96 17.5t76 43.5l10 -50q-78 -59 -187 -59q-69 0 -123.5 32zM455 269q-2 76 -47 122t-120 46
q-53 0 -92 -26.5t-59.5 -65.5t-22.5 -76h341zM198.5 607q-37.5 34 -43.5 97h36q8 -44 35.5 -67t66.5 -23q86 0 104 90h37q-8 -63 -46 -97t-95 -34t-94.5 34z" />
    <glyph glyph-name="ecaron" unicode="&#x11b;" horiz-adv-x="567" 
d="M172.5 18q-54.5 32 -85.5 89t-31 130q0 71 30.5 127t83.5 87.5t118 31.5q70 0 120.5 -31t76.5 -84t26 -117q0 -17 -1 -25h-397q1 -53 25 -96.5t66.5 -69.5t96.5 -26q51 0 96 17.5t76 43.5l10 -50q-78 -59 -187 -59q-69 0 -123.5 32zM455 269q-2 76 -47 122t-120 46
q-53 0 -92 -26.5t-59.5 -65.5t-22.5 -76h341zM153 709h52l87 -117l87 117h52l-108 -144h-62z" />
    <glyph glyph-name="ecircumflex" unicode="&#xea;" horiz-adv-x="567" 
d="M172.5 18q-54.5 32 -85.5 89t-31 130q0 71 30.5 127t83.5 87.5t118 31.5q70 0 120.5 -31t76.5 -84t26 -117q0 -17 -1 -25h-397q1 -53 25 -96.5t66.5 -69.5t96.5 -26q51 0 96 17.5t76 43.5l10 -50q-78 -59 -187 -59q-69 0 -123.5 32zM455 269q-2 76 -47 122t-120 46
q-53 0 -92 -26.5t-59.5 -65.5t-22.5 -76h341zM263 709h62l108 -144h-52l-87 118l-87 -118h-52z" />
    <glyph glyph-name="edieresis" unicode="&#xeb;" horiz-adv-x="567" 
d="M172.5 18q-54.5 32 -85.5 89t-31 130q0 71 30.5 127t83.5 87.5t118 31.5q70 0 120.5 -31t76.5 -84t26 -117q0 -17 -1 -25h-397q1 -53 25 -96.5t66.5 -69.5t96.5 -26q51 0 96 17.5t76 43.5l10 -50q-78 -59 -187 -59q-69 0 -123.5 32zM455 269q-2 76 -47 122t-120 46
q-53 0 -92 -26.5t-59.5 -65.5t-22.5 -76h341zM176 626q-12 12 -12 30q0 17 12.5 29t28.5 12q17 0 29 -12t12 -29q0 -18 -12 -30t-29 -12t-29 12zM351 626q-12 12 -12 30q0 17 12 29t29 12t29 -12t12 -29q0 -18 -12 -30t-29 -12t-29 12z" />
    <glyph glyph-name="edotaccent" unicode="&#x117;" horiz-adv-x="567" 
d="M172.5 18q-54.5 32 -85.5 89t-31 130q0 71 30.5 127t83.5 87.5t118 31.5q70 0 120.5 -31t76.5 -84t26 -117q0 -17 -1 -25h-397q1 -53 25 -96.5t66.5 -69.5t96.5 -26q51 0 96 17.5t76 43.5l10 -50q-78 -59 -187 -59q-69 0 -123.5 32zM455 269q-2 76 -47 122t-120 46
q-53 0 -92 -26.5t-59.5 -65.5t-22.5 -76h341zM264 626q-12 12 -12 30q0 17 12 29.5t29 12.5t29.5 -12.5t12.5 -29.5q0 -18 -13 -30t-29 -12q-17 0 -29 12z" />
    <glyph glyph-name="egrave" unicode="&#xe8;" horiz-adv-x="567" 
d="M172.5 18q-54.5 32 -85.5 89t-31 130q0 71 30.5 127t83.5 87.5t118 31.5q70 0 120.5 -31t76.5 -84t26 -117q0 -17 -1 -25h-397q1 -53 25 -96.5t66.5 -69.5t96.5 -26q51 0 96 17.5t76 43.5l10 -50q-78 -59 -187 -59q-69 0 -123.5 32zM455 269q-2 76 -47 122t-120 46
q-53 0 -92 -26.5t-59.5 -65.5t-22.5 -76h341zM166 709h68l102 -144h-48z" />
    <glyph glyph-name="emacron" unicode="&#x113;" horiz-adv-x="567" 
d="M172.5 18q-54.5 32 -85.5 89t-31 130q0 71 30.5 127t83.5 87.5t118 31.5q70 0 120.5 -31t76.5 -84t26 -117q0 -17 -1 -25h-397q1 -53 25 -96.5t66.5 -69.5t96.5 -26q51 0 96 17.5t76 43.5l10 -50q-78 -59 -187 -59q-69 0 -123.5 32zM455 269q-2 76 -47 122t-120 46
q-53 0 -92 -26.5t-59.5 -65.5t-22.5 -76h341zM163 652h260v-39h-260v39z" />
    <glyph glyph-name="eogonek" unicode="&#x119;" horiz-adv-x="567" 
d="M510 226h-397q1 -53 25 -96.5t66.5 -69.5t96.5 -26q51 0 96 17.5t76 43.5l10 -50q-57 -43 -127 -54q-41 -40 -60 -67.5t-19 -55.5q0 -25 15.5 -40t40.5 -15q17 0 33.5 7t28.5 19l16 -30q-17 -16 -41 -25t-48 -9q-38 0 -64.5 22.5t-26.5 60.5q0 33 21 64t57 65l-13 -1
q-69 0 -123.5 32t-85.5 89t-31 130q0 71 30.5 127t83.5 87.5t118 31.5q70 0 120.5 -31t76.5 -84t26 -117q0 -17 -1 -25zM455 269q-2 76 -47 122t-120 46q-53 0 -92 -26.5t-59.5 -65.5t-22.5 -76h341z" />
    <glyph glyph-name="f" unicode="f" horiz-adv-x="304" 
d="M116 422h-98l12 46h85v136q0 82 39 123.5t107 41.5q23 0 46.5 -3t38.5 -8l-7 -48q-38 10 -74 10q-49 0 -70 -33t-21 -84v-135h122l-13 -46h-109v-422h-58v422z" />
    <glyph glyph-name="g" unicode="g" horiz-adv-x="633" 
d="M180.5 -230.5q-53.5 15.5 -94.5 41.5l11 54q41 -27 91 -44t101 -17q101 0 147.5 54t46.5 148v99h-2q-26 -53 -78 -83.5t-112 -30.5q-69 0 -122.5 32t-83 87.5t-29.5 124.5q0 68 29.5 124.5t83.5 89.5t122 33q60 0 111.5 -30.5t79.5 -86.5h2q0 46 5 103h55q-3 -49 -3 -103
v-358q0 -115 -60.5 -184t-188.5 -69q-58 0 -111.5 15.5zM394.5 65.5q42.5 26.5 66.5 71.5t24 99q0 53 -24 98.5t-66.5 72t-95.5 26.5q-55 0 -97 -27t-64.5 -72t-22.5 -99q0 -53 22.5 -97.5t64.5 -71.5t97 -27q53 0 95.5 26.5z" />
    <glyph glyph-name="gbreve" unicode="&#x11f;" horiz-adv-x="633" 
d="M180.5 -230.5q-53.5 15.5 -94.5 41.5l11 54q41 -27 91 -44t101 -17q101 0 147.5 54t46.5 148v99h-2q-26 -53 -78 -83.5t-112 -30.5q-69 0 -122.5 32t-83 87.5t-29.5 124.5q0 68 29.5 124.5t83.5 89.5t122 33q60 0 111.5 -30.5t79.5 -86.5h2q0 46 5 103h55q-3 -49 -3 -103
v-358q0 -115 -60.5 -184t-188.5 -69q-58 0 -111.5 15.5zM394.5 65.5q42.5 26.5 66.5 71.5t24 99q0 53 -24 98.5t-66.5 72t-95.5 26.5q-55 0 -97 -27t-64.5 -72t-22.5 -99q0 -53 22.5 -97.5t64.5 -71.5t97 -27q53 0 95.5 26.5zM214.5 607q-37.5 34 -43.5 97h36
q8 -44 35.5 -67t66.5 -23q86 0 104 90h37q-8 -63 -46 -97t-95 -34t-94.5 34z" />
    <glyph glyph-name="gcircumflex" unicode="&#x11d;" horiz-adv-x="633" 
d="M180.5 -230.5q-53.5 15.5 -94.5 41.5l11 54q41 -27 91 -44t101 -17q101 0 147.5 54t46.5 148v99h-2q-26 -53 -78 -83.5t-112 -30.5q-69 0 -122.5 32t-83 87.5t-29.5 124.5q0 68 29.5 124.5t83.5 89.5t122 33q60 0 111.5 -30.5t79.5 -86.5h2q0 46 5 103h55q-3 -49 -3 -103
v-358q0 -115 -60.5 -184t-188.5 -69q-58 0 -111.5 15.5zM394.5 65.5q42.5 26.5 66.5 71.5t24 99q0 53 -24 98.5t-66.5 72t-95.5 26.5q-55 0 -97 -27t-64.5 -72t-22.5 -99q0 -53 22.5 -97.5t64.5 -71.5t97 -27q53 0 95.5 26.5zM278 709h62l108 -144h-52l-87 118l-87 -118h-52
z" />
    <glyph glyph-name="gcommaaccent" unicode="&#x123;" horiz-adv-x="633" 
d="M180.5 -230.5q-53.5 15.5 -94.5 41.5l11 54q41 -27 91 -44t101 -17q101 0 147.5 54t46.5 148v99h-2q-26 -53 -78 -83.5t-112 -30.5q-69 0 -122.5 32t-83 87.5t-29.5 124.5q0 68 29.5 124.5t83.5 89.5t122 33q60 0 111.5 -30.5t79.5 -86.5h2q0 46 5 103h55q-3 -49 -3 -103
v-358q0 -115 -60.5 -184t-188.5 -69q-58 0 -111.5 15.5zM394.5 65.5q42.5 26.5 66.5 71.5t24 99q0 53 -24 98.5t-66.5 72t-95.5 26.5q-55 0 -97 -27t-64.5 -72t-22.5 -99q0 -53 22.5 -97.5t64.5 -71.5t97 -27q53 0 95.5 26.5zM340 752h47l-57 -187h-57z" />
    <glyph glyph-name="gdotaccent" unicode="&#x121;" horiz-adv-x="633" 
d="M180.5 -230.5q-53.5 15.5 -94.5 41.5l11 54q41 -27 91 -44t101 -17q101 0 147.5 54t46.5 148v99h-2q-26 -53 -78 -83.5t-112 -30.5q-69 0 -122.5 32t-83 87.5t-29.5 124.5q0 68 29.5 124.5t83.5 89.5t122 33q60 0 111.5 -30.5t79.5 -86.5h2q0 46 5 103h55q-3 -49 -3 -103
v-358q0 -115 -60.5 -184t-188.5 -69q-58 0 -111.5 15.5zM394.5 65.5q42.5 26.5 66.5 71.5t24 99q0 53 -24 98.5t-66.5 72t-95.5 26.5q-55 0 -97 -27t-64.5 -72t-22.5 -99q0 -53 22.5 -97.5t64.5 -71.5t97 -27q53 0 95.5 26.5zM279 626q-12 12 -12 30q0 17 12 29.5t29 12.5
t29.5 -12.5t12.5 -29.5q0 -18 -13 -30t-29 -12q-17 0 -29 12z" />
    <glyph glyph-name="h" unicode="h" horiz-adv-x="581" 
d="M93 754l59 9v-394h2q19 52 65.5 82.5t102.5 30.5q89 0 130 -55.5t41 -140.5v-286h-58v271q0 69 -29 115.5t-99 46.5q-43 0 -78.5 -24t-56 -70t-20.5 -111v-228h-59v754z" />
    <glyph glyph-name="hbar" unicode="&#x127;" horiz-adv-x="581" 
d="M93 570h-63v39h63v147h59v-147h187v-39h-187v-201h2q19 52 65.5 82.5t102.5 30.5q89 0 130 -55.5t41 -140.5v-286h-58v271q0 69 -29 115.5t-99 46.5q-43 0 -78.5 -23t-56 -67t-20.5 -104v-239h-59v570z" />
    <glyph glyph-name="hcircumflex" unicode="&#x125;" horiz-adv-x="581" 
d="M93 754l59 9v-394h2q19 52 65.5 82.5t102.5 30.5q89 0 130 -55.5t41 -140.5v-286h-58v271q0 69 -29 115.5t-99 46.5q-43 0 -78.5 -24t-56 -70t-20.5 -111v-228h-59v754zM257 936h62l108 -144h-52l-87 117l-87 -117h-52z" />
    <glyph glyph-name="i" unicode="i" horiz-adv-x="244" 
d="M92.5 625.5q-12.5 12.5 -12.5 30.5q0 17 12.5 29.5t29.5 12.5t29.5 -12t12.5 -30t-12.5 -30.5t-29.5 -12.5t-29.5 12.5zM93 468h59v-468h-59v468z" />
    <glyph glyph-name="dotlessi" unicode="&#x131;" horiz-adv-x="244" 
d="M93 468h59v-468h-59v468z" />
    <glyph glyph-name="iacute" unicode="&#xed;" horiz-adv-x="244" 
d="M93 468h59v-468h-59v468zM195 709h68l-122 -144h-48z" />
    <glyph glyph-name="ibreve" unicode="&#x12d;" horiz-adv-x="244" 
d="M93 468h59v-468h-59v468zM26.5 607q-37.5 34 -43.5 97h36q8 -44 35.5 -67t66.5 -23q86 0 104 90h37q-8 -63 -46 -97t-95 -34t-94.5 34z" />
    <glyph glyph-name="icircumflex" unicode="&#xee;" horiz-adv-x="244" 
d="M93 468h59v-468h-59v468zM93 709h62l108 -144h-52l-87 118l-87 -118h-52z" />
    <glyph glyph-name="idieresis" unicode="&#xef;" horiz-adv-x="244" 
d="M93 468h59v-468h-59v468zM7 626q-12 12 -12 30q0 17 12.5 29t28.5 12q17 0 29 -12t12 -29q0 -18 -12 -30t-29 -12t-29 12zM182 626q-12 12 -12 30q0 17 12 29t29 12t29 -12t12 -29q0 -18 -12 -30t-29 -12t-29 12z" />
    <glyph glyph-name="igrave" unicode="&#xec;" horiz-adv-x="244" 
d="M93 468h59v-468h-59v468zM-19 709h68l102 -144h-48z" />
    <glyph glyph-name="ij" unicode="&#x133;" horiz-adv-x="489" 
d="M92.5 625.5q-12.5 12.5 -12.5 30.5q0 17 12.5 29.5t29.5 12.5t29.5 -12t12.5 -30t-12.5 -30.5t-29.5 -12.5t-29.5 12.5zM93 468h59v-468h-59v468zM337.5 625.5q-12.5 12.5 -12.5 30.5q0 17 12.5 29.5t29.5 12.5t29.5 -12t12.5 -30t-13 -30.5t-29 -12.5q-17 0 -29.5 12.5z
M319.5 -166q18.5 25 18.5 90v544h58v-546q0 -77 -28.5 -118.5t-100.5 -44.5l-15 50q49 0 67.5 25z" />
    <glyph glyph-name="imacron" unicode="&#x12b;" horiz-adv-x="244" 
d="M93 468h59v-468h-59v468zM-7 652h260v-39h-260v39z" />
    <glyph glyph-name="iogonek" unicode="&#x12f;" horiz-adv-x="244" 
d="M92.5 625.5q-12.5 12.5 -12.5 30.5q0 17 12.5 29.5t29.5 12.5t29.5 -12t12.5 -30t-12.5 -30.5t-29.5 -12.5t-29.5 12.5zM196 -191q-17 -16 -40.5 -25t-48.5 -9q-38 0 -64.5 22.5t-26.5 60.5q0 36 25 69.5t68 72.5h-16v468h59v-468h-2q-47 -45 -67.5 -74t-20.5 -58
q0 -24 16 -39.5t40 -15.5q17 0 33.5 7t28.5 19z" />
    <glyph glyph-name="itilde" unicode="&#x129;" horiz-adv-x="244" 
d="M93 468h59v-468h-59v468zM7 650.5q19 24.5 51 24.5q17 0 32.5 -5.5t36.5 -18.5q24 -13 37 -18t25 -5q34 0 42 48h33q-5 -41 -24 -64.5t-51 -23.5q-17 0 -32 5.5t-37 17.5q-22 13 -35.5 18t-26.5 5q-33 0 -43 -49h-32q5 41 24 65.5z" />
    <glyph glyph-name="j" unicode="j" horiz-adv-x="245" 
d="M93.5 625.5q-12.5 12.5 -12.5 30.5q0 17 12.5 29.5t29.5 12.5t29.5 -12t12.5 -30t-13 -30.5t-29 -12.5q-17 0 -29.5 12.5zM75.5 -166q18.5 25 18.5 90v544h58v-546q0 -77 -28.5 -118.5t-100.5 -44.5l-15 50q49 0 67.5 25z" />
    <glyph glyph-name="uni0237" unicode="&#x237;" horiz-adv-x="245" 
d="M-23 -235l7 48q20 -4 31 -4q49 0 64 29t15 82v548h58v-550q0 -78 -28.5 -118.5t-103.5 -40.5q-25 0 -43 6z" />
    <glyph glyph-name="jcircumflex" unicode="&#x135;" horiz-adv-x="245" 
d="M-23 -235l7 48q20 -4 31 -4q49 0 64 29t15 82v548h58v-550q0 -78 -28.5 -118.5t-103.5 -40.5q-25 0 -43 6zM91 709h62l108 -144h-52l-87 118l-87 -118h-52z" />
    <glyph glyph-name="k" unicode="k" horiz-adv-x="488" 
d="M93 753l59 10v-507h2l218 212h77l-231 -215l253 -253h-76l-241 244h-2v-244h-59v753z" />
    <glyph glyph-name="kcommaaccent" unicode="&#x137;" horiz-adv-x="488" 
d="M93 753l59 10v-507h2l218 212h77l-231 -215l253 -253h-76l-241 244h-2v-244h-59v753zM246 -45h57l-68 -187h-46z" />
    <glyph glyph-name="kgreenlandic" unicode="&#x138;" horiz-adv-x="488" 
d="M394 0l-240 243h-2v-243h-59v468h59v-209h2l218 209h78l-233 -215l256 -253h-79z" />
    <glyph glyph-name="l" unicode="l" horiz-adv-x="246" 
d="M114 29.5q-21 28.5 -21 74.5v647l59 11v-645q0 -34 9.5 -50.5t34.5 -28.5l-27 -49q-34 12 -55 40.5z" />
    <glyph glyph-name="lacute" unicode="&#x13a;" horiz-adv-x="246" 
d="M114 29.5q-21 28.5 -21 74.5v647l59 11v-645q0 -34 9.5 -50.5t34.5 -28.5l-27 -49q-34 12 -55 40.5zM198 922h67l-122 -144h-48z" />
    <glyph glyph-name="lcaron" unicode="&#x13e;" horiz-adv-x="290" 
d="M114 29.5q-21 28.5 -21 74.5v647l59 11v-645q0 -34 9.5 -50.5t34.5 -28.5l-27 -49q-34 12 -55 40.5zM260 708h57l-68 -187h-46z" />
    <glyph glyph-name="lcommaaccent" unicode="&#x13c;" horiz-adv-x="246" 
d="M114 29.5q-21 28.5 -21 74.5v647l59 11v-645q0 -34 9.5 -50.5t34.5 -28.5l-27 -49q-34 12 -55 40.5zM114 -45h57l-68 -187h-46z" />
    <glyph glyph-name="ldot" unicode="&#x140;" horiz-adv-x="296" 
d="M114 29.5q-21 28.5 -21 74.5v647l59 11v-645q0 -34 9.5 -50.5t34.5 -28.5l-27 -49q-34 12 -55 40.5zM214 336q-12 12 -12 30q0 17 12 29.5t29 12.5t29.5 -12.5t12.5 -29.5q0 -18 -13 -30t-29 -12q-17 0 -29 12z" />
    <glyph glyph-name="lslash" unicode="&#x142;" horiz-adv-x="246" 
d="M152 383v-266q0 -34 9.5 -50.5t34.5 -28.5l-27 -49q-34 12 -55 40.5t-21 74.5v231l-65 -63v60l65 62v357l59 11v-321l74 69v-58z" />
    <glyph glyph-name="m" unicode="m" horiz-adv-x="893" 
d="M94 359q0 72 -4 109h55q5 -40 5 -101h2q20 53 64 84t98 31q59 0 97 -31.5t56 -88.5q22 57 66.5 88.5t103.5 31.5q88 0 128.5 -57t40.5 -144v-281h-58v267q0 71 -28.5 118.5t-94.5 47.5t-107 -53t-41 -138v-242h-59v277q0 75 -30 115.5t-88 40.5q-41 0 -74.5 -23.5
t-53 -69t-19.5 -107.5v-233h-59v359z" />
    <glyph glyph-name="n" unicode="n" horiz-adv-x="582" 
d="M94 359q0 73 -4 109h55q5 -40 5 -101h2q20 52 66.5 83.5t102.5 31.5q89 0 131.5 -56t42.5 -140v-286h-59v271q0 69 -29 115.5t-98 46.5q-43 0 -79 -23t-56.5 -67t-20.5 -104v-239h-59v359z" />
    <glyph glyph-name="nacute" unicode="&#x144;" horiz-adv-x="582" 
d="M94 359q0 73 -4 109h55q5 -40 5 -101h2q20 52 66.5 83.5t102.5 31.5q89 0 131.5 -56t42.5 -140v-286h-59v271q0 69 -29 115.5t-98 46.5q-43 0 -79 -23t-56.5 -67t-20.5 -104v-239h-59v359zM354 709h68l-122 -144h-48z" />
    <glyph glyph-name="napostrophe" unicode="&#x149;" horiz-adv-x="598" 
d="M110 359q0 73 -4 109h55q5 -40 5 -101h2q20 52 66.5 83.5t102.5 31.5q89 0 131.5 -56t42.5 -140v-286h-59v271q0 69 -29 115.5t-98 46.5q-43 0 -79 -23t-56.5 -67t-20.5 -104v-239h-59v359zM82 720h57l-68 -187h-46z" />
    <glyph glyph-name="ncaron" unicode="&#x148;" horiz-adv-x="582" 
d="M94 359q0 73 -4 109h55q5 -40 5 -101h2q20 52 66.5 83.5t102.5 31.5q89 0 131.5 -56t42.5 -140v-286h-59v271q0 69 -29 115.5t-98 46.5q-43 0 -79 -23t-56.5 -67t-20.5 -104v-239h-59v359zM157 709h52l87 -117l87 117h52l-108 -144h-62z" />
    <glyph glyph-name="ncommaaccent" unicode="&#x146;" horiz-adv-x="582" 
d="M94 359q0 73 -4 109h55q5 -40 5 -101h2q20 52 66.5 83.5t102.5 31.5q89 0 131.5 -56t42.5 -140v-286h-59v271q0 69 -29 115.5t-98 46.5q-43 0 -79 -23t-56.5 -67t-20.5 -104v-239h-59v359zM275 -46h57l-68 -187h-46z" />
    <glyph glyph-name="eng" unicode="&#x14b;" horiz-adv-x="582" 
d="M320 -235l7 48q20 -4 31 -4q48 0 63 29t15 82v351q0 69 -29 115.5t-98 46.5q-43 0 -79 -23t-56.5 -67t-20.5 -104v-239h-59v362q0 70 -4 106h56q4 -48 4 -101h2q20 52 67.5 83.5t103.5 31.5q88 0 130 -56t42 -140v-368q0 -78 -29 -118.5t-104 -40.5q-25 0 -42 6z" />
    <glyph glyph-name="ntilde" unicode="&#xf1;" horiz-adv-x="582" 
d="M94 359q0 73 -4 109h55q5 -40 5 -101h2q20 52 66.5 83.5t102.5 31.5q89 0 131.5 -56t42.5 -140v-286h-59v271q0 69 -29 115.5t-98 46.5q-43 0 -79 -23t-56.5 -67t-20.5 -104v-239h-59v359zM178 650.5q19 24.5 51 24.5q17 0 32.5 -5.5t36.5 -18.5q24 -13 37 -18t25 -5
q34 0 42 48h33q-5 -41 -24 -64.5t-51 -23.5q-17 0 -32 5.5t-37 17.5q-22 13 -35.5 18t-26.5 5q-33 0 -43 -49h-32q5 41 24 65.5z" />
    <glyph glyph-name="o" unicode="o" horiz-adv-x="611" 
d="M177.5 18q-56.5 32 -89 89t-32.5 128q0 72 32.5 128.5t89 88t127.5 31.5t128 -31.5t89.5 -88t32.5 -128.5q0 -71 -32.5 -128t-89.5 -89t-128 -32t-127.5 32zM406.5 63q43.5 27 66.5 72.5t23 99.5q0 55 -23.5 100t-67 71.5t-100.5 26.5t-100.5 -26.5t-66.5 -71.5t-23 -100
q0 -54 23 -99.5t66.5 -72.5t100.5 -27q58 0 101.5 27z" />
    <glyph glyph-name="oacute" unicode="&#xf3;" horiz-adv-x="611" 
d="M177.5 18q-56.5 32 -89 89t-32.5 128q0 72 32.5 128.5t89 88t127.5 31.5t128 -31.5t89.5 -88t32.5 -128.5q0 -71 -32.5 -128t-89.5 -89t-128 -32t-127.5 32zM406.5 63q43.5 27 66.5 72.5t23 99.5q0 55 -23.5 100t-67 71.5t-100.5 26.5t-100.5 -26.5t-66.5 -71.5t-23 -100
q0 -54 23 -99.5t66.5 -72.5t100.5 -27q58 0 101.5 27zM362 709h68l-122 -144h-48z" />
    <glyph glyph-name="obreve" unicode="&#x14f;" horiz-adv-x="611" 
d="M177.5 18q-56.5 32 -89 89t-32.5 128q0 72 32.5 128.5t89 88t127.5 31.5t128 -31.5t89.5 -88t32.5 -128.5q0 -71 -32.5 -128t-89.5 -89t-128 -32t-127.5 32zM406.5 63q43.5 27 66.5 72.5t23 99.5q0 55 -23.5 100t-67 71.5t-100.5 26.5t-100.5 -26.5t-66.5 -71.5t-23 -100
q0 -54 23 -99.5t66.5 -72.5t100.5 -27q58 0 101.5 27zM210.5 607q-37.5 34 -43.5 97h36q8 -44 35.5 -67t66.5 -23q86 0 104 90h37q-8 -63 -46 -97t-95 -34t-94.5 34z" />
    <glyph glyph-name="ocircumflex" unicode="&#xf4;" horiz-adv-x="611" 
d="M177.5 18q-56.5 32 -89 89t-32.5 128q0 72 32.5 128.5t89 88t127.5 31.5t128 -31.5t89.5 -88t32.5 -128.5q0 -71 -32.5 -128t-89.5 -89t-128 -32t-127.5 32zM406.5 63q43.5 27 66.5 72.5t23 99.5q0 55 -23.5 100t-67 71.5t-100.5 26.5t-100.5 -26.5t-66.5 -71.5t-23 -100
q0 -54 23 -99.5t66.5 -72.5t100.5 -27q58 0 101.5 27zM275 709h62l108 -144h-52l-87 118l-87 -118h-52z" />
    <glyph glyph-name="odieresis" unicode="&#xf6;" horiz-adv-x="611" 
d="M177.5 18q-56.5 32 -89 89t-32.5 128q0 72 32.5 128.5t89 88t127.5 31.5t128 -31.5t89.5 -88t32.5 -128.5q0 -71 -32.5 -128t-89.5 -89t-128 -32t-127.5 32zM406.5 63q43.5 27 66.5 72.5t23 99.5q0 55 -23.5 100t-67 71.5t-100.5 26.5t-100.5 -26.5t-66.5 -71.5t-23 -100
q0 -54 23 -99.5t66.5 -72.5t100.5 -27q58 0 101.5 27zM191 626q-12 12 -12 30q0 17 12.5 29t28.5 12q17 0 29 -12t12 -29q0 -18 -12 -30t-29 -12t-29 12zM366 626q-12 12 -12 30q0 17 12 29t29 12t29 -12t12 -29q0 -18 -12 -30t-29 -12t-29 12z" />
    <glyph glyph-name="ograve" unicode="&#xf2;" horiz-adv-x="611" 
d="M177.5 18q-56.5 32 -89 89t-32.5 128q0 72 32.5 128.5t89 88t127.5 31.5t128 -31.5t89.5 -88t32.5 -128.5q0 -71 -32.5 -128t-89.5 -89t-128 -32t-127.5 32zM406.5 63q43.5 27 66.5 72.5t23 99.5q0 55 -23.5 100t-67 71.5t-100.5 26.5t-100.5 -26.5t-66.5 -71.5t-23 -100
q0 -54 23 -99.5t66.5 -72.5t100.5 -27q58 0 101.5 27zM182 709h68l102 -144h-48z" />
    <glyph glyph-name="ohungarumlaut" unicode="&#x151;" horiz-adv-x="611" 
d="M177.5 18q-56.5 32 -89 89t-32.5 128q0 72 32.5 128.5t89 88t127.5 31.5t128 -31.5t89.5 -88t32.5 -128.5q0 -71 -32.5 -128t-89.5 -89t-128 -32t-127.5 32zM406.5 63q43.5 27 66.5 72.5t23 99.5q0 55 -23.5 100t-67 71.5t-100.5 26.5t-100.5 -26.5t-66.5 -71.5t-23 -100
q0 -54 23 -99.5t66.5 -72.5t100.5 -27q58 0 101.5 27zM347 709h68l-123 -144h-48zM419 709h67l-122 -144h-48z" />
    <glyph glyph-name="omacron" unicode="&#x14d;" horiz-adv-x="611" 
d="M177.5 18q-56.5 32 -89 89t-32.5 128q0 72 32.5 128.5t89 88t127.5 31.5t128 -31.5t89.5 -88t32.5 -128.5q0 -71 -32.5 -128t-89.5 -89t-128 -32t-127.5 32zM406.5 63q43.5 27 66.5 72.5t23 99.5q0 55 -23.5 100t-67 71.5t-100.5 26.5t-100.5 -26.5t-66.5 -71.5t-23 -100
q0 -54 23 -99.5t66.5 -72.5t100.5 -27q58 0 101.5 27zM175 652h260v-39h-260v39z" />
    <glyph glyph-name="oslash" unicode="&#xf8;" horiz-adv-x="611" 
d="M45 4l68 68q-27 32 -42 73.5t-15 89.5q0 71 32 128t89 88.5t128 31.5q92 0 162 -55l63 63l27 -26l-64 -63q30 -31 46 -74t16 -93q0 -72 -32 -128.5t-89 -88.5t-129 -32q-49 0 -91.5 16t-73.5 45l-68 -69zM430 391q-51 44 -125 44q-58 0 -101.5 -26.5t-66.5 -72
t-23 -100.5q0 -36 9.5 -68.5t28.5 -56.5zM406.5 61.5q43.5 26.5 67 72.5t23.5 101q0 37 -11 70.5t-32 58.5l-278 -280q23 -24 56 -36.5t73 -12.5q58 0 101.5 26.5z" />
    <glyph glyph-name="oslashacute" unicode="&#x1ff;" horiz-adv-x="611" 
d="M45 4l68 68q-27 32 -42 73.5t-15 89.5q0 71 32 128t89 88.5t128 31.5q92 0 162 -55l63 63l27 -26l-64 -63q30 -31 46 -74t16 -93q0 -72 -32 -128.5t-89 -88.5t-129 -32q-49 0 -91.5 16t-73.5 45l-68 -69zM430 391q-51 44 -125 44q-58 0 -101.5 -26.5t-66.5 -72
t-23 -100.5q0 -36 9.5 -68.5t28.5 -56.5zM406.5 61.5q43.5 26.5 67 72.5t23.5 101q0 37 -11 70.5t-32 58.5l-278 -280q23 -24 56 -36.5t73 -12.5q58 0 101.5 26.5zM365 709h68l-122 -144h-48z" />
    <glyph glyph-name="otilde" unicode="&#xf5;" horiz-adv-x="611" 
d="M177.5 18q-56.5 32 -89 89t-32.5 128q0 72 32.5 128.5t89 88t127.5 31.5t128 -31.5t89.5 -88t32.5 -128.5q0 -71 -32.5 -128t-89.5 -89t-128 -32t-127.5 32zM406.5 63q43.5 27 66.5 72.5t23 99.5q0 55 -23.5 100t-67 71.5t-100.5 26.5t-100.5 -26.5t-66.5 -71.5t-23 -100
q0 -54 23 -99.5t66.5 -72.5t100.5 -27q58 0 101.5 27zM190 650.5q19 24.5 51 24.5q17 0 32.5 -5.5t36.5 -18.5q24 -13 37 -18t25 -5q34 0 42 48h33q-5 -41 -24 -64.5t-51 -23.5q-17 0 -32 5.5t-37 17.5q-22 13 -35.5 18t-26.5 5q-33 0 -43 -49h-32q5 41 24 65.5z" />
    <glyph glyph-name="oe" unicode="&#x153;" horiz-adv-x="1000" 
d="M176.5 18q-56.5 32 -88.5 88.5t-32 128.5t32 128.5t88.5 88t128.5 31.5q75 0 132 -36.5t84 -98.5q26 62 79.5 98.5t122.5 36.5q70 0 120 -31.5t75.5 -84.5t25.5 -117v-25h-396q1 -50 23 -94t64.5 -70.5t99.5 -26.5q52 0 96 16t77 41l10 -48q-77 -57 -188 -57
q-73 0 -128 36.5t-81 99.5q-27 -63 -83.5 -99.5t-132.5 -36.5q-72 0 -128.5 32zM888 267q-2 76 -46.5 123t-119.5 47q-53 0 -92 -27t-59.5 -66.5t-21.5 -76.5h339zM405.5 63q43.5 27 67 72.5t23.5 99.5q0 55 -23.5 100t-67 71.5t-100.5 26.5t-100.5 -26.5t-66.5 -71.5
t-23 -100q0 -54 23 -99.5t66.5 -72.5t100.5 -27t100.5 27z" />
    <glyph glyph-name="p" unicode="p" horiz-adv-x="634" 
d="M92 382q0 43 -3 86h57q4 -56 4 -102h3q27 55 78 85.5t112 30.5q69 0 122.5 -32.5t83 -89t29.5 -126.5q0 -69 -29.5 -125.5t-83 -89t-122.5 -32.5q-60 0 -111.5 30t-77.5 83h-3v-340h-59v622zM431.5 62.5q41.5 26.5 64 72t22.5 99.5t-22.5 99.5t-64 72.5t-96.5 27
q-53 0 -95.5 -27t-66.5 -72.5t-24 -99.5t24 -99t66.5 -72t95.5 -27q55 0 96.5 26.5z" />
    <glyph glyph-name="thorn" unicode="&#xfe;" horiz-adv-x="633" 
d="M93 756h58v-389h3q27 55 77.5 85t111.5 30q68 0 121.5 -32.5t83 -89t29.5 -126.5q0 -69 -30 -125.5t-83.5 -89t-121.5 -32.5q-60 0 -112 30t-77 84h-2v-341h-58v996zM431 63q42 27 65 72t23 99t-23 99.5t-65 72.5t-97 27q-54 0 -96.5 -27t-66 -72.5t-23.5 -99.5
t23.5 -99.5t66 -72t96.5 -26.5q55 0 97 27z" />
    <glyph glyph-name="q" unicode="q" horiz-adv-x="634" 
d="M483 -110v210h-3q-26 -53 -77.5 -83t-111.5 -30q-69 0 -122.5 32.5t-83 89t-29.5 125.5q0 70 29.5 126.5t83 89t122.5 32.5q61 0 112 -30.5t78 -85.5h3q0 34 4 102h56q-3 -42 -3 -86v-480q0 -42 15.5 -61.5t53.5 -31.5l-27 -50q-100 27 -100 131zM394.5 63
q42.5 27 66.5 72t24 99t-24 99.5t-66.5 72.5t-95.5 27q-56 0 -97.5 -27t-64 -72.5t-22.5 -99.5t22.5 -99.5t64 -72t97.5 -26.5q53 0 95.5 27z" />
    <glyph glyph-name="r" unicode="r" horiz-adv-x="342" 
d="M94 354q0 78 -5 114h56q5 -42 5 -101h2q18 54 56.5 84.5t80.5 30.5q26 0 50 -8l-12 -51q-21 7 -42 7q-61 0 -96.5 -57.5t-35.5 -139.5v-233h-59v354z" />
    <glyph glyph-name="racute" unicode="&#x155;" horiz-adv-x="342" 
d="M94 354q0 78 -5 114h56q5 -42 5 -101h2q18 54 56.5 84.5t80.5 30.5q26 0 50 -8l-12 -51q-21 7 -42 7q-61 0 -96.5 -57.5t-35.5 -139.5v-233h-59v354zM221 709h68l-122 -144h-48z" />
    <glyph glyph-name="rcaron" unicode="&#x159;" horiz-adv-x="342" 
d="M94 354q0 78 -5 114h56q5 -42 5 -101h2q18 54 56.5 84.5t80.5 30.5q26 0 50 -8l-12 -51q-21 7 -42 7q-61 0 -96.5 -57.5t-35.5 -139.5v-233h-59v354zM66 709h52l87 -117l87 117h52l-108 -144h-62z" />
    <glyph glyph-name="rcommaaccent" unicode="&#x157;" horiz-adv-x="342" 
d="M94 354q0 78 -5 114h56q5 -42 5 -101h2q18 54 56.5 84.5t80.5 30.5q26 0 50 -8l-12 -51q-21 7 -42 7q-61 0 -96.5 -57.5t-35.5 -139.5v-233h-59v354zM110 -45h57l-68 -187h-46z" />
    <glyph glyph-name="s" unicode="s" horiz-adv-x="432" 
d="M127.5 1.5q-44.5 14.5 -72.5 37.5l10 51q65 -57 156 -57q43 0 74 23.5t31 64.5q0 35 -30.5 57t-98.5 44q-67 22 -100 50.5t-33 81.5q0 41 22.5 70.5t58 44t74.5 14.5q44 0 83.5 -15t65.5 -35l-25 -43q-24 20 -55.5 33t-66.5 13q-44 0 -73 -20t-29 -59q0 -35 26.5 -54.5
t92.5 -41.5q74 -24 109 -55t35 -83q0 -43 -22.5 -74t-59 -46.5t-77.5 -15.5q-51 0 -95.5 14.5z" />
    <glyph glyph-name="sacute" unicode="&#x15b;" horiz-adv-x="432" 
d="M127.5 1.5q-44.5 14.5 -72.5 37.5l10 51q65 -57 156 -57q43 0 74 23.5t31 64.5q0 35 -30.5 57t-98.5 44q-67 22 -100 50.5t-33 81.5q0 41 22.5 70.5t58 44t74.5 14.5q44 0 83.5 -15t65.5 -35l-25 -43q-24 20 -55.5 33t-66.5 13q-44 0 -73 -20t-29 -59q0 -35 26.5 -54.5
t92.5 -41.5q74 -24 109 -55t35 -83q0 -43 -22.5 -74t-59 -46.5t-77.5 -15.5q-51 0 -95.5 14.5zM279 709h68l-122 -144h-48z" />
    <glyph glyph-name="scaron" unicode="&#x161;" horiz-adv-x="432" 
d="M127.5 1.5q-44.5 14.5 -72.5 37.5l10 51q65 -57 156 -57q43 0 74 23.5t31 64.5q0 35 -30.5 57t-98.5 44q-67 22 -100 50.5t-33 81.5q0 41 22.5 70.5t58 44t74.5 14.5q44 0 83.5 -15t65.5 -35l-25 -43q-24 20 -55.5 33t-66.5 13q-44 0 -73 -20t-29 -59q0 -35 26.5 -54.5
t92.5 -41.5q74 -24 109 -55t35 -83q0 -43 -22.5 -74t-59 -46.5t-77.5 -15.5q-51 0 -95.5 14.5zM82 709h52l87 -117l87 117h52l-108 -144h-62z" />
    <glyph glyph-name="scedilla" unicode="&#x15f;" horiz-adv-x="432" 
d="M338.5 26.5q-43.5 -35.5 -103.5 -38.5l-46 -67q23 6 43 6q36 0 62 -17t26 -54q0 -46 -36.5 -65.5t-82.5 -19.5q-22 0 -48.5 5.5t-47.5 15.5l11 29q18 -8 40 -12.5t42 -4.5q30 0 53.5 12t23.5 40q0 23 -18.5 33.5t-44.5 10.5q-13 0 -30 -3.5t-27 -8.5l-16 14l59 86
q-43 4 -81 17.5t-62 33.5l10 51q65 -57 156 -57q43 0 74 23.5t31 64.5q0 35 -30.5 57t-98.5 44q-67 22 -100 50.5t-33 81.5q0 41 22.5 70.5t58 44t74.5 14.5q44 0 83.5 -15t65.5 -35l-25 -43q-24 20 -55.5 33t-66.5 13q-44 0 -73 -20t-29 -59q0 -35 26.5 -54.5t92.5 -41.5
q74 -24 109 -55t35 -83q0 -61 -43.5 -96.5z" />
    <glyph glyph-name="scircumflex" unicode="&#x15d;" horiz-adv-x="432" 
d="M127.5 1.5q-44.5 14.5 -72.5 37.5l10 51q65 -57 156 -57q43 0 74 23.5t31 64.5q0 35 -30.5 57t-98.5 44q-67 22 -100 50.5t-33 81.5q0 41 22.5 70.5t58 44t74.5 14.5q44 0 83.5 -15t65.5 -35l-25 -43q-24 20 -55.5 33t-66.5 13q-44 0 -73 -20t-29 -59q0 -35 26.5 -54.5
t92.5 -41.5q74 -24 109 -55t35 -83q0 -43 -22.5 -74t-59 -46.5t-77.5 -15.5q-51 0 -95.5 14.5zM190 709h62l108 -144h-52l-87 118l-87 -118h-52z" />
    <glyph glyph-name="scommaaccent" unicode="&#x219;" horiz-adv-x="432" 
d="M127.5 1.5q-44.5 14.5 -72.5 37.5l10 51q65 -57 156 -57q43 0 74 23.5t31 64.5q0 35 -30.5 57t-98.5 44q-67 22 -100 50.5t-33 81.5q0 41 22.5 70.5t58 44t74.5 14.5q44 0 83.5 -15t65.5 -35l-25 -43q-24 20 -55.5 33t-66.5 13q-44 0 -73 -20t-29 -59q0 -35 26.5 -54.5
t92.5 -41.5q74 -24 109 -55t35 -83q0 -43 -22.5 -74t-59 -46.5t-77.5 -15.5q-51 0 -95.5 14.5zM197 -45h57l-68 -187h-46z" />
    <glyph glyph-name="germandbls" unicode="&#xdf;" horiz-adv-x="604" 
d="M259 -6v51q28 -6 51 -6q82 0 130.5 47.5t48.5 130.5q0 89 -53.5 135.5t-138.5 46.5h-14v50h15q62 0 103.5 35.5t41.5 101.5q0 61 -38.5 96.5t-99.5 35.5q-83 0 -119 -54t-36 -133v-531h-58v533q0 103 53.5 169t160.5 66q56 0 100.5 -22t70 -62.5t25.5 -94.5
q0 -64 -34.5 -105t-91.5 -56v-2q78 -11 126 -65t48 -146q0 -68 -29 -119t-81.5 -79t-122.5 -28q-26 0 -58 5z" />
    <glyph glyph-name="t" unicode="t" horiz-adv-x="322" 
d="M129.5 22q-29.5 32 -29.5 91v309h-88l12 46h75v112l59 23v-135h133l-12 -46h-121v-301q0 -43 18.5 -63t49.5 -20q33 0 75 21l8 -44q-21 -11 -47 -18t-53 -7q-50 0 -79.5 32z" />
    <glyph glyph-name="tbar" unicode="&#x167;" horiz-adv-x="322" 
d="M309 15q-21 -11 -47 -18t-53 -7q-50 0 -79.5 32t-29.5 91v142l-69 13l38 23h31v131h-88l12 46h75v112l59 23v-135h133l-12 -46h-121v-131h11l107 -16l-17 -22h-101v-132q0 -43 18.5 -63t49.5 -20q33 0 75 21z" />
    <glyph glyph-name="tcaron" unicode="&#x165;" horiz-adv-x="338" 
d="M122.5 22q-29.5 32 -29.5 91v309h-88l12 46h75v112l59 23v-135h133l-12 -46h-121v-301q0 -43 18.5 -63t49.5 -20q33 0 75 21l8 -44q-21 -11 -47 -18t-53 -7q-50 0 -79.5 32zM292 731h57l-68 -187h-46z" />
    <glyph glyph-name="u" unicode="u" horiz-adv-x="582" 
d="M127.5 43q-41.5 56 -41.5 140v285h59v-270q0 -70 28.5 -116.5t98.5 -46.5q44 0 79.5 23.5t56 69t20.5 107.5v233h58v-359q0 -22 2.5 -55t6.5 -54l-58 -1q-3 24 -9 102q-20 -52 -67.5 -83t-103.5 -31q-88 0 -129.5 56z" />
    <glyph glyph-name="uacute" unicode="&#xfa;" horiz-adv-x="582" 
d="M127.5 43q-41.5 56 -41.5 140v285h59v-270q0 -70 28.5 -116.5t98.5 -46.5q44 0 79.5 23.5t56 69t20.5 107.5v233h58v-359q0 -22 2.5 -55t6.5 -54l-58 -1q-3 24 -9 102q-20 -52 -67.5 -83t-103.5 -31q-88 0 -129.5 56zM335 709h68l-122 -144h-48z" />
    <glyph glyph-name="ubreve" unicode="&#x16d;" horiz-adv-x="582" 
d="M127.5 43q-41.5 56 -41.5 140v285h59v-270q0 -70 28.5 -116.5t98.5 -46.5q44 0 79.5 23.5t56 69t20.5 107.5v233h58v-359q0 -22 2.5 -55t6.5 -54l-58 -1q-3 24 -9 102q-20 -52 -67.5 -83t-103.5 -31q-88 0 -129.5 56zM189.5 607q-37.5 34 -43.5 97h36q8 -44 35.5 -67
t66.5 -23q86 0 104 90h37q-8 -63 -46 -97t-95 -34t-94.5 34z" />
    <glyph glyph-name="ucircumflex" unicode="&#xfb;" horiz-adv-x="582" 
d="M127.5 43q-41.5 56 -41.5 140v285h59v-270q0 -70 28.5 -116.5t98.5 -46.5q44 0 79.5 23.5t56 69t20.5 107.5v233h58v-359q0 -22 2.5 -55t6.5 -54l-58 -1q-3 24 -9 102q-20 -52 -67.5 -83t-103.5 -31q-88 0 -129.5 56zM253 709h62l108 -144h-52l-87 118l-87 -118h-52z" />
    <glyph glyph-name="udieresis" unicode="&#xfc;" horiz-adv-x="582" 
d="M127.5 43q-41.5 56 -41.5 140v285h59v-270q0 -70 28.5 -116.5t98.5 -46.5q44 0 79.5 23.5t56 69t20.5 107.5v233h58v-359q0 -22 2.5 -55t6.5 -54l-58 -1q-3 24 -9 102q-20 -52 -67.5 -83t-103.5 -31q-88 0 -129.5 56zM170 626q-12 12 -12 30q0 17 12.5 29t28.5 12
q17 0 29 -12t12 -29q0 -18 -12 -30t-29 -12t-29 12zM345 626q-12 12 -12 30q0 17 12 29t29 12t29 -12t12 -29q0 -18 -12 -30t-29 -12t-29 12z" />
    <glyph glyph-name="ugrave" unicode="&#xf9;" horiz-adv-x="582" 
d="M127.5 43q-41.5 56 -41.5 140v285h59v-270q0 -70 28.5 -116.5t98.5 -46.5q44 0 79.5 23.5t56 69t20.5 107.5v233h58v-359q0 -22 2.5 -55t6.5 -54l-58 -1q-3 24 -9 102q-20 -52 -67.5 -83t-103.5 -31q-88 0 -129.5 56zM152 709h68l102 -144h-48z" />
    <glyph glyph-name="uhungarumlaut" unicode="&#x171;" horiz-adv-x="582" 
d="M127.5 43q-41.5 56 -41.5 140v285h59v-270q0 -70 28.5 -116.5t98.5 -46.5q44 0 79.5 23.5t56 69t20.5 107.5v233h58v-359q0 -22 2.5 -55t6.5 -54l-58 -1q-3 24 -9 102q-20 -52 -67.5 -83t-103.5 -31q-88 0 -129.5 56zM307 709h68l-123 -144h-48zM379 709h67l-122 -144
h-48z" />
    <glyph glyph-name="umacron" unicode="&#x16b;" horiz-adv-x="582" 
d="M127.5 43q-41.5 56 -41.5 140v285h59v-270q0 -70 28.5 -116.5t98.5 -46.5q44 0 79.5 23.5t56 69t20.5 107.5v233h58v-359q0 -22 2.5 -55t6.5 -54l-58 -1q-3 24 -9 102q-20 -52 -67.5 -83t-103.5 -31q-88 0 -129.5 56zM155 652h260v-39h-260v39z" />
    <glyph glyph-name="uni0163" unicode="&#x163;" horiz-adv-x="315" 
d="M122.5 22q-29.5 32 -29.5 91v309h-88l12 46h75v112l59 23v-135h133l-12 -46h-121v-301q0 -43 18.5 -63t49.5 -20q33 0 75 21l8 -44q-21 -11 -47 -18t-53 -7q-50 0 -79.5 32zM179 -45h57l-68 -187h-46z" />
    <glyph glyph-name="uni021B" unicode="&#x21b;" horiz-adv-x="322" 
d="M122.5 22q-29.5 32 -29.5 91v309h-88l12 46h75v112l59 23v-135h133l-12 -46h-121v-301q0 -43 18.5 -63t49.5 -20q33 0 75 21l8 -44q-21 -11 -47 -18t-53 -7q-50 0 -79.5 32zM179 -45h57l-68 -187h-46z" />
    <glyph glyph-name="uogonek" unicode="&#x173;" horiz-adv-x="582" 
d="M532 -191q-17 -16 -40.5 -25t-48.5 -9q-38 0 -64.5 22.5t-26.5 60.5q0 36 25 69.5t67 71.5h-7q-3 24 -9 102q-20 -52 -67.5 -83t-103.5 -31q-88 0 -129.5 56t-41.5 140v285h59v-270q0 -70 28.5 -116.5t98.5 -46.5q44 0 79.5 23.5t56 69t20.5 107.5v233h58v-359
q0 -22 2.5 -55t6.5 -54h-9q-47 -45 -67.5 -74t-20.5 -58q0 -24 16 -39.5t40 -15.5q17 0 33.5 7t28.5 19z" />
    <glyph glyph-name="uring" unicode="&#x16f;" horiz-adv-x="582" 
d="M127.5 43q-41.5 56 -41.5 140v285h59v-270q0 -70 28.5 -116.5t98.5 -46.5q44 0 79.5 23.5t56 69t20.5 107.5v233h58v-359q0 -22 2.5 -55t6.5 -54l-58 -1q-3 24 -9 102q-20 -52 -67.5 -83t-103.5 -31q-88 0 -129.5 56zM217 583q-29 28 -29 69t29 69.5t69 28.5
q41 0 69.5 -28t28.5 -70q0 -41 -28.5 -69t-69.5 -28q-40 0 -69 28zM335.5 603q20.5 20 20.5 49t-20.5 49.5t-49.5 20.5t-49.5 -20.5t-20.5 -49.5t20.5 -49t49.5 -20t49.5 20z" />
    <glyph glyph-name="utilde" unicode="&#x169;" horiz-adv-x="582" 
d="M127.5 43q-41.5 56 -41.5 140v285h59v-270q0 -70 28.5 -116.5t98.5 -46.5q44 0 79.5 23.5t56 69t20.5 107.5v233h58v-359q0 -22 2.5 -55t6.5 -54l-58 -1q-3 24 -9 102q-20 -52 -67.5 -83t-103.5 -31q-88 0 -129.5 56zM172 650.5q19 24.5 51 24.5q17 0 32.5 -5.5
t36.5 -18.5q24 -13 37 -18t25 -5q34 0 42 48h33q-5 -41 -24 -64.5t-51 -23.5q-17 0 -32 5.5t-37 17.5q-22 13 -35.5 18t-26.5 5q-33 0 -43 -49h-32q5 41 24 65.5z" />
    <glyph glyph-name="v" unicode="v" horiz-adv-x="440" 
d="M8 468h63l151 -409l147 409h60l-174 -468h-67z" />
    <glyph glyph-name="w" unicode="w" horiz-adv-x="741" 
d="M26 468h63l115 -401h3l131 401h64l133 -401h2l116 401h61l-145 -468h-64l-135 399h-2l-133 -399h-65z" />
    <glyph glyph-name="wacute" unicode="&#x1e83;" horiz-adv-x="741" 
d="M26 468h63l115 -401h3l131 401h64l133 -401h2l116 401h61l-145 -468h-64l-135 399h-2l-133 -399h-65zM449 709h68l-122 -144h-48z" />
    <glyph glyph-name="wcircumflex" unicode="&#x175;" horiz-adv-x="741" 
d="M26 468h63l115 -401h3l131 401h64l133 -401h2l116 401h61l-145 -468h-64l-135 399h-2l-133 -399h-65zM339 709h62l108 -144h-52l-87 118l-87 -118h-52z" />
    <glyph glyph-name="wdieresis" unicode="&#x1e85;" horiz-adv-x="741" 
d="M26 468h63l115 -401h3l131 401h64l133 -401h2l116 401h61l-145 -468h-64l-135 399h-2l-133 -399h-65zM253 626q-12 12 -12 30q0 17 12.5 29t28.5 12q17 0 29 -12t12 -29q0 -18 -12 -30t-29 -12t-29 12zM428 626q-12 12 -12 30q0 17 12 29t29 12t29 -12t12 -29
q0 -18 -12 -30t-29 -12t-29 12z" />
    <glyph glyph-name="wgrave" unicode="&#x1e81;" horiz-adv-x="741" 
d="M26 468h63l115 -401h3l131 401h64l133 -401h2l116 401h61l-145 -468h-64l-135 399h-2l-133 -399h-65zM223 709h68l102 -144h-48z" />
    <glyph glyph-name="x" unicode="x" horiz-adv-x="485" 
d="M205 246l-166 222h71l132 -183l132 183h70l-166 -221l188 -247h-74l-151 207l-151 -207h-71z" />
    <glyph glyph-name="y" unicode="y" horiz-adv-x="468" 
d="M130.5 -167q30.5 19 48.5 65l36 98l-197 472h65l162 -406l142 406h63l-218 -586q-23 -63 -63.5 -91.5t-105.5 -30.5l-16 52q53 2 83.5 21z" />
    <glyph glyph-name="yacute" unicode="&#xfd;" horiz-adv-x="468" 
d="M130.5 -167q30.5 19 48.5 65l36 98l-197 472h65l162 -406l142 406h63l-218 -586q-23 -63 -63.5 -91.5t-105.5 -30.5l-16 52q53 2 83.5 21zM303 709h68l-122 -144h-48z" />
    <glyph glyph-name="ycircumflex" unicode="&#x177;" horiz-adv-x="468" 
d="M130.5 -167q30.5 19 48.5 65l36 98l-197 472h65l162 -406l142 406h63l-218 -586q-23 -63 -63.5 -91.5t-105.5 -30.5l-16 52q53 2 83.5 21zM209 709h62l108 -144h-52l-87 118l-87 -118h-52z" />
    <glyph glyph-name="ydieresis" unicode="&#xff;" horiz-adv-x="468" 
d="M130.5 -167q30.5 19 48.5 65l36 98l-197 472h65l162 -406l142 406h63l-218 -586q-23 -63 -63.5 -91.5t-105.5 -30.5l-16 52q53 2 83.5 21zM123 626q-12 12 -12 30q0 17 12.5 29t28.5 12q17 0 29 -12t12 -29q0 -18 -12 -30t-29 -12t-29 12zM298 626q-12 12 -12 30
q0 17 12 29t29 12t29 -12t12 -29q0 -18 -12 -30t-29 -12t-29 12z" />
    <glyph glyph-name="ygrave" unicode="&#x1ef3;" horiz-adv-x="468" 
d="M130.5 -167q30.5 19 48.5 65l36 98l-197 472h65l162 -406l142 406h63l-218 -586q-23 -63 -63.5 -91.5t-105.5 -30.5l-16 52q53 2 83.5 21zM102 709h68l102 -144h-48z" />
    <glyph glyph-name="z" unicode="z" horiz-adv-x="452" 
d="M41 46l288 376h-283l12 46h340v-46l-287 -374h306l-10 -48h-366v46z" />
    <glyph glyph-name="zacute" unicode="&#x17a;" horiz-adv-x="452" 
d="M41 46l288 376h-283l12 46h340v-46l-287 -374h306l-10 -48h-366v46zM277 709h68l-122 -144h-48z" />
    <glyph glyph-name="zcaron" unicode="&#x17e;" horiz-adv-x="452" 
d="M41 46l288 376h-283l12 46h340v-46l-287 -374h306l-10 -48h-366v46zM88 709h52l87 -117l87 117h52l-108 -144h-62z" />
    <glyph glyph-name="zdotaccent" unicode="&#x17c;" horiz-adv-x="452" 
d="M41 46l288 376h-283l12 46h340v-46l-287 -374h306l-10 -48h-366v46zM200 626q-12 12 -12 30q0 17 12 29.5t29 12.5t29.5 -12.5t12.5 -29.5q0 -18 -13 -30t-29 -12q-17 0 -29 12z" />
    <glyph glyph-name="ordfeminine" unicode="&#xaa;" horiz-adv-x="358" 
d="M77 445.5q-31 21.5 -31 64.5q0 59 56 77.5t152 18.5v9q0 35 -20.5 53t-57.5 18q-27 0 -53.5 -9.5t-48.5 -25.5l-12 33q50 37 117 37q58 0 88 -29t30 -80v-122q0 -34 5 -59h-41q-5 22 -5 53h-1q-16 -29 -45 -44.5t-63 -15.5q-39 0 -70 21.5zM229 485.5q26 27.5 26 68.5v21
h-15q-70 0 -110.5 -12.5t-40.5 -51.5q0 -28 20.5 -40.5t49.5 -12.5q44 0 70 27.5z" />
    <glyph glyph-name="ordmasculine" unicode="&#xba;" horiz-adv-x="358" 
d="M73.5 466q-41.5 42 -41.5 107q0 66 41.5 107.5t106.5 41.5q64 0 105.5 -41.5t41.5 -107.5q0 -65 -41.5 -107t-105.5 -42q-65 0 -106.5 42zM256 493q28 32 28 80q0 47 -28 79t-76 32t-76.5 -32t-28.5 -79t28.5 -79.5t76.5 -32.5t76 32z" />
    <glyph glyph-name="pi" unicode="&#x3c0;" horiz-adv-x="621" 
d="M588 44v-43q-26 -11 -63 -11q-49 0 -76 30t-27 86v316h-241v-422h-59v422h-110v35l88 11h493v-46h-113v-307q0 -79 61 -79q28 0 47 8z" />
    <glyph glyph-name="zero" unicode="0" horiz-adv-x="580" 
d="M110.5 92q-53.5 107 -53.5 262t53.5 262t179.5 107t179.5 -107t53.5 -262t-53.5 -262t-179.5 -107t-179.5 107zM425.5 135.5q36.5 98.5 36.5 218.5t-36.5 218.5t-135.5 98.5q-100 0 -136 -98t-36 -219t36 -219t136 -98q99 0 135.5 98.5z" />
    <glyph glyph-name="one" unicode="1" horiz-adv-x="580" 
d="M288 638l-152 -128l-26 50l182 148h56v-708h-60v638z" />
    <glyph glyph-name="two" unicode="2" horiz-adv-x="580" 
d="M58 53l249 280q52 58 79 106t27 96q0 61 -40.5 99t-102.5 38q-51 0 -95 -24.5t-74 -64.5l-28 47q34 43 85 68t116 25q58 0 103.5 -23.5t71.5 -65.5t26 -96q0 -63 -32.5 -117t-102.5 -131l-209 -236h381l-12 -54h-442v53z" />
    <glyph glyph-name="three" unicode="3" horiz-adv-x="580" 
d="M148.5 7.5q-54.5 22.5 -90.5 58.5l14 61q34 -39 87.5 -64.5t112.5 -25.5q73 0 117.5 43t44.5 114q0 52 -28 86t-71 50t-89 16h-25v49h26q68 0 116.5 36t48.5 107q0 60 -39.5 97.5t-99.5 37.5q-49 0 -94.5 -23.5t-76.5 -61.5l-27 46q36 42 86.5 65.5t113.5 23.5
q54 0 99 -21.5t71.5 -62.5t26.5 -96q0 -63 -35.5 -109t-98.5 -60v-2q74 -14 115.5 -63.5t41.5 -116.5q0 -60 -27 -107t-76.5 -73.5t-116.5 -26.5q-72 0 -126.5 22.5z" />
    <glyph glyph-name="four" unicode="4" horiz-adv-x="580" 
d="M370 173h-330v57l309 478h77v-484h123l-11 -51h-111v-173h-57v173zM370 224v419h-3l-268 -419h271z" />
    <glyph glyph-name="five" unicode="5" horiz-adv-x="580" 
d="M145 7q-54 22 -89 57l12 59q34 -38 87 -62t112 -24q45 0 85 21.5t64.5 62t24.5 95.5q0 81 -51.5 129.5t-135.5 48.5q-34 0 -71.5 -9.5t-69.5 -25.5l13 349h345l-12 -53h-279l-10 -232q43 19 104 19q67 0 118.5 -28t80 -78.5t28.5 -116.5q0 -72 -32 -125t-84.5 -81
t-114.5 -28q-71 0 -125 22z" />
    <glyph glyph-name="six" unicode="6" horiz-adv-x="580" 
d="M178.5 19.5q-53.5 34.5 -84.5 103t-31 166.5q0 133 35 228.5t102.5 146.5t163.5 51q68 0 113 -20l-11 -51q-23 10 -47 15.5t-56 5.5q-108 0 -170.5 -88t-68.5 -247h2q30 46 76 72t104 26t106.5 -28.5t76.5 -78.5t28 -113q0 -66 -27 -116.5t-76 -78.5t-114 -28
q-68 0 -121.5 34.5zM414 84q43 48 43 124q0 48 -20.5 88t-57 62.5t-81.5 22.5q-48 0 -87.5 -22t-62 -58t-22.5 -76q0 -46 21.5 -90t61 -71.5t90.5 -27.5q72 0 115 48z" />
    <glyph glyph-name="seven" unicode="7" horiz-adv-x="580" 
d="M429 655h-364l11 53h413v-56l-288 -652h-68z" />
    <glyph glyph-name="eight" unicode="8" horiz-adv-x="580" 
d="M177 10q-51 25 -80.5 71.5t-29.5 107.5q0 66 37.5 117t103.5 71v2q-55 20 -85 64t-30 98t26 95.5t71 64t100 22.5t100 -22.5t71.5 -64t26.5 -95.5t-30.5 -98.5t-85.5 -63.5v-2q68 -21 105 -71.5t37 -115.5q0 -62 -30 -108.5t-81 -71.5t-113 -25t-113 25zM361 419.5
q32 18.5 50.5 50t18.5 68.5q0 59 -40.5 97.5t-99.5 38.5q-60 0 -99.5 -38t-39.5 -98q0 -37 18 -68.5t49.5 -50t71.5 -18.5q39 0 71 18.5zM375 55.5q37 20.5 57.5 56.5t20.5 81t-21.5 81.5t-58.5 57t-83 20.5t-83 -20.5t-58.5 -57t-21.5 -81.5t20.5 -81t57.5 -56.5t85 -20.5
t85 20.5z" />
    <glyph glyph-name="nine" unicode="9" horiz-adv-x="580" 
d="M406.5 678.5q52.5 -36.5 81.5 -107.5t29 -172q0 -210 -73.5 -312t-203.5 -102q-41 0 -77 7.5t-61 20.5l10 52q60 -29 130 -29q94 0 153 83.5t61 249.5h-3q-24 -40 -74 -68.5t-108 -28.5q-61 0 -108.5 28t-73.5 78.5t-26 113.5q0 65 29 115.5t79.5 79t113.5 28.5
q69 0 121.5 -36.5zM202 642q-37 -22 -58 -61.5t-21 -88.5t20 -88.5t55.5 -62t82.5 -22.5t87.5 22.5t64.5 55t24 58.5q0 55 -22 103t-61 77t-89 29q-46 0 -83 -22z" />
    <glyph glyph-name="zero.denominator" 
d="M293.5 54q-32.5 -64 -109.5 -64q-78 0 -110 64t-32 157t32 157t110 64q77 0 109.5 -64t32.5 -157t-32.5 -157zM258 335.5q-20 55.5 -74 55.5q-55 0 -75 -55.5t-20 -124.5t20 -124.5t75 -55.5q54 0 74 55.5t20 124.5t-20 124.5z" />
    <glyph glyph-name="one.denominator" 
d="M176 368l-93 -68l-18 42l115 81h44v-423h-48v368z" />
    <glyph glyph-name="two.denominator" 
d="M38 39l157 169q32 35 45 59t13 48q0 35 -22.5 55.5t-57.5 20.5q-58 0 -106 -56l-21 38q50 59 130 59q57 0 91.5 -31t34.5 -81q0 -38 -18.5 -70t-60.5 -75l-129 -134h221l-12 -41h-265v39z" />
    <glyph glyph-name="three.denominator" 
d="M96.5 2.5q-32.5 12.5 -52.5 32.5l15 41q16 -18 47.5 -31.5t61.5 -13.5q42 0 66.5 22.5t24.5 62.5q0 41 -31.5 63t-75.5 22h-22v38h22q44 0 69 23t25 59q0 34 -22 53t-56 19q-28 0 -54.5 -12.5t-42.5 -29.5l-18 35q48 46 118 46q56 0 89 -29t33 -81q0 -36 -21 -62.5
t-56 -36.5q42 -8 66 -37.5t24 -70.5q0 -59 -39.5 -92t-96.5 -33q-41 0 -73.5 12.5z" />
    <glyph glyph-name="four.denominator" 
d="M226 100h-194v42l180 280h58v-282h65l-11 -40h-54v-100h-44v100zM223 367l-144 -227h147v227h-3z" />
    <glyph glyph-name="five.denominator" 
d="M278 28q-41 -38 -100 -38q-90 0 -134 49l12 44q44 -52 120 -52q40 0 68 26t28 73q0 45 -28 72.5t-75 27.5q-43 0 -91 -25l5 217h218l-10 -41h-167l-3 -124q31 11 59 11q62 0 100.5 -38t38.5 -98q0 -66 -41 -104z" />
    <glyph glyph-name="six.denominator" 
d="M84.5 36.5q-40.5 46.5 -40.5 133.5q0 119 48 185.5t136 66.5q44 0 70 -14l-10 -36q-32 13 -60 13q-62 0 -98 -49.5t-40 -138.5h2q17 25 43 39t58 14q55 0 92 -36.5t37 -92.5q0 -59 -36.5 -95t-96.5 -36q-64 0 -104.5 46.5zM252.5 54q23.5 26 23.5 67q0 40 -25 66.5
t-63 26.5q-42 0 -69 -24t-27 -60q0 -39 26.5 -70.5t69.5 -31.5q41 0 64.5 26z" />
    <glyph glyph-name="seven.denominator" 
d="M264 381h-213l11 41h252v-37l-169 -385h-53z" />
    <glyph glyph-name="eight.denominator" 
d="M282 24q-39 -34 -98 -34t-98 34t-39 91q0 37 20.5 66.5t56.5 42.5v1q-30 14 -46.5 39.5t-16.5 55.5q0 50 35.5 81t87.5 31t87 -30.5t35 -80.5q0 -31 -16 -56.5t-46 -39.5v-1q36 -13 56.5 -42.5t20.5 -66.5q0 -57 -39 -91zM129 372q-22 -21 -22 -53t22 -54t55 -22t55 22.5
t22 53.5q0 32 -22 53t-55 21t-55 -21zM119.5 179.5q-26.5 -25.5 -26.5 -62.5q0 -38 25.5 -62.5t65.5 -24.5t65.5 24.5t25.5 62.5q0 37 -26.5 62.5t-64.5 25.5t-64.5 -25.5z" />
    <glyph glyph-name="nine.denominator" 
d="M281.5 375.5q40.5 -46.5 40.5 -133.5q0 -119 -48 -185.5t-136 -66.5q-44 0 -70 14l10 36q33 -13 60 -13q62 0 98 49.5t40 138.5h-2q-17 -25 -42.5 -38.5t-58.5 -13.5q-55 0 -92 36t-37 92q0 59 36.5 95t96.5 36q64 0 104.5 -46.5zM113.5 358q-23.5 -26 -23.5 -67
q0 -40 25 -66.5t63 -26.5q42 0 69 24t27 60q0 39 -26.5 70.5t-69.5 31.5q-41 0 -64.5 -26z" />
    <glyph glyph-name="zero.inferior" unicode="&#x2080;" 
d="M293.5 -84q-32.5 -64 -109.5 -64q-78 0 -110 64t-32 157t32 157t110 64q77 0 109.5 -64t32.5 -157t-32.5 -157zM258 197.5q-20 55.5 -74 55.5q-55 0 -75 -55.5t-20 -124.5t20 -124.5t75 -55.5q54 0 74 55.5t20 124.5t-20 124.5z" />
    <glyph glyph-name="one.inferior" unicode="&#x2081;" 
d="M176 230l-93 -68l-18 42l115 81h44v-423h-48v368z" />
    <glyph glyph-name="two.inferior" unicode="&#x2082;" 
d="M38 -99l157 169q32 35 45 59t13 48q0 35 -22.5 55.5t-57.5 20.5q-58 0 -106 -56l-21 38q50 59 130 59q57 0 91.5 -31t34.5 -81q0 -38 -18.5 -70t-60.5 -75l-129 -134h221l-12 -41h-265v39z" />
    <glyph glyph-name="three.inferior" unicode="&#x2083;" 
d="M96.5 -135.5q-32.5 12.5 -52.5 32.5l15 41q16 -18 47.5 -31.5t61.5 -13.5q42 0 66.5 22.5t24.5 62.5q0 41 -31.5 63t-75.5 22h-22v38h22q44 0 69 23t25 59q0 34 -22 53t-56 19q-28 0 -54.5 -12.5t-42.5 -29.5l-18 35q48 46 118 46q56 0 89 -29t33 -81q0 -36 -21 -62.5
t-56 -36.5q42 -8 66 -37.5t24 -70.5q0 -59 -39.5 -92t-96.5 -33q-41 0 -73.5 12.5z" />
    <glyph glyph-name="four.inferior" unicode="&#x2084;" 
d="M226 -38h-194v42l180 280h58v-282h65l-11 -40h-54v-100h-44v100zM223 229l-144 -227h147v227h-3z" />
    <glyph glyph-name="five.inferior" unicode="&#x2085;" 
d="M278 -110q-41 -38 -100 -38q-90 0 -134 49l12 44q44 -52 120 -52q40 0 68 26t28 73q0 45 -28 72.5t-75 27.5q-43 0 -91 -25l5 217h218l-10 -41h-167l-3 -124q31 11 59 11q62 0 100.5 -38t38.5 -98q0 -66 -41 -104z" />
    <glyph glyph-name="six.inferior" unicode="&#x2086;" 
d="M84.5 -101.5q-40.5 46.5 -40.5 133.5q0 119 48 185.5t136 66.5q44 0 70 -14l-10 -36q-32 13 -60 13q-62 0 -98 -49.5t-40 -138.5h2q17 25 43 39t58 14q55 0 92 -36.5t37 -92.5q0 -59 -36.5 -95t-96.5 -36q-64 0 -104.5 46.5zM252.5 -84q23.5 26 23.5 67q0 40 -25 66.5
t-63 26.5q-42 0 -69 -24t-27 -60q0 -39 26.5 -70.5t69.5 -31.5q41 0 64.5 26z" />
    <glyph glyph-name="seven.inferior" unicode="&#x2087;" 
d="M264 243h-213l11 41h252v-37l-169 -385h-53z" />
    <glyph glyph-name="eight.inferior" unicode="&#x2088;" 
d="M282 -114q-39 -34 -98 -34t-98 34t-39 91q0 37 20.5 66.5t56.5 42.5v1q-30 14 -46.5 39.5t-16.5 55.5q0 50 35.5 81t87.5 31t87 -30.5t35 -80.5q0 -31 -16 -56.5t-46 -39.5v-1q36 -13 56.5 -42.5t20.5 -66.5q0 -57 -39 -91zM129 234q-22 -21 -22 -53t22 -54t55 -22
t55 22.5t22 53.5q0 32 -22 53t-55 21t-55 -21zM119.5 41.5q-26.5 -25.5 -26.5 -62.5q0 -38 25.5 -62.5t65.5 -24.5t65.5 24.5t25.5 62.5q0 37 -26.5 62.5t-64.5 25.5t-64.5 -25.5z" />
    <glyph glyph-name="nine.inferior" unicode="&#x2089;" 
d="M281.5 237.5q40.5 -46.5 40.5 -133.5q0 -119 -48 -185.5t-136 -66.5q-44 0 -70 14l10 36q33 -13 60 -13q62 0 98 49.5t40 138.5h-2q-17 -25 -42.5 -38.5t-58.5 -13.5q-55 0 -92 36t-37 92q0 59 36.5 95t96.5 36q64 0 104.5 -46.5zM113.5 220q-23.5 -26 -23.5 -67
q0 -40 25 -66.5t63 -26.5q42 0 69 24t27 60q0 39 -26.5 70.5t-69.5 31.5q-41 0 -64.5 -26z" />
    <glyph glyph-name="zero.numerator" 
d="M293.5 340q-32.5 -64 -109.5 -64q-78 0 -110 64t-32 157t32 157t110 64q77 0 109.5 -64t32.5 -157t-32.5 -157zM258 621.5q-20 55.5 -74 55.5q-55 0 -75 -55.5t-20 -124.5t20 -124.5t75 -55.5q54 0 74 55.5t20 124.5t-20 124.5z" />
    <glyph glyph-name="one.numerator" 
d="M175 653l-90 -67l-21 40l116 82h43v-424h-48v369z" />
    <glyph glyph-name="two.numerator" 
d="M38 324l157 169q32 35 45 59t13 48q0 35 -22.5 55.5t-57.5 20.5q-58 0 -106 -56l-21 38q50 59 130 59q57 0 91.5 -31t34.5 -81q0 -38 -18.5 -70t-60.5 -75l-129 -134h221l-12 -41h-265v39z" />
    <glyph glyph-name="three.numerator" 
d="M96.5 288.5q-32.5 12.5 -52.5 32.5l15 41q16 -18 47.5 -31.5t61.5 -13.5q42 0 66.5 22.5t24.5 62.5q0 41 -31.5 63t-75.5 22h-22v38h22q44 0 69 23t25 59q0 34 -22 53t-56 19q-28 0 -54.5 -12.5t-42.5 -29.5l-18 35q48 46 118 46q56 0 89 -29t33 -81q0 -36 -21 -62.5
t-56 -36.5q42 -8 66 -37.5t24 -70.5q0 -59 -39.5 -92t-96.5 -33q-41 0 -73.5 12.5z" />
    <glyph glyph-name="four.numerator" 
d="M226 386h-194v42l180 280h58v-282h65l-11 -40h-54v-100h-44v100zM223 653l-144 -227h147v227h-3z" />
    <glyph glyph-name="five.numerator" 
d="M278 314q-41 -38 -100 -38q-90 0 -134 49l12 44q44 -52 120 -52q40 0 68 26t28 73q0 45 -28 72.5t-75 27.5q-43 0 -91 -25l5 217h218l-10 -41h-167l-3 -124q31 11 59 11q62 0 100.5 -38t38.5 -98q0 -66 -41 -104z" />
    <glyph glyph-name="six.numerator" 
d="M84.5 322.5q-40.5 46.5 -40.5 133.5q0 119 48 185.5t136 66.5q44 0 70 -14l-10 -36q-32 13 -60 13q-62 0 -98 -49.5t-40 -138.5h2q17 25 43 39t58 14q55 0 92 -36.5t37 -92.5q0 -59 -36.5 -95t-96.5 -36q-64 0 -104.5 46.5zM252.5 340q23.5 26 23.5 67q0 40 -25 66.5
t-63 26.5q-42 0 -69 -24t-27 -60q0 -39 26.5 -70.5t69.5 -31.5q41 0 64.5 26z" />
    <glyph glyph-name="seven.numerator" 
d="M264 667h-213l11 41h252v-37l-169 -385h-53z" />
    <glyph glyph-name="eight.numerator" 
d="M282 310q-39 -34 -98 -34t-98 34t-39 91q0 37 20.5 66.5t56.5 42.5v1q-30 14 -46.5 39.5t-16.5 55.5q0 50 35.5 81t87.5 31t87 -30.5t35 -80.5q0 -31 -16 -56.5t-46 -39.5v-1q36 -13 56.5 -42.5t20.5 -66.5q0 -57 -39 -91zM129 658q-22 -21 -22 -53t22 -54t55 -22
t55 22.5t22 53.5q0 32 -22 53t-55 21t-55 -21zM119.5 465.5q-26.5 -25.5 -26.5 -62.5q0 -38 25.5 -62.5t65.5 -24.5t65.5 24.5t25.5 62.5q0 37 -26.5 62.5t-64.5 25.5t-64.5 -25.5z" />
    <glyph glyph-name="nine.numerator" 
d="M281.5 661.5q40.5 -46.5 40.5 -133.5q0 -119 -48 -185.5t-136 -66.5q-44 0 -70 14l10 36q33 -13 60 -13q62 0 98 49.5t40 138.5h-2q-17 -25 -42.5 -38.5t-58.5 -13.5q-55 0 -92 36t-37 92q0 59 36.5 95t96.5 36q64 0 104.5 -46.5zM113.5 644q-23.5 -26 -23.5 -67
q0 -40 25 -66.5t63 -26.5q42 0 69 24t27 60q0 39 -26.5 70.5t-69.5 31.5q-41 0 -64.5 -26z" />
    <glyph glyph-name="zero.onum" horiz-adv-x="686" 
d="M587 121q-36 -64 -100 -100t-145 -36q-80 0 -143.5 36t-100 100t-36.5 146t36 145t100 98t144 35q81 0 145 -35t100 -98t36 -145t-36 -146zM534 381.5q-27 51.5 -76.5 81.5t-115.5 30q-65 0 -114.5 -30t-76.5 -81.5t-27 -114.5q0 -64 27 -116t76.5 -82t114.5 -30
q66 0 115.5 30t76.5 82t27 116q0 63 -27 114.5z" />
    <glyph glyph-name="one.onum" horiz-adv-x="381" 
d="M182 461l-104 -87l-32 42l141 114h55v-530h-60v461z" />
    <glyph glyph-name="two.onum" horiz-adv-x="533" 
d="M411.5 285.5q-28.5 -44.5 -88 -95t-179.5 -140.5h327l-12 -50h-397v53l49 36q109 81 160.5 124t79 81.5t27.5 80.5q0 55 -37.5 87t-96.5 32q-48 0 -90 -24.5t-70 -64.5l-29 47q33 43 82.5 68t111.5 25q54 0 97.5 -21t68.5 -58t25 -85q0 -51 -28.5 -95.5z" />
    <glyph glyph-name="three.onum" horiz-adv-x="531" 
d="M124.5 -174.5q-54.5 22.5 -90.5 58.5l14 61q34 -39 87.5 -64.5t112.5 -25.5q73 0 117.5 43t44.5 114q0 52 -28 86t-71 50t-89 16h-25v49h26q68 0 116.5 36t48.5 107q0 60 -39.5 97.5t-99.5 37.5q-49 0 -94.5 -23.5t-76.5 -61.5l-27 46q36 42 86.5 65.5t113.5 23.5
q54 0 99 -21.5t71.5 -62.5t26.5 -96q0 -63 -35.5 -109t-98.5 -60v-2q74 -14 115.5 -63.5t41.5 -116.5q0 -60 -27 -107t-76.5 -73.5t-116.5 -26.5q-72 0 -126.5 22.5z" />
    <glyph glyph-name="four.onum" horiz-adv-x="572" 
d="M370 0h-330v57l309 478h77v-484h123l-11 -51h-111v-173h-57v173zM370 51v419h-3l-268 -419h271z" />
    <glyph glyph-name="five.onum" horiz-adv-x="529" 
d="M122 -171q-54 22 -89 57l12 59q34 -38 87 -62t112 -24q45 0 85 21.5t64.5 62t24.5 95.5q0 81 -51.5 129.5t-135.5 48.5q-34 0 -71.5 -9.5t-69.5 -25.5l13 349h345l-12 -53h-279l-10 -232q43 19 104 19q67 0 118.5 -28t80 -78.5t28.5 -116.5q0 -72 -32 -125t-84.5 -81
t-114.5 -28q-71 0 -125 22z" />
    <glyph glyph-name="six.onum" horiz-adv-x="583" 
d="M180.5 19.5q-53.5 34.5 -84.5 103t-31 166.5q0 133 35 228.5t102.5 146.5t163.5 51q68 0 113 -20l-11 -51q-23 10 -47 15.5t-56 5.5q-108 0 -170.5 -88t-68.5 -247h2q30 46 76 72t104 26t106.5 -28.5t76.5 -78.5t28 -113q0 -66 -27 -116.5t-76 -78.5t-114 -28
q-68 0 -121.5 34.5zM416 84q43 48 43 124q0 48 -20.5 88t-57 62.5t-81.5 22.5q-48 0 -87.5 -22t-62 -58t-22.5 -76q0 -46 21.5 -90t61 -71.5t90.5 -27.5q72 0 115 48z" />
    <glyph glyph-name="seven.onum" horiz-adv-x="523" 
d="M407 476h-364l11 53h413v-56l-288 -652h-68z" />
    <glyph glyph-name="eight.onum" horiz-adv-x="580" 
d="M483.5 82.5q-29.5 -46.5 -80.5 -71.5t-114 -25q-62 0 -113 25t-80.5 71.5t-29.5 108.5q0 65 37.5 115.5t104.5 70.5v2q-56 21 -86.5 64.5t-30.5 97.5t26 95t71.5 63.5t100.5 22.5q56 0 101.5 -22t72 -63t26.5 -95q0 -53 -31.5 -98t-86.5 -65v-2q69 -20 105.5 -70.5
t36.5 -115.5q0 -62 -29.5 -108.5zM189.5 636q-39.5 -38 -39.5 -97q0 -37 18 -69t50 -51t71 -19q40 0 72 19t50.5 51t18.5 69q0 59 -40.5 97t-100.5 38t-99.5 -38zM431.5 275.5q-21.5 36.5 -59 57t-83.5 20.5q-45 0 -82 -20.5t-58.5 -57t-21.5 -82.5q0 -44 20 -80t57 -57
t85 -21t85.5 21t58 57t20.5 80q0 46 -21.5 82.5z" />
    <glyph glyph-name="nine.onum" horiz-adv-x="583" 
d="M407.5 506.5q52.5 -36.5 81.5 -107.5t29 -172q0 -210 -73.5 -312t-203.5 -102q-41 0 -77 7.5t-61 20.5l10 52q60 -29 130 -29q94 0 153 83.5t61 249.5h-3q-24 -40 -74 -68.5t-108 -28.5q-61 0 -108.5 28t-73.5 78.5t-26 113.5q0 65 29 115.5t79.5 79t113.5 28.5
q69 0 121.5 -36.5zM203 470q-37 -22 -58 -61.5t-21 -88.5t20 -88.5t55.5 -62t82.5 -22.5t87.5 22.5t64.5 55t24 58.5q0 55 -22 103t-61 77t-89 29q-46 0 -83 -22z" />
    <glyph glyph-name="zero.superior" unicode="&#x2070;" 
d="M293.5 506q-32.5 -64 -109.5 -64q-78 0 -110 64t-32 157t32 157t110 64q77 0 109.5 -64t32.5 -157t-32.5 -157zM258 787.5q-20 55.5 -74 55.5q-55 0 -75 -55.5t-20 -124.5t20 -124.5t75 -55.5q54 0 74 55.5t20 124.5t-20 124.5z" />
    <glyph glyph-name="four.superior" unicode="&#x2074;" 
d="M226 552h-194v42l180 280h58v-282h65l-11 -40h-54v-100h-44v100zM223 819l-144 -227h147v227h-3z" />
    <glyph glyph-name="five.superior" unicode="&#x2075;" 
d="M278 480q-41 -38 -100 -38q-90 0 -134 49l12 44q44 -52 120 -52q40 0 68 26t28 73q0 45 -28 72.5t-75 27.5q-43 0 -91 -25l5 217h218l-10 -41h-167l-3 -124q31 11 59 11q62 0 100.5 -38t38.5 -98q0 -66 -41 -104z" />
    <glyph glyph-name="six.superior" unicode="&#x2076;" 
d="M84.5 488.5q-40.5 46.5 -40.5 133.5q0 119 48 185.5t136 66.5q44 0 70 -14l-10 -36q-32 13 -60 13q-62 0 -98 -49.5t-40 -138.5h2q17 25 43 39t58 14q55 0 92 -36.5t37 -92.5q0 -59 -36.5 -95t-96.5 -36q-64 0 -104.5 46.5zM252.5 506q23.5 26 23.5 67q0 40 -25 66.5
t-63 26.5q-42 0 -69 -24t-27 -60q0 -39 26.5 -70.5t69.5 -31.5q41 0 64.5 26z" />
    <glyph glyph-name="seven.superior" unicode="&#x2077;" 
d="M264 833h-213l11 41h252v-37l-169 -385h-53z" />
    <glyph glyph-name="eight.superior" unicode="&#x2078;" 
d="M282 476q-39 -34 -98 -34t-98 34t-39 91q0 37 20.5 66.5t56.5 42.5v1q-30 14 -46.5 39.5t-16.5 55.5q0 50 35.5 81t87.5 31t87 -30.5t35 -80.5q0 -31 -16 -56.5t-46 -39.5v-1q36 -13 56.5 -42.5t20.5 -66.5q0 -57 -39 -91zM129 824q-22 -21 -22 -53t22 -54t55 -22
t55 22.5t22 53.5q0 32 -22 53t-55 21t-55 -21zM119.5 631.5q-26.5 -25.5 -26.5 -62.5q0 -38 25.5 -62.5t65.5 -24.5t65.5 24.5t25.5 62.5q0 37 -26.5 62.5t-64.5 25.5t-64.5 -25.5z" />
    <glyph glyph-name="nine.superior" unicode="&#x2079;" 
d="M281.5 827.5q40.5 -46.5 40.5 -133.5q0 -119 -48 -185.5t-136 -66.5q-44 0 -70 14l10 36q33 -13 60 -13q62 0 98 49.5t40 138.5h-2q-17 -25 -42.5 -38.5t-58.5 -13.5q-55 0 -92 36t-37 92q0 59 36.5 95t96.5 36q64 0 104.5 -46.5zM113.5 810q-23.5 -26 -23.5 -67
q0 -40 25 -66.5t63 -26.5q42 0 69 24t27 60q0 39 -26.5 70.5t-69.5 31.5q-41 0 -64.5 -26z" />
    <glyph glyph-name="fraction" unicode="&#x2044;" horiz-adv-x="100" 
d="M-196 -8l433 746l37 -21l-433 -745z" />
    <glyph glyph-name="onehalf" unicode="&#xbd;" horiz-adv-x="834" 
d="M171 -8l433 746l38 -21l-434 -745zM172 653l-93 -68l-18 42l115 81h44v-424h-48v369zM493 40l157 168q32 35 45 59.5t13 48.5q0 35 -22.5 55t-58.5 20q-57 0 -105 -56l-21 38q51 60 130 60q56 0 91 -31.5t35 -81.5q0 -38 -19 -69.5t-61 -75.5l-128 -134h220l-11 -41h-265
v40z" />
    <glyph glyph-name="uni2153" unicode="&#x2153;" horiz-adv-x="834" 
d="M171 -8l433 746l38 -21l-434 -745zM172 653l-93 -68l-18 42l115 81h44v-424h-48v369zM552.5 2.5q-32.5 12.5 -52.5 32.5l15 41q16 -18 47.5 -31.5t61.5 -13.5q42 0 66.5 22.5t24.5 62.5q0 41 -31.5 63t-75.5 22h-22v38h22q44 0 69 23t25 59q0 34 -22 53t-56 19
q-28 0 -54.5 -12.5t-42.5 -29.5l-18 35q48 46 118 46q56 0 89 -29t33 -81q0 -36 -21 -62.5t-56 -36.5q42 -8 66 -37.5t24 -70.5q0 -59 -39.5 -92t-96.5 -33q-41 0 -73.5 12.5z" />
    <glyph glyph-name="uni2154" unicode="&#x2154;" horiz-adv-x="827" 
d="M171 -8l433 746l38 -21l-434 -745zM38 324l157 169q32 35 45 59t13 48q0 35 -22.5 55.5t-57.5 20.5q-58 0 -106 -56l-21 38q50 59 130 59q57 0 91.5 -31t34.5 -81q0 -38 -18.5 -70t-60.5 -75l-129 -134h221l-12 -41h-265v39zM552.5 2.5q-32.5 12.5 -52.5 32.5l15 41
q16 -18 47.5 -31.5t61.5 -13.5q42 0 66.5 22.5t24.5 62.5q0 41 -31.5 63t-75.5 22h-22v38h22q44 0 69 23t25 59q0 34 -22 53t-56 19q-28 0 -54.5 -12.5t-42.5 -29.5l-18 35q48 46 118 46q56 0 89 -29t33 -81q0 -36 -21 -62.5t-56 -36.5q42 -8 66 -37.5t24 -70.5
q0 -59 -39.5 -92t-96.5 -33q-41 0 -73.5 12.5z" />
    <glyph glyph-name="onequarter" unicode="&#xbc;" horiz-adv-x="834" 
d="M172 -8l433 746l37 -21l-433 -745zM175 653l-92 -67l-18 41l115 81h43v-424h-48v369zM666 100h-193v42l180 281h57v-282h64v-41h-64v-100h-44v100zM663 367l-144 -226h147v226h-3z" />
    <glyph glyph-name="threequarters" unicode="&#xbe;" horiz-adv-x="834" 
d="M169 -8l433 746l38 -21l-434 -745zM97 288.5q-33 12.5 -53 33.5l15 40q16 -18 47.5 -31.5t61.5 -13.5q42 0 66.5 23t24.5 63q0 41 -31.5 63t-75.5 22h-22v37h22q44 0 69 23t25 59q0 34 -22 53t-56 19q-28 0 -54.5 -12.5t-42.5 -29.5l-18 35q47 47 118 47q55 0 88.5 -29.5
t33.5 -81.5q0 -36 -21 -62t-56 -37q42 -8 66 -37t24 -70q0 -60 -39 -93t-97 -33q-40 0 -73 12.5zM667 100h-194v42l180 281h58v-282h64v-41h-64v-100h-44v100zM667 141v226h-3l-144 -226h147z" />
    <glyph glyph-name="oneeighth" unicode="&#x215b;" horiz-adv-x="840" 
d="M171 -8l433 746l38 -21l-434 -745zM172 653l-93 -68l-18 42l115 81h44v-424h-48v369zM735 24q-39 -34 -98 -34t-98 34t-39 91q0 37 20.5 66.5t56.5 42.5v1q-30 14 -46.5 39.5t-16.5 55.5q0 50 35.5 81t87.5 31t87 -30.5t35 -80.5q0 -31 -16 -56.5t-46 -39.5v-1
q36 -13 56.5 -42.5t20.5 -66.5q0 -57 -39 -91zM582 372q-22 -21 -22 -53t22 -54t55 -22t55 22.5t22 53.5q0 32 -22 53t-55 21t-55 -21zM572.5 179.5q-26.5 -25.5 -26.5 -62.5q0 -38 25.5 -62.5t65.5 -24.5t65.5 24.5t25.5 62.5q0 37 -26.5 62.5t-64.5 25.5t-64.5 -25.5z" />
    <glyph glyph-name="threeeighths" unicode="&#x215c;" horiz-adv-x="826" 
d="M164 -8l433 746l38 -21l-434 -745zM96.5 288.5q-32.5 12.5 -52.5 32.5l15 41q16 -18 47.5 -31.5t61.5 -13.5q42 0 66.5 22.5t24.5 62.5q0 41 -31.5 63t-75.5 22h-22v38h22q44 0 69 23t25 59q0 34 -22 53t-56 19q-28 0 -54.5 -12.5t-42.5 -29.5l-18 35q48 46 118 46
q56 0 89 -29t33 -81q0 -36 -21 -62.5t-56 -36.5q42 -8 66 -37.5t24 -70.5q0 -59 -39.5 -92t-96.5 -33q-41 0 -73.5 12.5zM724 24q-39 -34 -98 -34t-98 34t-39 91q0 37 20.5 66.5t56.5 42.5v1q-30 14 -46.5 39.5t-16.5 55.5q0 50 35.5 81t87.5 31t87 -30.5t35 -80.5
q0 -31 -16 -56.5t-46 -39.5v-1q36 -13 56.5 -42.5t20.5 -66.5q0 -57 -39 -91zM571 372q-22 -21 -22 -53t22 -54t55 -22t55 22.5t22 53.5q0 32 -22 53t-55 21t-55 -21zM561.5 179.5q-26.5 -25.5 -26.5 -62.5q0 -38 25.5 -62.5t65.5 -24.5t65.5 24.5t25.5 62.5
q0 37 -26.5 62.5t-64.5 25.5t-64.5 -25.5z" />
    <glyph glyph-name="fiveeighths" unicode="&#x215d;" horiz-adv-x="826" 
d="M164 -8l433 746l38 -21l-434 -745zM275 314q-41 -38 -100 -38q-90 0 -134 49l12 44q44 -52 120 -52q40 0 68 26t28 73q0 45 -28 72.5t-75 27.5q-43 0 -91 -25l5 217h218l-10 -41h-167l-3 -124q31 11 59 11q62 0 100.5 -38t38.5 -98q0 -66 -41 -104zM724 24
q-39 -34 -98 -34t-98 34t-39 91q0 37 20.5 66.5t56.5 42.5v1q-30 14 -46.5 39.5t-16.5 55.5q0 50 35.5 81t87.5 31t87 -30.5t35 -80.5q0 -31 -16 -56.5t-46 -39.5v-1q36 -13 56.5 -42.5t20.5 -66.5q0 -57 -39 -91zM571 372q-22 -21 -22 -53t22 -54t55 -22t55 22.5t22 53.5
q0 32 -22 53t-55 21t-55 -21zM561.5 179.5q-26.5 -25.5 -26.5 -62.5q0 -38 25.5 -62.5t65.5 -24.5t65.5 24.5t25.5 62.5q0 37 -26.5 62.5t-64.5 25.5t-64.5 -25.5z" />
    <glyph glyph-name="seveneighths" unicode="&#x215e;" horiz-adv-x="826" 
d="M125 -8l434 746l37 -21l-433 -745zM264 667h-213l11 41h252v-37l-169 -385h-53zM722 24q-39 -34 -98 -34t-98 34t-39 91q0 37 20.5 66.5t56.5 42.5v1q-30 14 -46.5 39.5t-16.5 55.5q0 50 35.5 81t87.5 31t87 -30.5t35 -80.5q0 -31 -16 -56.5t-46 -39.5v-1
q36 -13 56.5 -42.5t20.5 -66.5q0 -57 -39 -91zM569 372q-22 -21 -22 -53t22 -54t55 -22t55 22.5t22 53.5q0 32 -22 53t-55 21t-55 -21zM559.5 179.5q-26.5 -25.5 -26.5 -62.5q0 -38 25.5 -62.5t65.5 -24.5t65.5 24.5t25.5 62.5q0 37 -26.5 62.5t-64.5 25.5t-64.5 -25.5z" />
    <glyph glyph-name="uni00B9" unicode="&#xb9;" 
d="M172 820l-93 -68l-18 42l115 81h44v-423h-48v368z" />
    <glyph glyph-name="uni00B2" unicode="&#xb2;" horiz-adv-x="354" 
d="M38 491l157 169q32 35 45 59t13 48q0 35 -22.5 55.5t-57.5 20.5q-58 0 -106 -56l-21 38q50 59 130 59q57 0 91.5 -31t34.5 -81q0 -38 -18.5 -70t-60.5 -75l-129 -134h221l-12 -41h-265v39z" />
    <glyph glyph-name="uni00B3" unicode="&#xb3;" horiz-adv-x="363" 
d="M96.5 454.5q-32.5 12.5 -52.5 32.5l15 41q16 -18 47.5 -31.5t61.5 -13.5q42 0 66.5 22.5t24.5 62.5q0 41 -31.5 63t-75.5 22h-22v38h22q44 0 69 23t25 59q0 34 -22 53t-56 19q-28 0 -54.5 -12.5t-42.5 -29.5l-18 35q48 46 118 46q56 0 89 -29t33 -81q0 -36 -21 -62.5
t-56 -36.5q42 -8 66 -37.5t24 -70.5q0 -59 -39.5 -92t-96.5 -33q-41 0 -73.5 12.5z" />
    <glyph glyph-name="asterisk" unicode="*" horiz-adv-x="452" 
d="M226 487l-95 -132l-36 26l96 130l-153 47l15 42l151 -48v156h44v-156l151 47l15 -41l-153 -47l96 -131l-36 -26z" />
    <glyph glyph-name="backslash" unicode="\" horiz-adv-x="378" 
d="M14 718l46 16l306 -741l-45 -15z" />
    <glyph glyph-name="periodcentered" unicode="&#xb7;" horiz-adv-x="255" 
d="M96.5 244q-12.5 13 -12.5 32t12.5 32t31.5 13q18 0 31.5 -13t13.5 -32t-13.5 -32t-31.5 -13q-19 0 -31.5 13z" />
    <glyph glyph-name="bullet" unicode="&#x2022;" horiz-adv-x="500" 
d="M161.5 201q-40.5 24 -64.5 64.5t-24 88.5t24 88.5t64.5 64.5t88.5 24t88.5 -24t64.5 -64.5t24 -88.5t-24 -88.5t-64.5 -64.5t-88.5 -24t-88.5 24z" />
    <glyph glyph-name="colon" unicode=":" horiz-adv-x="294" 
d="M116.5 394.5q-12.5 12.5 -12.5 31.5t12.5 32t30.5 13t31 -13t13 -31q0 -19 -13 -32t-31 -13t-30.5 12.5zM116.5 7q-12.5 13 -12.5 32q0 18 12.5 31.5t30.5 13.5t31 -13t13 -32t-13 -32t-31 -13t-30.5 13z" />
    <glyph glyph-name="comma" unicode="," horiz-adv-x="255" 
d="M82 -118l-23 15q24 24 43 55.5t24 65.5q-17 1 -29.5 13.5t-12.5 31.5t12.5 32t31.5 13t32 -14.5t13 -41.5q0 -85 -91 -170z" />
    <glyph glyph-name="ellipsis" unicode="&#x2026;" horiz-adv-x="1000" 
d="M134.5 6.5q-13.5 13.5 -13.5 32.5q0 18 13.5 31.5t31.5 13.5t31.5 -13t13.5 -32t-13.5 -32.5t-31.5 -13.5t-31.5 13.5zM469 6.5q-13 13.5 -13 32.5q0 18 13 31.5t32 13.5q18 0 31 -13t13 -32t-13 -32.5t-31 -13.5q-19 0 -32 13.5zM803 6.5q-13 13.5 -13 32.5
q0 18 13 31.5t31 13.5q19 0 32 -13t13 -32t-13.5 -32.5t-31.5 -13.5t-31 13.5z" />
    <glyph glyph-name="exclam" unicode="!" horiz-adv-x="303" 
d="M121 708h62l-3 -507h-57zM120.5 6.5q-13.5 13.5 -13.5 31.5q0 19 13 32t32 13q18 0 31 -13t13 -32q0 -18 -13 -31.5t-31 -13.5t-31.5 13.5z" />
    <glyph glyph-name="exclamdown" unicode="&#xa1;" horiz-adv-x="303" 
d="M120 418q-13 13 -13 32q0 18 13 31.5t32 13.5q18 0 31 -13t13 -32t-13 -32t-31 -13q-19 0 -32 13zM123 287h57l3 -507h-62z" />
    <glyph glyph-name="uni203D" unicode="&#x203d;" horiz-adv-x="487" 
d="M338 705q44 -20 70 -59t26 -93q0 -39 -12.5 -69t-31 -51.5t-53.5 -55.5q-32 -31 -47.5 -53t-21 -44t-5.5 -56v-21h-57v341h51l-1 -175l27 28q35 35 51.5 54t27.5 44t11 57q0 55 -39 87.5t-98 32.5q-53 0 -96.5 -22.5t-71.5 -56.5l-29 47q34 37 84 61t118 24q53 0 97 -20z
M268.5 70q12.5 -13 12.5 -32q0 -18 -12.5 -31.5t-30.5 -13.5t-31 13.5t-13 31.5q0 19 12.5 32t31.5 13q18 0 30.5 -13z" />
    <glyph glyph-name="numbersign" unicode="#" horiz-adv-x="561" 
d="M138 226h-104v43h109l24 171h-106v43h112l29 225h46l-30 -225h146l29 225h46l-30 -225h102v-43h-107l-24 -171h104v-43h-109l-30 -226h-46l30 226h-146l-30 -226h-45zM335 269l23 171h-146l-22 -171h145z" />
    <glyph glyph-name="period" unicode="." horiz-adv-x="255" 
d="M96.5 6q-12.5 13 -12.5 33q0 18 13 31.5t31 13.5t31.5 -13t13.5 -32t-13.5 -32.5t-31.5 -13.5q-19 0 -31.5 13z" />
    <glyph glyph-name="question" unicode="?" horiz-adv-x="487" 
d="M206 235q0 45 17 82t60 80q35 35 51.5 54t27.5 44t11 57q0 55 -39 87.5t-98 32.5q-53 0 -96.5 -22.5t-71.5 -56.5l-29 47q34 37 84 61t118 24q53 0 97 -20t70 -59t26 -93q0 -39 -12.5 -69t-31 -51.5t-53.5 -55.5q-32 -31 -47.5 -53t-21 -44t-5.5 -56v-21h-57v32zM207 6.5
q-13 13.5 -13 31.5q0 19 12.5 32t31.5 13q18 0 30.5 -13t12.5 -32q0 -18 -12.5 -31.5t-30.5 -13.5t-31 13.5z" />
    <glyph glyph-name="questiondown" unicode="&#xbf;" horiz-adv-x="487" 
d="M286.5 482q12.5 -13 12.5 -32t-12.5 -32t-31.5 -13q-17 0 -30 13t-13 32q0 18 12.5 31.5t30.5 13.5q19 0 31.5 -13zM287 253q0 -45 -17 -82t-60 -80q-34 -33 -51 -53t-28 -45t-11 -57q0 -54 39 -87t98 -33q53 0 96.5 22.5t71.5 56.5l29 -46q-35 -37 -85 -61t-117 -24
q-53 0 -97 20t-70 58.5t-26 92.5q0 39 12.5 69t31 51.5t53.5 55.5q32 31 47.5 53t21 44t5.5 56v21h57v-32z" />
    <glyph glyph-name="quotedbl" unicode="&#x22;" horiz-adv-x="420" 
d="M108 708h51v-237h-51v237zM261 708h51v-237h-51v237z" />
    <glyph glyph-name="quotesingle" unicode="'" horiz-adv-x="267" 
d="M108 708h51v-237h-51v237z" />
    <glyph glyph-name="semicolon" unicode=";" horiz-adv-x="294" 
d="M116.5 394.5q-12.5 12.5 -12.5 31.5t12.5 32t30.5 13t31 -13t13 -31q0 -19 -13 -32t-31 -13t-30.5 12.5zM176.5 93.5q12.5 -14.5 12.5 -41.5q0 -86 -90 -170l-23 15q24 23 44 54.5t25 66.5q-19 0 -31.5 13t-12.5 32t12.5 32t31.5 13t31.5 -14.5z" />
    <glyph glyph-name="slash" unicode="/" horiz-adv-x="378" 
d="M13 -7l306 741l46 -16l-307 -740z" />
    <glyph glyph-name="underscore" unicode="_" horiz-adv-x="500" 
d="M0 -86h500v-39h-500v39z" />
    <glyph glyph-name="uni208D" unicode="&#x208d;" horiz-adv-x="260" 
d="M117.5 39.5q26.5 -84.5 70.5 -146.5l-37 -24q-49 69 -77 157.5t-28 177.5q0 90 28 178.5t77 157.5l37 -23q-44 -62 -70.5 -147t-26.5 -166q0 -80 26.5 -164.5z" />
    <glyph glyph-name="uni208E" unicode="&#x208e;" horiz-adv-x="256" 
d="M167 43.5q-28 -88.5 -76 -157.5l-38 23q45 62 70.5 146t25.5 166q0 81 -26 166t-70 146l38 24q49 -70 76.5 -158.5t27.5 -177.5t-28 -177.5z" />
    <glyph glyph-name="braceleft" unicode="{" horiz-adv-x="307" 
d="M107.5 -124.5q-30.5 31.5 -30.5 97.5v186q0 58 -20 82.5t-56 24.5v44q36 0 56 24.5t20 81.5v187q0 66 30.5 97.5t81.5 31.5h57v-43h-47q-37 0 -54 -24.5t-17 -67.5v-186q0 -59 -23 -87.5t-54 -34.5v-2q30 -5 53.5 -34t23.5 -88v-186q0 -43 17 -67.5t54 -24.5h47v-43h-57
q-51 0 -81.5 31.5z" />
    <glyph glyph-name="braceright" unicode="}" horiz-adv-x="307" 
d="M62 -113h47q70 0 70 92v186q0 59 23.5 88t54.5 34v2q-31 6 -54.5 34.5t-23.5 87.5v186q0 92 -70 92h-47v43h57q51 0 81 -31.5t30 -97.5v-187q0 -106 76 -106v-44q-76 0 -76 -107v-186q0 -66 -30 -97.5t-81 -31.5h-57v43z" />
    <glyph glyph-name="bracketleft" unicode="[" horiz-adv-x="307" 
d="M70 732h159v-43h-108v-802h108v-43h-159v888z" />
    <glyph glyph-name="bracketright" unicode="]" horiz-adv-x="307" 
d="M79 -113h107v802h-107v43h159v-888h-159v43z" />
    <glyph glyph-name="parenleft" unicode="(" horiz-adv-x="307" 
d="M91.5 49.5q-36.5 117.5 -36.5 238.5t36.5 238.5t100.5 208.5l44 -24q-59 -82 -93.5 -197t-34.5 -226t34.5 -226t93.5 -197l-44 -24q-64 91 -100.5 208.5z" />
    <glyph glyph-name="parenright" unicode=")" horiz-adv-x="307" 
d="M70 -135q60 82 94.5 197t34.5 226t-34.5 226t-94.5 197l44 24q64 -91 100.5 -208.5t36.5 -238.5t-36.5 -238.5t-100.5 -208.5z" />
    <glyph glyph-name="uni207D" unicode="&#x207d;" horiz-adv-x="260" 
d="M117.5 332.5q26.5 -84.5 70.5 -146.5l-37 -24q-49 69 -77 157.5t-28 177.5q0 90 28 178.5t77 157.5l37 -23q-44 -62 -70.5 -147t-26.5 -166q0 -80 26.5 -164.5z" />
    <glyph glyph-name="uni207E" unicode="&#x207e;" horiz-adv-x="256" 
d="M167 334.5q-28 -88.5 -76 -157.5l-38 23q45 62 70.5 146t25.5 166q0 81 -26 166t-70 146l38 24q49 -70 76.5 -158.5t27.5 -177.5t-28 -177.5z" />
    <glyph glyph-name="uni2015" unicode="&#x2015;" horiz-adv-x="600" 
d="M30 274h540v-44h-540v44z" />
    <glyph glyph-name="emdash" unicode="&#x2014;" horiz-adv-x="600" 
d="M30 274h540v-44h-540v44z" />
    <glyph glyph-name="endash" unicode="&#x2013;" horiz-adv-x="400" 
d="M30 274h340v-43h-340v43z" />
    <glyph glyph-name="hyphen" unicode="-" horiz-adv-x="309" 
d="M53 277h204v-49h-204v49z" />
    <glyph glyph-name="uni00AD" unicode="&#xad;" horiz-adv-x="309" 
d="M53 277h204v-49h-204v49z" />
    <glyph glyph-name="uni2010" unicode="&#x2010;" horiz-adv-x="309" 
d="M53 277h204v-49h-204v49z" />
    <glyph glyph-name="guillemotleft" unicode="&#xab;" horiz-adv-x="492" 
d="M65 241l133 205l38 -25l-114 -180l115 -180l-39 -27zM245 241l133 205l39 -25l-115 -180l115 -180l-38 -27z" />
    <glyph glyph-name="guillemotright" unicode="&#xbb;" horiz-adv-x="492" 
d="M75 61l115 180l-115 180l38 26l135 -206l-134 -206zM256 61l114 180l-114 180l37 26l135 -206l-134 -206z" />
    <glyph glyph-name="guilsinglleft" unicode="&#x2039;" horiz-adv-x="316" 
d="M66 241l133 205l39 -25l-115 -180l116 -180l-39 -27z" />
    <glyph glyph-name="guilsinglright" unicode="&#x203a;" horiz-adv-x="316" 
d="M78 61l114 180l-115 180l38 26l134 -206l-133 -206z" />
    <glyph glyph-name="quotedblbase" unicode="&#x201e;" horiz-adv-x="423" 
d="M160 93.5q13 -14.5 13 -40.5q0 -86 -91 -171l-23 15q23 23 42.5 54.5t24.5 66.5q-17 1 -29.5 13.5t-12.5 31.5t12.5 32t31.5 13t32 -14.5zM327.5 93.5q12.5 -14.5 12.5 -40.5q0 -88 -91 -171l-23 15q24 23 43.5 54.5t24.5 66.5q-18 1 -30.5 13.5t-12.5 31.5t13 32t31 13
q20 0 32.5 -14.5z" />
    <glyph glyph-name="quotedblleft" unicode="&#x201c;" horiz-adv-x="423" 
d="M150 708l23 -15q-24 -23 -43.5 -54.5t-24.5 -66.5q18 -1 30.5 -13.5t12.5 -31.5t-13 -32t-32 -13t-31.5 15t-12.5 40q0 88 91 171zM297.5 638.5q-19.5 -31.5 -24.5 -66.5q17 -1 29.5 -13.5t12.5 -31.5t-12.5 -32t-31.5 -13t-32 15t-13 40q0 88 91 171l23 -15
q-23 -23 -42.5 -54.5z" />
    <glyph glyph-name="quotedblright" unicode="&#x201d;" horiz-adv-x="424" 
d="M160.5 693q12.5 -15 12.5 -41q0 -86 -90 -170l-23 15q24 24 43 55.5t24 65.5q-18 1 -30 13.5t-12 31.5t12.5 32t31.5 13t31.5 -15zM328 693q13 -15 13 -41q0 -87 -91 -170l-23 15q23 22 43 54t25 67q-18 1 -30.5 13.5t-12.5 31.5t13 32t31 13q19 0 32 -15z" />
    <glyph glyph-name="quoteleft" unicode="&#x2018;" horiz-adv-x="256" 
d="M130 637.5q-19 -31.5 -24 -65.5q18 -1 30.5 -13.5t12.5 -31.5t-13 -32t-32 -13t-31.5 15t-12.5 40q0 88 91 171l22 -15q-24 -24 -43 -55.5z" />
    <glyph glyph-name="quoteright" unicode="&#x2019;" horiz-adv-x="256" 
d="M160.5 693q12.5 -15 12.5 -41q0 -86 -90 -170l-23 15q24 24 43 55.5t24 65.5q-18 1 -30 13.5t-12 31.5t12.5 32t31.5 13t31.5 -15z" />
    <glyph glyph-name="quotesinglbase" unicode="&#x201a;" horiz-adv-x="255" 
d="M82 -118l-23 15q24 24 43 55.5t24 65.5q-17 1 -29.5 13.5t-12.5 31.5t12.5 32t31.5 13t32 -14.5t13 -41.5q0 -85 -91 -170z" />
    <glyph glyph-name="uni00A0" unicode="&#xa0;" horiz-adv-x="250" 
 />
    <glyph glyph-name="Euro" unicode="&#x20ac;" horiz-adv-x="580" 
d="M377 -19q-77 0 -137 35.5t-97.5 96.5t-50.5 136h-73l15 43h52q-3 23 -3 57q0 43 4 67h-66l14 43h59q27 128 106.5 198t190.5 70q41 0 80.5 -8.5t67.5 -23.5l-20 -49q-56 31 -131 31q-86 0 -148.5 -57.5t-84.5 -160.5h316l-14 -43h-310q-5 -30 -5 -67q0 -33 3 -57h275
l-14 -43h-255q11 -65 44 -114t82.5 -76t107.5 -27q86 0 142 42l20 -47q-63 -46 -170 -46z" />
    <glyph glyph-name="cent" unicode="&#xa2;" horiz-adv-x="580" 
d="M497 43q-26 -23 -66.5 -39t-86.5 -17v-60h-38v61q-63 6 -112.5 39t-77 86.5t-27.5 120.5q0 66 27.5 119.5t77 87t112.5 40.5v65h38v-63q44 -1 86 -16.5t67 -39.5l-24 -45q-23 22 -58 35.5t-71 15.5v-396q44 0 79 14t65 41zM191.5 105.5q42.5 -54.5 114.5 -65.5v391
q-72 -11 -114.5 -66.5t-42.5 -130.5q0 -74 42.5 -128.5z" />
    <glyph glyph-name="currency" unicode="&#xa4;" horiz-adv-x="842" 
d="M673 310q0 -97 -56 -166l94 -94l-35 -35l-95 95q-67 -54 -159 -54t-160 56l-97 -97q-16 19 -35 35l96 96q-54 67 -54 164q0 93 51 158l-93 92l36 34l91 -91q68 57 165 57q98 0 163 -56l90 90l36 -34l-90 -90q52 -66 52 -160zM321 481.5q-44 -26.5 -68 -71.5t-24 -100
q0 -56 24 -101.5t68 -72.5t101 -27t101 27t68 72.5t24 101.5q0 55 -24 100t-68 71.5t-101 26.5t-101 -26.5z" />
    <glyph glyph-name="dollar" unicode="$" horiz-adv-x="580" 
d="M444.5 47q-58.5 -50 -144.5 -57v-74h-39v74q-58 2 -114.5 22.5t-90.5 50.5l13 58q37 -35 88.5 -56t103.5 -23l1 292q-62 22 -102 44t-66.5 59.5t-26.5 95.5q0 79 56 127t139 57v74h39v-72q53 -1 103.5 -18t85.5 -42l-17 -55q-30 25 -77 44t-95 20l-1 -288
q67 -23 107 -43.5t68 -58.5t28 -98q0 -83 -58.5 -133zM161.5 450.5q33.5 -30.5 100.5 -56.5v272q-57 -8 -95.5 -41t-38.5 -88q0 -56 33.5 -86.5zM401.5 85q40.5 35 40.5 92q0 40 -18.5 66.5t-48 43t-75.5 33.5v-276q61 6 101.5 41z" />
    <glyph glyph-name="florin" unicode="&#x192;" horiz-adv-x="580" 
d="M20 -125l23 46q23 -13 50 -13q43 0 62.5 29.5t30.5 86.5l63 348h-112l11 43h109l27 149q13 72 46.5 114.5t102.5 42.5q52 0 85 -25l-25 -43q-27 17 -55 17q-77 0 -96 -108l-27 -147h127l-12 -43h-123l-70 -372q-12 -67 -45 -104t-98 -37q-45 0 -74 16z" />
    <glyph glyph-name="sterling" unicode="&#xa3;" horiz-adv-x="580" 
d="M75 51h11q48 0 71 34.5t23 80.5v177h-109l12 47h97v112q0 98 51 161t151 63q39 0 76 -11.5t65 -29.5l-23 -49q-23 17 -53 27.5t-64 10.5q-76 0 -109.5 -50t-33.5 -127v-107h178l-12 -47h-166v-171q0 -45 -17.5 -76.5t-49.5 -44.5h326l-11 -51h-413v51z" />
    <glyph glyph-name="yen" unicode="&#xa5;" horiz-adv-x="580" 
d="M262 185h-188l12 42h176v113h-188l12 43h157l-224 325h71l202 -310l202 310h67l-221 -325h166l-12 -43h-175v-113h187l-12 -42h-175v-185h-57v185z" />
    <glyph glyph-name="uni2126" unicode="&#x3a9;" horiz-adv-x="747" 
d="M252.5 637q-58.5 -35 -92 -99.5t-33.5 -151.5q0 -121 48.5 -197t142.5 -137v-52h-280v50h219q-92 55 -143 137.5t-51 202.5q0 98 41 173.5t114.5 117.5t167.5 42q97 0 170.5 -39.5t114 -114.5t40.5 -179q0 -122 -50 -204t-144 -136h219v-50h-281v52q98 58 145.5 136
t47.5 198q0 89 -33.5 154t-92.5 98.5t-136 33.5q-75 0 -133.5 -35z" />
    <glyph glyph-name="uni2126" unicode="&#x2126;" horiz-adv-x="747" 
d="M252.5 637q-58.5 -35 -92 -99.5t-33.5 -151.5q0 -121 48.5 -197t142.5 -137v-52h-280v50h219q-92 55 -143 137.5t-51 202.5q0 98 41 173.5t114.5 117.5t167.5 42q97 0 170.5 -39.5t114 -114.5t40.5 -179q0 -122 -50 -204t-144 -136h219v-50h-281v52q98 58 145.5 136
t47.5 198q0 89 -33.5 154t-92.5 98.5t-136 33.5q-75 0 -133.5 -35z" />
    <glyph glyph-name="approxequal" unicode="&#x2248;" horiz-adv-x="666" 
d="M82 372.5q30 36.5 90 36.5q30 0 63.5 -9.5t81.5 -26.5q50 -17 77 -24.5t51 -7.5q41 0 61 22t27 59h38q-6 -57 -37.5 -94t-91.5 -37q-29 0 -61.5 9t-83.5 28q-50 17 -75.5 24.5t-47.5 7.5q-76 0 -90 -80h-38q6 56 36 92.5zM82 184.5q30 37.5 89 37.5q30 0 63.5 -9
t82.5 -27q44 -16 73.5 -24.5t54.5 -8.5q73 0 87 80h39q-7 -56 -37.5 -93t-91.5 -37q-29 0 -62 9t-84 28q-43 16 -71.5 24.5t-50.5 8.5q-42 0 -63.5 -23t-26.5 -59h-39q7 56 37 93.5z" />
    <glyph glyph-name="asciitilde" unicode="~" horiz-adv-x="666" 
d="M91 273q55 94 133 94q29 0 53 -8t53 -28q68 -45 112 -45q33 0 58 21.5t48 57.5l31 -37q-59 -93 -134 -93q-30 0 -52.5 8t-52.5 28q-40 26 -62.5 35.5t-49.5 9.5q-34 0 -59.5 -21t-46.5 -59z" />
    <glyph glyph-name="divide" unicode="&#xf7;" horiz-adv-x="666" 
d="M298.5 436.5q-14.5 14.5 -14.5 35.5q0 20 14.5 35t34.5 15t35 -15t15 -35q0 -21 -15 -35.5t-35 -14.5t-34.5 14.5zM87 327h492v-48h-492v48zM298.5 99q-14.5 15 -14.5 35q0 21 14 35.5t35 14.5q20 0 35 -15t15 -35t-15 -35t-35 -15t-34.5 15z" />
    <glyph glyph-name="equal" unicode="=" horiz-adv-x="666" 
d="M89 412h488v-48h-488v48zM89 243h488v-47h-488v47z" />
    <glyph glyph-name="uni208C" unicode="&#x208c;" horiz-adv-x="368" 
d="M41 285h287v-28h-287v28zM41 186h287v-27h-287v27z" />
    <glyph glyph-name="uni207C" unicode="&#x207c;" horiz-adv-x="368" 
d="M40 571h287v-28h-287v28zM40 472h287v-27h-287v27z" />
    <glyph glyph-name="greater" unicode="&#x3e;" horiz-adv-x="666" 
d="M91 106l421 197l-421 197v51l484 -227v-42l-484 -227v51z" />
    <glyph glyph-name="greaterequal" unicode="&#x2265;" horiz-adv-x="666" 
d="M91 145l420 185l-420 185v52l484 -213v-48l-484 -213v52zM91 53h484v-48h-484v48z" />
    <glyph glyph-name="uni2206" unicode="&#x394;" horiz-adv-x="625" 
d="M583 29v-29h-577v30l259 683h60zM333 548q-15 40 -39 109q-21 -63 -36 -104l-188 -504h449z" />
    <glyph glyph-name="uni2206" unicode="&#x2206;" horiz-adv-x="625" 
d="M583 29v-29h-577v30l259 683h60zM333 548q-15 40 -39 109q-21 -63 -36 -104l-188 -504h449z" />
    <glyph glyph-name="infinity" unicode="&#x221e;" horiz-adv-x="747" 
d="M470.5 137q-45.5 32 -91.5 81q-50 -52 -93 -82.5t-90 -30.5q-60 0 -98 41t-38 105t37.5 105.5t97.5 41.5q46 0 91 -32.5t93 -84.5q47 52 91.5 84.5t90.5 32.5q60 0 98 -41t38 -105t-37.5 -105.5t-97.5 -41.5q-46 0 -91.5 32zM627 179q24 29 24 71q0 44 -24 73t-65 29
q-33 0 -68.5 -25t-85.5 -77q52 -52 86 -76t69 -24q40 0 64 29zM265.5 175q36.5 25 83.5 75q-50 51 -85.5 76.5t-68.5 25.5q-40 0 -64 -29.5t-24 -72.5q0 -42 24 -71t65 -29q33 0 69.5 25z" />
    <glyph glyph-name="integral" unicode="&#x222b;" horiz-adv-x="554" 
d="M125.5 -196.5q-18.5 11.5 -18.5 33.5q0 13 9.5 22t22.5 9q9 0 14 -4.5t13 -16.5q1 -2 5 -7t7.5 -7.5t8.5 -2.5q21 0 32.5 47t11.5 116v477v58q0 76 7 128.5t31.5 87.5t74.5 35q25 0 44.5 -11.5t19.5 -33.5q0 -15 -9 -23.5t-23 -8.5q-10 0 -16 5t-13 16q-6 9 -10 13t-11 4
q-22 0 -32.5 -48t-10.5 -122v-507q0 -88 -8.5 -145.5t-33 -91.5t-72.5 -34q-25 0 -43.5 11.5z" />
    <glyph glyph-name="less" unicode="&#x3c;" horiz-adv-x="666" 
d="M91 282v42l484 227v-51l-421 -197l421 -197v-51z" />
    <glyph glyph-name="lessequal" unicode="&#x2264;" horiz-adv-x="666" 
d="M91 306v48l484 213v-52l-420 -185l420 -185v-52zM91 53h484v-48h-484v48z" />
    <glyph glyph-name="logicalnot" unicode="&#xac;" horiz-adv-x="666" 
d="M532 363h-450v48h501v-276h-51v228z" />
    <glyph glyph-name="uni00B5" unicode="&#xb5;" horiz-adv-x="596" 
d="M509 0h-47l-7 91h-3q-44 -101 -163 -101q-54 0 -90.5 19.5t-54.5 54.5h-2l1 -94v-210h-57v708h57v-273q0 -74 38 -113t109 -39q86 0 124 50t38 147v228h57v-468z" />
    <glyph glyph-name="uni00B5" unicode="&#x3bc;" horiz-adv-x="596" 
d="M509 0h-47l-7 91h-3q-44 -101 -163 -101q-54 0 -90.5 19.5t-54.5 54.5h-2l1 -94v-210h-57v708h57v-273q0 -74 38 -113t109 -39q86 0 124 50t38 147v228h57v-468z" />
    <glyph glyph-name="minus" unicode="&#x2212;" horiz-adv-x="666" 
d="M89 329h488v-47h-488v47z" />
    <glyph glyph-name="uni208B" unicode="&#x208b;" 
d="M40 235h287v-28h-287v28z" />
    <glyph glyph-name="uni207B" unicode="&#x207b;" 
d="M40 520h287v-28h-287v28z" />
    <glyph glyph-name="multiply" unicode="&#xd7;" horiz-adv-x="666" 
d="M125 132l175 173l-175 174l34 34l175 -173l173 173l34 -33l-173 -174l174 -174l-35 -34l-173 172l-174 -172z" />
    <glyph glyph-name="notequal" unicode="&#x2260;" horiz-adv-x="666" 
d="M168 31l71 138h-152v48h177l67 135h-244v48h269l74 147l44 -21l-63 -126h160v-48h-186l-68 -135h254v-48h-279l-81 -160z" />
    <glyph glyph-name="partialdiff" unicode="&#x2202;" horiz-adv-x="513" 
d="M136.5 15q-44.5 30 -69 81.5t-24.5 113.5q0 65 24.5 113.5t68 74.5t99.5 26q50 0 95 -25t73 -68q2 44 2 65q0 78 -21.5 141.5t-63 100t-98.5 36.5q-33 0 -60 -11t-55 -34l-29 38q32 29 67 42.5t76 13.5q125 0 182 -101t57 -258q0 -184 -57.5 -281.5t-164.5 -97.5
q-57 0 -101.5 30zM356.5 109.5q37.5 75.5 42.5 170.5q-31 43 -71.5 69t-86.5 26q-66 0 -103 -49t-37 -117q0 -43 16 -83.5t47.5 -66t75.5 -25.5q79 0 116.5 75.5z" />
    <glyph glyph-name="percent" unicode="%" horiz-adv-x="839" 
d="M181 -8l437 746l39 -22l-439 -745zM128.5 403q-38.5 22 -61 60.5t-22.5 85.5q0 46 22.5 85t61 61.5t83.5 22.5q46 0 84 -22.5t60.5 -61.5t22.5 -85q0 -47 -22.5 -85.5t-60.5 -60.5t-84 -22q-45 0 -83.5 22zM297.5 462.5q35.5 35.5 35.5 86.5t-35.5 87t-85.5 36t-85 -35.5
t-35 -87.5q0 -51 35 -86.5t85 -35.5t85.5 35.5zM544 12.5q-38 22.5 -60.5 61t-22.5 84.5t22.5 84.5t60.5 61t84 22.5t84.5 -22.5t61 -61t22.5 -84.5t-22.5 -84.5t-61 -61t-84.5 -22.5t-84 22.5zM712.5 71.5q35.5 35.5 35.5 86.5q0 34 -16.5 62t-44 44.5t-59.5 16.5
q-50 0 -85 -35.5t-35 -87.5q0 -51 35 -86.5t85 -35.5q49 0 84.5 35.5z" />
    <glyph glyph-name="perthousand" unicode="&#x2030;" horiz-adv-x="1043" 
d="M102 -8l433 746l38 -21l-433 -745zM112.5 430.5q-35.5 20.5 -56 55.5t-20.5 77q0 43 20.5 78.5t56 56t77.5 20.5q41 0 76.5 -20.5t56.5 -56t21 -78.5q0 -42 -21 -77t-56.5 -55.5t-76.5 -20.5q-42 0 -77.5 20.5zM267.5 485q31.5 32 31.5 78q0 48 -31.5 80t-77.5 32
q-45 0 -76.5 -32t-31.5 -80q0 -46 31.5 -78t76.5 -32q46 0 77.5 32zM426 12.5q-35 20.5 -55.5 56t-20.5 77.5t20.5 77.5t55.5 56t76 20.5q42 0 77.5 -20.5t56.5 -56t21 -77.5t-21 -77.5t-56.5 -56t-77.5 -20.5q-41 0 -76 20.5zM779.5 12.5q-35.5 20.5 -56 56t-20.5 77.5
t20.5 77.5t56 56t77.5 20.5q41 0 76.5 -20.5t56 -56t20.5 -77.5t-20.5 -77.5t-56 -56t-76.5 -20.5q-42 0 -77.5 20.5zM580 67q32 32 32 79t-32 79.5t-78 32.5q-45 0 -76 -32.5t-31 -79.5t31 -79t76 -32q46 0 78 32zM934 67q31 32 31 79t-31 79.5t-77 32.5t-77 -32.5
t-31 -79.5t31 -79t77 -32t77 32z" />
    <glyph glyph-name="plus" unicode="+" horiz-adv-x="666" 
d="M309 280h-222v48h222v225h50v-225h221v-48h-221v-225h-50v225z" />
    <glyph glyph-name="uni208A" unicode="&#x208a;" 
d="M170 207h-131v28h131v132h28v-132h131v-28h-130v-132h-29v132z" />
    <glyph glyph-name="plusminus" unicode="&#xb1;" horiz-adv-x="666" 
d="M308 342h-224v48h223v175h51v-175h227v-48h-227v-172h-50v172zM87 94h495v-49h-495v49z" />
    <glyph glyph-name="uni207A" unicode="&#x207a;" 
d="M170 492h-131v28h131v132h28v-132h131v-28h-130v-132h-29v132z" />
    <glyph glyph-name="product" unicode="&#x220f;" horiz-adv-x="714" 
d="M81 786h553v-1000h-56v950h-441v-950h-56v1000z" />
    <glyph glyph-name="radical" unicode="&#x221a;" horiz-adv-x="496" 
d="M68 135l-56 -28l-21 44l103 48l156 -340l193 927h54l-210 -1001h-56z" />
    <glyph glyph-name="summation" unicode="&#x2211;" horiz-adv-x="608" 
d="M37 -168l328 458l-315 449v47h511v-50h-441l312 -446l-326 -454h466v-50h-535v46z" />
    <glyph glyph-name="uni2215" unicode="&#x2215;" horiz-adv-x="100" 
d="M-196 -8l433 746l37 -21l-433 -745z" />
    <glyph glyph-name="uni2219" unicode="&#x2219;" horiz-adv-x="255" 
d="M96.5 244q-12.5 13 -12.5 32t12.5 32t31.5 13q18 0 31.5 -13t13.5 -32t-13.5 -32t-31.5 -13q-19 0 -31.5 13z" />
    <glyph glyph-name="lozenge" unicode="&#x25ca;" horiz-adv-x="595" 
d="M105 356l166 391h51l169 -391l-169 -391h-51zM436 356l-140 340l-138 -340l138 -340z" />
    <glyph glyph-name="bar" unicode="|" horiz-adv-x="225" 
d="M87 750h51v-1000h-51v1000z" />
    <glyph glyph-name="brokenbar" unicode="&#xa6;" horiz-adv-x="225" 
d="M89 675h47v-341h-47v341zM89 169h47v-342h-47v342z" />
    <glyph glyph-name="at" unicode="@" horiz-adv-x="800" 
d="M222 30q-86 49 -133.5 134t-47.5 190q0 103 50 188.5t136 135t189 49.5q97 0 176.5 -39t126 -111t46.5 -167q0 -70 -23 -127t-66.5 -90t-102.5 -33q-41 0 -64.5 22t-24.5 59h-3q-17 -32 -50.5 -56.5t-79.5 -24.5q-60 0 -93.5 41t-33.5 103q0 59 25 116.5t70 94.5t103 37
q42 0 69 -21t34 -56h3l15 60h46l-54 -211q-10 -40 -10 -69q0 -51 57 -51q64 0 100 58.5t36 145.5q0 82 -39 144.5t-108 97t-156 34.5q-93 0 -166.5 -45t-115 -121t-41.5 -165q0 -94 42 -169t117.5 -117.5t171.5 -42.5q80 0 149.5 31.5t119.5 85.5l29 -31
q-56 -62 -133.5 -95.5t-168.5 -33.5q-111 0 -197 49zM439.5 239.5q32.5 35.5 49 85t16.5 86.5q0 42 -20 69.5t-62 27.5q-44 0 -77.5 -31.5t-51.5 -79.5t-18 -94q0 -42 21 -70.5t64 -28.5q46 0 78.5 35.5z" />
    <glyph glyph-name="ampersand" unicode="&#x26;" horiz-adv-x="717" 
d="M170 7.5q-49 23.5 -78 69t-29 107.5q0 72 43 121t123 88q-46 50 -67 89.5t-21 82.5q0 49 23 85.5t62 56t87 19.5q46 0 83.5 -19t60 -53.5t22.5 -79.5q0 -64 -42 -106t-124 -86l180 -191l103 183h67l-131 -220l148 -154h-78l-103 109q-44 -62 -98 -93.5t-123 -31.5
q-59 0 -108 23.5zM386 485q36 35 36 86q0 48 -31.5 78.5t-78.5 30.5q-48 0 -81 -32.5t-33 -82.5q0 -38 21.5 -73.5t60.5 -76.5q70 35 106 70zM383 63q45 30 78 85l-198 209q-66 -32 -103 -73t-37 -100q0 -45 21.5 -79t58 -53t79.5 -19q56 0 101 30z" />
    <glyph glyph-name="paragraph" unicode="&#xb6;" horiz-adv-x="603" 
d="M273 333q-63 0 -111.5 24.5t-75 65.5t-26.5 92q0 95 60 144t167 49h219v-835h-49v794h-135v-794h-49v460z" />
    <glyph glyph-name="uni2105" unicode="&#x2105;" horiz-adv-x="831" 
d="M173 -8l439 746l38 -22l-438 -745zM124 406.5q-38 21.5 -59.5 59.5t-21.5 87q0 74 46 121.5t118 47.5q35 0 67 -10.5t55 -28.5l-19 -42q-19 17 -46 27t-57 10q-52 0 -82.5 -36t-30.5 -89q0 -52 32.5 -88t85.5 -36q55 0 97 35l18 -39q-22 -19 -52 -29.5t-65 -10.5
q-48 0 -86 21.5zM501.5 35q-46.5 47 -46.5 122q0 73 46.5 120t119.5 47t119.5 -47t46.5 -120q0 -75 -46.5 -122t-119.5 -47t-119.5 47zM706.5 67q31.5 36 31.5 90q0 53 -31.5 88.5t-85.5 35.5q-53 0 -85 -35.5t-32 -88.5t32 -89.5t85 -36.5q54 0 85.5 36z" />
    <glyph glyph-name="copyright" unicode="&#xa9;" horiz-adv-x="800" 
d="M210.5 28q-87.5 50 -139 136t-51.5 189t51.5 189.5t139 137t190.5 50.5t190 -50.5t138 -137t51 -189.5t-51 -189t-138 -136t-190 -50t-190.5 50zM571 60q78 45 124 123t46 170q0 93 -45.5 171t-123.5 123.5t-171 45.5t-171.5 -45.5t-124.5 -123.5t-46 -171q0 -92 46 -170
t124.5 -123t171.5 -45q92 0 170 45zM302 155.5q-51 28.5 -79.5 80t-28.5 117.5q0 65 28.5 116.5t79.5 80.5t114 29q40 0 81 -14t66 -35l-16 -44q-24 22 -58.5 35.5t-72.5 13.5q-51 0 -90 -24.5t-60 -66t-21 -91.5q0 -49 21 -90.5t60 -66t91 -24.5q38 0 73.5 13.5t57.5 34.5
l6 -45q-22 -22 -59 -35t-79 -13q-63 0 -114 28.5z" />
    <glyph glyph-name="registered" unicode="&#xae;" horiz-adv-x="600" 
d="M186.5 299q-52.5 30 -83.5 81.5t-31 113.5t31 114t83.5 82t114.5 30t114 -30t82.5 -82t30.5 -114t-30.5 -113.5t-82.5 -81.5t-114 -30t-114.5 30zM400.5 320.5q45.5 27.5 72.5 73.5t27 100t-27 99.5t-72.5 72.5t-99.5 27q-55 0 -101 -27t-73 -72.5t-27 -99.5t27 -100
t73.5 -73.5t100.5 -27.5t99.5 27.5zM215 624h91q41 0 66.5 -19t25.5 -56q0 -29 -18 -47t-44 -22l72 -112h-46l-65 108h-43v-108h-39v256zM295 505q63 0 63 45q0 22 -15 31.5t-38 9.5h-51v-86h41z" />
    <glyph glyph-name="uni2117" unicode="&#x2117;" horiz-adv-x="800" 
d="M71.5 542.5q51.5 86.5 139 137t190.5 50.5t190 -50.5t138 -137t51 -189.5t-51 -189t-138 -136t-190 -50t-190.5 50t-139 136t-51.5 189t51.5 189.5zM105 183q46 -78 124.5 -123t171.5 -45q92 0 170 45t124 123t46 170q0 93 -45.5 171t-123.5 123.5t-171 45.5
t-171.5 -45.5t-124.5 -123.5t-46 -171q0 -92 46 -170zM440 567q69 0 112.5 -33.5t43.5 -100.5q0 -63 -42.5 -100.5t-109.5 -37.5h-108v-168h-50v440h154zM518 363q28 25 28 70t-29.5 68.5t-75.5 23.5h-105v-187h107q47 0 75 25z" />
    <glyph glyph-name="section" unicode="&#xa7;" horiz-adv-x="573" 
d="M157 -113q-50 23 -80 66l48 33q22 -36 60 -54t83 -18q53 0 90.5 27.5t37.5 79.5q0 31 -14.5 51t-49 38.5t-108.5 49.5q-47 21 -73.5 38t-42 43t-15.5 66q0 54 33.5 89.5t81.5 48.5q-44 23 -65.5 50.5t-21.5 76.5t25.5 84.5t67 53t90.5 17.5q57 0 100.5 -20.5t66.5 -57.5
l-45 -31q-16 27 -48.5 43.5t-73.5 16.5q-52 0 -88.5 -28t-36.5 -78q0 -31 13 -50t44 -36.5t103 -47.5q71 -29 106.5 -63t35.5 -89q0 -54 -32.5 -89t-81.5 -47q44 -22 66.5 -52t22.5 -74q0 -51 -26 -87.5t-69 -54.5t-94 -18q-60 0 -110 23zM394.5 207.5q30.5 26.5 30.5 71.5
q0 43 -29.5 68.5t-86.5 48.5l-54 22q-43 -7 -75 -33t-32 -73q0 -31 15 -51t36.5 -32t63.5 -30l58 -23q43 5 73.5 31.5z" />
    <glyph glyph-name="trademark" unicode="&#x2122;" horiz-adv-x="1000" 
d="M213 667h-136l10 41h310l-10 -41h-126v-371h-48v371zM487 708h71l141 -341l140 341h71v-412h-46v356h-2l-149 -356h-31l-147 356h-2v-356h-46v412z" />
    <glyph glyph-name="degree" unicode="&#xb0;" horiz-adv-x="403" 
d="M125.5 439q-34.5 20 -54 54.5t-19.5 75.5t19.5 75.5t54 54t75.5 19.5t75.5 -19.5t54.5 -54t20 -75.5t-20 -75.5t-54.5 -54.5t-75.5 -20t-75.5 20zM281 489q33 33 33 80t-33 80t-80 33q-46 0 -79 -33t-33 -80t33 -80t79 -33q47 0 80 33z" />
    <glyph glyph-name="estimated" unicode="&#x212e;" horiz-adv-x="587" 
d="M157 78q59 -59 145 -59q63 0 109.5 28.5t83.5 91.5l35 -21q-46 -72 -98 -103.5t-130 -31.5q-77 0 -135.5 36.5t-90.5 99.5t-32 140t32 140t90.5 99.5t135.5 36.5q76 0 134.5 -35t91.5 -98t33 -143h-404v-181zM448 440q-63 60 -147 60t-144 -60v-145h291v145z" />
    <glyph glyph-name="uni2113" unicode="&#x2113;" horiz-adv-x="500" 
d="M286 -14q-54 0 -87 31.5t-33 93.5v127l-59 -65h-2l-22 30l82 84v263q0 80 34 125.5t86 45.5q46 0 74 -33t28 -91q0 -142 -167 -321v-157q0 -49 23 -69.5t54 -20.5q46 0 88 38h2l21 -28q-54 -53 -122 -53zM324.5 656.5q-16.5 24.5 -40.5 24.5q-27 0 -45.5 -31t-18.5 -92
v-231q58 67 89.5 137t31.5 129q0 39 -16.5 63.5z" />
    <glyph glyph-name="asciicircum" unicode="^" horiz-adv-x="670" 
d="M312 708h47l222 -440h-53l-193 388l-193 -388h-53z" />
    <glyph glyph-name="dagger" unicode="&#x2020;" horiz-adv-x="544" 
d="M245 455h-197v48h197v205h54v-205h197v-48h-197v-582h-54v582z" />
    <glyph glyph-name="daggerdbl" unicode="&#x2021;" horiz-adv-x="544" 
d="M245 71h-194v49h194v341h-194v49h194v198h54v-198h194v-49h-194v-341h194v-49h-194v-198h-54v198z" />
    <glyph glyph-name="uniF8FF" unicode="&#xf8ff;" horiz-adv-x="512" 
d="M0 718h512v-718h-512v718zM462 50v617h-412v-617h412zM223 251q0 37 5 59t17 39t37 42q31 31 40.5 47t9.5 36q0 36 -22.5 60.5t-53.5 24.5q-33 0 -54.5 -23t-27.5 -72l-50 8q7 69 43 103t92 34q54 0 89 -36t35 -95q0 -33 -13 -60t-50 -60q-26 -23 -35.5 -36.5
t-11.5 -29.5t-2 -58h-46zM222 184h56v-67h-56v67z" />
    <glyph glyph-name="uni0374" unicode="&#x374;" horiz-adv-x="219" 
d="M78 544l54 186h67l-78 -186h-43z" />
    <glyph glyph-name="uni0375" unicode="&#x375;" horiz-adv-x="219" 
d="M199 21l-53 -186h-68l79 186h42z" />
    <glyph glyph-name="uni0326" unicode="&#x326;" horiz-adv-x="0" 
d="M-134 -45h57l-68 -187h-46z" />
    <glyph glyph-name="uni0326.alt" horiz-adv-x="0" 
d="M-101 752h47l-57 -187h-57z" />
    <glyph glyph-name="uni02C9" unicode="&#x2c9;" horiz-adv-x="250" 
d="M-5 851h260v-39h-260v39z" />
    <glyph glyph-name="acute" unicode="&#xb4;" horiz-adv-x="250" 
d="M180 709h68l-122 -144h-48z" />
    <glyph glyph-name="breve" unicode="&#x2d8;" horiz-adv-x="250" 
d="M29.5 607q-37.5 34 -43.5 97h36q8 -44 35.5 -67t66.5 -23q86 0 104 90h37q-8 -63 -46 -97t-95 -34t-94.5 34z" />
    <glyph glyph-name="caron" unicode="&#x2c7;" horiz-adv-x="250" 
d="M-14 709h52l87 -117l87 117h52l-108 -144h-62z" />
    <glyph glyph-name="cedilla" unicode="&#xb8;" horiz-adv-x="250" 
d="M64 -223.5q-26 5.5 -48 15.5l11 29q35 -17 83 -17q30 0 53 12t23 40q0 23 -18 33.5t-44 10.5q-13 0 -30 -3.5t-28 -8.5l-16 14l67 98h38l-54 -79q21 6 43 6q36 0 62 -17t26 -54q0 -46 -36.5 -65.5t-83.5 -19.5q-22 0 -48 5.5z" />
    <glyph glyph-name="circumflex" unicode="&#x2c6;" horiz-adv-x="250" 
d="M94 709h62l108 -144h-52l-87 118l-87 -118h-52z" />
    <glyph glyph-name="dieresis" unicode="&#xa8;" horiz-adv-x="250" 
d="M9 626q-12 12 -12 30q0 17 12.5 29t28.5 12q17 0 29 -12t12 -29q0 -18 -12 -30t-29 -12t-29 12zM184 626q-12 12 -12 30q0 17 12 29t29 12t29 -12t12 -29q0 -18 -12 -30t-29 -12t-29 12z" />
    <glyph glyph-name="dotaccent" unicode="&#x2d9;" horiz-adv-x="250" 
d="M96 626q-12 12 -12 30q0 17 12 29.5t29 12.5t29.5 -12.5t12.5 -29.5q0 -18 -13 -30t-29 -12q-17 0 -29 12z" />
    <glyph glyph-name="grave" unicode="`" horiz-adv-x="250" 
d="M2 709h68l102 -144h-48z" />
    <glyph glyph-name="hungarumlaut" unicode="&#x2dd;" horiz-adv-x="250" 
d="M143 709h68l-123 -144h-48zM215 709h67l-122 -144h-48z" />
    <glyph glyph-name="macron" unicode="&#xaf;" horiz-adv-x="250" 
d="M-5 652h260v-39h-260v39z" />
    <glyph glyph-name="ogonek" unicode="&#x2db;" horiz-adv-x="250" 
d="M59 -202.5q-26 22.5 -26 60.5q0 37 25.5 71t68.5 72h41q-48 -46 -68.5 -75t-20.5 -58q0 -25 15.5 -40t40.5 -15q17 0 33.5 7t27.5 19l17 -30q-17 -16 -41 -25t-49 -9q-38 0 -64 22.5z" />
    <glyph glyph-name="ring" unicode="&#x2da;" horiz-adv-x="250" 
d="M56 583q-29 28 -29 69t29 69.5t69 28.5q41 0 69.5 -28t28.5 -70q0 -41 -28.5 -69t-69.5 -28q-40 0 -69 28zM174.5 603q20.5 20 20.5 49t-20.5 49.5t-49.5 20.5t-49.5 -20.5t-20.5 -49.5t20.5 -49t49.5 -20t49.5 20z" />
    <glyph glyph-name="tilde" unicode="&#x2dc;" horiz-adv-x="250" 
d="M9 650.5q19 24.5 51 24.5q17 0 32.5 -5.5t36.5 -18.5q24 -13 37 -18t25 -5q34 0 42 48h33q-5 -41 -24 -64.5t-51 -23.5q-17 0 -32 5.5t-37 17.5q-22 13 -35.5 18t-26.5 5q-33 0 -43 -49h-32q5 41 24 65.5z" />
    <glyph glyph-name="caron.alt" horiz-adv-x="250" 
d="M151 708h57l-68 -187h-46z" />
    <glyph glyph-name="acute.cap" horiz-adv-x="250" 
d="M180 908h67l-122 -144h-48z" />
    <glyph glyph-name="breve.cap" horiz-adv-x="250" 
d="M29.5 805q-37.5 34 -43.5 97h36q8 -44 35.5 -66.5t66.5 -22.5q86 0 104 89h37q-8 -63 -46 -97t-95 -34t-94.5 34z" />
    <glyph glyph-name="caron.cap" horiz-adv-x="250" 
d="M-14 908h52l87 -117l87 117h52l-108 -144h-62z" />
    <glyph glyph-name="circumflex.cap" horiz-adv-x="250" 
d="M94 908h62l108 -144h-52l-87 117l-87 -117h-52z" />
    <glyph glyph-name="dieresis.cap" horiz-adv-x="250" 
d="M9 825q-12 12 -12 29t12.5 29t28.5 12q17 0 29 -12t12 -29q0 -18 -12 -29.5t-29 -11.5t-29 12zM184 825q-12 12 -12 29t12 29t29 12t29 -12t12 -29q0 -18 -12 -29.5t-29 -11.5t-29 12z" />
    <glyph glyph-name="dotaccent.cap" horiz-adv-x="250" 
d="M96 825q-12 12 -12 30q0 17 12 29t29 12t29.5 -12t12.5 -29q0 -18 -13 -30t-29 -12q-17 0 -29 12z" />
    <glyph glyph-name="grave.cap" horiz-adv-x="250" 
d="M3 908h68l102 -144h-48z" />
    <glyph glyph-name="hungarumlaut.cap" horiz-adv-x="250" 
d="M143 908h68l-123 -145h-48zM215 908h67l-122 -145h-48z" />
    <glyph glyph-name="macron.cap" horiz-adv-x="250" 
d="M-5 851h260v-40h-260v40z" />
    <glyph glyph-name="ring.cap" horiz-adv-x="250" 
d="M56 782q-29 28 -29 69t29 69t69 28q41 0 69.5 -28t28.5 -69t-28.5 -69t-69.5 -28q-40 0 -69 28zM174.5 801.5q20.5 20.5 20.5 49.5t-20.5 49.5t-49.5 20.5t-49.5 -20.5t-20.5 -49.5t20.5 -49.5t49.5 -20.5t49.5 20.5z" />
    <glyph glyph-name="tilde.cap" horiz-adv-x="250" 
d="M160 791.5q-15 5.5 -38 18.5q-22 13 -35.5 18t-26.5 5q-33 0 -43 -49h-32q5 41 24 65t51 24q16 0 31.5 -5.5t37.5 -17.5q23 -13 36 -18t26 -5q34 0 42 47h33q-5 -41 -24 -64.5t-51 -23.5q-16 0 -31 5.5z" />
    <glyph glyph-name="cyrbreve.cap" horiz-adv-x="250" 
d="M31 806q-37 35 -44 91l35 7q10 -45 37 -68t66 -23q40 0 67 23t36 68l36 -7q-7 -56 -44 -91t-95 -35q-57 0 -94 35z" />
    </font>
</defs>
</svg>
